<?xml version="1.0" encoding="UTF-8"?>
<svg id="Layer_2" data-name="Layer 2" xmlns="http://www.w3.org/2000/svg" viewBox="0 0 7.67 11.74">
  <defs>
    <style>
      .cls-1 {
        fill: #000;
        stroke-width: 0px;
      }
    </style>
  </defs>
  <g id="Layer_1-2" data-name="Layer 1">
    <g>
      <path class="cls-1" d="M1.39.35l.76.76.12-.12L1.51.23l-.12.12Z"/>
      <path class="cls-1" d="M.7,1.05l.87.87h0l-.87-.87-.41.41,2.09,2.09.17-.17c.12-.12.17-.17.46-.12l-.87-.87.87.87h0l.12.12.12.12-.06-.06-.17-.17L.87,1.1l-.06.06-.12-.12Z"/>
      <path class="cls-1" d="M3.55,2.03l-.17.17-.52-.52-.12.12s.23.23.35.58l-.06.41h0l1.22,1.22c-.12.12-.12.23,0,.35l.17.17.17.17c.12.12.17.17.06.29l-1.34-.87-.41.41.41.41.17.17.17.17.41.41.46-.46.29.29v.23s-.46.46-.46.46l-.35.35h0l-.12-.46-.46.46-.46.46c-.23.23-.35.46-.41.76l-.17.17-.12.12c-.06-.06-.17-.06-.29.06l-1.45,1.45-.52.52.46.46,4.53-4.53s.12-.12.29.06l-.06.29h0l-2.96,2.96-1.57,1.57.81.81.23-.23,2.73-2.73.12.12,1.51-1.51.64-.64.58-.58.35-.35L1.86,0l-.29.29,1.92,1.92.06-.17ZM2.96,7.27v-.35l.52-.17-.52.52ZM3.72,8.95h0l-.35.35-.12-.12h0s.06-.06,0-.23c.12-.12.17-.17.29-.06l.17.06ZM5.81,5.58l.12.12v.35s.12.12.12.12h-.35s.06.06.12.23c.06.06.12.12.06.17s-.06-.06-.17-.17l-.12-.12-.17-.17.46-.46-.06-.06ZM5.99,4.71l.17.17-.12.12h0c-.12-.12-.17-.17-.06-.29h0ZM5.23,5.11l-.29-.29.29.29ZM5.23,5.11h0l-.17.17-.12-.46.35.35-.06-.06Z"/>
      <polygon class="cls-1" points=".93 .81 2.56 2.32 2.38 2.15 2.79 1.74 2.15 1.1 1.74 1.51 .99 .76 .93 .81"/>
      <polygon class="cls-1" points="5.23 5.35 5.17 5.41 5.29 5.41 5.23 5.35"/>
    </g>
  </g>
</svg>