<?xml version="1.0" encoding="UTF-8"?>
<svg id="Layer_1" data-name="Layer 1" xmlns="http://www.w3.org/2000/svg" version="1.1" viewBox="0 0 184.5 185.4">
  <defs>
    <style>
      .cls-1 {
        isolation: isolate;
      }

      .cls-2 {
        fill: #fff;
        stroke-width: 0px;
      }
    </style>
  </defs>
  <g>
    <g class="cls-1">
      <g class="cls-1">
        <path class="cls-2" d="M113,64.2v-.6c0-.2,0-.4-.1-.6v-1h0c0,0,.2-.5.2-.5h0c0,0-.1,0-.2,0h0v-.5c0,0,0-.3.1-.4h.8c.2.4.3.9.5,1.3s.3.9.5,1.3h.1-.3l-.4.2h-.2c-.2,0-.3,0-.5.2h0c0,0-.1.2-.2.2v.3c0,0-.1.2-.2.2h-.1ZM113,64.5s.1.2.2.3.1.2.2.3h.4c0,.2-.1.4-.1.7s-.1.4-.3.4v-.2c-.1,0-.2-.3-.2-.7s0-.7-.1-.8h0ZM140.7,61.7h0q0-.2,0-.2h.6c0,0,0,0,0,0h0v.2s0,.2-.2.5v.4h0c0,0-.2.7-.2.7h0c0,.2,0,.4,0,.7,0,.4-.2.6-.3.7h0l-.2.8h0c0,.2-.2.4-.2.6s-.2.5-.2.7h0c0,0,0,.5,0,.5h0l-.3.9h0l-.2.7h0l-.4,1.1v.2h0v.3h0c0,0-.3.8-.3.8h0c0,0-.2.6-.2.6h0c0,0,0,.5,0,.5h0c0,.4-.2.7-.4,1-.2.3-.3.6-.4,1v.2h0l-.2.5h0l-.2.7h0l-.2.5h0v.2h0v.4h0c0,.2,0,.4-.2.5,0,0,0,.3,0,.3h0l-.2.4h0c0,0-.3.8-.3.8h0c0,0,0,0,0,0v.5h-.2l-.5,1.4h0c0,.3-.2.5-.3.8,0,.2-.2.5-.3.7h0c-.2.5-.4.9-.5,1.4-.2.4-.3.9-.5,1.3h0c0,.3-.2.4-.2.6s0,.4-.2.6h0l-.2.8h0c0,.2,0,.4-.2.5,0,0,0,.2,0,.4h0l-.2.4h0c-.8,1.6-1.5,3.2-2.1,4.9s-1.2,3.3-1.9,4.8l-.5-1.3h0c-.2-.4-.3-.8-.5-1.1-.2-.4-.3-.7-.4-1.1h0v-.5q-.2,0-.3-.2v-.2c.2,0,.3,0,.3-.2h0v-.5c0-.2,0-.3-.2-.3h-.2c0-.2-.3-.4-.5-.5,0-.4-.2-.7-.4-1.1-.2-.4-.3-.7-.5-1h0l-.3-.8h0c0-.3-.2-.7-.5-1.2-.2-.6-.5-1.1-.8-1.8-.3-.6-.5-1.2-.7-1.7s-.3-.8-.3-.9c0-.2,0-.3.2-.3h-.4c0-.3-.2-.6-.3-.9s-.3-.6-.4-.9l.3-.2c.1-.2.2-.3.2-.5s0,0,0,0h0s-.2,0-.4,0q-.2,0-.2,0h0l-.4-.2v-.4c0-.2.2-.3.4-.3.1-.2.2-.3.2-.3v-.5h0v-.2s-.2,0-.3-.2c0,0-.1,0-.1-.2h-.4l-.4-.4h-.5c0-.3-.2-.6-.4-.9s-.3-.6-.3-.9h0c-.2-.7-.5-1.4-.9-2.1-.3-.7-.6-1.3-.8-2h0v-.6h-.1c-.2-.3-.3-.6-.4-.8v-.5l-.4-.3c-.2-.5-.4-1-.6-1.5-.2-.5-.4-1-.6-1.6h.3c.1.2.2.3.2.5s.2.2.4.2.3,0,.4-.3v-.5c0-.3.1-.5.1-.5,0-.2,0-.3-.2-.5h-.3v-.6c.2,0,.3,0,.3-.3.2,0,.2-.3.2-.4v-.2c0-.3-.1-.5-.2-.7.2.2.3.4.4.5,0,0,.1.3.2.6v.2c.1,0,.1.2.1.2,0,0,.1.2.1.2h0c0,.2.1.3.2.4,0,0,0,.3.2.4h0q0,.2.1.2c0,.2.1.4.2.6s.1.4.2.6c0,0,.1.2.3.6s.3.7.3.7l.3.7c0,.2.1.4.2.5,0,.2,0,.3.1.3,0,0,.1,0,.1,0s0,.2.1.2c0,.2,0,.4.2.6,0,.2.2.4.2.6s.1.2.1.2h0v.4h.1c0,0,.3.7.3.7,0,0,0,0,.1.2v.2h0l.2.3v.2h0l.7,1.6v.2c0,0-.1,0-.1,0v.4c-.1,0,.2.5.2.5l.7.2c0,.4.2.7.4,1.1s.3.7.5,1.1h0c0,.2,0,.4.2.5,0,0,0,.3.2.5h0c0,.3.2.6.4.8,0,0,0,.3,0,.5v.3c.2.3.4.6.5,1,0,0,0,0,0,0,0,0,0,.2,0,.2v.5l.4.4,2.2,5.5h0l.2.7h0c0,0,.2.7.2.7h0c0,.4.2.7.4,1,0,.3.2.6.3.9,0,0,.2,0,.3-.4,0-.3,0-.4,0-.5l.4-.8s0-.2.3-.5c0-.4.2-.6.3-.7,0,0,0,0,0,0h0c0-.2,0,0,0-.2l.2-.7s0-.2.3-.6c0-.4.2-.6.3-.7,0,0,.2,0,.2-.2s0-.3.2-.4c0,0,0-.3,0-.4,0,0,.2,0,.2-.2h0c0,0,.3-.9.3-.9v-.2h0c0-.2,0-.3.2-.4,0,0,0-.3.2-.4v-.2c0,0,0-.2,0-.2v-.2c.2-.2.3-.3.3-.4s0-.3.2-.5c0,0,.2-.2.3-.6,0-.4.2-.6.2-.7,0,0,.2-.2.3-.5s.2-.5.2-.6v-.2h0c.2-.4.3-.8.5-1.2.2-.4.3-.8.4-1.1,0,0,0-.2.3-.6.2-.4.2-.6.2-.7,0,0,0,0,0-.2s0,0,0-.2c0-.2,0-.4.2-.6,0-.2.2-.4.2-.6h0c0-.2,0,0,0-.3l.2-.6v-.2c.2,0,.3-.3.3-.4,0-.2,0-.3.2-.5s0-.3,0-.3l.2-.2c0-.2,0-.4.2-.5,0-.2.2-.3.2-.5,0,0,0,0,0,0h0c0-.2,0,0,0-.2,0-.3.2-.6.4-.9,0-.3.3-.6.4-.9h0c0,0,0,.3-.2.4,0,0,0,.3-.2.4,0,0,0,0,0,0s0,0,0,0h0q0,0,0,.2c0,.2,0,.4-.2.5,0,0-.2.3-.2.5h0v.2c-.4.9-.8,1.9-1.1,2.8-.3.9-.7,1.9-1.2,2.7v.4c0,0-1,2.3-1,2.3v.2c0,0,0,.2,0,.3,0,0,0,.2,0,.3,0,0,0,.2,0,.4l-.2.2v.2s0,0,0,.2h0q0,0,0,.2l-.2.6v.2c0,.2-.2.3-.3.5,0,.2,0,.3-.2.5v.5c-.2.2-.3.3-.3.5s0,.4-.2.5c0,.2,0,.3,0,.3l-.2.2h0v.2c0,0,0,.2,0,.2l-.3.6v.2c0,0-.2.2-.2.2l-.4,1.1h0l-.6,1.5-.2.2h0l-1.2,2.9h0v.5c0,0,0,.2,0,.2,0-.2.2-.3.3-.5,0,0,0-.3.2-.5h0c0-.3.2-.5.2-.7h.2c.2-.8.4-1.5.8-2.1s.6-1.3.7-2h.2c0,0,0-.6,0-.6h0c0,0,0-.2,0-.3,0,0,0-.2,0-.4h0c0-.4.2-.7.4-1,.2-.3.2-.6.2-.8h0c0-.2,0-.4,0-.5,0,0,0-.3,0-.5h0l.5-1.3h0v-.6h0c0,0,0-.2,0-.4v-.3h0c0,0,.2-.7.2-.7h0l.5-1.3h0c.2-.6.5-1.2.8-1.8s.5-1.1.6-1.7h0l.2-.5h0l.6-1.7h0v-.5h0c0-.3.2-.5.3-.8,0-.2.2-.5.2-.7h0c.3-.6.5-1.2.7-1.7h0v-.5h0c0,0,0-.2,0-.4v-.5c.2,0,.3-.4.4-.8.2-.4.3-.8.4-1h0c0-.3.2-.6.4-.9,0-.3.2-.6.3-.8-.2.2-.3.4-.4.7h0c0,0-.2.7-.2.7v.2c0,0-.4.5-.4.5h0v.4h0c0,0,0,.2,0,.2,0-.2.2-.4.3-.7,0-.2.2-.5.3-.7v-.4h.2l.2-.5v-.2c0-.2.2-.3.4-.5h0c0,0,0-.2.2-.3v-.2c0,0,.2,0,.2,0h0v-.2c.2-.3.4-.6.5-.9.2-.3.3-.6.4-.9h0c0,0,.4-.8.4-.8h.4-.3s0,0,0,.2h0v.2l-1,.3ZM115.8,69.9v.2c.3,0,.4,0,.4-.2h-.4ZM116.3,69.2h0v-.2q-.1,0-.1,0h0c0,0,.1,0,.1,0ZM116.5,69.6h0l-.2-.2h0v.2h.2ZM116.7,70h0v-.2q-.1,0-.1,0h0c0,0,.1,0,.1,0ZM116.8,70.5h0v-.2q-.1,0-.1,0h0c0,0,.1,0,.1,0ZM117.1,71c0-.2-.1-.3-.2-.4v.2s0,0,.1.2h0ZM123.7,86.6h0v-.5h0c0,0-.4-1-.4-1h0c0,0,0-.4-.3-.8-.2-.4-.4-.8-.6-1.3-.2-.5-.4-.9-.6-1.4-.2-.4-.3-.7-.3-.9,0,0,0,0-.1,0v-.4c-.1,0-.3-.3-.4-.7-.1-.4-.3-.7-.3-.8h-.1c0,0-.1-.6-.1-.6h0v-.2h0c0-.2,0-.3-.1-.5,0-.2-.2-.4-.3-.6s-.2-.4-.3-.6c0-.2-.1-.3-.2-.3l-.5-1.3h0c0-.3-.1-.6-.2-.8-.1-.2-.2-.5-.3-.7h0l-.2-.7h0l-.4-1.2h0c0,0,0,0,0,0v.3c0,.2.1.4.2.6,0,.2.2.4.3.6,0,.2.1.3.2.4h0v.2c0,.2.1.3.1.3,0,.3.2.5.3.7h0c0,0,0,.2.2.3l1.2,3-.2.4v.4l.3-.6c.2.4.3.9.5,1.2.2.4.3.8.5,1.2,0,.2-.2.3-.4.3s-.3,0-.4.2h1c0,0,1.7,4.1,1.7,4.1h0q0,0,.1.2v.2h0l.2.5h0q0,0,0,.2h0v.2l.2.4h0c0,0,0,.2,0,.2,0,0,0,0,0,.2h0l.2.5v.2l.2.2,1.3,3.2h0c0,0,0,.2.2.3l.2.8h0l.3.8h0c0,.2,0,.4.2.5,0,0,0,.3.2.4v-.8h0l-.2-.5h0v-.4h0c0-.3-.2-.5-.3-.8,0-.2-.2-.5-.3-.7v-.4s-.3-.2-.4-.7c-.2-.5-.3-.8-.4-1,.3,0,.5,0,.5-.3h0c0,0-.3-.4-.3-.4l-.4.2c0-.3-.2-.6-.3-.8,0-.3-.3-.5-.3-.8l-.8.2ZM126.2,96h1.6l-.4-.6-.2.4h-.4l-.2-.4c0,.2,0,.3,0,.4,0,0,0,.2,0,.3h-.2ZM126.7,93.5l.3.6h0v-.4s0-.2.2-.3l-.3-.5h0v.3c0,.1,0,.2,0,.3h0ZM127,94.7v-.4c0,0,0,.2,0,.2h0c0,0,0,.2.2.2h0ZM129.1,92.1h0c0,0,0-.2,0-.2h0v.2ZM130.8,88.7c0-.2-.2-.4-.5-.4h-.3v.3c0,.3,0,.4.4.4s.4,0,.4-.4h0ZM137.4,68.7h0c0,0,0,.2,0,.3h0v-.2h0ZM137.7,68.3h0v.3h0v-.2h0Z"/>
        <path class="cls-2" d="M146.2,64.2v-.6c0-.2,0-.4,0-.6v-1h0c0,0,.2-.5.2-.5h0c0,0,0,0-.2,0h0v-.5c0,0,0-.3,0-.4h.8c.2.4.3.9.5,1.3s.3.9.5,1.3h0-.3l-.4.2h-.2c-.2,0-.3,0-.5.2h0c0,0,0,.2-.2.2v.3c0,0,0,.2-.2.2h-.1ZM146.2,64.5s0,.2.2.3,0,.2.2.3h.4c0,.2,0,.4,0,.7s0,.4-.3.4v-.2c0,0-.2-.3-.2-.7s0-.7,0-.8h0ZM173.8,61.7h0q0-.2,0-.2h.6c0,0,0,0,0,0h0v.2s0,.2-.2.5v.4h0c0,0-.2.7-.2.7h0c0,.2,0,.4,0,.7,0,.4-.2.6-.3.7h0l-.2.8h0c0,.2-.2.4-.2.6s-.2.5-.2.7h0c0,0,0,.5,0,.5h0l-.3.9h0l-.2.7h0l-.4,1.1v.2h0v.3h0c0,0-.3.8-.3.8h0c0,0-.2.6-.2.6h0c0,0,0,.5,0,.5h0c0,.4-.2.7-.4,1-.2.3-.3.6-.4,1v.2h0l-.2.5h0l-.2.7h0l-.2.5h0v.2h0v.4h0c0,.2,0,.4-.2.5,0,0,0,.3,0,.3h0l-.2.4h0c0,0-.3.8-.3.8h0c0,0,0,0,0,0v.5h-.2l-.5,1.4h0c0,.3-.2.5-.3.8,0,.2-.2.5-.3.7h0c-.2.5-.4.9-.5,1.4-.2.4-.3.9-.5,1.3h0c0,.3-.2.4-.2.6s0,.4-.2.6h0l-.2.8h0c0,.2,0,.4-.2.5,0,0,0,.2,0,.4h0l-.2.4h0c-.8,1.6-1.5,3.2-2.1,4.9s-1.2,3.3-1.9,4.8l-.5-1.3h0c-.2-.4-.3-.8-.5-1.1-.2-.4-.3-.7-.4-1.1h0v-.5c-.2,0-.3,0-.3-.2v-.2c.2,0,.3,0,.3-.2h0v-.5c0-.2,0-.3-.2-.3h-.2c0-.2-.3-.4-.5-.5,0-.4-.2-.7-.4-1.1-.2-.4-.3-.7-.5-1h0l-.3-.8h0c0-.3-.2-.7-.5-1.2-.2-.6-.5-1.1-.8-1.8-.3-.6-.5-1.2-.7-1.7s-.3-.8-.3-.9c0-.2,0-.3.2-.3h-.4c0-.3-.2-.6-.3-.9,0-.3-.3-.6-.4-.9l.3-.2c0-.2.2-.3.2-.5s0,0,0,0h0s-.2,0-.4,0q-.2,0-.2,0h0l-.4-.2v-.4c0-.2.2-.3.4-.3,0-.2.2-.3.2-.3v-.5h0v-.2s-.2,0-.3-.2c0,0,0,0,0-.2h-.4l-.4-.4h-.5c0-.3-.2-.6-.4-.9-.2-.3-.3-.6-.3-.9h0c-.2-.7-.5-1.4-.9-2.1-.3-.7-.6-1.3-.8-2h0v-.6h0c-.2-.3-.3-.6-.4-.8v-.5l-.4-.3c-.2-.5-.4-1-.6-1.5s-.4-1-.6-1.6h.3c0,.2.2.3.2.5s.2.2.4.2.3,0,.4-.3v-.5c0-.3,0-.5,0-.5,0-.2,0-.3-.2-.5h-.3v-.6c.2,0,.3,0,.3-.3.2,0,.2-.3.2-.4v-.2c0-.3,0-.5-.2-.7.2.2.3.4.4.5,0,0,0,.3.2.6v.2c0,0,0,.2,0,.2,0,0,0,.2,0,.2h0c0,.2,0,.3.2.4,0,0,0,.3.2.4h0q0,.2,0,.2c0,.2,0,.4.2.6s0,.4.2.6c0,0,0,.2.3.6.2.4.3.7.3.7l.3.7c0,.2,0,.4.2.5,0,.2,0,.3,0,.3,0,0,0,0,0,0s0,.2,0,.2c0,.2,0,.4.2.6,0,.2.2.4.2.6s0,.2,0,.2h0v.4h0c0,0,.3.7.3.7,0,0,0,0,0,.2v.2h0l.2.3v.2h0l.7,1.6v.2h-.2v.4c0,0,.2.5.2.5l.7.2c0,.4.2.7.4,1.1.2.4.3.7.5,1.1h0c0,.2,0,.4.2.5,0,0,0,.3.2.5h0c0,.3.2.6.4.8,0,0,0,.3,0,.5v.3c.2.3.4.6.5,1,0,0,0,0,0,0,0,0,0,.2,0,.2v.5l.4.4,2.2,5.5h0l.2.7h0c0,0,.2.7.2.7h0c0,.4.2.7.4,1,0,.3.2.6.3.9,0,0,.2,0,.3-.4,0-.3,0-.4,0-.5l.4-.8s0-.2.3-.5c0-.4.2-.6.3-.7,0,0,0,0,0,0h0c0-.2,0,0,0-.2l.2-.7s0-.2.3-.6c0-.4.2-.6.3-.7,0,0,.2,0,.2-.2s0-.3.2-.4c0,0,0-.3,0-.4,0,0,.2,0,.2-.2h0c0,0,.3-.9.3-.9v-.2h0c0-.2,0-.3.2-.4,0,0,0-.3.2-.4v-.2c0,0,0-.2,0-.2v-.2c.2-.2.3-.3.3-.4s0-.3.2-.5c0,0,.2-.2.3-.6,0-.4.2-.6.2-.7,0,0,.2-.2.3-.5,0-.3.2-.5.2-.6v-.2h0c.2-.4.3-.8.5-1.2.2-.4.3-.8.5-1.1,0,0,0-.2.3-.6.2-.4.2-.6.2-.7,0,0,0,0,0-.2s0,0,0-.2c0-.2,0-.4.2-.6,0-.2.2-.4.2-.6h0c0-.2,0,0,0-.3l.2-.6v-.2c.2,0,.3-.3.3-.4,0-.2,0-.3.2-.5s0-.3,0-.3l.2-.2c0-.2,0-.4.2-.5,0-.2.2-.3.2-.5,0,0,0,0,0,0h0c0-.2,0,0,0-.2,0-.3.2-.6.4-.9s.3-.6.4-.9h0c0,0,0,.3-.2.4,0,0,0,.3-.2.4,0,0,0,0,0,0s0,0,0,0h0q0,0,0,.2c0,.2,0,.4,0,.5s-.2.3-.2.5h0v.2c-.4.9-.8,1.9-1.1,2.8-.3.9-.7,1.9-1.2,2.7v.4c0,0-1,2.3-1,2.3v.2c0,0,0,.2,0,.3,0,0,0,.2,0,.3,0,0,0,.2,0,.4l-.2.2v.2s0,0,0,.2h0q0,0,0,.2l-.2.6v.2c0,.2-.2.3-.3.5,0,.2,0,.3-.2.5v.5c-.2.2-.3.3-.3.5s0,.4-.2.5c0,.2,0,.3,0,.3l-.2.2h0v.2c0,0,0,.2,0,.2l-.3.6v.2c0,0-.2.2-.2.2l-.4,1.1h0l-.6,1.5-.2.2h0l-1.2,2.9h0v.5c0,0,0,.2,0,.2,0-.2.2-.3.3-.5,0,0,0-.3.2-.5h0c0-.3.2-.5.2-.7h.2c.2-.8.4-1.5.8-2.1s.6-1.3.7-2h.2c0,0,0-.6,0-.6h0c0,0,0-.2,0-.3,0,0,0-.2,0-.4h0c0-.4.2-.7.4-1,.2-.3.2-.6.2-.8h0c0-.2,0-.4.2-.5,0,0,0-.3,0-.5h0l.5-1.3h0v-.6h0c0,0,0-.2,0-.4v-.3h0c0,0,.2-.7.2-.7h0l.5-1.3h0c.2-.6.5-1.2.8-1.8s.5-1.1.6-1.7h0l.2-.5h0l.6-1.7h0v-.5h0c0-.3.2-.5.3-.8,0-.2.2-.5.2-.7h0c.3-.6.5-1.2.7-1.7h0v-.5h0c0,0,0-.2,0-.4v-.5c.2,0,.3-.4.5-.8s.3-.8.4-1h0c0-.3.2-.6.4-.9,0-.3.2-.6.3-.8-.2.2-.3.4-.4.7h0c0,0-.2.7-.2.7v.2c0,0-.4.5-.4.5h0v.4h0c0,0,0,.2,0,.2,0-.2.2-.4.3-.7,0-.2.2-.5.3-.7v-.4h.2l.2-.5v-.2c0-.2.2-.3.4-.5h0c0,0,0-.2.2-.3v-.2c0,0,.2,0,.2,0h0v-.2c.2-.3.4-.6.5-.9.2-.3.3-.6.4-.9h0c0,0,.4-.8.4-.8h.4-.3s0,0,0,.2h0v.2l-1.3.3ZM149,69.9v.2c.3,0,.4,0,.4-.2h-.4ZM149.5,69.2h0v-.2q0,0,0,0h0c0,0,0,0,0,0ZM149.7,69.6h0l-.2-.2h0v.2h.2ZM149.8,70h0v-.2q0,0,0,0h0c0,0,0,0,0,0ZM150,70.5h0v-.2q0,0,0,0h0c0,0,0,0,0,0ZM150.3,71c0-.2,0-.3-.2-.4v.2s0,0,.2.2ZM156.9,86.6h0v-.5h0c0,0-.4-1-.4-1h0c0,0,0-.4-.3-.8-.2-.4-.4-.8-.6-1.3s-.4-.9-.6-1.4-.3-.7-.3-.9c0,0,0,0,0,0v-.4c0,0-.2-.3-.4-.7,0-.4-.3-.7-.3-.8h0c0,0,0-.6,0-.6h0v-.2h0c0-.2,0-.3,0-.5,0-.2-.2-.4-.3-.6,0-.2-.2-.4-.3-.6,0-.2,0-.3-.2-.3l-.5-1.3h0c0-.3,0-.6-.2-.8s-.2-.5-.3-.7h0l-.2-.7h0l-.4-1.2h0c0,0,0,0,0,0v.3c0,.2,0,.4.2.6,0,.2.2.4.3.6,0,.2,0,.3.2.4h0v.2c0,.2,0,.3,0,.3,0,.3.2.5.3.7h0c0,0,0,.2.2.3l1.2,3-.2.4v.4l.3-.6c.2.4.3.9.5,1.2.2.4.4.8.5,1.2,0,.2-.2.3-.4.3s-.3,0-.4.2h1c0,0,1.7,4.1,1.7,4.1h0q0,0,0,.2v.2h0l.2.5h0q0,0,0,.2h0v.2l.2.4h0c0,0,0,.2,0,.2,0,0,0,0,0,.2h0l.2.5v.2l.2.2,1.3,3.2h0c0,0,0,.2.2.3l.2.8h0l.3.8h0c0,.2,0,.4.2.5,0,0,0,.3.2.4v-.8h0l-.2-.5h0v-.4h0c0-.3-.2-.5-.3-.8,0-.2-.2-.5-.3-.7v-.4s-.3-.2-.5-.7-.3-.8-.4-1c.3,0,.5,0,.5-.3h0c0,0-.3-.4-.3-.4l-.4.2c0-.3-.2-.6-.3-.8,0-.3-.2-.5-.3-.8l-.7.2ZM159.4,96h1.6l-.4-.6-.2.4h-.4l-.2-.4c0,.2,0,.3,0,.4,0,0,0,.2,0,.3h-.2ZM159.9,93.5l.3.6h0v-.4c0,0,0-.2,0-.3l-.3-.5h0v.3s0,.2-.2.3h0ZM160.2,94.7v-.4c0,0,0,.2,0,.2h0c0,0,0,.2.2.2h0ZM162.3,92.1h0c0,0,0-.2,0-.2h0v.2ZM163.9,88.7c0-.2-.2-.4-.5-.4h-.3v.3c0,.3,0,.4.4.4s.4,0,.4-.4h0ZM170.6,68.7h0c0,0,0,.2,0,.3h0v-.2h0ZM170.8,68.3h0v.3h0v-.2h0Z"/>
      </g>
    </g>
    <g>
      <path class="cls-2" d="M175.5,88.7l1.2,1.2.2-.2-1.2-1.2-.2.2Z"/>
      <path class="cls-2" d="M174.4,89.8h0l-.6.6,3.2,3.2.3-.3c.2-.2.3-.3.7-.2l-3.3-3.3h-.3Z"/>
      <path class="cls-2" d="M178.8,91.3l-.3.3-.8-.8-.2.2c.2.3.4.6.5.9v.6l1.8,1.9c0,0-.2.3,0,.5h0l.5.5c.2.2.3.3,0,.4l-2.1-1.3-.6.6,1.8,1.8.7-.7.4.4v.4l-1.3,1.3h0l-.2-.7-1.4,1.4c-.3.3-.5.7-.6,1.2l-.4.4h-.4l-3,3,.7.7,7-7s.2-.2.4,0v.4h0l-7,7,1.3,1.3,4.6-4.6.2.2,4.8-4.8-9-9-.4.4,3,3v-.3.4ZM177.9,99.4v-.5l.8-.3-.8.8ZM179.1,102h0l-.5.5-.2-.2v-.4c.2-.2.3-.3.4,0h.3,0ZM182.3,96.8l.2.2v.5l.2.2h-.5c0,0,0,.2.2.4,0,0,.2.2,0,.3s0,0-.3-.3l-.4-.4.7-.7h0v-.2ZM182.6,95.4l.3.3-.2.2h0c-.2-.2-.3-.3,0-.4h-.1ZM181.4,96.1h0ZM181.4,96.1h0l-.3.3-.2-.7.4.4h0Z"/>
      <path class="cls-2" d="M174.8,89.4l2.5,2.3-.3-.3.6-.6-1-1-.6.6-1.2-1.2h0v.2Z"/>
      <path class="cls-2" d="M181.4,96.4h.2-.2Z"/>
    </g>
  </g>
  <g>
    <g class="cls-1">
      <g class="cls-1">
        <path class="cls-2" d="M32.1,53.3c0,.3-.2.6-.2.9s-.1.5-.2.8c-.3.2-.6.3-.8.4-.3,0-.5.3-.8.5,0-.2,0-.3-.2-.4-.1,0-.2.2-.2.2v.4c-.2,0-.4.3-.7.5-.3.3-.7.6-1,.9-.4.3-.7.7-.9,1-.3.3-.4.5-.5.7l-.6.3v.5c-.7.6-1.2,1.5-1.6,2.6-.4,1.1-.6,2.3-.8,3.5s-.3,2.5-.3,3.7v3.1h-.2c0,0-.1-.2-.1-.2h-.2c0,0-.4-.3-.4-.3h-.5v-2c0-1.9.2-3.8.7-5.8.4-1.9,1.2-3.6,2.3-5.2h0s0,0,.1-.2h0c0-.3.2-.5.3-.6.1-.2.2-.3.4-.4v-.2c.4-.4.9-.8,1.5-1.3.5-.5,1-1,1.4-1.4h0s.1,0,.2,0l.2-.2h.1l.4-.2h.2v-.2h.2c0,0,0-.2.2-.3h.3c.2,0,.3-.2.5-.3.2,0,.4-.2.6-.2,0,0,.2-.2.4-.2h.4l-.2-.3ZM23.1,74.2l.2-.4h.1c0,.4,0,.7.1,1,0,.3,0,.6.2.9h-.3c-.2.3-.2.4-.2.5v.4c.3,0,.4,0,.5,0h.2c0,.2,0,.5.2.8s.3.6.4.8c-.2.2-.2.4-.2.6v.8l.2.2h.2l.5.4v.4h0v-.2s0,0,.1,0h0c.6.6,1.2,1.2,1.6,1.9.4.7,1,1.3,1.7,1.9h0c.1.2.3.3.5.5s.4.3.5.4h.2c.2.2.4.3.6.4v.4h.2c0-.2,0,0,.1,0s.2,0,.3,0,.2,0,.4.2h.1c0,0,.1,0,.1,0,.1,0,.2,0,.4.2.1,0,.3,0,.4.2h.2c.1,0,.2,0,.4,0s.3.2.5.3h0c1,0,2.1.3,3.1.5s2.1.4,3.3.4.6,0,1.1,0,1.1,0,1.7-.2c.6,0,1.1-.2,1.6-.2h.7c0,0,0,.2-.2.2h-.4l-.4.4c0,.3.3.5.7.5-.2,0-.4.2-.8.2h-.9s-.3,0-.7.2-.8,0-1.2,0h-3.7c-.7,0-1.3,0-2,0-.7,0-1.3-.2-1.9-.3-.6,0-1.2-.3-1.6-.5-.2,0-.6-.3-1.1-.5s-.9-.4-1.2-.5l-.2-.2h-.4c0,0-.2-.3-.2-.3h-.2v-.2c-.8-.2-1.5-.8-2.1-1.6-.6-.8-1.2-1.5-1.7-2v-.2h-.2c0-.2-.1-.2-.2-.4h0c0,0-.2-.3-.2-.3v-.2h-.1v-.2c-.1,0-.2,0-.3-.2-.1,0-.2-.2-.2-.3h0c-.1-.4-.3-.7-.4-.9-.1-.2-.3-.5-.4-.8h0c0,0-.2-.5-.2-.5h0c0-.2-.1-.5-.2-.9-.1-.4-.2-.6-.3-.7,0,0,.1-.2.2-.3,0,0,0-.2.2-.3v-.4c0,0,.1-.2.2-.4,0,0,.1-.2.3-.3v-1.3ZM33.8,54.4s0,.2.1.4h0q0,0,.1,0v.2c.1,0-.4.3-.4.3h-.2l-.7.2h0c-.1,0-.3.2-.7.3h-.1c0,0-.2,0-.2,0h0l-.5.3s-.1,0-.3.2c-.1,0-.3,0-.3,0h0c0,.2-.2.2-.4.4-.2,0-.3.2-.3.2h0c-.3.3-.7.6-1,1s-.7.6-1,.8h-.1v.4h-.3v.4h-.2v.4h-.1v.4c-.8,1.3-1.3,2.5-1.7,3.5-.4,1-.6,2-.8,2.9-.2,1-.3,2-.3,3v3.5c0,1.3,0,0-.2,0h-.1l-.2.4c-.1-.6-.2-1.1-.2-1.8v-1.8c0-1.2.1-2.4.4-3.7.2-1.3.6-2.5,1-3.5h0c.2-.4.4-.9.7-1.3.2-.4.5-.8.7-1.3l.5-.2v-.3c0-.2,0-.4.2-.5s.4-.3.5-.5h.5v-.6l.3-.3c.1-.1.2-.2.4-.2l.4-.4h.1s.1,0,.1,0l.2-.2s0,0,.1,0h.1c.2-.2.3-.3.4-.4h0s.1,0,.3-.2c.2,0,.3-.2.5-.3.2,0,.4-.2.5-.3.2,0,.3-.2.4-.2h0c0,0,.3-.2.3-.2.3,0,.6-.2.9-.3.3,0,.6-.2.8-.4l-.2-.2ZM23.6,73.6c.2.2.3.2.4.2h0v.5c0,.2.2.5.5.7,0,.3.1.5.1.4,0,0,0,.2-.2.3h-.4c0-.3-.2-.7-.2-1.1s-.1-.8-.2-1.2v.2ZM24.2,76.4v-.3h.5c0,.3.2.6.3.9s.2.6.3.9h-.3q-.1,0-.2,0s-.1-.2-.2-.3c0,0-.1-.2-.2-.3.2,0,.3-.3.3-.5s0-.3-.2-.4c-.1,0-.3,0-.5-.2h.2ZM26.1,79.6h.1c.2.6.6,1.2,1.2,1.9.6.7,1.1,1.2,1.6,1.6h0c1.1,1.1,2.3,1.8,3.7,2.2h0l.5.2h0l.4.2h.4c.4.2.8.3,1.3.4s1,.2,1.5.2,1,0,1.5,0h1.3c.6,0,1.1,0,1.7,0h1.7c0,0,.4,0,.4,0h.2l.6-.2h.3v.2c0,.2-.1.2-.3.2h-.5c-.8.2-1.6.3-2.4.4-.8,0-1.6.2-2.4.2-1.8,0-3.6-.3-5.5-.8-.3,0-.6-.2-1-.3-.3,0-.6-.2-1-.3v-.2h-.5c0,0-.2-.2-.2-.2l-.2-.2h-.2c-.1,0-.2-.2-.2-.2h0c-.2,0-.4-.3-.6-.5h0c-.1,0-.2,0-.2-.2h-.2s-.2-.2-.4-.4c-.2-.2-.5-.4-.7-.6s-.5-.4-.7-.6l-.4-.2v-.2l-.4-.2v-.2c-.2,0-.4-.3-.7-.8-.3-.4-.4-.7-.4-.9h.1c.2,0,.2,0,.2-.2l.4-.2ZM26.9,83h-.5v.5h.2c.2,0,.3,0,.3-.4h0ZM48.8,70.9c0,0,0,.2-.2.2h-.3c-3,0-6,0-8.9,0h-8.9c-.3-.3-.4-.6-.4-1v-.3h18.6c.2,0,.3.2.3.4s.1.4.3.5q.2,0,.2,0v.2c-.3,0-.5,0-.8-.2v.2ZM35.3,70h-4.9,3.1c.6,0,1.3,0,1.9,0h0ZM33.5,52.8h0c0,.4.1.5.4.5l-.2.2v.6c-.3,0-.5.2-.8.3-.2,0-.5.2-.8.3v-.4c.1,0,.1,0,.1,0l.2-.2v-.2l.8-.5-.2-.2c.1-.2.3-.3.4-.3h.1ZM34.7,53.2h-.1v-.8c.1,0,.3,0,.5,0h.2c.1,0,.2,0,.3,0,0,0,0-.2.2-.2h.1c-.1.4-.2.7-.4.8s-.4.2-.8.2ZM34.8,53.4l.7-.2h0v.5c-.2,0-.4,0-.6,0l-.2-.3h.1-.2c0,0,.2,0,.2,0ZM36.6,54.1v-.4h.4v.4h0c0,.2,0,.3.2.3l-2.1.4v-.2h0s0,0,.1,0c0,0,0-.2.1-.2h0l.2-.5h.4l.4.3.3-.2h0ZM37,52h.5v.8h-.8v-.2c-.1,0-.1-.2-.1-.2,0,0,.1-.2.3-.2s.2-.2.3-.3h-.2ZM36.6,70.2h0c0,0,.2,0,.2,0h0c0,0-.2,0-.2,0ZM38.9,53.3h0c-.2,0-.5,0-.7,0h-.1c-.2,0-.3,0-.5,0l-.2-.2c-.2.2-.3.2-.5.2h0v-.5h.7c.2,0,.3,0,.4.2l.6-.2c.3,0,.4.2.4.4h-.1ZM43.8,70.2h-6.5,4.8c.5,0,1.1,0,1.7-.2v.2ZM44.9,54.3v.4s0,0,.2,0h.3c.1,0,.2,0,.3,0h.2c.2,0,.3,0,.3.2s0,0-.2,0h.1c0,0-.2,0-.2,0,0,0-.3,0-.5,0-.3,0-.6-.2-1-.2s-.7-.2-1-.3c-.3,0-.6-.2-.8-.2-.7,0-1.4-.2-2-.2h-3.1c-.9,0-.1,0-.1,0h0s0-.2.1-.2v-.2l-.2-.2h4.7c.6,0,1.1,0,1.7.2h.2l.8.3h.2,0ZM38.1,52.2v-.2.2h0ZM38.4,88h.1v-.2h-.3q0,.2.2.2ZM44.3,53.3h-.6v-.2h-.4c-.6,0-1.2-.2-1.8-.3h-1.8v-.5c0,0,0-.2-.1-.2h1c.7,0,1.3,0,1.9.2.6,0,1.2.2,1.8.3,0,.2.1.2.2.2h.2v.4h0c0,.2,0,.3-.2.3s0,0-.1,0l.2.2v.4c-.5,0-1-.2-1.5-.3-.5,0-1-.2-1.5-.2.2,0,.3,0,.3-.3s0,0,0-.2h1.3c.4,0,.8,0,1.3.2h-.2ZM39.8,53.4l-.2-.6h1.7v.2c0,0,0,.3.1.4-.2,0-.4,0-.6,0h-1ZM44.9,70.8h0c0-.3,0-.4-.2-.4,0,.2,0,.4.2.4ZM45.1,86.3l.2-.4s.2,0,.2,0c0,0,.2,0,.2.2h-.6,0ZM46.4,87.5v-.2l.4.2h-.2q0,.2-.1.2h-.1c0,0-.2,0-.2,0-.2,0-.4,0-.6,0v-.6c0,0,0-.2-.1-.3,0,0-.1,0-.1-.2h0c0,0,.7-.3.7-.3v.4h.3c0,0-.5.2-.5.2l-.2.2h.4c0,.3.1.4.2.4h.1v-.2ZM46.4,86.9h0c.3,0,.5,0,.6.3l-.2.2s-.2-.2-.3-.2-.2-.2-.2-.3h0ZM47.7,87.1h0c0,0,.2,0,.2,0h0c0,0-.2,0-.2,0ZM50.3,57.3v-.4c-.1,0-.6-.4-.6-.4h-.2v-.2h-.3c0-.2-.2-.3-.4-.4s-.3-.2-.4-.2h0l-.3-.2h0v-.5l.6.4h.3v.2l.7.6c.2,0,.4,0,.6.4v-.2c-.4-.3-.7-.5-1-.8-.3-.2-.7-.5-1.1-.7v-.9h0c1.4.7,2.6,1.6,3.8,2.7-.1.3-.3.6-.5.9s-.5.4-.9.4-.3,0-.6,0c0,0-.2-.2-.4-.3-.2,0-.3-.2-.4-.4h0s-.2,0-.4-.2c-.3-.2-.5-.3-.5-.4,0-.3,0-.5.1-.5h0s-.1,0-.1,0v-.4c.5,0,.9.4,1.2.8h.2c0,0,.2.3.5.5.2.2.4.4.5.4h-.4ZM50.7,76.2l.4.2v2.1c0,.7-.1,1.4-.1,2.1v3c.2,0,.3,0,.3-.3v-1.3h0c0-.3.1-.5.4-.5h.1c0,0-.1-.3-.2-.4,0-.2-.1-.3-.2-.3v-4.4c.2,0,.4,0,.6-.3.2,0,.3-.2.5-.3,0,1.3,0,2.6.1,4v4.8c-.6.4-1.1.7-1.7,1.1-.6.3-1.2.7-1.7,1-.1,0-.2,0-.3-.2v-.3l-.4-.5.3-.3h.2l.2-.2.4-.2s0,0,.1,0h0c0,0,.2-.2.2-.2v-.2h.3s.2-.2.4-.2.2-.2.2-.3h0c0,0-.2,0-.2,0-.2,0-.3.2-.4.2s-.2.2-.4.2h-.1c0,0-.4.2-.4.2v.2c-.1,0-.7.2-.7.2h-.2c0,.2-.3.2-.5.2v-.2h.4c0,0,.1,0,.1,0l.6-.3h0c0,0,.4-.3.4-.3,0,0,0,0,.1,0h0c.2-.2.3-.3.4-.3s.2,0,.4-.2v-7.4h.4ZM49.1,85.6h.1c.1,0,.2,0,.2-.2h-.1c-.1,0-.2,0-.2.2ZM49.7,85.4h.1q.1,0,.1,0h-.2ZM50.7,83.5h-.1v.4h0v-.2s.1,0,.1,0,0,0-.1,0h.1ZM50.7,69.9h.9-.9ZM50.7,70h.7c.2,0,.3,0,.4,0h.3v1.8h-.3s-.2,0-.4,0h-.1l-.3-.4v-.6h.1c0,0-.1-.2-.2-.4v-.3c0-.1,0-.2-.1-.4h0ZM51,84.1h.2c0,0-.1-.4-.1-.4h0v.2s-.1,0-.1.2h0ZM51.5,78.3h.2c0,0,0,0,0,0,0,0,0-.2-.2-.2h0v.2Z"/>
        <path class="cls-2" d="M63.3,85.7h-.6v.4c.1,0,.5.2.5.2v-.5h1.2c.2,0,.5,0,.7,0,.2,0,.9,0,1.9-.2s2.1,0,3.4,0h5.9c.5,0,.2,0,.2,0,.2,0,.3,0,.5,0h.4c0,0,.2,0,.2,0v.2l.2.2v-.6h.2s.1,0,.2,0l.2-.2,1-.3h.1l1-.4h.2c0,0,.2,0,.2,0l.2-.2h.6c0,0,.2-.3.2-.3h.3c.4-.6,1-1.1,1.6-1.5.7-.4,1.2-.9,1.7-1.6l.7-1v-.2h.2v-.3l.2-.2v-.3c.3-.2.6-.6.8-1.4.3-.8.5-1.7.7-2.6.2-1,.4-1.9.5-2.8,0-.7.1-1.2.1-1.6v-.3c.1.3.2.6.2.9v-1h-.2c-.2-1.4-.4-2.6-.7-3.8-.2-1.2-.6-2.4-1.1-3.5h0c0,0-.1-.4-.1-.4h0v-.2s-.1,0-.1-.2l-.5-1-.2-.2-.2-.3s-.2-.2-.2-.4-.2-.3-.3-.4v-.2h-.2l-.2-.3-.2-.2h0c-.1-.2-.3-.4-.5-.6s-.5-.5-.8-.7-.5-.5-.7-.7c-.2,0-.3-.2-.4-.2h0l-.2-.2h-.2v-.2h-.2c-.2,0-.3,0-.4-.2-.1,0-.2,0-.3-.2h0s-.1,0-.2,0h-.1l-.4-.2h-.3v-.2h-.4c-1.2-.5-2.3-.8-3.4-.9h-3.9c0-.2-.1-.3-.1-.5v-1.2c-.1,0-.1-.5-.1-.5h.6c1.2,0,2.4,0,3.5.2,1.1,0,2.3.4,3.5.8h.1l1.8.8h.2c0,.2.4.3.4.3h.1c0,0,0,0,0,0h.1c0,0,.2.2.5.4.2,0,.3.2.4.2h0v.2h.4v.2h.2v.2c.6.5,1,1,1.5,1.4.4.5.9,1,1.4,1.6h.1v.2h0v.3h.2l.2.7h0l.2.4h.1c0,.3.2.5.3.7s.2.4.2.6h.2v.4h.1v.5h0c0,.3.2.5.2.7s.1.4.1.6h0c0,.3.1.5.2.9,0,.3,0,.6.2.6v.3h0v.9h0c.1,1.1.2,2.2.2,3.2v.5c0-.2-.1-.3-.1-.5v-.5,1.1h.3c0,.4,0,.8.1,1.1v1.1q0,.4-.1.8h0v.9c0,.4,0,.6-.1.8h0v.4c-.1,0-.2-.2-.3-.2h-.2s-.2,0-.2,0v.5l.2.4h.4c0,.5-.1.9-.3,1.2h0c0,.4-.2.9-.4,1.4-.3.5-.6,1.1-.9,1.6-.3.6-.7,1.1-1,1.6-.4.5-.7.9-.9,1.2-.2.2-.4.4-.6.6-.2.2-.4.4-.6.6h-.2c-.2.3-.4.5-.7.7s-.5.4-.7.6h-.3v.2h-.4c0,0-.1.2-.1.2h-.3v.2l-1.2.6c-.4.2-.8.3-1.2.4,0-.2-.2-.5-.3-.8s-.4-.4-.7-.4h-.2c-.2.3-.3.5-.3.8h0v.9c-1.5.3-2.8.5-4,.5s-.1,0-.1,0h.1c0,0,.1,0,.1-.3h0v-.4h-.2c-.1,0-.2,0-.4,0-.1,0-.2.2-.2.3s0,0,.1.2c0,0,.1,0,.1,0h0c-.2,0-.4,0-.5,0h-.3c-.2,0-.4,0-.7,0-.2,0-.5,0-.7,0h-10.8v-6.1s0,0,.1,0h.2v-.4h-.3v-1c0-.2,0-.4.2-.6-.1-.2-.2-.5-.2-.9v-6.7h0c0,0,0,.2.2.2s.2,0,.2,0c0,0,.1,0,.2-.2l-.2-.5h-.1c-.1,0,0,0,0,0h-.2c0-.3,0-.4.2-.4h.5c0,0,.1.2.2.4,0,0,.2.2.4.2l.4-.4c0,0,0-.2-.1-.2s-.2,0-.3-.2h-.2s-.2,0-.3,0h-.3c-.1,0-.2,0-.2.2,0,0-.2,0-.3,0h0v-1.3s.2,0,.2,0v.2h.2c0,0,.1,0,.1,0h.4c0,0,.3-.6.3-.6,0-.2,0-.4-.2-.5-.1,0-.2-.3-.4-.4h-.4l-.2-.2h-.2v-14.4c0-.8,0-1.4.1-1.7h10.3v.4c.1,0,0,.4,0,.4v.4c.1,0,0,0,0,0l.2.3h-.1c0,0,.1.5.1.5h-4c-.5,0-.8,0-.9,0,0,0-.2.2-.4.2h-3c0-.5-.1-.7-.1-.8-.3.2-.6.4-.8.7h.1c.2,0,.2,0,.2.4h.5v10.9h-.8c0,0-.3,0-.5.2v.2h-.1v.4h.1v.3c.1,0,.3,0,.3,0h.5c0,0,.2-.2.2-.3l.2-.2v3.8h-.2c0,0-.3.4-.3.4h-.4c0,0,.5,0,.5,0h.5v3.1h-.4q0-.2-.1-.2h0l-.5-.5h-.3c-.2,0-.4,0-.6.3-.1.2-.2.4-.2.6v.4l.4.4c.2.2.3.3.4.3h0v.4-.4h.2s.1,0,.2-.2h.2c0-.2.1-.4.2-.5,0-.2.1-.3.2-.5,0,.5.1,1,.1,1.5v10.6l.9-.8ZM62.1,67.2l-.2.4v.3c.2-.2.2-.4.2-.6h0ZM64.2,52.9v.2h.1c0,0,.1,0,.1,0,.2,0,.3,0,.3-.3s0-.2-.2-.2-.3,0-.3.2h0ZM73.4,52.9l.2-.2h-.1q-.2,0-.2.2c0,.2,0,0,.1,0h0ZM89.4,72.6c0-.2,0-.5-.2-.7h0c0,.3,0,.5.2.7Z"/>
      </g>
    </g>
    <g>
      <path class="cls-2" d="M10.4,95.7l-1.2-1.2-.2.2,1.2,1.2.2-.2Z"/>
      <path class="cls-2" d="M11.5,94.6h0l.6-.6-3.2-3.2-.3.3c-.2.2-.3.3-.7.2l3.3,3.3h.3Z"/>
      <path class="cls-2" d="M7.1,93.1l.3-.3.8.8.2-.2c-.2-.3-.4-.6-.5-.9v-.6l-1.8-1.9c.1,0,.2-.3,0-.5h0l-.5-.5c-.2-.2-.3-.3,0-.4l2.1,1.3.6-.6-1.8-1.8-.7.7-.4-.4v-.4l1.3-1.3h0l.2.7,1.4-1.4c.3-.3.5-.7.6-1.2l.4-.4h.4l3-3-.7-.7-7,7s-.2.2-.4,0v-.4h0l7-7-1.3-1.3-4.6,4.6-.2-.2-4.8,4.8,9,9,.4-.4-3-3v.3-.4ZM8,85v.5l-.8.3.8-.8ZM6.8,82.4h0l.5-.5.2.2v.4c-.2.2-.3.3-.4,0h-.3ZM3.6,87.6l-.2-.2v-.5l-.2-.2h.5c0,0-.1-.2-.2-.4,0,0-.2-.2,0-.3s0,0,.3.3l.4.4-.7.7h0v.2ZM3.3,88.9l-.3-.3.2-.2h0c.2.2.3.3,0,.4h.1ZM4.5,88.3h0ZM4.5,88.3h0l.3-.3.2.7-.4-.4h-.1Z"/>
      <path class="cls-2" d="M11.1,94.9l-2.5-2.3.3.3-.6.6,1,1,.6-.6,1.2,1.2h0v-.2Z"/>
      <path class="cls-2" d="M4.5,87.9h-.2.2Z"/>
    </g>
  </g>
  <g>
    <path class="cls-2" d="M91,9.1l1.2-1.2-.2-.2-1.2,1.2.2.2Z"/>
    <path class="cls-2" d="M92.1,10.2h0l.6.6,3.2-3.2-.3-.3c-.2-.2-.3-.3-.2-.7l-3.3,3.3h0l-.2.3h.2Z"/>
    <path class="cls-2" d="M93.6,5.8l.3.3-.8.8.2.2c.3-.2.6-.4.9-.5h.6l1.9-1.8c.1.1.3.2.5,0h0l.5-.5c.2-.2.3-.3.4,0l-1.3,2.1.6.6,1.8-1.8-.7-.7.4-.4h.4l1.3,1.3h0l-.7.2,1.4,1.4c.3.3.7.5,1.2.6l.4.4v.4l3,3,.7-.7-7-7s-.2-.2,0-.4h.4l7,7.1,1.3-1.3-4.6-4.6.2-.2-4.8-4.8-9,9,.4.4,3-3h-.3.4ZM101.7,6.7h-.5l-.3-.8.8.8ZM104.3,5.5h0l.5.5-.2.2h-.4c-.2-.2-.3-.3,0-.4v-.3h0ZM99.1,2.3l.2-.2h.5l.2-.2v.5c.1,0,.2-.1.4-.2,0,0,.2-.2.3,0s0,0-.3.3l-.4.4-.7-.7h-.2ZM97.7,2l.3-.3.2.2h0c-.2.2-.3.3-.4,0h-.1ZM98.4,3.2h0ZM98.4,3.2h0l.3.3-.7.2.4-.4h0Z"/>
    <path class="cls-2" d="M91.7,9.8l2.3-2.5-.3.3-.6-.6-1,1,.6.6-1.2,1.2h.2Z"/>
    <path class="cls-2" d="M98.7,3.2h0Z"/>
  </g>
  <g>
    <path class="cls-2" d="M93.7,175.1l-1.2,1.2.2.2,1.2-1.2-.2-.2Z"/>
    <path class="cls-2" d="M92.7,174h0l-.6-.6-3.2,3.2.3.3c.2.2.3.3.2.7l3.3-3.3h0l.2-.3h-.2Z"/>
    <path class="cls-2" d="M91.1,178.4l-.3-.3.8-.8-.2-.2c-.3.2-.6.4-.9.5h-.6l-1.9,1.8c-.1-.1-.3-.2-.5,0h0l-.5.5c-.2.2-.3.3-.4,0l1.3-2.1-.6-.6-1.8,1.8.7.7-.4.4h-.4l-1.3-1.3h0l.7-.2-1.4-1.4c-.3-.3-.7-.5-1.2-.6l-.4-.4v-.4l-3-3-.7.7,7,7s.2.2,0,.4h-.4l-7-7.1-1.3,1.3,4.6,4.6-.2.2,4.8,4.8,9-9-.4-.4-3,3h.3-.4ZM83.1,177.5h.5l.3.8-.8-.8ZM80.5,178.7h0l-.5-.5.2-.2h.4c.2.2.3.3,0,.4v.3h0ZM85.7,181.9l-.2.2h-.5l-.2.2v-.5c-.1,0-.2.1-.4.2,0,0-.2.2-.3,0s0,0,.3-.3l.4-.4.7.7h.2ZM87,182.2l-.3.3-.2-.2h0c.2-.2.3-.3.4,0h.1ZM86.4,181h0ZM86.4,181h0l-.3-.3.7-.2-.4.4h0Z"/>
    <path class="cls-2" d="M93,174.4l-2.3,2.5.3-.3.6.6,1-1-.6-.6,1.2-1.2h-.2Z"/>
    <path class="cls-2" d="M86,181h0Z"/>
  </g>
</svg>