<?xml version="1.0" encoding="UTF-8"?>
<svg xmlns="http://www.w3.org/2000/svg" version="1.1" viewBox="0 0 193.1 61">
  <g>
    <g id="Layer_2">
      <g>
        <path d="M53.2,27h-.1c0-.1-.1-.3-.2-.5-.1-.3-.2-.5-.2-.5h0s-.1-.5-.1-.5h0s-.2-.3-.2-.3c0-.2-.1-.5-.2-.7-.1-.3-.2-.5-.3-.8v-.7h-.3l-1-2.6h0s-.6-1.9-.6-1.9v.5c-.2-.5-.3-.9-.5-1.4-.2-.5-.4-1.1-.6-1.6v-.2c0,0-.1-.2-.2-.4,0-.1,0-.2-.1-.3v-.2h-.1c0-.1,0-.2,0-.2h0c0-.4-.2-.6-.2-.8,0-.2-.2-.5-.3-.7,0-.1,0-.2-.1-.3l-.2-.4h0c0-.2-.1-.3-.2-.5,0-.2-.1-.3-.2-.5v-.3c0,0-.1-.1-.1-.2v-.4h-.2c-.1-.3-.3-.6-.4-.9-.1-.3-.2-.7-.4-1v-.2c0,0,0-.2-.2-.3h0s-.2-.3-.2-.3c0,0,0-.1-.1-.2h0c0-.2,0-.3-.1-.4v-.3h-.1c0,0,0,0,0,0,0,0,0,0,0-.1,0-.2-.1-.3-.2-.5l-.2-.5c0,0,0-.1,0-.2v-.4h-.7l-.3.9h-.2v.3h0c0,.2-.1.3-.1.4,0,0,0,0,0,0-.2.1-.2.3-.2.4h0c0,0,0,.2,0,.2,0,.1,0,.2,0,.4s0,.2,0,.3h0c0,0-.2,0-.2,0l-.2.4c0,0,0,.2-.1.3s0,0,0,0h-.1v.6c-.1,0-.2.1-.2.3,0,0,0,.2,0,.2v.2c0,0,0,0,0,0,0,0,0,.2-.1.3,0,.2-.1.3-.2.5,0,.1-.1.3-.2.4,0,.1,0,.2,0,.4,0,0,0,.1-.1.2,0,0,0,.1,0,.1l-.7,1.7v.7s0,.1,0,.1c.2.2.3.3.3.5,0,0,0,.1,0,.2h0c-.3-.2-.3-.3-.3-.3l-.7-1.1v1.2h-.1c0,0,0,.5,0,.5l-.4.5h.1v.2c-.1.1-.2.3-.2.5,0,0,0,.2,0,.2h-.2v1h.7c0,0,0,0,.1,0h0c0,0,0,.2,0,.3s0,.1,0,.2v.4c0,0,0,.3,0,.3,0,0,0,0-.1,0h0c0-.1-.9-.1-.9-.1h0c0,.1-.5.1-.5.1l.5.4v.4h.5c.2,0,.3.1.5.1l2.7-.9h-1.8v-.2c.1-.2.2-.3.3-.6h.2v-.2c-.1,0,0,0,0,0v-.3s0,0,0-.1l.4-.9-.9-.2v-.2c0,0,0-.1,0-.1,0,0,.1-.2.1-.5,0,0,0,0,.1-.1h0s0,0,0,.2l.2.6.4-.4c.2-.2.3-.4.4-.7,0-.2.1-.4.2-.5v-.2c0,0,0,0,0,0,0,0,0-.1.1-.3,0-.1,0-.2.1-.3v-.2c.1,0,.1,0,.1,0,0,0,0-.2.2-.4,0-.1,0-.2.1-.3h.2v-.3l.3-.9.2-.3v-.4c0,0,.1-.2.2-.3,0-.1,0-.2.1-.3h.1v-.2h0s.5,1,.5,1h0c0,.2,0,.3.1.3v.4c.1,0,.2,0,.2,0,0,.1,0,.3.2.4h0c0,.2,0,.3,0,.3v.4h.1v.2c0,0,.2.6.2.6h.1l.2.4c.2.5.4.9.6,1.4.2.4.4.9.6,1.3v.4h.1l.3.8h0c0,0,0,.1,0,.2,0,.2.1.3.2.4v.3c0,0,.2.1.2.1v.3h.2s0,0,0,.1c0,0,0,0,0,0h0c0,.1.1.4.1.4v.2c0,0,0,.2,0,.4h0c0,.1.4.8.4.8.2.4.4.9.5,1.3l.2.7h0c0,0,0,0,0,0,0,0,0,.2.2.2l.3.8h0c0,.2,0,.2,0,.3,0,.1,0,.2.1.3,0,.2.2.5.3.7.1.2.2.5.4.7v.4c.1,0,.2,0,.2,0,0,.2.1.3.2.4v.2c.1,0,.2.2.2.2h0c0,.2.1.3.2.3.1.1.3.2.4.2l.6.5v-.6h.5l-.4-.9v-.4ZM43.1,10.7s0,0,0,0h0s0,0,0,0Z"/>
        <path d="M38.8,22.3v-.3s0-.1,0-.1c0,0-.2-.1-.3-.2h0c0,0,0,0,0,0v-.9l-.2.5c0,0-.2-.2-.3-.2h-.1v-.4.3c-.1,0-.2,0-.2,0v.4c-.2.1-.2.2-.3.3,0,.1-.1.2-.1.4l-.4.8c0,.1,0,.3,0,.3h0c0,0,0,.2-.1.2,0,.1-.1.3-.2.4,0,0-.1.2-.2.5-.1.3-.2.4-.1.4l-1,2.4c0,0,0,.1-.1.2v.4c-.1,0-.2.2-.2.2,0,0,0,.2,0,.3,0,.2-.1.3-.2.5v.5c0,0,1.9,0,1.9,0h.4v-.4h.1c0,0,.2-.6.2-.6v-.2c.1,0,.2,0,.2,0v-.3l.3-.7c0-.1,0-.2.1-.4,0,0,0-.1.1-.2v-.2c.1,0,0-.2,0-.2.1-.1.2-.3.3-.5,0-.2,0-.3.1-.5,0,0,0-.1.2-.2h.1v-.3h0c0,0,0,0,0,0l.3-.8h0v-.7c.1,0,0-.3,0-.3Z"/>
        <path d="M71.6,27.7c0-.2-.2-.3-.3-.4,0,0,0-.2-.1-.2,0,0,0,0,0,0h0s-.3-.3-.3-.3v-.2c0,0-.2,0-.2,0,0,0-.1-.2-.2-.3-.1-.2-.2-.3-.4-.4h-.2c-.1-.3-.3-.4-.6-.4h-.2s-.4-.1-.4-.1c0-.1,0-.2-.2-.3,0,0,0-.1,0-.2v-.3h-.5c0-.3,0-.4,0-.5v-.2h-.3s0,0-.1,0v-.2l.2-.5h-.6c-.1,0-.2,0-.4,0,0,0,0-.1,0-.1v-.6c-.1,0-.1,0-.1,0,0,0,0-.2,0-.2h0c0,0,1.3.5,1.3.5l-1.7-1.7c-.2-.2-.3-.4-.5-.6-.2-.2-.3-.4-.5-.6l-.5-.7h0c0-.1-.2-.3-.2-.3h0c0,0,.1-.1.2-.1h.5c0-.1,0-.1,0-.1.2,0,.3,0,.5-.1,0,0,.2,0,.3,0l.8.8-.3-1h.2c0-.1.2-.2.3-.2.2,0,.3-.1.4-.2h0s.5.4.5.4v-.5c-.1,0,.3-.5.3-.5,0,0,0,0,0,0l.2-.2h.2c0,0,.1-.3.1-.3h0c0,0,0-.1,0-.1,0,0,0,0,0,0h.1c0,0,0-.2,0-.2,0,0,0-.1.1-.2,0,0,.2-.2.3-.3h0v-.4c0,0,.1,0,.1,0v-.2c0,0,0-.2,0-.4v-.2s.4-.5.4-.5c.2-.2.3-.5.3-.9v-.7c0-.2,0-.5,0-.7v-1c-.1,0-.3-.4-.3-.4l-.8.2c0,.2,0,.4,0,.7s0,.6,0,.7h0c0,0,0,.6,0,.6h0c0,.1,0,.3,0,.3,0,0,0,.1,0,.2l-.2-.4v-.4s-.1-.1-.1-.1c0,0,0-.1,0-.2v-1.3s-.1.1-.1.1c0,0,0-.2,0-.3,0,0,0-.1,0-.2h0c0,0,0-.2,0-.2,0,0,0-.1,0-.2h-.4s0,0,0,0h.4c0-.2,0-.4,0-.6s0-.1,0-.2h.3c0,0-.7-1-.7-1h-.3c0,.1,0,.1,0,.1v-.2s-.2-.1-.2-.1v-.3c0,0-.2-.2-.2-.2-.7-.4-1.5-.7-2.4-.8h-.4c-.8-.2-1.6-.3-2.5-.3h-2.5c-.5,0-.9,0-1.3,0h-1c-.6,0-1.3,0-2.3,0h-.4s0,2.2,0,2.2h1c.2,0,.6,0,.9,0h.3s0,0,0,0c.4,0,.8,0,1.1,0h1.3c.8.1,1.5.1,2.6,0,0,0,0,0,.1,0h0c0,0,.1,0,.2,0h.4c.3,0,.7,0,1.1,0,.4,0,.7,0,1.1.1h.3c.5.2.9.4,1.4.6.5.2.8.5,1.1.9h0c0,.2,0,.2.1.3v.2c.1.3.2.5.5.6h0s-.1.2-.1.2v.2c0,0,0,.2,0,.2v1.7c-.1.2-.2.4-.3.7,0,.2-.2.4-.3.5h-.1v.3c0,0-.2.1-.2.2h0c-.1.1-.2.2-.3.3,0,0-.2,0-.2.1,0,0-.1,0-.1,0h0c0,0,0,0,0,0h0c0,.1-.2.2-.6.3l-.7.3c-.6.2-1.2.3-1.9.4-1,0-1.8,0-2.9,0-.3,0-.6,0-.8,0h-.4c0,.1,0,0,0,0v.2c-.1,0-.2,0-.2,0v-.2s-.4,0-.4,0l-.4-1.2v.9l-.2.3h-.7v2.3c0,.1,0,.3,0,.4v.8l-1.1.4h1.1v1c0,.4,0,.8,0,1.2,0,.3,0,.4,0,.6h0s0,.7,0,.7c0,.6,0,1.2,0,1.9,0,.3,0,.6,0,.9s0,.6,0,.9v.4s.5,0,.5,0h.1c0,0,0,0,0,0h0c0,0,.2,0,.3,0,0,0,0,0,0,0v2.1l.8-2.3c0-.2,0-.4,0-.7v-.2c0-.3,0-.5,0-.7s0-.4,0-.8c0-.4,0-.8,0-1.2v-1.2c0-.2,0-.3,0-.5,0,0,0-.2,0-.3,0-.3,0-.6,0-.9s0-.7,0-1.2c0-.2,0-.4,0-.6,0-.3,0-.6,0-.9.2,0,.4,0,.6,0,.3,0,.6,0,.9,0h.4c.2,0,.3,0,.5,0,.1,0,.3,0,.4,0h0c0,0,.1.2.3.4.2.2.4.5.6.7.2.3.4.5.6.8.2.2.3.4.4.5l.8,1c.2.3.5.6.8.8,0,0,0,0,0,.2,0,0,.2.3.4.4v.2l.3.2h0c0,.1.3.4.3.4,0,0,0,0,.2.2v.2c.1,0,.2,0,.2,0,0,.2.2.3.3.4.2.2.3.3.4.4l.7.7v-1s.2.3.2.3c0,0,0,.2,0,.3,0,.1,0,.2,0,.3s0,.2,0,.4c0,.2.1.3.3.5h.1c0,0,0,.3,0,.3h.2c0,0,0,.1.2.3,0,0,.1.1.2.2,0,0,0,0,0,0l.2.3.3-.2,1.2,1-.2-.9h.6c0,0-.5-.6-.5-.6ZM69.5,13.4s0,0,0,0h0s0,0,0,0c0,0,0,0,0-.1h0ZM66.2,22h0s0,0,0,0c0,0,0,0,0,0ZM69.3,13.1c0,0,0,.1,0,.2v-.2c0,0,0,0,0,0ZM69,13.2h-.1c0,0,0,0,0,0h-.4.6Z"/>
        <path d="M89,7.8h0c0,0,0,0,0,0,0-.1,0-.2,0-.2v-.4h-2.5s0,0,0,0c-.1,0-.3,0-.4,0h0c0,0-.1,0-.1,0h-.1c0-.1-.2-.2-.2-.2-1.1,0-2.3,0-3.5,0-.2,0-.5,0-.7,0h-.5c-.1,0-.2,0-.4,0-.5,0-.9,0-1.4,0-2.1,0-4.3,0-6.4-.2h-.3s-.1.3-.1.3c0,.2-.1.3-.1.5v1s.4,0,.4,0c.9,0,1.8,0,2.7,0,.9,0,1.8,0,2.8,0s.6,0,.9,0h.1c.1,0,.3,0,.4,0v.4c0,.4,0,.7,0,1.1,0,.6,0,1.2,0,1.8,0,1.9,0,3.9,0,5.7,0,.9,0,1.8,0,2.7v5.4c0,.8,0,1.4,0,1.9,0,.8,0,1,.2,1.1l.5.7.2-.5h0c0,0,.2,0,.2,0h.2s.3.7.3.7l.3-1c0-.2,0-.4,0-.6v-.2c0-.2,0-.4,0-.5v-.4c0-.2,0-.5,0-1.1,0-2.5,0-5,0-7.6v-9.4h0c0,0,0-.1,0-.1,0,0,0,0,0,0h.5c.6,0,1.1,0,1.7,0,.8,0,1.6,0,2.5,0s.3,0,.5,0h.7c.3,0,.5,0,.7-.1.3,0,.5-.1.6-.2l.2-.3h0c0-.1,0-.3,0-.3Z"/>
      </g>
      <g>
        <path d="M29.3,33c-.3,0-.6-.1-1-.1h-.9c-1.2,0-2.3,0-3.4,0-1.1,0-2.2,0-3.4,0h-.5c-.2,0-.4,0-.5,0-.4,0-1,0-1.4,0h-.5c-.3,0-.6,0-.9,0h-.7s0,.5,0,.5c0,.2,0,.4,0,.6h-1.2l1.2.2c0,0,0,.2,0,.3v15.8h0c0,0,0,0,0,0,0,.1,0,.2,0,.4v3.1c0,.4,0,.7-.1,1.1h0c0,0,0,0,0,0v.4c0,0,.1,0,.1,0h0c0,0,.4,0,.4,0h.2c.3,0,.6,0,1,0h.2c.5,0,.9,0,1.4,0h1.2c.9,0,1.8,0,2.6,0,1.3,0,2.5,0,4,0,.7,0,1.3,0,1.9-.1l.9-.2-.6-.4v-.8c0,0,0-.5-.6-.5h-.3c-1.6,0-3.1,0-4.7,0-1.5,0-3.1,0-4.7,0h-.4s0,0,0,0c-.1,0-.2,0-.4,0h-.2c0-.2,0-.3,0-.5s0-.3-.1-.5c0,0,0-.2,0-.3,0-.3,0-.6,0-.9l.5-.5-.5.3c0-.1,0-.2,0-.4v-3.3c0-.3,0-.6,0-.8,0-.2,0-.4,0-.6l.7.3-.5-.5c.3,0,.5,0,.9,0,.3,0,.6,0,1,0h3.9c1.1,0,2.2,0,3.3-.1h.5c0-.1-.1-.5-.1-.5v-1s0,0,0,0c0,0,0,0,0,0l.2-.5h-.5c-1.5-.1-3-.2-4.5-.2h-4.6s0-1.5,0-1.5c0-.6,0-1.1,0-1.7v-1.8c0,0,0-.2,0-.3l.7.4-.8-.7c0-.3,0-.6,0-.9,0-.1,0-.2,0-.3,0-.1.1-.3.1-.5s0-.3,0-.3v-.2c.1,0,.3,0,.4,0h.5c1.6,0,3.1,0,4.7,0,1.5,0,3.1,0,4.7,0h.3c.5,0,.6-.2.6-.4v-.7s.8-.4.8-.4l-1.1-.3Z"/>
        <path d="M51.2,45.3c0-.2,0-.5,0-.7,0-.2,0-.4,0-.6v-.4c0-.6,0-1.2-.1-1.9v-2.4l-.2,1.1c0-.2,0-.4-.1-.5h0c0-.1,0-.3,0-.4v-.4c-.1,0-.3-.6-.3-.6h-.1c0-.2,0-.3-.1-.4,0,0,0-.1,0-.2,0-.1,0-.2-.2-.3l-.3-.6h0s-.3-.4-.3-.4c-.3-.3-.6-.6-.8-.9-.3-.3-.6-.6-.9-.9v-.2c0,0-.2,0-.2,0h0c0,0-.2-.2-.2-.2l-.2-.2h-.2s0,0,0,0c0,0,0,0-.1,0h0c0-.2-.2-.2-.3-.2v-.2h-.3l-1.1-.5h-.1c-.7-.3-1.5-.5-2.2-.5-.7,0-1.4,0-2.1,0h-.7c-.1,0-.3,0-1,0-.6,0-1.2,0-1.9,0h-3.6v.3c-.1.2-.2.6-.2,1.1,0,.5,0,1,0,1.6v2.9c0,.7,0,1.4,0,2,0,.3,0,.7,0,1s0,.7,0,1v.3s.2.1.2.1l.2.2h-.4v1.1l-.8.3h.8v.3c0,0,0,.2,0,.3v3.1c0,.2,0,.4,0,.7h0c0,.3,0,.5,0,.7,0,.1,0,.2,0,.4s0,.3,0,.4c0,0,0,.2,0,.2v.2c0,0,0,.1,0,.2v4.1h6.9c.1,0,.3,0,.4,0,.1,0,.3,0,.4,0h.2s0,0,.2,0h.4c.7,0,1.6,0,2.5-.3h.4c0,0,0-.4,0-.4,0-.1,0-.2,0-.4,0,.1,0,.2.1.3v.3c.1,0,.5,0,.5,0,.3,0,.6-.1.8-.3.2-.1.5-.2.7-.3h.2c0,0,0-.2,0-.2h.3c0-.1.2-.3.2-.3,0,0,.2-.2.4-.3.2-.1.3-.2.4-.4h.2s0-.1,0-.1c0-.1.2-.2.3-.3.1-.1.3-.2.4-.4.1-.2.3-.4.6-.7.2-.3.4-.6.6-1,.2-.3.4-.7.5-1,.1-.3.2-.6.3-.8h0c.1-.2.2-.5.2-.7l.2.2v-1h0c0-.3,0-.4,0-.7v-.2c0,0,0-.2,0-.3h0c0-.3,0-.5,0-.6ZM33.7,46l.2.2h0c0,.1-.2.1-.2.1h0c0-.1,0-.1,0-.2,0,0,0,0,0-.2ZM35,33.8h0c0,0,0,0,0,0h0c0,0,0,0,0,0h.1s0,0-.1,0h-.1v-.2c0,0,0,0,0-.1h0ZM40.7,33.7h0s0,0,0,0h0ZM40.1,34.9c.8,0,1.5,0,2.1,0,.6,0,1.2.2,1.8.4l.8.3c0,0,.1,0,.2.1,0,0,0,0,.1,0,0,0,.2,0,.2.1h0c0,.1.3.2.3.2l.2.2h.1s0,0,0,0h0c.1.1.3.3.4.4.2.1.3.3.4.4s.1.1.2.2h0c0,0,.2.3.2.3l.2.4h.1c0,.2.1.4.2.4l.5.8c0,0,0,.1,0,.2v.3c.4.7.6,1.4.7,2,.1.7.3,1.4.4,2.2v.2c0,.2,0,.5,0,.9,0,.5-.2,1.1-.3,1.6-.1.6-.3,1.1-.4,1.5-.2.5-.3.6-.3.6h-.1c0,0,0,.3,0,.3v.2c-.1,0-.1,0-.1,0h0s0,.2,0,.2l-.4.6c-.2.4-.5.6-.9.8-.4.2-.7.5-1,.8h-.2s0,.2,0,.2h-.4v.2h-.4v.2l-1.2.4h-.2c0,0-.2,0-.2,0-.1,0-.3,0-.5,0h-.4c-.3,0-.7,0-1.3,0-1.3,0-2.9,0-4.2,0-.6,0-.9,0-1.1,0-.1,0-.3,0-.4,0h-.2s0,0,0,0c0-.6,0-1.2,0-1.8,0-.7,0-1.5,0-2.2s0,0,0-.3v-.2c0-.4,0-.8,0-1.2v-.3c0-.3,0-.6,0-.9v-11.2s1.5,0,1.5,0c.1,0,.2,0,.3,0,.1,0,.2,0,.4,0,.6,0,1.2,0,1.8,0,.3,0,.5,0,.7,0h.5Z"/>
        <path d="M71,35.1v-1.5h-1.4l-.4-.7v1c0,0-.7.6-.7.6h.5v.5c0,0,0,.2,0,.2v.2s0,0,0,0c0,0,0,.2,0,.3h0s0,0,0,0c0,0,0,.2,0,.3v.3h.3s.3,1.2.3,1.2c0,0,0,0,0,0,0,.1,0,.3,0,.4s0,.3,0,.4h0c0,.1,0,.2,0,.4,0,.2,0,.3,0,.5v.4h0s0,0,0,0c0,0,0,.2,0,.3,0,0,0,0,0,.1v.2s0,0,0,0c0,0,0,0,0,0v1.9l.3-.5c0,.6,0,1.2,0,1.8h0c0-.1-.4-.5-.4-.5l-.6.3v.2c0,.6,0,1.2,0,1.8,0,.2,0,.3,0,.5h0s0,0,0,0c0,.4,0,.9,0,1.3s0,0,0,0h-.3c0,0,.2.1.2.1,0,.2,0,.3,0,.5,0,.3-.1.6-.1.9s0,0,0,0c0,.1,0,.2-.1.3,0,.1,0,.2,0,.2l-.3.3.5.5h0c0,.1.2.3.2.3,0,0,.2.1.3.1h.1c0,.1,0,0,0,0,0,0,0,0,.1,0h.2v-.2c.1,0,.2,0,.2,0l.3.3.2-.6c.1-.3.2-.5.3-.8,0-.2.1-.5.1-.7h0s0-.4,0-.4h0c0-.1,0-.1,0-.1v-.2s0-.5,0-.5h-.1c0-.3-.2-.4-.3-.5h0c0,0,0-.2-.1-.2,0,0-.1-.2-.2-.3,0-.2,0-.3,0-.4v-.3s0-.2,0-.2c0,.1.1.2.2.3l.2.2.6-.2v-.3c0-2,0-3.9-.1-5.9v-4.4c0,0,.7,0,.7,0l-.7-.4Z"/>
        <path d="M67.5,53.1s0,0,0,0v-.7h0s0-.7,0-.7l-.7.7s0,0-.1.1h-.2l-.2.2h-.1s0,.1,0,.1c0,0,0,0-.3.1-.2,0-.3.2-.4.2l-1.2.4h-.2c0,0,0,0-.1.1-.2,0-.3,0-.5,0-.2,0-.3,0-.4,0,0,0-.1,0-.2,0h0c-.2,0-.3,0-.6,0h-.5c-.8-.2-1.6-.5-2.3-1h-.1c0-.1-.2-.2-.2-.2l-.2-.2h0c-.3-.3-.6-.6-.8-1v-.6l-.3.2c-.3-.4-.5-.9-.7-1.3-.3-1-.5-2.1-.5-3.4s0-1.1,0-1.7c0-.6,0-1.2,0-1.8,0-.4,0-.8,0-1.2v-.6c0-.6,0-1.1-.2-1.6,0-.1,0-.4,0-.9,0-.5,0-1.1,0-1.7s0-1.2,0-1.8c0-.6,0-.9,0-1.1v-.4h-1.8v.4c0,.5,0,.9,0,1.4s0,1.2,0,1.7c0,1.1-.1,2.2-.1,3.3s0,2.3,0,3.4c0,1.1,0,2.3,0,3.4s0,.8.1,1.2l.2,1.1.3.9.5,1.1c.2.5.4.8.7,1l.4.3v-.2c.1,0,.2.2.2.2h.3c0,0,0,0,0,0,0,0,0,0,0,0h0s-.3.5-.3.5h-.9l1.7.8s0,0,0,0h-.3l.6.3h0c0,.1.3.1.3.1l.6.3c.3.1.5.2.7.3.2,0,.5.1.7.2h0c0,.1.4.1.4.1.3,0,.6.1,1,.2.3,0,.6,0,.9,0s.4,0,.6,0c.2,0,.4,0,.6,0h.2c.2,0,.4,0,.7-.2.2,0,.3-.1.5-.1h.4c0-.1.1-.1.1-.1.3,0,.7-.2,1.1-.4h0c0,0,0-.1,0-.1,0,0,.2,0,.3-.1h.2c0-.1,0-.1,0-.1.2,0,.3-.2.4-.4h.2c0,0,.1-.8.1-.8l-.6-.3h-.2Z"/>
        <path d="M93.6,51.4h-.5c0,0-.1,0-.2,0,0,0,0-.1-.1-.2h0c0-.1,0-.2,0-.2h-.7c0,0,0,0,0,0-.3,0-.5.2-.7.4-.1.1-.3.2-.5.3h-.1c-.1.2-.2.2-.3.3-.1,0-.3.2-.4.2h-.1c0,0,0,.1-.1.1,0,0-.2,0-.3.2h-.3c0,0-.3.3-.3.3h-.6v.6c0,0,0,.2,0,.3v.3c0,0,0,0,0,0-.1,0-.2.1-.4.2h-.2c0,0,0,0,0,0-.4,0-.6.3-.6.7h0c0,0-.2,0-.2,0,0,0,0-.2-.1-.3,0,0,0,0,0,0h0,0c0-.1,0-.2,0-.2,0,0,0-.1,0-.2h0c.5,0,.6-.3.6-.5v-.4h0,0c0,0-1.1,0-1.1,0-.3,0-.6,0-.7,0h-1.5s0,0,0,0l-.2-.6v.4c0,0-.4,0-.4,0-.7-.2-1.3-.4-1.8-.6-.5-.3-1-.6-1.6-.9h0c0-.1-.1-.2-.1-.2,0,0,0,0-.1,0,0-.1-.2-.2-.3-.3-.1-.2-.2-.3-.3-.3h0c0-.1-.1-.3-.2-.4-.1-.2-.2-.3-.2-.3v-.3h-.2c0-.1-.1-.2-.2-.3l-.2-.3v-.3c-.2-.1-.2-.2-.2-.2v-.4h-.2v-.2c-.2-.2-.2-.4-.3-.6,0-.2-.1-.4-.2-.6h0c0-.1,0-.5,0-.5h0s0,0,0-.1c0-.2,0-.4-.2-.7v-.2h-.5v-.2c0,0,0-.2,0-.3,0,0,0,0,0-.1h0c0-.2,0-.3,0-.3h.2v-.4h0v-.6c0-.1,0-.2,0-.3h0c0,0,.2,0,.2,0v-.4l.2-.3h0c0-.3,0-.6,0-.9,0-.2,0-.5.1-.7l.4-1.2h0c0-.1,0-.2,0-.3l.2-.2v-.3c0,0,0-.1,0-.2v-.3s0,0,0,0l.3-.4h-.1c0,0,.2-.5.2-.5v.5l.7-.5c.2-.1.3-.3.5-.4.1-.1.2-.2.3-.3h.2c0,0,.1-.3.1-.3.1,0,.3-.1.5-.3.2-.2.5-.3.9-.5.3-.2.7-.4,1.1-.5.4-.2.8-.3,1.2-.3h.3v-.3c.4,0,.8,0,1.1,0h.3c.2.2.5.3.7.3.2,0,.3,0,.5,0,0,0,.2,0,.3,0h.2s0,0,0,0h.2c0,0,.2,0,.4,0,.3,0,.3,0,.3,0h.1c0,0,.4,0,.4,0,0,0,.2.1.3.2,0,0,0,0,.1,0l.5.2c.1,0,.2.1.3.1h0c0,0,0,0,.1,0h0c0-.1.3,0,.3,0,0,0,0,0,0,0h0c0,0,.2.2.3.3.1.1.2.2.3.2l.5.4h0s0,0,0,0c0,0,.1,0,.2.1,0,0,.2.2.3.2l1.8,1.4-.9-1.3h.6l-.3-.6s0,0,0-.1h0c0-.1-.1-.3-.1-.3-.4-.3-.7-.7-1-1h0c0-.1-.1-.1-.1-.1h0c0-.1-.2-.2-.2-.2h0c0-.1-.2-.2-.2-.2l-.6-.4h-.3c0-.1,0-.2,0-.2h-.1c0,0-.1,0-.1,0l-.3-.3h0c0,0-.5,0-.5,0h-.2c0,0-.2,0-.3-.2h-.1c-.6-.2-1.2-.3-1.8-.4-1-.1-2.1-.1-3.1,0-.3,0-.6,0-.9.2h0c0-.1-.4,0-.4,0h0s-.5,0-.5,0h.2v.2c-.2,0-.4.2-.7.3-.3.1-.6.2-.8.3h-.4v.2h0c0,0-.2.1-.4.2-.2.1-.3.2-.5.3l-.4.3-.3.4h0c0,.1-.4.4-.4.4-.2,0-.4.3-.6.5,0,.1-.2.2-.3.4h-.2c0,.1,0,.3,0,.3h0s0,.1,0,.1h0s0,.2,0,.2c-.2.2-.3.4-.3.5h0c0,0,0,.3,0,.3h-.1v.3l-.2.4h-.1s0,.3,0,.3v.3c-.1,0-.1,0-.1,0-.3.7-.5,1.4-.6,2.3-.1.9-.2,1.7-.2,2.4s0,1.4.1,2c0,.6.2,1.2.3,1.9l.2.8h0l.2.4c0,0,0,.2.1.3h0c0,.2,0,.2,0,.3,0,0,0,.2.2.3h0c0,.1,0,.6,0,.6h.2c0,0,0,.2.2.3,0,0,.1.1.2.2v.2c.2,0,.3.3.4.5.2.2.4.5.6.7.2.2.4.5.6.6.2.2.3.3.5.4l.2.2h0s0,0,0,.1l.6.4h0c0,0,.3.2.3.2h0s0,0,0,0c0,0,.1.1.3.1h0c0,.1.2.2.5.3.4.1.5.2.6.2l.5.2h.2c.2,0,.4,0,.6.1.3,0,.6.1.9.1h.9c.3,0,.6.1.8.1s.2,0,.5,0h.1s0,0,.1,0h.4c0-.1.2-.2.2-.2v.2h.4c.4-.1.8-.2,1.2-.3.4-.1.7-.2,1.1-.3h.3c0-.1,0-.2,0-.2h.3c0,0,0-.2,0-.2h.3c0,0,.3-.3.3-.3h.4c0-.1,0-.3,0-.3h.2c0-.1,0-.2,0-.2.3-.1.5-.3.7-.6.2-.2.4-.4.6-.6l1-.7h-.8l.3-.2ZM87,53.8v-.2h0c0,0,0,.2,0,.2Z"/>
        <path d="M99.4,48.6v-.3s0-.1,0-.1c0,0-.2-.1-.3-.2h0c0,0,0,0,0,0v-.8l-.2.5c0-.1-.2-.2-.3-.2h-.1v-.4.3c-.1,0-.2,0-.2,0l-.2.4c0,.1,0,.2-.1.3,0,.1-.1.2-.1.4l-.4.8c0,.1,0,.3,0,.3h0c0,0-.1.2-.1.2,0,.1-.1.3-.2.4,0,0-.1.2-.2.5-.1.3-.2.4-.1.4l-1,2.4c0,0,0,.1-.1.2v.4c-.1,0-.2.2-.2.2,0,0,0,.2,0,.3,0,.2-.1.3-.2.5v.5c0,0,1.9,0,1.9,0h.4v-.4h.1c0,0,.2-.6.2-.6v-.2c.1,0,.2,0,.2,0v-.3l.3-.7c0-.1,0-.2.1-.4,0,0,0-.1.1-.2v-.2c.1,0,0-.2,0-.2.1-.1.2-.3.3-.5,0-.2,0-.3.1-.5,0,0,0-.1.2-.2h.1v-.3h0c0,0,0,0,0,0l.3-.8h0v-.7c.1,0,0-.3,0-.3Z"/>
        <path d="M113.7,53.3h-.1c0-.1-.1-.3-.2-.5-.1-.3-.2-.5-.2-.5h0s-.1-.4-.1-.4h0s-.2-.3-.2-.3c0-.3-.1-.5-.2-.7-.1-.3-.2-.5-.3-.8v-.7h-.3l-1-2.6h0s-.6-1.9-.6-1.9v.5c-.2-.5-.3-.9-.5-1.4-.2-.5-.4-1.1-.6-1.6v-.2c0,0-.1-.2-.2-.4,0-.1,0-.2-.1-.3v-.2h-.1c0-.1,0-.2,0-.2h0c0-.4-.2-.6-.2-.8,0-.2-.2-.5-.3-.7,0-.1,0-.2-.1-.3l-.2-.4h0c0-.2-.1-.3-.2-.5,0-.2-.1-.3-.2-.5v-.3c0,0-.1-.1-.1-.2v-.4h-.2c-.1-.3-.3-.6-.4-.9-.1-.3-.2-.6-.4-1v-.2c0,0,0-.2-.2-.3h0s-.2-.3-.2-.3c0,0,0-.1-.1-.2h0c0-.1,0-.3-.1-.4v-.4h-.1c0,0,0,0,0,0,0,0,0,0,0-.1,0-.2-.1-.3-.2-.5l-.2-.5c0,0,0-.1,0-.2v-.4h-.7l-.3.9h-.2v.3h0c0,.2-.1.3-.1.5,0,0,0,0,0,0-.2.1-.2.3-.2.4s0,0,0,0h0c0,.2,0,.3,0,.5s0,.2,0,.3h0c0,0-.2,0-.2,0l-.2.4c0,0,0,.2-.1.3,0,0,0,0,0,0h-.1v.6c-.1,0-.2.1-.2.3,0,0,0,.2,0,.2v.2c0,0,0,0,0,0,0,0,0,.2-.1.3,0,.2-.1.3-.2.5,0,.2-.1.3-.2.4,0,.1,0,.2,0,.4,0,0,0,.1,0,.2,0,0,0,.1,0,.1l-.7,1.7v.7s0,.1,0,.1c.2.2.3.3.3.5,0,0,0,.1,0,.2h0c-.3-.2-.3-.3-.3-.3l-.7-1.1v1.2h-.1c0,0,0,.5,0,.5l-.4.5h.1v.2c-.1.1-.2.3-.2.5,0,0,0,.2,0,.2h-.2v1h.7c0,0,0,0,.1,0h0c0,0,0,.2,0,.3s0,.1,0,.2v.4c0,0,0,.3,0,.3,0,0,0,0-.1,0h0c0-.1-.9-.1-.9-.1h0c0,.1-.5.1-.5.1l.5.4v.4h.5c.2,0,.3.1.5.1l2.7-.9h-1.8v-.2c.1-.2.2-.3.3-.6h.2v-.2c-.1,0,0,0,0,0v-.3s0,0,0-.1l.4-.9-.9-.2v-.2c0,0,0-.1,0-.1,0,0,.1-.2.1-.5,0,0,0,0,.1-.1h0s0,0,0,.2l.2.6.4-.4c.2-.2.3-.4.4-.7,0-.2.1-.4.2-.5v-.2c0,0,0,0,0,0,0,0,0-.1.1-.3,0-.1,0-.2.1-.3v-.2c.1,0,.1,0,.1,0,0,0,0-.2.2-.4,0-.1,0-.2.1-.3h.2v-.3l.3-.9h0c0-.1.2-.3.2-.3v-.4c0,0,.1-.2.2-.3,0-.1,0-.2.1-.3h.1v-.2h0s.5,1,.5,1h0c0,.2,0,.3.1.3v.4c.1,0,.2,0,.2,0,0,.1,0,.3.2.4h0c0,.2,0,.3,0,.3v.4h.1v.2c0,0,.2.6.2.6h.1l.2.3c.2.5.4.9.6,1.4.2.4.4.9.6,1.3v.4h.1l.3.8h0c0,0,0,.1,0,.2,0,.2.1.3.2.4v.3c0,0,.2.1.2.1v.3h.2s0,0,0,.1c0,0,0,0,0,0h0c0,.1.1.4.1.4v.2c0,0,0,.2,0,.4h0c0,.1.4.8.4.8.2.5.4.9.5,1.3l.2.7h0c0,0,0,0,0,0,0,0,0,.2.2.2l.3.8h0c0,.2,0,.2,0,.3,0,.1,0,.2.1.3,0,.2.2.5.3.7.1.2.2.5.4.7v.3c.1,0,.1.1.1.1h.1c0,.2.1.4.2.5v.2c.1,0,.2.2.2.2h0c0,.2.1.3.2.3.1.1.3.2.4.2l.6.5v-.6h.5l-.4-.9v-.4ZM103.7,37s0,0,0,0h0s0,0,0,0Z"/>
        <path d="M128.2,33.9v-.4h-2.5s0,0,0,0c-.1,0-.3,0-.4,0h0c0,0-.1,0-.1,0h-.1c0-.1-.2-.2-.2-.2-1.1,0-2.3,0-3.5,0-.2,0-.5,0-.7,0h-.5c-.1,0-.2,0-.4,0-.5,0-.9,0-1.4,0-2.1,0-4.3,0-6.4-.2h-.3s-.1.2-.1.2c0,.2-.1.3-.1.5v1s.4,0,.4,0c.9,0,1.8,0,2.7,0,.9,0,1.8,0,2.8,0s.6,0,.9,0h.1c.1,0,.3,0,.4,0v.4c0,.4,0,.7,0,1.1,0,.6,0,1.2,0,1.8,0,1.9,0,3.9,0,5.7,0,.2,0,.4,0,.6,0,.2,0,.3,0,.5,0,.6,0,1.4,0,2.2v5c0,.8,0,1.4,0,1.9,0,.8,0,1,.2,1.1l.5.7.2-.5s0,0,0,0c0,0,.2,0,.2,0h.2s.3.7.3.7l.3-1c0-.2,0-.4,0-.6v-.2c0-.2,0-.4,0-.5,0-2.6,0-5.1,0-7.6,0-.2,0-.3,0-.4,0-.2,0-.5,0-1.2v-9.4h0c0,0,0-.1,0-.1,0,0,0,0,0,0h.5c.6,0,1.1,0,1.7,0,.8,0,1.6,0,2.5,0s.3,0,.5,0h.7c.3,0,.5,0,.7-.1.3,0,.5-.1.6-.2l.2-.3h0c0-.1,0-.3,0-.3h0c0,0,0,0,0,0,0-.1,0-.2,0-.2Z"/>
        <path d="M132.7,33h-2.2v2.1s0,0,0,0c0,0,0,.2,0,.3s0,.2,0,.3v.3c.1,0,0,0,0,0,0,.1,0,.3,0,.5s0,.3,0,.4c0,.1,0,.2,0,.3v.3h.1c0,0,0,.1,0,.2,0,.1,0,.3,0,.5v.3h0c0,.1,0,.3,0,.4v.5c0,1.7,0,1.7,0,1.9,0,0,0,.3,0,1.6,0,3.1.1,6.2.1,9.4s0,1,.1,1.5c0,.4.1.9.2,1.4v.4h.7c.3,0,.5-.2.5-.7h0c0-.3.1-.7.2-1.5,0-.7,0-1.5,0-2.3,0-.8,0-1.6,0-2.3v-3.5c0-.3,0-.6,0-.9,0-1.8,0-3.6.2-5.5,0-1,0-1.9,0-2.9s0-1.8,0-2.7v-.5ZM131.2,34.7l.2-.2h0c0,0,0,.2,0,.2h-.1c0,.1-.2,0-.2,0Z"/>
        <path d="M156.1,43.9h0c0-.2,0-.4,0-.6s0-.3,0-.5c0-.2,0-.4,0-.6v-.5h0c0-.2,0-.4,0-.6,0-.2,0-.5-.2-.7h0c0-.1,0,0,0,0,0,0,0,0,0,0,0-.3-.1-.6-.2-.8,0-.3-.1-.5-.2-.6h0c-.1-.3-.2-.6-.4-.8-.1-.2-.2-.4-.3-.6v-.2c-.2-.1-.3-.2-.3-.3,0-.1-.1-.2-.2-.3h0c-.2-.3-.4-.6-.7-.9-.3-.3-.6-.6-1-.9-.4-.3-.7-.5-1.1-.8-.3-.2-.7-.4-1-.5l-.8-.4h0c0,0-.1,0-.2-.1,0,0-.2,0-.3,0-.3-.1-.6-.3-1-.2l-1.8-.2h0s0,0,0,0h-.3s0,0,0,0c-1.4,0-2.8.3-4.1.9h-.2c-.2.2-.3.2-.6.4l-.3.2h-.1v.2c-.2,0-.3.2-.5.3-.2.1-.3.2-.4.3h-.2c-.6.7-1.2,1.3-1.7,2.1h0c-.1.2-.2.3-.3.5-.1.3-.2.4-.3.6h0c0,.2,0,.3-.1.4,0,.1,0,.2-.1.3,0,.1-.1.3-.2.4,0,.2,0,.2,0,.4h0c0,.1.2.4.2.4v.4c0,0,.2.2.2.2,0,0,0,0,0,.1h0c0,.1.5,1,.5,1h-.1c0-.2-.1-.3-.2-.4-.1-.2-.2-.4-.4-.5l-.7-.7v1c0,0,0,.1,0,.2,0,0,0,.2,0,.2h0c0,0,0,.3,0,.3,0,0,0,.2,0,.3v.2h0c0,.3,0,.5,0,.7s0,.2,0,.2h0c0,.2,0,.3,0,.4v.2c0,0,.4.5.4.5v.8h0c0,.1,0,.2,0,.3-.3,0-.4.3-.4.5v.3l.2.3h0s0,0,0,0h-.1v.3c0,.2,0,.3.1.5,0,0,0,0,0,.1h0s.1.4.1.4c0,0,0,.2,0,.3,0,.2,0,.3.1.5l.2.7h.1l.2.3v.2h.1s.4.7.4.7c.2.4.5.8.8,1.2.3.4.6.7,1,1.1.3.3.7.6,1.2.9h0c0,0,.2.2.2.2.1,0,.2,0,.2,0,0,0,.2.1.5.3.2.1.3.2.3.2h0,.1c0,.1.2.2.2.2h0c0,.1.3.1.3.1.6.2,1.3.4,2,.4h.9c.3.1.5.2.7.2s.3,0,.4,0c0,0,0,0,.1,0,.2,0,.4,0,.5,0h.7c.3,0,.7-.1,1.3-.3.5-.1.9-.3,1.2-.4h.2c0,0,0-.4,0-.4,0,0,0,0,0,0l.2.2h.3c0-.1.2-.2.4-.3.2-.1.3-.2.4-.3l.9-.6h.4v-.3c.2-.2.5-.4.7-.6.2-.3.4-.5.7-.8h.2v-.3c0,0,0-.2.1-.3h.1c0,0,.2-.6.2-.6,0,0,.2-.2.2-.4.1-.2.2-.5.3-.7,0-.2.2-.5.2-.7,0-.2.1-.3.1-.4l.2-.5c.1-.7.2-1.4.2-2.2s0-.5,0-.7c0-.2,0-.5-.1-.7ZM139.1,51.5s0,0,0,0h0s0,0,0,0h0s0,0,0,0h0ZM140.9,34.9h0s0,0,0,0c0,0,0,0,0,0h0ZM140.7,34.9s0,0,0,0h.1s-.1,0-.1,0ZM137.1,42.3h.2c0,0,0-.1,0-.1,0,0,0-.1,0-.2v-.2c0,0,.6,1,.6,1l.2-1.2c.2-1.1.5-2.1,1-2.8.4-.7,1-1.5,1.7-2.2h0v-.2c.1,0,.2,0,.2,0h0c0-.2.1-.2.2-.3h.2v-.2s0,0,0,0c0,0,.1,0,.2-.1.1,0,.2,0,.3-.1h.2s0-.1,0-.1h.2s0-.1,0-.1c0,0,0,0,.1,0,0,0,.1,0,.3-.1h.3c.2-.1.3-.2.4-.2l2.4-.4h.1c.3,0,.7.1,1,.1.3,0,.5,0,.8,0h.1c.2,0,.4.1.6.2.2,0,.4.1.6.2h0s0,.2,0,.2h.5c.1,0,.2.1.2.1l.2.2h.3c0,.1.2.1.2.1,0,0,0,0,.2.1.2.2.5.5.7.8.3.3.5.6.7.8.1.2.2.3.3.4v.3c.1,0,.2,0,.2,0,0,0,0,.1.1.2,0,0,0,0,0,.1,0,0,0,.2.1.2,0,.3.2.5.3.8.1.2.2.5.3.7.2.6.3,1.2.4,1.7.1.6.2,1.2.3,1.8h0c0,.1,0,.2,0,.2,0,.2,0,.4,0,.5,0,.2,0,.3,0,.5v.4c0,.4-.1.7-.2,1.1-.2.5-.3.9-.5,1.4l-.2.5-.2.4h0c0,.2,0,.2,0,.2,0,.1-.1.2-.2.3h-.1s-.1.4-.1.4c0,0-.2.2-.2.3,0,0,0,0,0,0l-.2.2h0c0,0,0,.1,0,.1-.1.1-.2.3-.4.4-.1.2-.3.3-.4.4h-.1c0,.1-.1.1-.1.1h-.1c-.1.2-.3.4-.5.5-.2.1-.3.2-.5.3h-.2c0,.1,0,.1,0,.1-.1,0-.3.1-.4.2-.2,0-.4.2-.6.3-.2,0-.4.1-.6.2-.2,0-.3,0-.3,0h-.3s0,0,0,0c-.3,0-.6,0-.9.1-.7,0-1.3,0-1.9,0-.3,0-.6,0-.9-.1h-.2s0,0-.1,0c0,0-.2,0-.3,0,0,0,0,0-.1,0h0c0,0-.3-.1-.3-.1-.1,0-.2,0-.3,0,0,0,0,0,0,0h0c0,0-.4-.2-.4-.2,0,0-.1,0-.2-.1h0c0-.1-.3-.2-.3-.2h0c0-.1-.3-.2-.3-.2l-.4-.3h0c0,0-.3-.2-.3-.2h-.1c-.2-.2-.4-.4-.6-.5h0s0,0,0,0c0,0-.1-.1-.2-.2-.2-.3-.4-.6-.6-.9-.2-.3-.3-.7-.5-1-.2-.3-.3-.7-.6-1h0c0-.1,0-.2,0-.2h-.1c0-.2,0-.4,0-.5h0c0-.2,0-.2,0-.2h0s0-.6,0-.6h0s0,0,0,0h2l-2.1-.5s0,0,0,0c0,0,0,0,0,0l.6-.3h-.7c0-.2,0-.3,0-.5v-.2h-.1c0-.1.2-.3.2-.3h-.4v-.2h-.2v-.2s0,0,0,0c.2-.1.4-.3.4-.6v-.2s-.3-.2-.3-.2h-.4c0,0,0-.1,0-.2v-.2s0-.2,0-.2v-.2Z"/>
        <path d="M175.1,40.7v1.3c0,1,0,1.1,0,1.2v.2c0,0,.2,0,.2,0h0c0,.1,0,.2,0,.2v.4h.2v.2c0,0,.6.8.6.8l.3-.4c0-.1.1-.3.1-.5h0c0-.1,0-.2,0-.3,0-1.2,0-2.5-.1-3.6,0-.6,0-1.2,0-1.9s0-1.1,0-1.7v-.7s0-.4,0-.4h0c0-.3,0-.5,0-.8,0-.3,0-.5,0-.8v-.2c0-.2,0-.3-.2-.5l-.3-.3h-.1c0,.1,0,0,0,0h-.2c-.1,0-.2,0-.3.1h-.2c0,0,0,.2,0,.2h0c0,.6,0,1.1,0,1.6,0,.5,0,1,0,1.5v.4c0,.1,0,.2,0,.3h0c0,0,0,.7,0,.7h0c0,0,0,.1,0,.2h-.2v2.6h.2Z"/>
        <path d="M176.7,51.5v-.5c0-.3,0-.5,0-.8s0-.1,0-.2l.6-.3h-.6c0-.2,0-.3,0-.4s0-.2,0-.4l.2-.4h0s0,0,0,0h-.3c0-.1,0-.1,0-.1h.1v-.3c.1-.2.2-.3.2-.5l-.4-1.3h.1v-.3l.2-.4h-.2s-.1-.1-.2-.2l-.2-.5h-.2c0,0,0-.2,0-.2l-.9-.4v1.2c0,0,0,.1,0,.2,0,.1,0,.3,0,.4v1.8s.3.3.3.3v.2h0s0,.8,0,.8c0,0,0,.2.1.3h-.1s0,0,0,0h-.4c0,.1.3.5.3.5,0,0,0,.1,0,.2v.2l-.3.3v.3c0,.1,0,.2,0,.3h-.3l-.7-.6.2.6h-.5l.5.2v.5c.1,0,.1,0,.1,0h0c0,0-.6,0-.6,0h0c0-.5-.3-.7-.5-.7v-1l-.7.5-.2-.9v-.5s0,0,0,0v-.4c.3,0,.4-.2.4-.5v-.2h-.1c0-.2,0-.3-.2-.4,0,0,0,0,0,0l-.2-.4c-.1-.2-.3-.4-.4-.6-.1-.2-.3-.4-.4-.5,0-.1-.1-.2-.2-.2l-.3-.4c-.2-.2-.3-.4-.4-.6-.1-.3-.3-.5-.5-.7,0,0,0-.2-.1-.2-.2-.3-.5-.6-.7-.9-.2-.3-.4-.6-.6-.9v-.2c-.2-.1-.3-.3-.4-.4h-.1c0-.1,0-.3,0-.3l-.2-.2c-.3-.3-.5-.6-.7-1-.2-.3-.4-.6-.6-.9,0,0,0-.2-.2-.3h0c0-.2-.1-.2-.2-.3,0,0,0-.2-.1-.3v-.2c0,0-.2,0-.2,0h0c0,0-.1-.2-.1-.2l-.5-.7c-.1-.2-.2-.4-.4-.6-.1-.2-.3-.4-.4-.5,0,0-.1-.2-.2-.4l-.2-.2c0-.1-.1-.2-.3-.4,0-.1-.2-.2-.2-.2,0-.1-.1-.2-.2-.2-.2-.3-.5-.6-.7-.9-.2-.3-.5-.7-.7-1v-.2h-.6l-2.2-2.7,1.3,2.7h-.3v.4c0,.7,0,1.4,0,2.2v.5c0,.9,0,1.8,0,2.7s0,.4,0,.6,0,.2,0,.3,0,0,0,.1c0,.1,0,.2-.1.3h-2.6l2.6.7v3.1c0,.8,0,1.6,0,2.4v.2c0,.1,0,.2,0,.4s0,.2,0,.3c0,.2,0,.3,0,.4,0,0,0,.2,0,.2,0,.1-.1.2-.1.4,0,.1,0,.3,0,.4v.6c0,.1,0,.3,0,.5,0,.1,0,.3,0,.4,0,.2,0,.4,0,.5v3.9c0,.4.3.5.5.5h.2c0,0,.1,0,.2,0h.2s0,0,0,0c0,0,0,0,0,0h.3c.2,0,.4,0,.5-.5,0-.2,0-.4,0-.6v-.8c0-.7,0-1.4,0-2.2,0-.7,0-1.5,0-2.2v-4.2c0-.1,0-.3,0-.4,0,0,0-.1,0-.2v-.2c.1,0-.5-.5-.5-.5,0,0,0,0,0,0,0,0,0-.1,0-.1,0,0,0,0,0,0,.2,0,.6-.1.6-.5v-.9s0-.4,0-.4v-.2c0,0,0,0,0,0v-2.3h-.1c0-.2,0-.2,0-.3h.2v-.3c0-.2,0-.4,0-.5l.2.2s.1.2.3.4c.2.2.3.4.4.5l.2.2c0,0,.1.2.2.3,0,.1.2.2.2.3,0,0,0,.1.1.2h0c0,.1,0,.2,0,.2h0c0,0,.1.4.1.4h0c0,.1.2.3.3.4,0,0,.1.2.2.2v.2c0,0,.2,0,.2,0l.3.4c0,.2.2.3.4.4,0,0,.1.2.2.2l.3.4c0,0,.2.2.2.3,0,.1.2.2.2.3,0,0,.1.1.2.2v.2s.2,0,.2,0v.3h.2c0,.2.2.3.4.4,0,0,.1.1.2.2v.2c.1,0,.1.2.1.2l.3.2c0,0,.1.2.2.3,0,.1.2.2.2.3,0,0,0,.1.1.2h0c0,0,0,.3,0,.3h.2c0,0,0,.2,0,.2h0c0,.1.2.3.3.4.1.2.2.3.2.3v.2c0,0,.1,0,.1,0h0c0,0,.1.2.1.2l.2.3c0,0,.1.1.2.2,0,.1.2.2.2.3,0,0,0,.1,0,.1h0c0,.1,0,.2,0,.2h0c0,.1,0,.2,0,.2.1.1.2.3.4.5.1.2.2.3.3.5h0c0,0,0,.1,0,.1h.1c0,.1,0,.3,0,.3h.1l.9.9v.2c0,.3.2.5.5.5v.3h0s0,0,0,0l1.3,1.5.4-1v.4c.1.2.2.3.3.4v.5c-.1,0,0,.2,0,.3h0c0,.1,0,.1,0,.1,0,0,0,0,0,.1v.2c-.1,0,0,.2,0,.2,0,0,.1.1.2.2,0,0,0,0,0,.1v.3s.1,0,.1,0h0c0,0,.1,0,.1,0h0c0,0,.2,0,.2,0,.1,0,.2,0,.3,0,.1,0,.2,0,.3,0h.5v-3.1h2.2l-2.2-.6ZM161.1,40h0s0,0,0,0h0ZM172.7,50.8c.1,0,.3.1.3.3h-.2v-.3ZM173.1,51.9h-.2s.2,0,.2,0h0ZM175.3,49.3h0c0,.1,0,.1,0,.1,0,0,0-.1-.1-.2,0,0,0,0,0,0Z"/>
      </g>
    </g>
  </g>
</svg>