<?xml version="1.0" encoding="UTF-8"?>
<svg xmlns="http://www.w3.org/2000/svg" version="1.1" viewBox="0 0 5.8 4.8">
  <!-- Generator: Adobe Illustrator 28.7.1, SVG Export Plug-In . SVG Version: 1.2.0 Build 142)  -->
  <g>
    <g id="Layer_1">
      <path d="M.4,4.8h0s.5-.5.5-.5l1.7-1.3h0L5.6.6l.3-.3-.3-.3-1.7,1.4c-1,.8-2.2,1.8-3.3,2.6v.2c0-.1,0-.2,0-.2L5.4,0h0l-.5.5c-.5.4-.9.7-1.6,1.2v.2s-.1,0-.2,0v.2c-.3,0-.5.2-.8.5l-.5.4-.5.4h.2s-.4.4-.4.4l-.5.5h-.2s.5-.5.5-.5h0L0,4.3H0s.4.5.4.5Z"/>
      <path d="M.2.2l-.2.2c0,.1.3.3.3.3l.7.6h0l-.5-.4H.5l.5.5.4.3h-.2l.5.4.5.4c.3.2.5.4.7.4h.2v.2h.2c.5.6,1,1,1.5,1.3l.5.4h0c0-.1-4.6-3.9-4.6-3.9v-.2h.2c1,1,2.1,1.8,3.1,2.7l1.6,1.3.3-.2h0c0-.2-3.1-2.7-3.1-2.7h0L1.1.5.4,0H.4"/>
    </g>
  </g>
</svg>