<?xml version="1.0" encoding="UTF-8"?>
<svg id="Layer_2" data-name="Layer 2" xmlns="http://www.w3.org/2000/svg" version="1.1" viewBox="0 0 147 62.2">
  <defs>
    <style>
      .cls-1 {
        fill: #fff;
        stroke-width: 0px;
      }
    </style>
  </defs>
  <g id="Layer_1-2" data-name="Layer 1-2">
    <g>
      <path class="cls-1" d="M19.9,18.3l-.5.2c-.2,0-.3.1-.5.3,0,0,0,0-.2,0l-.8-.3v.6c0,.3,0,.6,0,.9,0,.3,0,.6,0,1,0,.6,0,1.3,0,2v.5s0,0,0,0h-.3c0,.2-.1.2-.2.3l-.3.2c0,0-.2,0-.2.1h-.2c0,.1,0,.1,0,.1h-.4v.9h.2l.3.4s0,0,0,0h-.7s0,0-.1,0l-.2-.2v-.2h-.2s0,0,0,0c0,0-.2-.1-.2-.2l-.5-.3v.3c-.1,0-.2,0-.2,0h-.8c0,.1,0,.1,0,.1h-.3c0,0-.1,0-.1,0-.3,0-.5,0-.8,0-.3,0-.7,0-1,0s-.5,0-.8,0c-.3,0-.6,0-.9,0-.3,0-.6,0-.9-.2-.3,0-.5-.1-.7-.2h-.3c0,0-.1-.1-.1-.1l-.5-.2c-.7-.3-1.4-.7-2.1-1.2l-.2-.3h0c-.2-.2-.5-.5-.8-.8-.3-.4-.5-.7-.7-1v-.2c-.1,0-.4-.1-.4-.1h0s-.2-.6-.2-.6c0-.2-.1-.4-.2-.6,0-.2-.1-.4-.2-.5h0v-.3h0s-.4,0-.4,0h0s.3-.1.3-.1c0,0,0-.1,0-.2h0c0-.1-.1-.2-.1-.2,0,0-.1,0-.1-.1v-.2h0l.3-.5h-.2c0-.9,0-1.6,0-2.2,0-.6,0-1.2.2-1.8.1-.6.3-1.2.5-1.8.2-.6.6-1.3,1-2.1h.1c0-.1,0-.2,0-.2h.2c0,0,0-.2,0-.2h.1c0,0,0-.2,0-.2.2-.1.4-.3.7-.6.2-.2.3-.3.5-.5,0,0,.2,0,.3-.1.1,0,.2-.1.2-.1h.1c0-.1,0-.1,0-.2.1,0,.2,0,.3-.2h.2c0-.1.1-.1.1-.1h.1c.2-.2.3-.2.4-.3h.3c0-.1.1-.1.1-.1h.2c0-.1,1.8-.5,1.8-.5h0s.2,0,.2,0c.6,0,1.1,0,1.6,0h.3c.4,0,.8,0,1.2.1.1,0,.2,0,.4.1.2,0,.4.1.7.2.2,0,.4,0,.6.2.3,0,.4,0,.4,0h.9v.3h.1v.4h.2c0,.1.1.2.3.3.1,0,.2.2.3.2,0,0,.1.2.2.2,0,0,.1,0,.1,0h0c0,.1.1.2.1.2.3,0,.4,0,.5,0h0c.2,0,.3,0,.4,0h0s0,0,0,0c.1,0,.3-.2.4-.3.2-.2.3-.4.4-.7v-.2c0,0,0-.2,0-.2-.7-.7-1.5-1.3-2.4-1.8l-.5-.3v.6c0,.1,0,.3,0,.4v.2s0,0,0,0h0v.3s-.4-.2-.4-.2c0-.2-.2-.4-.6-.4h0c0,0-.1,0-.2,0v-.3s-.1,0-.1,0h0c0-.2,0-.3,0-.4h0c0,0,.5-.6.5-.6h-.9c0-.1-.2-.2-.2-.2-.4,0-.7-.1-1.1-.2-.4,0-.8-.1-1.2-.1h-.3c-.1,0-.3,0-.4,0h-.5c0,0,0,0,0,0h-.2c0-.1-.6-.1-.6-.1h0s-.2,0-.2,0h-.2s0,.2,0,.2h-.4c0,0-.2,0-.2,0h-.4c-.1,0-.2,0-.2,0h-.4v.2h-.3c-.1,0-.3,0-.5.3h-.4c-.1,0-.2,0-.3,0-.2,0-.3,0-.4.2,0,0-.2,0-.3.1-.1,0-.2.1-.3.2,0,0,0,0-.2,0-.1,0-.2,0-.2.2l-.4.3h-.1l-.2.2h-.2c-.2.4-.5.7-.8,1-.3.3-.6.6-.9.8h-.1v.2c0,0,0,.1-.2.2,0,.1-.2.2-.2.3h0c0,.1-.1.2-.1.2-.7,1-1.2,2.1-1.5,3.2-.3,1.3-.4,2.5-.4,3.7,0,.2,0,.4,0,.7,0,.2,0,.5,0,.7v.3h.6l.5.3-.2.5v.2c0,0,0,.1-.1.2,0,0,0,.1-.1.2h0v.3c0,0,0,.1-.1.2l-.3.2.3.3s0,0,0,.3v.5c.1,0,.2.3.2.3h0s0,.1,0,.1c0,.2.2.4.3.6,0,.1.1.3.2.5h0c0,.2,0,.2.1.3,0,0,0,0,.1.1l.3.6s0,0,0,0h0c0,.1.1.2.1.2,0,0,0,0,0,0h0c.3.5.7.9,1,1.4.4.5.8.8,1.2,1l.4.3h.2c0,.1.1.3.1.3h.1c.2,0,.4.2.7.3l.7.3c.3.2.7.3,1.1.4.4,0,.8.1,1.2.2s.8,0,1.3.1c.4,0,.8,0,1.1,0h.6c.2,0,.4,0,.6,0,.3,0,.5,0,.8,0,.2,0,.4,0,.5-.1h0c.1,0,.3,0,.5,0,.1,0,.3,0,.4,0h0c0,0,.5,0,.5,0,.1,0,.2,0,.2,0h.4c0,0,.1,0,.1,0l.2-.3h.4c0-.1.3-.2.3-.2v-.2h.1s-.1,0-.1,0v-.3c.1.2.3.3.5.3h.2c.4-.2.7-.4,1.1-.6.4-.2.7-.4,1.1-.6h.2v-.8c0-.9,0-1.7,0-2.5v-3s0,0,0,0ZM2.4,20.7v-.2c0,0,0,.3,0,.3h-.1v-.2h0c0,0,0,0,0,0ZM8.5,5.1h0s0,0,0,0h0ZM11.2,4.1h0s0,0,0,0h0ZM2.7,20.5h0s0,0,0,0h0Z"/>
      <path class="cls-1" d="M19.7,15h-.6c-.1-.2-.3-.2-.4-.2s-.2,0-.3,0l-1-.5.4.7h-.2c0,0-.1-.1-.2-.1h-.2c0,0-.2,0-.5,0-.2,0-.5,0-.7,0h-1.1c-.2,0-.6,0-1.2,0-.6,0-1.2,0-1.9,0h-1.8c-.4,0-.6,0-.8,0h-.2c-.2,0-.4,0-.6,0-.2,0-.4,0-.7,0h-2.6s0,.5,0,.5c0,.3.1.6.3.9h.1c0,.1.2.1.2.1.9,0,1.9,0,2.8,0,.9,0,1.8,0,2.8,0,1.8,0,3.7.1,5.6.1h0c0,0,.1,0,.2,0,0,0,.1,0,.2,0,.1,0,.2,0,.4,0h.4v-.8s-.3-.1-.3-.1c0,0,0,0,0,0,0,0,0,0,0,0l.4.2h0s0,0,0,0h0,0c0,.2,0,.2,0,.3v.3c.1,0,0,.2,0,.2l.3.4h.2c0,.1.2.1.2.1.1,0,.2,0,.3,0h.5c0,0,0-.4,0-.4,0-.2,0-.4,0-.6,0,0,0-.1,0-.2h2.3s-2.3-.6-2.3-.6h0s0,0,0,0Z"/>
      <path class="cls-1" d="M40.2,25.9c0-.2-.2-.3-.3-.4,0,0,0-.2-.1-.2,0,0,0,0,0,0h0s-.3-.3-.3-.3h0c0-.1-.2-.1-.2-.1,0-.1-.2-.2-.2-.3,0-.2-.2-.3-.4-.5h-.2c-.1-.3-.3-.4-.6-.4h-.2s-.5-.1-.5-.1l.3.4c0,0,0,.2,0,.3,0,.1,0,.2,0,.3s0,.2,0,.4c0,.2.1.3.3.5h.2v.3h.2c0,0,0,.1.2.3,0,0,.1.1.2.2,0,0,0,0,0,.1l.2.3h.3c0-.1,0-.1,0-.1l1.2,1-.2-.8h.5c0,0-.5-.6-.5-.6h0Z"/>
      <path class="cls-1" d="M37.2,22.8v-.3h-.6c0-.3,0-.4,0-.5v-.2h-.3s-.1,0-.2,0v-.2l.2-.5h-.6c-.2,0-.3,0-.4,0,0-.1,0-.2,0-.2v-.6c-.1,0-.1,0-.1,0,0,0,0-.2,0-.2h0c0-.1,1.3.5,1.3.5l-1.6-1.7c-.2-.2-.3-.4-.5-.6-.2-.2-.3-.5-.5-.6l-.5-.7h0c0-.1-.2-.3-.2-.3h0c0-.1,0-.1,0-.1,0,0,.2,0,.3,0h.5c0-.1,0-.1,0-.1.2,0,.3,0,.5-.1.1,0,.2,0,.3,0l.7.8-.3-.9h.2c.1-.2.2-.2.3-.2.2,0,.3-.1.4-.2h.1s.4.4.4.4v-.4c-.1,0,.4-.5.4-.5,0,0,0,0,0,0l.3-.2h.2c0,0,0-.2,0-.2,0,0,0,0,0-.1h0c0,0,0,0,0,0,0,0,0,0,0,0h.1c0,0,0-.2,0-.2,0,0,0-.1.1-.2,0-.1.2-.2.3-.4h0v-.4c0,0,.1,0,.1,0h0c0-.2,0-.4,0-.5,0,0,0-.1,0-.2l.5-.5c.2-.2.3-.5.3-.9v-.7c0-.2,0-.5,0-.7v-1.1c-.1,0-.2-.4-.2-.4l-.7.2c0,.2,0,.4,0,.7,0,.3,0,.6,0,.8h0c0,0,0,.3,0,.3h0v.3s0,.2,0,.2h0c0,.2,0,.3,0,.4,0,.1,0,.2,0,.3,0,0,0,0,0,.2,0,0,0-.1,0-.1l-.2-.3h-.3c0,.1,0,.2-.1.2h-.7v.3c-.1.2-.2.4-.3.7,0,.3-.2.4-.3.6h-.1v.2h-.2c0,.1,0,.2,0,.2h0c-.1.1-.2.2-.3.3,0,0-.2.1-.2.1,0,0-.1,0-.1,0h0c0,0,0,0,0,0h0c0,0-.2.2-.7.4-.3.1-.5.2-.6.2-.6.2-1.3.3-2,.4-.7,0-1.4,0-2.1,0-.3,0-.6,0-.9,0-.3,0-.6,0-.9,0h-.4c0,0,0,.2,0,.2v-.4s-.2.3-.2.3c0,0,0,0-.1,0v-.2h-.4l-.4-1.1v.7l-.2.4h-.7s0,2.3,0,2.3c0,.1,0,.3,0,.4v.9l-1,.4h1v1c0,.5,0,.9,0,1.3s0,.5,0,.6h0v.7c0,.6,0,1.3,0,1.9,0,.3,0,.6,0,.9,0,.3,0,.6,0,.9v.4s.5,0,.5,0h.1c0,0,0,0,0,0h0c0,0,.2,0,.3,0h0v2s.7-2.2.7-2.2c0-.2.1-.4.1-.7v-.2c0-.3,0-.5,0-.7s0-.4,0-.8c0-.4,0-.8,0-1.3v-1.2c0-.2,0-.4,0-.5,0,0,0-.2,0-.4,0-.3,0-.6,0-.9s0-.8,0-1.2c0-.2,0-.4,0-.6,0-.3,0-.7,0-1,.2,0,.5,0,.7,0,.3,0,.6,0,1,0h.4c.2,0,.3,0,.5,0,.1,0,.3,0,.5,0h0c0,0,.1.2.4.5.2.2.4.5.6.8.2.3.4.5.6.8.2.2.3.4.5.5l.8,1c.2.3.5.6.8.9,0,0,0,0,.1.2,0,0,.2.3.4.4h0v.2l.3.2h0c0,.1.3.5.3.5,0,0,.1.1.2.2v.2h.2c0,.1.2.3.3.5.2.2.3.3.4.4l.6.6v-1c0-.2,0-.3,0-.4,0,0,0-.1,0-.2h0ZM34.7,19.9h0s0,0,0,0h0s0,0,0,0h0Z"/>
      <path class="cls-1" d="M25.1,5.8h.2c.2,0,.4,0,.5,0,.2,0,.5,0,.7,0h1.3c.4.1.9.1,1.3.2.4,0,.8,0,1.4,0,0,0,0,0,.1,0h0c0,0,.1,0,.2,0h.2s.1,0,.1,0c.4,0,.7,0,1.1,0,.4,0,.7,0,1.1.1h.3c.5.2,1,.4,1.5.6.5.2.8.5,1.1.9h0c0,.2,0,.2.1.3v.2s.1,0,.1,0c0,.3.1.5.3.6h0s-.2.2-.2.2h0c0,.1,0,.3,0,.4v1.4s1.1-.1,1.1-.1l-.2-.6v-.3h0c0-.2,0-.3,0-.3v-1.3s-.1.1-.1.1c0-.1,0-.2,0-.4,0,0,0-.1,0-.2h0c0,0,0-.2,0-.2,0,0,0-.1,0-.2h0c0-.3,0-.4,0-.6s0-.2,0-.2h.3c0,0-.7-1-.7-1h-.3c0,.1,0,0-.1,0v-.2s-.2-.1-.2-.1v-.3c.1,0-.2-.2-.2-.2-.7-.4-1.5-.7-2.5-.9h-.4c-.8-.2-1.7-.3-2.6-.3h-2.6c-.5,0-1,0-1.4,0h-1.1c-.3,0-.7,0-1,0-.4,0-.8,0-1.3,0h-.4s0,2.2,0,2.2h1c0,0,.1,0,.2,0,.2,0,.5,0,.7,0h0s0,0,0,0Z"/>
      <path class="cls-1" d="M60.8,25.5h-.1c0-.1-.1-.3-.2-.5-.1-.3-.2-.5-.2-.6h0s-.1-.5-.1-.5h0v-.2c-.2-.3-.2-.5-.3-.8-.1-.3-.2-.5-.3-.8l-.2-.7h-.1l-.5-1.3v-.4c-.1,0-.3-.3-.3-.3l-.3-.9h0l-.6-1.8v.5c-.2-.5-.4-1.1-.5-1.6-.2-.6-.4-1.1-.7-1.6v-.2s-.1-.2-.2-.4c0-.1,0-.3-.1-.4v-.2h-.1c0-.1,0-.3,0-.3h0c0-.4-.2-.6-.2-.8,0-.2-.2-.5-.3-.8,0-.1,0-.2-.1-.3l-.2-.5h0c0-.2-.1-.4-.2-.5,0-.2-.1-.3-.2-.5h0c0-.1,0-.3,0-.3,0,0,0-.1,0-.2v-.4h-.2c-.2-.3-.3-.6-.4-.9,0-.3-.2-.7-.4-1v-.2c0,0,0-.2-.2-.3h0s-.2-.3-.2-.3c0,0,0-.2-.1-.2h0c0-.2,0-.3-.1-.4h0v-.3h0c0,0,0,0,0,0,0,0,0-.1,0-.2,0-.2-.1-.3-.2-.5s-.1-.3-.2-.5c0-.1,0-.2,0-.2v-.4s-.7,0-.7,0l-.4,1-.2.3c0,.1-.1.3-.1.4h0c-.2.2-.2.3-.2.4h0c0,0,0,.2,0,.2,0,.1,0,.2,0,.4s0,.2,0,.3h0c0,.1-.2,0-.2,0l-.2.3c0,0,0,.2-.1.3,0,0,0,0,0,0h-.1v.6c-.1,0-.2.2-.2.3,0,0,0,.2,0,.2v.2h0c0,0,0,.2-.2.3,0,.2-.2.3-.2.5,0,.2-.1.3-.2.4,0,.1,0,.2,0,.4,0,0,0,.1-.1.2s0,.1,0,.2l-.7,1.7v.7s0,.1,0,.1c.2.2.3.4.3.6,0,.1,0,.2,0,.3h-.1c-.3-.3-.3-.4-.3-.4l-.7-1.1v1.2h-.2c0,0,0,.4,0,.4l-.3.4h.2,0c0,0,0,.3,0,.3,0,.1-.1.3-.2.5,0,.1,0,.2,0,.3h-.2v.9h.7s0,0,.1,0h0c0,.1,0,.2,0,.3,0,0,0,.2,0,.3v.4c0,0,0,0,0,0h0c0,.1,0,.4,0,.4h0c0,0-.1,0-.2,0h0c0-.1-.9-.1-.9-.1h0c0,.1-.4.1-.4.1l.4.3h0s0,.4,0,.4h.4c.2.1.3.2.5.2l2.6-.8h-1.7v-.2c.2-.2.2-.4.3-.6h.2v-.2c-.1,0,0,0,0,0v-.3s0,0,0-.1l.4-.9-.9-.2c0,0,0-.1,0-.2h0c0-.1,0-.2,0-.2,0-.1.1-.2.2-.5,0,0,0,0,.1-.1v-.2c.2.1.2.2.2.4l.2.6.4-.4c.2-.2.3-.4.4-.7,0-.2.2-.4.3-.6v-.2c0,0,0,0,0,0,0,0,0-.1.1-.3,0-.1,0-.2.1-.3v-.2h0c0-.1.1-.2.2-.4,0-.1,0-.3.1-.4h.2v-.3l.4-.9h0c0-.1.2-.3.2-.3v-.4c0,0,.1-.2.2-.3,0-.1.1-.2.1-.4h.1v-.2h.1c0-.1.5,1,.5,1h0c0,.2,0,.3.1.4v.4c.1,0,.2,0,.2,0,0,.1,0,.2.2.4,0,0,0,0,0,0,0,0,0,.1,0,.2v.4h.1v.2c0,0,.2.4.2.4l.3.6h0c.2.6.4,1,.6,1.5.2.5.4.9.6,1.4v.4h.1l.2.6h0c0,0,0,.2,0,.2h0c0,0,0,.2.1.3,0,.2.1.3.2.4v.3c0,0,.2.1.2.1v.3h.2s0,.1.1.2c0,0,0,0,0,0v.4c.1,0,.1.2.1.2,0,0,0,.2,0,.3,0,0,0,.1,0,.1h0c0,.1.4.8.4.8.2.5.4,1,.5,1.4v.7c0,0,.2-.1.2-.1,0,0,0,.1,0,.2,0,.1,0,.2.2.2l.3.9h0c0,.1,0,.2,0,.3,0,.1,0,.2.2.3,0,.2.2.5.3.7.1.2.2.5.4.7v.5c.1,0,.2,0,.2,0,0,.2,0,.3.2.4v.2c.1,0,.2.2.2.2h0c0,.2,0,.3.2.3.1.1.3.2.4.2l.6.6v-.7h.4l-.4-.9v-.4h0ZM54.3,11.9h0Z"/>
      <path class="cls-1" d="M43.6,27.1v-.4h0c0,0,.2-.6.2-.6l.2-.2h0v-.4l.3-.7c0-.1,0-.3.1-.4,0,0,0-.1.2-.2h.1c0-.1,0-.4,0-.4.1-.1.2-.3.3-.5,0-.2.1-.4.1-.5,0,0,0-.1.1-.2,0,0,0,0,0,0h.1v-.3h0c0-.1,0-.1,0-.1l.3-.7h0,0c0,0,.2-.7.2-.7l-.2-.3v-.3s0-.1,0-.1c0-.1-.2-.2-.4-.2h0c0,0,0,0,0,0v-.6.3c-.2-.1-.3-.2-.4-.3h-.2v-.3.2c0,0-.2,0-.2,0v.4c-.2.1-.2.2-.3.3,0,.1-.1.2-.1.4l-.4.9c0,0,0,.2,0,.3h0c0,.1-.1.2-.1.3,0,.1-.1.3-.2.4,0,0-.1.2-.2.5-.1.3-.2.4-.2.4h0l-1.1,2.4c0,0,0,.1-.1.2l-.2.4h0c0,0,0,.2,0,.2,0,0,0,.2,0,.3,0,.2-.1.3-.2.5v.5c0,0,2,0,2,0h.4s0,0,0,0Z"/>
      <path class="cls-1" d="M65.6,28.3v-2.9s.2,0,.2,0v-.5c-.1,0-.1-.4-.1-.4,0-.4,0-.6,0-.7v-.3c0,0,0,0-.1-.1,0-.1,0-.2,0-.4h0c0-.1,0-.3,0-.3,0,0,0,0,0,0l-.2-.5v-.3h.2c0-.1,0-.2,0-.2h.1c0,0,0-.2,0-.2,0,0,.2,0,.3-.2h.2c0,0,0-.2,0-.2,0,0,0-.2,0-.7s0-.4,0-.5v-.3c.1-.3.1-.5.1-.8v-.2c0-.3,0-.7,0-1v-1l.2-.2h-.2c0-.2,0-.3,0-.4,0-.3,0-.5,0-.8v-.2c.2,0,.3,0,.4,0h.1c.1,0,.3,0,.4,0h0c0,0,.1,0,.1,0,0,0,.1,0,.2,0,0,0,.2,0,.3,0,.2,0,.2,0,.3-.1,0,0,0,0,0,0h.2c0,0,.1-.4.1-.4,0,0,0,0,0,0h0,0c0,.2,0,.2,0,.2l.4.7h.2c.3.1.5.1.6.1h2.8c0,0,.2,0,.3,0h.2c.8,0,1.6,0,2.3-.2l3.1-.4-2.2-.2v-.3c0-.2,0-.3-.1-.4h0l1.9-.4h-2.3v-.2c-.2,0-.4,0-.5,0h-.4c-.6,0-1.2,0-1.8-.1-.6,0-1.2,0-1.8,0h-2.9c0,0,0,.1,0,.1l-.2-.2h-1.5s0,0,0,0c0,0,0,0-.1,0-.1,0-.2,0-.3,0,0-1.1,0-2.2,0-3.2,0-1,0-2.1,0-3.1h0s-.1-1.2-.1-1.2c0-.1,0-.3,0-.4h.3l.2-.4h0s0,0,0,0h0c0,0,.3,0,.3,0v.5h.4c0,0,.2,0,.3,0h10.3c0,.1,0-1.3,0-1.3h-.4c-1.9,0-3.7-.1-5.5-.2-1.8,0-3.6-.2-5.5-.2h-.4c0,0-.2,0-.3,0h-1.7s-.1,15.2-.1,15.2h-.3c0-.1.4.7.4.7,0,.1,0,.3,0,.4s0,.1,0,.2c0,0,0,0,0,.1v.8c0,0,0,0,0,0h0v1.1h0c0,.3,0,.5,0,.7s0,.4,0,.6v.4c0,.3,0,.6,0,.9v.3s-.7.3-.7.3h.8s0,.7,0,.7l.3-.5v2s1.1,0,1.1,0h0Z"/>
      <path class="cls-1" d="M81.7,21.4c0,2.3,0,4.5,0,6.8v.4h.8s1,0,1,0v-.5c0-.2,0-.4,0-.6v-5c0-1.1,0-2.3,0-3.5v-.6s0,0,0,0c0-.1,0-.3,0-.4s0-.2,0-.4c0-.3,0-.6,0-.9,0-1.9.1-3.8.3-5.7,0-1,0-2,.1-3,0-.9,0-1.8,0-2.8v-.5c0,0-2.3,0-2.3,0v2.2s.8-.8.8-.8h.1c0,.1,0,.2,0,.3l-.4.4.5,1h0c-.1,0-.2-.1-.3-.1,0,0-.2,0-.3.1h-.2v.2c-.2.1-.2.3-.2.5,0,.1,0,.3,0,.4,0,.1,0,.2,0,.4v.2h.2c0,.1,0,.2,0,.2,0,.1,0,.3,0,.5v.3h0c0,.2,0,.3,0,.4v.2s0,.3,0,.3c0,3.3,0,6.6,0,9.8h0Z"/>
      <path class="cls-1" d="M103.9,26.4h0c0-.1.2-.2.2-.2h0c.3-.2.5-.4.8-.6.2-.2.4-.4.7-.6l1-.7h-.8l.2-.2h-.4c0,0-.1,0-.2-.1,0,0,0-.1-.1-.2h0c0-.1,0-.1,0-.1h0c0-.1-.7-.2-.7-.2h0c-.3.1-.5.2-.7.4-.1.1-.3.2-.5.3h-.1c-.1.2-.2.2-.4.3-.1,0-.3.2-.4.2h-.2c0,0,0,.1-.1.1,0,0-.2,0-.3.2h-.3c0,0-.3.3-.3.3h-.6v.6c0,0,0,.2,0,.3v.3h0s0,0,0,.1c-.1,0-.3.1-.4.2h-.2c0,0,0,0,0,0-.4,0-.6.3-.6.7h0c0,.1-.3,0-.3,0,0-.1,0-.2-.1-.4h0s0,0,0,0h0,0s0-.1,0-.2c0,0,0-.2,0-.2h.2c.1,0,.2,0,.3,0,.2,0,.3-.2.3-.4v-.4h0,0c0,0-1.1,0-1.1,0-.2,0-.4,0-.5,0s-.2,0-.2,0h-1.2s-.2,0-.2,0h-.3c0,.1-.1-.4-.1-.4v.7c-.1,0-.1-.4-.1-.4h-.3c-.7-.2-1.3-.5-1.8-.8s-1.1-.6-1.7-1h0c0-.1-.1-.2-.1-.2,0,0,0,0-.1-.1,0-.1-.2-.2-.3-.3,0-.2-.2-.3-.3-.3h0c0-.1-.1-.2-.2-.4-.1-.2-.2-.3-.2-.4v-.3h-.2c0-.1-.1-.2-.2-.3l-.2-.3v-.3c-.2-.2-.2-.2-.2-.2v-.4h-.1v-.2c-.2-.2-.2-.4-.3-.6,0-.2-.1-.4-.2-.6h0c0-.1,0-.5,0-.5h0c0,0,0-.1,0-.2,0-.2,0-.5-.2-.7v-.2h-.5v-.3c0-.1,0-.2,0-.3,0,0,0-.1,0-.2h0c0-.2,0-.3,0-.3h0c0-.1.2-.2.2-.2v-.3h0v-.6c0-.1,0-.2,0-.4h0c0,0,.2,0,.2,0v-.4l.2-.3h0c0-.3,0-.6.1-.9,0-.2,0-.5.2-.7l.2-.5h0l.2-.8h0c0-.1,0-.2,0-.3h.2c0-.1,0-.4,0-.4,0,0,0-.1,0-.2v-.3s0,0,0,0l.2-.3h-.1c0,0,.2-.6.2-.6,0,0,0-.1,0-.2v.6l.6-.5c.2-.1.3-.3.5-.4l.3-.4h.2c0,0,.1-.3.1-.3.2,0,.3-.1.5-.3.3-.2.6-.3.9-.5.4-.2.8-.4,1.2-.6.4-.2.8-.3,1.3-.3h.3v-.3c.4,0,.8,0,1.2,0h.3c.2.2.5.3.7.3.2,0,.3,0,.5,0,0,0,.2,0,.3,0h.2s0,0,0,0h.2c0,0,.2,0,.4,0,.3,0,.3,0,.3,0h0c0,0,.4,0,.4,0,0,0,.2.2.3.2,0,0,0,0,.1,0l.5.2c.1,0,.2,0,.3.1h0c0,0,0,0,.1,0h0c0-.1.3,0,.3,0,0,0,0,0,0,0h0s0,0,0,0c0,0,.2.2.3.2.1.1.2.2.3.3l.5.4h0c0,0,.1.1.2.2,0,0,.2.2.3.2l1.7,1.3-.8-1.3h.6l-.3-.5c0,0,0-.1,0,0v-.2h-.1c-.4-.5-.8-.8-1-1.2h0c0-.1-.1-.2-.1-.2v-.2c0,0-.3,0-.3,0h0c0-.1-.2-.2-.2-.2h0c0,0-.1-.1-.1-.1l-.4-.3h-.3c0-.1,0-.2,0-.2h-.1c0,0-.1,0-.2,0l-.3-.3h0c0,0-.5-.1-.5-.1h-.2c0,0-.2,0-.4-.2h0c-.6-.2-1.2-.3-1.8-.4-.6,0-1.2-.1-1.8-.1-.5,0-.9,0-1.4,0-.3,0-.7,0-1,.2h0c0,0-.4,0-.4,0h0s-.2,0-.2,0h0c-.2.2-.5.3-.7.4-.3.1-.6.2-.9.3h-.4v.2h0s0,0-.4.2c-.2.1-.4.2-.5.3l-.5.3-.3.4h0c0,.1,0,.2,0,.2l-.4.2c-.2,0-.4.2-.6.4,0,.1-.2.3-.3.4h-.2c0,.1,0,.3,0,.3h0s0,.2,0,.2h0s0,.2,0,.2c-.2.2-.3.4-.3.6h0c0,0,0,.3,0,.3h-.1v.3l-.2.4h-.1c0,0-.2.7-.2.7h0c-.3.7-.5,1.5-.7,2.4-.1.9-.2,1.7-.2,2.5,0,.7,0,1.4.1,2.1,0,.6.2,1.3.3,2l.2.8h0l.2.5c0,0,0,.2.1.3h0c0,0,0,.1,0,.1,0,0,0,.1,0,.2,0,.1,0,.2.2.3v.2c0,0,.2.4.2.4h.1c0,.1,0,.2.2.3,0,0,.1.1.2.2h0s0,.1,0,.1c0,.1.2.3.4.5.2.2.4.5.6.7.2.2.4.5.6.7.2.2.3.3.5.4l.2.2h0s0,0,.1.1l.7.4h0c0,0,.4.2.4.2,0,0,0,0,0,0,0,0,.1.1.3.1h0c0,.1.2.2.5.3.4.1.5.2.6.2l.5.2h.2c.2,0,.4,0,.6.2.3.1.6.2.9.2h.9c.3.1.6.1.9.1s.2,0,.5,0h.1s0,0,.1,0h.4c0-.1.3-.2.3-.2v.3h.4c.4,0,.9-.2,1.3-.3.4-.1.8-.2,1.1-.3h.3v-.2h.3c0,0,0-.2,0-.2h.3c0,0,.3-.3.3-.3h.4c0-.1,0-.2,0-.2ZM99.3,26.4h0c0-.1,0-.1,0-.1,0,0,0,.1,0,.1ZM104.5,6.7s0,0,0,.1h0ZM89.8,9.4h0s0,0,0-.1h0,0c0,.1,0,.1,0,.1ZM90.1,9.6h0c0,0,.1,0,.1,0h-.1Z"/>
      <path class="cls-1" d="M127,28.5v-.4c0-.2,0-.3-.6-.8-.3-.3-.6-.6-1-1s-.7-.7-1.1-1c-.4-.4-.6-.5-.6-.6h0c0,0,0-.1,0-.1l-.6-.7h-.2c-.6-.6-1.1-1.2-1.6-1.7-.5-.6-1.1-1.2-1.7-1.7h0c0-.1-.2-.1-.2-.1,0,0-.2-.1-.2-.2s-.2-.2-.3-.2l-.2-.2c-.4-.4-.9-.8-1.3-1.2l-1.3-1.4h-.1s-.6-.7-.6-.7c0,0,0,0,0,0,.1-.1.3-.2.4-.4l.2-.2-.2-.2c0,0,0-.1,0-.2v-.2s0,0,0,0v-.3c.1,0,.2,0,.2-.1l.5.4.2-.2c.3-.2.6-.5.9-.8.3-.3.6-.5.8-.8h0v-.2h.2c0-.2.2-.3.3-.4.1,0,.2-.2.3-.3l.2-.2h0c0-.1.2-.2.3-.3.2-.2.3-.3.4-.4l.3-.3h0c0,0,0-.1,0-.1l.3-.3v-.2c.1,0,.1,0,.1,0,0,0,.2-.2.4-.4.3-.2.6-.5.9-.8.3-.3.6-.6.9-.9.3-.3.4-.4.5-.5h0c0,0,.4.4.4.4v-.8s0,0,0,0c0,0,.2-.2.3-.3l.4-.4h.2s.9-.9.9-.9c.2-.1.3-.3.3-.4v-.2h-.1c0-.2-.2-.2-.3-.2h-.2c0,0-.1,0-.1,0-.1,0-.3,0-.4,0-.1,0-.3,0-.4,0v-.3l-.4.3c0,0-.1,0-.2,0l-.6.2-1.9,1.8h0c0,0-.1.1-.2.2h-.2c0,.1,0,.3,0,.3h-.3c-.2.2-.4.4-.4.7h0c0,.1,0,.2,0,.2h-.2c0,0-.3,0-.5.3h-.1s-.2.1-.2.1c-.4.4-.8.8-1.3,1.2-.4.4-.8.8-1.1,1.2h-.2c0,.2-.3.4-.6.7-.3.3-.6.6-.9.9s-.6.6-.9.8c-.3.3-.4.3-.4.3h-.2c0,0,0,.2,0,.2,0,0,0,0-.2.2-.1.1-.3.3-.4.4-.1.1-.3.3-.4.4-.2.1-.2.1-.2.1l-1,.4c-.1,0-.3,0-.5,0h-.1c0-.1,0,0,0,0,0,0,0-.1,0-.3h0c0,0,0-.1,0-.1,0,0,0,0,0-.1s0,0,0-.1v-.4c0-.8,0-1.6.1-2.3,0-.5,0-1.1,0-1.6l2.5-.5h-2.5v-.2c0-.3,0-.6-.1-1,0-.1,0-.3,0-.4,0,0,0-.1,0-.2l.8-3.3-1,1.9c0-.1-.1-.2-.2-.2,0,0,0-.1,0-.2h0c0,0,.2-.3.2-.3h.2c0,0,0-.1,0-.1,0-.1,0-.2,0-.3,0-.6-.4-.6-.5-.6h-.7s-.5,0-.5,0v.3c0,.2-.1.4-.1.7s0,.2,0,.3v.9c0,.5,0,1,0,1.5v.5c0,.3,0,.6,0,1,0,0,0,.1,0,.1,0,0,0,.2,0,.2v.4s0,0,0,0c0,.8,0,1.6,0,2.5v.7c0,.5,0,.9-.2,1.4h-.4l.2.5s0,.1,0,.2c0,.1,0,.2.1.3v9.9c-.1,0,0,0,0,0l-.4.2.4.4v.4h1.7s0-.4,0-.4c0-.5,0-.9,0-1.4,0-.6,0-1.1,0-1.7,0-1,0-2.1.1-3.1v-2s0-.2,0-.2c0-.4,0-.7,0-1.1h0s.2-.3.2-.3c0,0,0,0,.1,0h.3c.2,0,.4,0,.5,0,0,0,.2.1.2.2h0c0,.1.2.2.2.2.7.6,1.3,1.3,1.9,1.9.7.7,1.3,1.4,2,2h.2c.3.4.7.8,1.1,1.3l1.4,1.5c.5.5,1,1,1.5,1.4.5.5.9.8,1.2,1,.2.1.4.3.6.5.2.2.4.4.6.5h0c0,0,.3.2.3.2.3,0,.6,0,.9,0h1.3s0,0,0,0ZM120.7,8.9h0c0,0-.1,0-.1,0,0,0,0,0,.1,0h0Z"/>
      <path class="cls-1" d="M128.2,6.5c0,.2.2.3.3.4v.2c.1,0,.1,0,.1,0h.1c0,.2.2.3.2.4,0,.1.1.3.2.4,0,0,0,.2.1.3h0c0,.1,0,.2.1.2,0,0,0,0,0,.1h.1c0,.2.2.4.3.6.1.2.2.4.3.5h0c0,.1.1.2.1.2,0,0,0,0,0,0h0c0,.1.2.3.2.3h0c0,0-.1.2-.1.2l.3.3s0,0,0,0h0c0,0,0,0,0,.1,0,.2.2.3.3.5l.6.6v-1.1h0c0-.1.1-.3.1-.3l-.2-.2h0c0-.1,0-.2,0-.3,0,0,0,0,0,0,0,0,0,.2.2.2,0,0,0,0,0,.1v.2l.2.3v.2c0,0,0,.2,0,.2,0,0,.1.1.2.2,0,0,0,0,0,.1h0c0,0,0,.2.1.3h0c0,0,.1.5.1.5h0s0,0,0,0l.2.7c0,0,0,.2,0,.3,0,.2.2.4.6.4h.3s0,0,0,0c.4.1.4.3.4.4h0c0,.1,0,.3,0,.3l.4.6h0c0,0,0,.1,0,.1v.3h.1l.4.5h0l.4.7c.1.2.2.3.3.4,0,0,0,.2.1.2h0c0,.1-.1.4-.1.4l-.7.3.3.5c0,.3-.1.7-.1,1.1,0,.4,0,.9,0,1.4v1.4c.1.4.1.8.1,1.2s0,.6,0,1v.3c0,.3,0,.5,0,.7v.3h.3c0,.9,0,1.8,0,2.7v.4h1.1s0-3.2,0-3.2l.3-.3v-3.5c0-.4,0-1,0-1.6s0-1-.1-1.4v-.3c.1-.1.2-.2.2-.4h0s0,0,0-.1c0,0,0-.1.1-.2l1-1.3h0c.1-.2.3-.4.4-.6.2-.3.4-.6.6-.9l.6-.9h0v-.2s0,0,0,0c0,0,.1-.2.2-.2v-.2c.1,0,.2-.1.2-.1h.1v-.4c.1,0,.2-.1.3-.2.1-.2.2-.4.4-.6l.4-.6c0-.1.1-.2.2-.2v.2c0,0,.4-.8.4-.8,0,0,0-.1.1-.1h.1c0,0,.2-.5.2-.5.1,0,.2-.2.4-.5l.5-.8c.2-.3.3-.5.5-.7,0,0,0-.1.1-.1h0v-.2c.2,0,.2-.2.3-.3,0,0,0,0,0,0l.3-.2v-.3c-.1,0-.2,0-.2,0h0c.2,0,.3,0,.4-.2h0c0-.2,0-.3.2-.4.1-.2.2-.3.3-.5l.3-.6h-.7c-.1.2-.2.2-.3.2s0,0-.2,0h-.2c-.3,0-.5,0-.7.2-.1,0-.2.1-.4.3,0,.1-.1.2-.2.2h0c0,0,0,.2,0,.2h0s0,.1,0,.1h-.1s0,.2,0,.2h0c0,0-.1.1-.1.2-.1.1-.2.3-.3.4-.1.2-.2.3-.2.3h-.2c0,.1-.1.4-.1.4,0,0,0,0,0,0,0,0,0,.1,0,.1,0,0-.1.2-.2.3s-.1.2-.2.3h0c0,.1,0,0,0,0l-.5.7c-.1.2-.3.5-.4.6,0,.2-.2.3-.3.4,0,0-.1.1-.1.2v.2c-.3.1-.4.3-.4.4l-.2.2h0c-.1.2-.2.4-.3.5,0,.1-.1.2-.2.4h-.1v.3c0,0-.1,0-.1,0,0,0,0,0,0,0v.2c-.1,0-.2,0-.2,0v.2s-.2.2-.2.2v.3c-.1,0-.3,0-.3,0h0c0,.2,0,.3,0,.4l-.4.6h0l-.5.7v-.2c-.1,0-.4.7-.4.7,0,0,0,0-.2.3l-.2-.8v.5c0-.1,0-.1-.1-.2v-.2c-.1,0-.3,0-.3,0v-.2c0-.2,0-.3-.1-.4v-.4s-.4,0-.4,0c0,0,0,0-.1,0h0v-.4l-.3-.3v-.3s-.1,0-.1,0c0,0-.1-.2-.2-.3,0-.1-.1-.3-.2-.4h0c0,0-.3-.4-.3-.4,0-.1-.1-.3-.2-.3,0-.2-.2-.3-.3-.4h0v-.2h-.1c0-.1,0-.2,0-.2h0c0,0-.2-.2-.2-.2,0,0,0,0-.1-.1,0-.1-.2-.2-.2-.4,0-.2-.2-.3-.3-.5,0-.1-.1-.2-.1-.2,0,0,0,0,0,0h0c0,0-.3-.4-.3-.4,0,0,0-.2-.2-.3-.2-.3-.3-.4-.3-.4l-.6-.6v.6c0,0,0-.1-.1-.2,0-.1-.2-.3-.3-.4,0-.1-.1-.2-.1-.2v-.2c-.1,0-.2,0-.3-.2,0,0,0,0,0,0h0c.1-.2.2-.4.2-.5v-.2c0,0-.3-.6-.3-.6h0c0,0,0-.2-.1-.3,0-.1-.1-.2-.2-.3,0-.2-.2-.4-.7-.6-.3,0-.6-.1-.7-.1h-1.2v.5h0c0,.3.2.5.3.6h0ZM133.7,13.7h0Z"/>
      <path class="cls-1" d="M61,44.3c0-.2,0-.5,0-.7,0-.2,0-.4,0-.7v-.3h0c0-.8,0-1.4,0-2.1v-.2s0,0,0-.1c0,0,0,0,0-.2v-.2s0-.2,0-.2h-.1c0-.1,0-.2,0-.3,0-.2,0-.4-.1-.6h0c0-.2,0-.3,0-.4v-.3c-.1,0-.2-.4-.2-.4h0v-.2h-.1c0-.2,0-.3-.1-.4,0,0,0-.1,0-.2,0,0,0-.2-.2-.3l-.3-.6h0s-.3-.4-.3-.4c-.3-.3-.6-.7-.9-1-.2-.2-.4-.4-.6-.6v-.3h0s.2,0,.2,0h0c0,0,.2,0,.3,0,0,0,.2,0,.3,0h0c0,0,.2-.1.2-.1h.1c0-.1.4-.6.4-.6v-.2c0-.4-.3-.6-.6-.6h-.6,0s-.4,0-.4,0v.3c-.2,0-.3.1-.3.2l-.2.2-.7.2s0,0,0,0h0c0-.2-.2-.2-.2-.2h0v-.2h-.3l-1.2-.5h-.1c-.7-.3-1.5-.5-2.2-.6-.7,0-1.5-.1-2.2-.1h-.8c0,0-.3,0-1.1,0-.6,0-1.3,0-2,0h-3.7s0,.2,0,.2c0,.2,0,.6-.1,1.1,0,.5,0,1,0,1.6v3c0,.7,0,1.4,0,2.1,0,.3,0,.7,0,1,0,.3,0,.7,0,1.1v.2s.2.1.2.1l.3.3h-.5v1.1s-.7.2-.7.2h.7v.4c0,0,0,.2,0,.3v3.2c0,.2,0,.4,0,.7v.2c0,.2,0,.4,0,.5,0,.1,0,.3,0,.4s0,.3,0,.4c0,0,0,.2,0,.2v.2s0,0,0,0h0c0,0,0,.1,0,.2v4.2c0,0,7,0,7,0,.1,0,.3,0,.4,0,.1,0,.3,0,.4,0h.2c0,0,.1,0,.2,0h.4s0,0,.1,0c.7,0,1.5,0,2.4-.3h.3c0,0,0-.4,0-.4,0-.2,0-.3,0-.5h0c0-.1,0,0,0,0,0,.2.1.3.2.5v.3c0,0,.4,0,.4,0,.3,0,.6-.1.9-.3.2-.1.5-.2.7-.3h0c0,0,.2,0,.2,0h0c0,0,.3-.2.3-.2h0c0,0,0-.1,0-.1h0c.1-.2.2-.3.4-.4.2-.1.3-.2.5-.4h.2s0-.1,0-.1c0-.1.2-.2.3-.3.1-.1.3-.2.4-.4.2-.2.3-.4.6-.8.2-.3.5-.7.7-1,.2-.3.4-.7.6-1,.2-.3.3-.6.3-.8h0c.1-.3.2-.5.2-.8l.2.2v-1.1c0-.1.1-.3.1-.6v-.4h0c0-.3,0-.5,0-.6h0ZM43.3,40.2h0s0,0,0,0h0ZM42.7,42.2h0c0,0,0,0,0,0h0ZM42.9,44.8l.2.2h0v.2h-.2s-.1,0-.1,0c0,0,0,0,0-.1,0,0,0-.1.1-.2ZM44.6,32.3h0,0c0,0,.2,0,.2,0,0,0,0,0-.2,0ZM44.4,32.2h0c0,0,0,0,0,0h0c0,0,0,0,0,0ZM44.4,32.1h0c0,0,0,0,0-.1v.2h0c0,0,0,0,0,0h0ZM49.2,33.3h0s.5,0,.5,0c.8,0,1.5,0,2.2,0,.6,0,1.2.2,1.9.4h0c0,0,0,0,0,0h0c0,0,.7.3.7.3,0,0,.2,0,.2.1,0,0,0,0,.1,0,0,0,.2,0,.2.1h0c0,.1.3.2.3.2l.2.2h.1s0,0,0,0c.1.1.3.3.4.4.2.2.3.3.5.4,0,0,.2.2.2.2h0c0,0,.2.3.2.3l.2.3h.1c0,0,0,.1,0,.2,0,.2.1.3.2.3l.5.9c0,0,0,.1,0,.2v.2c0,0,0,0,0,0h0c.3.8.5,1.5.6,2.2.1.8.3,1.5.4,2.3h0c0,.1,0,.1,0,.1h0c0,.3,0,.6,0,1,0,.5-.2,1.1-.3,1.7-.1.6-.3,1.1-.5,1.6-.2.6-.3.7-.3.7h-.1c0,0,0,.2,0,.2v.2c-.1,0-.2,0-.2,0h0s0,.2,0,.2l-.4.7c-.2.4-.5.7-.9.9-.4.2-.8.5-1.1.8h-.2s0,.2,0,.2h-.5v.2h-.4v.2l-1.2.4h0s-.1,0-.1,0c-.1,0-.2,0-.2,0,0,0,0,0-.1,0,0,0-.2,0-.4,0h-.4c-.3,0-.8,0-1.4,0-.7,0-1.4,0-2.2,0-.6,0-1.1,0-1.7,0h-.5c-.7,0-1,0-1.2,0-.2,0-.3,0-.5,0h-.3s0,0,0,0c0-.7,0-1.3,0-2,0-.8,0-1.5,0-2.3,0,0,0,0,0-.3v-.2c0-.4,0-.8.1-1.3v-.3c0-.3,0-.7,0-1v-2.5h0v-5.8c0,0,.2.2.2.2v-2.1c0-.1,0-.2,0-.3,0,0,0-.2,0-.2v-.9h1.5c.1,0,.2,0,.3,0,.1,0,.3,0,.4,0,.3,0,.6,0,1,0h1c.3,0,.6,0,.7,0h0,0Z"/>
      <path class="cls-1" d="M79.5,32.1l-1-.3c-.3,0-.7-.1-1-.1h-1c-1.2,0-2.4,0-3.5,0s-2.3,0-3.5-.1h-.4s-.2,0-.2,0c-.2,0-.4,0-.6,0h0c-.2,0-.5,0-.8,0s-.5,0-.7,0h-.5c-.3,0-.6,0-.9,0h-.5s-.2,0-.2,0v.4c0,.4.1.8.1,1.1v1.2s0,.2,0,.2l-.2,14.9h0c0,0,0,0,0,0,0,.1,0,.2,0,.4v3.2c0,.4-.1.8-.2,1.1v.4c0,0,.1,0,.1,0h0c0,0,.6,0,.6,0,.3,0,.7,0,1,0h.2c.2,0,.3,0,.5,0,.3,0,.6,0,.9,0h1.2c1,0,2,0,2.9,0h2.3c.6,0,1.2,0,1.8,0,.2,0,.4,0,.6,0h0c.5,0,.9,0,1.3-.1l.8-.2-.5-.4v-.8c0,0,0-.2,0-.2h-.1c-.1-.2-.3-.3-.5-.3h-.3c-1.6,0-3.2,0-4.8-.1s-3.2,0-4.8-.1h-.4c-.1,0-.2,0-.4,0h-.2c0-.2,0-.4,0-.5s0-.3,0-.5c0,0,0-.2,0-.3,0-.3,0-.6,0-1l.4-.4-.4.2c0-.1,0-.3,0-.5v-3.4c0-.3,0-.6,0-.9,0-.2,0-.5,0-.7l.6.3-.5-.5h0c.3,0,.6,0,.9,0h5c1.1,0,2.3,0,3.4,0h.5s-.1-.5-.1-.5h0s0-1.1,0-1.1h0s0,0,0,0l.2-.5h-.5c-1.6-.2-3.1-.2-4.7-.2h-4.8c0,0,0-1.7,0-1.7,0-.6,0-1.2,0-1.8h0c0,0,0-1.9,0-1.9,0-.1,0-.3,0-.4l.6.3-.6-.6c0-.3,0-.6,0-.9,0-.1,0-.2,0-.3,0-.1.1-.3.1-.5,0-.2,0-.3,0-.3v-.2c0,0,.1,0,.2,0,.1,0,.2,0,.3,0h.5c1.7,0,3.3,0,4.8,0,1.6,0,3.2,0,4.8,0h.3c.2,0,.4,0,.5-.1h.1v-.4s0-.6,0-.6l.8-.3h0Z"/>
      <path class="cls-1" d="M94.4,47.3h0c0,0,0-.2,0-.2h0v-.2h-.1c0-.1,0-.3,0-.3l-.2-.4h0c0,0-.2-.5-.2-.5,0,0,0-.2-.2-.4,0-.1-.2-.2-.2-.3l-.2-.3-.3-.2s0,0-.1,0l-.2-.3h-.1s-.4-.4-.4-.4v-.2h-.3l-.2-.2c0,0-.2-.1-.5-.2s-.3-.2-.3-.2c0,0-.1,0-.2-.1h-.1c-.1-.1-.3-.2-.4-.2,0,0-.1,0-.1,0h-.2c0-.1-.1-.1-.1-.1,0,0-.1,0-.2,0-.2,0-.4-.2-.6-.2-.2,0-.4-.2-.6-.2h-.2c-.2-.2-.4-.2-.7-.3-.2,0-.3-.1-.5-.2h0c0,0-.1,0-.1,0-.2,0-.3,0-.4-.1-.1,0-.2-.1-.4-.2h0c0,0-.4-.2-.4-.2l-.5-.3h-.1s0,0,0,0c-.5-.4-.8-.8-1.1-1.2-.2-.4-.4-.9-.4-1.5,0-.1,0-.3,0-.4,0,0,0-.2,0-.3h0c0-.1,0-.2,0-.4v-.4c.1,0,.2-.1.2-.2h0c0-.2.1-.3.2-.5l.3-.3h0c0,0,.2-.4.2-.4h0c.4-.5.9-.8,1.6-1,.8-.2,1.5-.3,2.1-.3h.7c0,0,.1,0,.3,0l.6.6v-.6s0,0,0,0h0c0,0,0,0,0,0v.2h.3s0,.1,0,.1h.3-.1c0,.1.4.2.4.2l.3.3v-.2c.1.1.2.2.3.2h0c.1.2.3.3.6.3h0v.3h.9l.4-.6-.2-.2s0,0-.2-.2c0-.1-.2-.2-.3-.4-.1-.1-.2-.2-.4-.4,0,0-.2-.1-.2-.2l-.4-.4h-.2c0,0-.3,0-.3,0l-.3-.3c-.1-.1-.3-.2-.5-.2h-.5v-.2h-.3c-.2-.1-.5-.2-.8-.2h0s0,0,0,0c0,0,0,0-.1,0-.3,0-.6,0-.9,0s-.6,0-.8,0c-.2,0-.5,0-.7,0h0s0,0,0,0l-.4.2h-.2l-.5.5c0,0-.1,0-.2,0,0,0,0,0-.1,0h0c0-.1-.5,0-.5,0,0,0-.1,0-.2,0h-.3c0,.2-.2.2-.2.3h0c0,.1-.1.2-.2.2-.2.2-.4.4-.7.6v.2c-.1,0-.2,0-.2,0,0,0-.2.2-.2.3,0,0,0,.1,0,.1h0c0,0,0,.3,0,.3,0,.1-.2.2-.2.4v.3c-.1,0-.2,0-.2,0v.5c-.2.3-.3.6-.3.9,0,.3,0,.5,0,.8s0,.7.1,1c0,.3.1.6.2.8,0,.2,0,.3.2.4v.2c0,.1.1.2.2.3v.3h.6s0,0,0,0h0c0,0,0,.1,0,.1,0,0,.2,0,.2.1v.2c0,0-.2.4-.2.4l.3.2c.1,0,.2.2.3.2,0,0,.2,0,.2.1l.3.2h0c0,.2.2.3.4.4,0,0,.2,0,.3,0h.2c0,.1.2.2.5.3,0,0,0,0,.1,0h0c0,0,.5.2.5.2h.1s0,0,.1,0h0c0,0,.1.1.1.1v.2h.4c.1,0,.3.1.4.2.1,0,.2,0,.3.1h0c0,0,.2,0,.2,0,0,0,.2,0,.4.2.6.2,1.1.4,1.6.6.5.2.9.5,1.3.8.3.3.6.7.8,1.1.2.4.3,1,.3,1.6,0,.5,0,.9-.2,1.2-.2.3-.3.8-.4,1.2h-.1c0,0,0,.2,0,.2,0,0-.1.2-.2.3,0,0,0,0,0,0h0s0,.2,0,.2c0,0-.2.1-.2.2-.2.1-.3.2-.4.4h0c0,0,0,0,0,0h-.4v.2c-.7.4-1.5.7-2.3.7,0,0-.2,0-.2,0-.2,0-.3,0-.5,0h-.9s0,0-.1,0c-.2,0-.3,0-.5-.1l-.6-.2c-.2,0-.3,0-.3,0h-.2c-.4-.2-.8-.4-1.1-.8-.4-.4-.8-.7-1.1-1l-.2-.2c0-.1-.1-.3-.4-.3,0,0-.2,0-.2,0-.2,0-.3,0-.4.1h0c0,0,0,.3,0,.3l-.3.4h0v.2l-.6.5h.6v.2c0,.2.1.3.2.4h0s.3.3.3.3c.2.1.3.3.4.5l.5.4h.1s0,0,.1.1l.2.2h0c.1,0,.2.2.4.2.1,0,.2,0,.2,0h0v.2h.4c0,0,1.1.4,1.1.4h0c0,0,.4,0,.4,0,0,0,.2,0,.3,0,.2,0,.4,0,.6,0,.2,0,.4,0,.6,0s.4,0,.5,0h.8c.2,0,.5,0,.7,0h.6c0,0,.2,0,.2,0h.2s0,0,0,0c0,0,0,0,0,0,0,0,0,0,.2,0h.4c0-.1,1.2-.6,1.2-.6v-.3c0,0,0,0,0,0,.2,0,.3,0,.6-.3.2-.1.3-.3.5-.5l.5-.5c.2-.2.2-.3.3-.3v-.2c.1,0,.1,0,.1,0,0,0,0,0,0,0,0,0,0,0,0,0h.2s0-.3,0-.3c0-.2,0-.3.2-.4,0-.2.2-.3.2-.5h0s0-.5,0-.5h.1c0,0,0-.3,0-.3,0-.3,0-.6.1-.9,0-.3,0-.6,0-.9s0-.4,0-.5c0-.2,0-.3,0-.5h0ZM89.6,33.3h0,0s0,0,0,0h0ZM89.6,33.3h0c0,0,0,0,0,0h0s0,0,0,0ZM84.3,41.5h0s0,0,.1,0h0c0,0,0,0-.2.1v-.2s0,0,0,0Z"/>
      <path class="cls-1" d="M100.3,32h-2.4s0,2.6,0,2.6l1-.9c0,0,0,.1,0,.2,0,.2,0,.3,0,.5s0,.3,0,.4c0,0,0,.2,0,.4,0,0-.2,0-.2,0-.1,0-.2,0-.3.1h-.2v.2c-.2.1-.2.3-.2.5,0,.1,0,.3,0,.4,0,.1,0,.2,0,.4v.2h.2c0,.1,0,.2,0,.2,0,.1,0,.3,0,.5v.3h0c0,.2,0,.3,0,.4v.2h0v.3c0,3.3,0,6.6,0,9.8,0,2.1,0,4.1,0,6.2v.4h.7c0,.1.7.1.7.1h.5c0,0,0-5.7,0-5.7,0-1.1,0-2.3,0-3.5v-.6s0,0,0,0c0-.1,0-.3,0-.4,0,0,0-.2,0-.4,0-.3,0-.6,0-.9,0-1.9.1-3.8.3-5.7,0-1,0-2,.1-3,0-.9,0-1.8,0-2.8v-.6c-.1,0-.1,0-.1,0Z"/>
      <path class="cls-1" d="M118.9,43.4l-.6-.7v.7c.1,0,0,0,0,0h-.1c-.2,0-.6,0-1.2,0h-.6c-.1-.1-.3-.1-.4-.1s-.2,0-.4,0h-.2c-.1,0-.2,0-.3,0-.7,0-1.3,0-1.8,0-.5,0-.7,0-.8,0h-.1c-.2,0-.4,0-.6,0-.2,0-.4,0-.7,0h-2.4s0,.4,0,.4h0c0,.1-.1.2-.1.2h.2c0,.2.1.4.3.5h0c0,0,.1,0,.1,0,.9,0,1.7,0,2.6,0,0,.1.2.2.4.2h.6c0,.1,0-.2,0-.2.7,0,1.3,0,2,0,1.4,0,2.8,0,4.1.1,0,.1.2.2.2.3l1.3,1.3-.4-1.6h.3c0,0,.1,0,.2,0,0,0,.1,0,.2,0,.1,0,.2,0,.4,0h.2v-.4s0-.2-.3-.3c0,0,0,0,0-.1,0-.2-.2-.3-.3-.4h-.1c0,0-.2,0-.5,0-.2,0-.5,0-.7,0h-.4Z"/>
      <path class="cls-1" d="M122.9,47.1h-.3c-.2.2-.3.3-.4.4,0,0-.2,0-.2.1h0l-.6-.3v.4c0,.3,0,.6,0,1,0,.3,0,.6,0,1,0,.7,0,1.3,0,2v.2l-.3.2v.3c0,0,0,0,0,0h0c0,0-.1,0-.2.1h-.3c0,.1,0,.2,0,.2,0,0-.2,0-.3.1h-.2c0,0,0,0,0,0-.2,0-.3.2-.3.3v.4h.2,0s.3.4.3.4h-.9s-.4-.4-.4-.4c0,0-.2-.2-.3-.2l-.6-.3-.2.5h0c0,0-.6.2-.6.2h-.3c0,0-.2,0-.2,0-.3,0-.5,0-.7,0-.4,0-.7,0-1.1,0s-.5,0-.8,0c-.3,0-.6,0-.9,0-.3,0-.6,0-.9-.2-.3,0-.5-.1-.7-.2h-.2s0,0-.1,0c-.1,0-.2,0-.2,0l-.4-.2c-.8-.3-1.5-.7-2.1-1.2,0,0,0,0,0,0,0,0-.1-.2-.2-.2-.2-.2-.5-.5-.8-.9-.3-.4-.6-.8-.7-1.1h0c0,0-.5-.3-.5-.3h0c0,.1-.2-.1-.2-.1v.5l-.3-.3h0s0,0,0-.1c0,0,0-.1,0-.2s0-.1,0-.2h.1c0,.1.1-.1.1-.1,0,0,0,0,0,0l.4.2v-.4c-.2-.2-.2-.4-.3-.6,0-.2-.1-.4-.2-.5v-.2c0,0,0-.2,0-.2h-.2s.2,0,.2,0c0,0,0-.1,0-.2h0c0,0,0-.1,0-.1-.2-.1-.2-.2-.2-.2,0-.2,0-.2,0-.2l.2-.4h-.2,0v-.2c0-.8,0-1.5,0-2.2,0-.6,0-1.2.2-1.8.1-.6.3-1.2.5-1.8.2-.6.6-1.3,1-2.2h0c0,0,0-.1,0-.1h0c0-.1.2-.2.2-.2h0c0-.1.1-.2.1-.2v-.2h0c.2-.1.4-.3.7-.6.2-.2.4-.4.6-.5,0,0,.2,0,.2-.1.1,0,.2-.1.2-.1h0s0-.1,0-.1c0,0,0,0,.1,0,0,0,.2,0,.2-.2h.3c0-.1,0-.1,0-.1h0s0-.1,0-.1c.2,0,.3,0,.4-.2h.4c0-.1.1-.1.1-.1l.4-.2h0c0,0,1.7-.2,1.7-.2,0,0,0,0,.1,0,.6,0,1.1,0,1.6,0h.3c.4,0,.8,0,1.2.1,0,0,.2,0,.5.1.2,0,.4.1.7.2.2,0,.4,0,.6.2.3,0,.3,0,.4,0h1l-.5-.3h0c0-.2-.1-.4-.4-.4,0,0,0,0,0,0,0,0-.2,0-.2,0h0v-.3s-.2,0-.2,0h0c0,0,0-.3,0-.3,0,0,0-.2,0-.3h0c0-.1,0-.1,0-.1l.4-.4h-.7c0-.1-.2-.2-.2-.2-.4,0-.7-.1-1.1-.2-.4,0-.8-.1-1.2-.1h-.3c-.1,0-.2,0-.4,0h-.7c0,.1.6.4.6.4h0s-.2,0-.2,0v.5c.1,0,.1,0,.1,0,0-.2-.2-.4-.5-.5h-.4c0,0-.2,0-.3,0h-.1c-.1,0-.2,0-.3,0h-.2v.5h0c0,.1-.1,0-.1,0h-.4c.1,0,.2,0,.2,0h0s0,0,0,0c0-.1.2-.3.2-.5v-.3c0,0-.3,0-.3,0h0c0,0-.2,0-.2,0,0,0,0,0-.1,0h-.2c-.1,0-.2,0-.2,0h-.2v.5h-.2v-.3h-.2c-.1,0-.3,0-.5.3v.2c-.1,0,0,0,0,0h-.1q0,0,0,0v-.3c0,0-.2,0-.2,0-.1,0-.2,0-.2,0-.2,0-.3,0-.4.2,0,0-.2,0-.3.1-.1,0-.2.1-.3.2,0,0,0,0-.2,0-.1,0-.2,0-.2.2h-.2s0,.1,0,.1l-.3.2h0l-.2.2h-.2c-.2.3-.5.6-.8.9-.3.3-.6.6-.9.8h0v.2c0,0-.1.1-.2.2,0,.1-.2.2-.2.3h0c0,.1,0,.2-.1.2-.7,1-1.2,2-1.5,3.2s-.4,2.4-.5,3.6c0,.2,0,.4,0,.7,0,.2,0,.5,0,.7v.2h.5l.6.3-.3.5v.2c0,0,0,.1,0,.2s0,.1-.1.2h0v.3c0,0,0,.1,0,.2,0,0,0,0,0,0l-.2.2.2.2s0,0,.1.3v.5c.1,0,.3.3.3.3h0c0,0,0,.1,0,.1,0,.2.2.4.2.6,0,.1.2.3.2.5h0c0,.1,0,.2.1.3,0,0,0,0,.1.1v.3c.1,0,.2,0,.2,0,0,0,0,0,0,.1,0,0,0,0,0,0h0c0,0,0,.2,0,.2,0,0,0,0,0,0h0c0,0,0,.1,0,.1.3.3.7.7,1.1,1.2.4.5.8.8,1.2,1l.4.2h.2c0,0,.1.2.1.2h0c.2,0,.4.2.7.3l.7.3c.3.2.7.3,1.1.4.4,0,.8.2,1.2.2.4,0,.8,0,1.2.1.4,0,.8,0,1.1,0h1.2c.3,0,.5,0,.8,0,.2,0,.4,0,.5-.1h0c.1,0,.3,0,.5,0,.2,0,.4,0,.5-.2h0c0,0,.3,0,.3,0,.1,0,.2,0,.3,0h.2s.3.3.3.3l.4-.5h.7v-.7c0,0,.2.2.3.2h.1c.3-.2.7-.4,1.1-.6.4-.2.7-.4,1.1-.7h.1v-.7c0-.8,0-1.7,0-2.5v-2.8c0,0-.1,0-.1,0ZM104.7,47.6h0s0,0,0,0h0c0,0,0,0,0,0h0ZM111.5,33.5h.6v.3c-.1,0-.4,0-.4,0v.2l-.2-.3v-.2h0ZM111.5,33.5h0s0,0,0,0h0,0ZM118,54.7h0s0,0,0,0c0,0,0,0,0,0,0,0,0,0,0,0h0s0,0,0,0Z"/>
      <path class="cls-1" d="M119.9,34.6h0v.5c0,.1,0,.2,0,.2h0v.2h.1c0,0,.2.2.3.3.1,0,.2.2.3.2,0,0,.1.2.2.2,0,0,.1,0,.2.1h0c0,0,0,.1,0,.1.3,0,.4,0,.4,0,.3,0,.6-.1.8-.4.2-.2.3-.4.4-.6v-.2c0,0,0-.1,0-.1-.7-.7-1.5-1.3-2.4-1.8l-.4-.2v.4c0,.1,0,.3,0,.4,0,0,0,0,0,0v.2c0,0,0,.1-.1.2h0Z"/>
      <polygon class="cls-1" points="106.3 43.4 106.3 44.4 107 44.4 107.5 44.4 107.5 43.4 106.8 43.3 106.3 43.4"/>
      <path class="cls-1" d="M124,44.2v-.7h-.5c0,0-.2,0-.4,0h-.2l-1.7-.8,1,1.5h0v.3c.1,0,.1,0,.2.2v.3c0,0,0,.2,0,.2l.3.4.2.2h.2c.1,0,.2,0,.3,0h.6c0,0,0-.5,0-.5,0-.2,0-.4,0-.7,0,0,0-.1,0-.2Z"/>
      <path class="cls-1" d="M145,51.9v-.6c0-.3,0-.5,0-.8v-.2l.5-.3h-.6c0-.2,0-.3,0-.4s0-.2,0-.3c0,0,0,0,0-.1l.2-.3h0s0,0,0,0h-.3c0-.1,0-.2-.1-.2l.2-.2v-.2c.1-.2.2-.3.2-.5h0c0,0-.4-1.4-.4-1.4h.1v-.3l.2-.3h-.2c0,0-.1-.2-.2-.2l-.2-.5h-.2v-.3l-.8-.4v1.2c0,0,0,.2,0,.2,0,.2,0,.3,0,.5v1.6s0,.2,0,.2l.3.3v.2h0s0,.9,0,.9c0,0,0,.2.2.4h-.2s0,0,0,0h-.4c0,.1.3.5.3.5,0,0,0,.2,0,.2v.2l-.3.3v.3c0,.2,0,.3,0,.3h-.4l-.6-.5v.5c.1,0-.2,0-.2,0h.4c0,.1.2.7.2.7h0s0,0,0,0h-.7v-.3c0-.4-.2-.6-.5-.6h0v-1s-.7.5-.7.5l-.2-.9v-.5h0,0c0,0,.1-.5.1-.5.2,0,.3-.2.3-.4v-.2h-.1c0-.2,0-.3-.2-.5,0,0,0,0-.1,0l-.3-.4c-.1-.2-.3-.4-.4-.6-.1-.2-.3-.4-.4-.6,0-.1-.1-.2-.2-.2l-.3-.4c-.2-.2-.3-.4-.5-.6-.1-.3-.3-.6-.5-.8,0,0,0-.2-.1-.2-.2-.3-.5-.6-.7-1-.2-.3-.5-.7-.6-1h0c0,0-.1-.2-.1-.2,0-.1-.1-.3-.3-.4l-.2-.2h0c0-.1-.2-.3-.2-.3-.3-.3-.5-.7-.8-1-.2-.3-.4-.6-.7-.9,0,0,0-.2-.2-.3h0c0-.2-.1-.2-.2-.3,0-.1,0-.2-.1-.3v-.2c0,0-.2,0-.2,0h0c0,0-.2-.2-.2-.2l-.2-.4v-.2c-.2-.2-.4-.4-.5-.6-.1-.2-.3-.4-.4-.5,0,0-.1-.2-.2-.4l-.2-.2c0-.1-.1-.2-.2-.4,0-.1-.2-.2-.2-.3,0,0-.1-.2-.1-.2-.3-.3-.5-.6-.7-.9-.2-.4-.5-.7-.7-1v-.2h-.6l-2-2.5,1.1,2.4h-.3v.4c0,.8,0,1.5,0,2.2v.5c0,1,0,1.9,0,2.8,0,.2,0,.4,0,.6,0,.1,0,.2,0,.3,0,0,0,0,0,.1,0,.1,0,.2-.1.3h-2.3s2.3.6,2.3.6v1h0v2.3c0,.8,0,1.7,0,2.5v.3c0,.1,0,.2,0,.3s0,.2,0,.3c0,.2,0,.3,0,.5,0,.1,0,.2,0,.3,0,.1-.1.2-.1.4,0,.1,0,.3,0,.4v1.1c0,.2,0,.3,0,.4,0,.1,0,.3,0,.5v4c0,.4.3.5.5.5h.2c0,0,.1,0,.2,0h.2s0,0,0,0h.3c.1,0,.4,0,.5-.5,0-.2,0-.4,0-.6v-.9c0-.8,0-1.5,0-2.2,0-.8,0-1.5,0-2.3v-4.4c0-.2,0-.3,0-.4,0,0,0-.1,0-.2v-.2c.1,0-.5-.5-.5-.5,0,0,0,0,0,0,0,0,0-.1,0-.2,0,0,0,0,0,0,0,0,0,0,.1,0h.3c0-.2.1-.3.1-.5v-.8h0c0-.1,0-.1,0-.2h0v-.6c0,0,0,0,0,0v-1h0v-1.4s0-.1,0-.1c0,0,0-.1,0-.2h.2v-.3c0-.2,0-.5,0-.7v.2c0,0,.2,0,.2,0v.2c0,0,.2.2.4.4.2.2.3.4.4.5l.2.3c0,0,.1.2.2.3,0,.1.2.2.2.3,0,0,0,.1.1.2h0c0,.1,0,.2,0,.2h0c0,0,.1.4.1.4h0c0,.2.2.3.4.4,0,0,.1.2.2.3v.2c0,0,.2,0,.2,0l.3.4c0,.2.2.3.4.5,0,0,.1.2.2.3l.6.8c0,.1.1.2.2.3,0,0,.1.2.2.2v.2s.2,0,.2,0v.3h.2c0,.2.2.3.4.5,0,0,.1.2.2.2v.2c.1,0,.1.2.1.2h.1c0,0,.2.3.2.3,0,0,.1.2.2.3,0,.1.1.2.2.3,0,0,0,.1.1.2h0c0,0,0,.3,0,.3h.2c0,0,.1.3.1.3h0c0,.1.2.3.3.4.1.2.2.3.2.4v.2c0,0,.1,0,.1,0h0c0,0,.1.2.1.2l.2.3c0,0,.1.2.1.2h0c0,.2.2.3.3.4,0,0,.1.1.1.1h0c0,.1,0,.2,0,.2v.2c0,0,.2,0,.2,0,.1.2.2.3.4.5.1.2.2.3.3.5h0c0,0,0,.1,0,.1h.1c0,0,0,.3,0,.3h.1l1,1v.2c0,.3.2.5.5.5v.3h0c0,0,0,0,0,0l1.2,1.5.5-1.1v.6c.1.2.2.3.3.4v.5c-.1,0-.1.2,0,.3h0c0,0,0,0,0,0,0,0,0,.1,0,.2v.2c-.1,0,0,.2,0,.2,0,0,.1.1.2.2,0,0,0,0,.1.1v.2s0,0,0,0h0c0,0,.1,0,.1,0h0c0,0,.2,0,.2,0,.1,0,.2,0,.3,0,.1,0,.2,0,.3,0h.5v-3.2s2.1,0,2.1,0l-2-.6h0ZM129,39.8h0s.1-.2.1-.2h.1c0,0-.2.2-.2.2ZM141,51.4h0v-.3c.1,0,.3.1.3.3h-.2,0ZM141.4,52.3h-.2s0,0,0,0h.2s0,0,0,0Z"/>
      <path class="cls-1" d="M144.7,45.2l.3-.4c0-.1.1-.3.1-.5h0c0,0,0-.1,0-.1,0,0,0,0,0-.2,0-1.3,0-2.5,0-3.8,0-.6,0-1.3,0-2,0-.6,0-1.2,0-1.7v-1.1c0,0,0,0,0,0,0-.3,0-.6,0-.8,0-.3,0-.6,0-.8v-.2c0-.2,0-.3-.2-.5l-.3-.3v.2c-.1,0-.2,0-.2,0h-.2c-.1,0-.2,0-.3.1h0s-.1,0-.1,0h0v.2c0,.5,0,1,0,1.5,0,.5,0,1,0,1.5v.4c0,.1,0,.2,0,.4h0c0,0,0,.6,0,.6h0v.3h-.2v2.2s0,.4,0,.4h.1v1.4c0,1.1,0,1.2,0,1.2v.2c0,0,.2,0,.2,0h0c0,.1,0,.2,0,.2v.5h.2s0,0,0,0v.2c0,0,.6.8.6.8h0Z"/>
      <path class="cls-1" d="M136.9,3.9h0c0,.1.3.9.3.9l2.8-1.3c.6-.3,1.1-.6,1.7-.9l.5-.3h-.2c0-.1,1.6-.9,1.6-.9l-.2-.4c-.1-.2-.3-.4-.4-.7l-.2-.4-.5.2c-.9.5-1.8.9-2.7,1.4-.9.4-1.7.9-2.6,1.3l-.3.2-.3.2.2.3c0,0,.1.2.2.3h0Z"/>
    </g>
    <g>
      <path class="cls-1" d="M30.7,61.7l-1.1-1.1-.2.2,1.1,1.1.2-.2Z"/>
      <path class="cls-1" d="M31.7,60.7l-1.2-1.2h0l1.2,1.2.6-.6-3-3-.2.2c-.2.2-.2.2-.7.2l1.2,1.2-1.2-1.2h0l-.2-.2-.2-.2h0c0,0,.2.3.2.3,1,1,2.1,2.1,3.1,3.1h0c0,0,.2,0,.2,0h0Z"/>
      <path class="cls-1" d="M27.6,59.3l.2-.2.8.8.2-.2s-.3-.3-.5-.8v-.6h0l-1.8-1.8c.2-.2.2-.3,0-.5l-.2-.2-.2-.2c-.2-.2-.2-.2,0-.4l1.9,1.2.6-.6-.6-.6-.2-.2-.2-.2-.6-.6-.7.7-.4-.4v-.3l.7-.7.5-.5h0l.2.7.7-.7.7-.7c.3-.3.5-.7.6-1.1l.2-.2.2-.2c0,0,.2,0,.4,0l2.1-2.1.8-.8-.7-.7-6.5,6.5s-.2.2-.4,0v-.4h0c1.4-1.4,2.8-2.8,4.2-4.2l2.2-2.2-1.2-1.2-.3.3-3.9,3.9-.2-.2-2.2,2.2-.9.9-.8.8-.5.5,8.3,8.3.4-.4-2.8-2.8s0,.2,0,.2ZM28.5,51.8v.5l-.8.2.8-.8ZM27.4,49.4h0l.5-.5.2.2h0s0,0,0,.3c-.2.2-.2.2-.4,0h-.2ZM24.4,54.2l-.2-.2v-.5l-.2-.2h.5s0,0-.2-.3c0,0-.2-.2,0-.2s0,0,.2.2l.2.2.2.2-.7.7h0c0,0,0,0,0,0ZM24.1,55.5l-.2-.2.2-.2h0c.2.2.2.2,0,.4h0ZM25.2,54.9l.4.4-.4-.4ZM25.2,54.9h0l.2-.2.2.7-.5-.5h0Z"/>
      <polygon class="cls-1" points="31.4 61.1 29 58.9 29.3 59.2 28.7 59.7 29.6 60.7 30.2 60.1 31.3 61.1 31.4 61.1"/>
      <polygon class="cls-1" points="25.2 54.6 25.3 54.5 25.1 54.5 25.2 54.6"/>
    </g>
  </g>
</svg>