<?xml version="1.0" encoding="UTF-8"?>
<svg xmlns="http://www.w3.org/2000/svg" version="1.1" viewBox="0 0 147 62.2">
  <defs>
    <style>
      .cls-1 {
        stroke: #fff;
        stroke-miterlimit: 10;
        stroke-width: .8px;
      }

      .cls-1, .cls-2 {
        fill: #fff;
      }
    </style>
  </defs>
  <!-- Generator: Adobe Illustrator 28.7.1, SVG Export Plug-In . SVG Version: 1.2.0 Build 142)  -->
  <g>
    <g id="Layer_2">
      <g>
        <path class="cls-2" d="M56.3,43.5v-1.7h0v-2.3h0v-.7h0v-.3c0-.2,0-.4,0-.6h0v-.7c0,0-.2-.4-.2-.4h0v-.2h0c0-.2,0-.3,0-.4v-.2s0-.2-.2-.3l-.3-.6h0l-.3-.4c-.3-.3-.6-.7-.9-1l-.6-.6v-.3h1c0,0,0,0,0,0,0,0,.4-.6.4-.6v-.2c0-.4-.3-.6-.6-.6h-1v.3c-.2,0-.3,0-.3.2l-.2.2-.7.2h0c0-.2-.2-.2-.2-.2h0v-.2h-.3l-1.2-.5h0c-.7-.3-1.5-.5-2.2-.6-.7,0-1.5-.1-2.2-.1h-7.6v.2c0,.2,0,.6,0,1.1v9h.2c0,0,.3.4.3.4h-.5v1.1l-.7.2h.7v6.5h0v4.4h8.7c.7,0,1.5,0,2.4-.3h.3v-.9h0c0,0,0,0,0,0,0,.2,0,.3.2.5v.3h.4c.3,0,.6,0,.9-.3.2,0,.5-.2.7-.3h.2l.3-.2h0c0-.3.2-.4.4-.5.2,0,.3-.2.5-.4h.2c0-.2.2-.3.3-.4s.3-.2.4-.4c.2-.2.3-.4.6-.8.2-.3.5-.7.7-1s.4-.7.6-1c.2-.3.3-.6.3-.8h0c0-.3.2-.5.2-.8l.2.2v-1.1c0,0,0-.3,0-.6v-.4h0v-.6h0l-.5-.2ZM38.6,39.4h0ZM38,41.4h0ZM38.2,44l.2.2h0v.2h-.3c0,0,0-.2,0-.3h0ZM39.9,31.5h.2-.2ZM39.7,31.4h0ZM39.7,31.3h0c0-.1,0,0,0,0h0ZM44.5,32.5h2.7c.6,0,1.2.2,1.9.4h0l.7.3s.2,0,.2,0h0s.2,0,.2,0h0c0,0,.3.2.3.2l.2.2h0l.4.4c.2.2.3.3.5.4l.2.2h0l.2.3.2.3h0v.2c0,.2,0,.3.2.3l.5.9v.4h0c.3.8.5,1.5.6,2.2,0,.8.3,1.5.4,2.3h0v1.1c0,.5-.2,1.1-.3,1.7,0,.6-.3,1.1-.5,1.6-.2.6-.3.7-.3.7h0v.4h-.2v.2l-.4.7c-.2.4-.5.7-.9.9s-.8.5-1.1.8h-.2v.2h-.5v.2h-.4v.2l-1.2.4h-9v-4.8c0-.4,0-.8,0-1.3v-3.8h0v-5.8l.2.2v-3.5h4.9l.2.7Z"/>
        <path class="cls-2" d="M74.8,31.3l-1-.3c-.3,0-.7-.1-1-.1h-4.5c-1.1,0-2.3,0-3.5-.1h-4.8v.4c0,.4,0,.8,0,1.1v1.4l-.2,14.9h0v3.6c0,.4,0,.8-.2,1.1v.4h12.1c.5,0,.9,0,1.3,0l.8-.2-.5-.4v-1h0c0-.2-.3-.3-.5-.3h-.3c-1.6,0-3.2,0-4.8,0s-3.2,0-4.8,0h-1v-2.3l.4-.4-.4.2v-5.5l.6.3-.5-.5h9.8v-.5h0v-1.1h0l.2-.5h-.5c-1.6-.2-3.1-.2-4.7-.2h-4.8v-3.5h0v-2.3l.6.3-.6-.6v-1.2c0,0,0-.3,0-.5v-.5h10.9c.2,0,.4,0,.5,0h0v-1l.8-.3h.5Z"/>
        <path class="cls-2" d="M89.7,46.5h0v-.2h0v-.2h0v-.3l-.2-.4h0l-.2-.5s0-.2-.2-.4c0,0-.2-.2-.2-.3l-.2-.3-.3-.2h0l-.2-.3h0l-.4-.4v-.2h-.3l-.2-.2s-.2,0-.5-.2-.3-.2-.3-.2c0,0,0,0-.2,0h0c0,0-.3-.2-.4-.2h-.3c0,0,0,0,0,0h-.2c-.2,0-.4-.2-.6-.2s-.4-.2-.6-.2h-.2c-.2-.2-.4-.2-.7-.3-.2,0-.3,0-.5-.2h0c-.2,0-.3,0-.4,0,0,0-.2,0-.4-.2h0l-.4-.2-.5-.3h0c-.5-.4-.8-.8-1.1-1.2-.2-.4-.4-.9-.4-1.5v-.7h0v-.8c0,0,.2,0,.2-.2h0c0-.2,0-.3.2-.5l.3-.3h0l.2-.4h0c.4-.5.9-.8,1.6-1,.8-.2,1.5-.3,2.1-.3h1l.6.6v-.6h0v.2h.3c0,0,.3,0,.3,0h0c0,0,.4.2.4.2l.3.3v-.2c0,0,.2.2.3.2h0c0,.2.3.3.6.3h0v.3h.9l.4-.6-.2-.2-.2-.2c0,0-.2-.2-.3-.4,0,0-.2-.2-.4-.4,0,0-.2,0-.2-.2l-.4-.4h-.5l-.3-.3c0,0-.3-.2-.5-.2h-.5v-.2h-.3c-.2,0-.5-.2-.8-.2h-2.5l-.4.2h-.2l-.5.5h-.3c0,0-.5,0-.5,0h-.5c0,.2-.2.2-.2.3h0c0,0,0,.2-.2.2-.2.2-.4.4-.7.6v.2h-.2s-.2.2-.2.3h0v.4c0,0-.2.2-.2.4v.3h-.2v.5c-.2.3-.3.6-.3.9v.8c0,.3,0,.7,0,1,0,.3,0,.6.2.8,0,.2,0,.3.2.4v.2c0,0,0,.2.2.3v.3h.6c0,0,.2,0,.2.2v.2l-.2.4.3.2c0,0,.2.2.3.2,0,0,.2,0,.2,0l.3.2h0c0,.2.2.3.4.4h.5c0,0,.2.2.5.3h0l.5.2h.3v.3h.4c0,0,.3,0,.4.2,0,0,.2,0,.3,0h.2s.2,0,.4.2c.6.2,1.1.4,1.6.6.5.2.9.5,1.3.8.3.3.6.7.8,1.1.2.4.3,1,.3,1.6s0,.9-.2,1.2-.3.8-.4,1.2h0v.2s0,.2-.2.3h0v.2s-.2,0-.2.2c-.2,0-.3.2-.4.4h-.4v.2c-.7.4-1.5.7-2.3.7h-1.7c-.2,0-.3,0-.5,0l-.6-.2h-.5c-.4-.2-.8-.4-1.1-.8-.4-.4-.8-.7-1.1-1l-.2-.2c0,0,0-.3-.4-.3h-.2c-.2,0-.3,0-.4,0h0v.3l-.3.4h0v.2l-.6.5h.6v.2c0,.2,0,.3.2.4h0l.3.3c.2,0,.3.3.4.5l.5.4h.2c0,0,.2.3.2.3h0c0,0,.2.2.4.2h.2v.2h.4l1.1.4h5.5c0,0,1.2-.6,1.2-.6v-.3h0c.2,0,.3,0,.6-.3.2,0,.3-.3.5-.5l.5-.5c.2-.2.2-.3.3-.3v-.2h.3v-.3c0-.2,0-.3.2-.4,0-.2.2-.3.2-.5h0v-.5h0v-.3c0-.3,0-.6,0-.9v-1.9h0l.3.4ZM84.9,32.5h0ZM84.9,32.5h0ZM79.6,40.7h0-.2c0,0,0-.1,0-.1h0Z"/>
        <path class="cls-2" d="M95.6,31.2h-2.4v2.6l1-.9v1.5h-.2c0,0-.2,0-.3,0h-.2v.2c-.2,0-.2.3-.2.5v1h.2v1h0v.6h0v16.7h.7c0,0,.7,0,.7,0h.5v-9.8h0v-1.7c0-1.9,0-3.8.3-5.7,0-1,0-2,0-3v-3.4h0v.2Z"/>
        <path class="cls-2" d="M114.2,42.6l-.6-.7v.7c0,0,0,0,0,0h-1.9c0,0-.3,0-.4,0h-7.3v.4h0c0,0,0,.2,0,.2h.2c0,.2,0,.4.3.5h2.7c0,0,.2.2.4.2h.6c0,0,0-.2,0-.2h2c1.4,0,2.8,0,4.1,0,0,0,.2.2.2.3l1.3,1.3-.4-1.6h1.3v-.4s0-.2-.3-.3h0c0-.3-.2-.4-.3-.5h-1.8Z"/>
        <path class="cls-2" d="M118.2,46.3h-.3c-.2.2-.3.3-.4.4,0,0-.2,0-.2,0h0l-.6-.3v4.6l-.3.2v.3h0s0,0-.2,0h-.3v.2s-.2,0-.3,0h-.2c-.2,0-.3.2-.3.3v.4h.2l.3.4h-.9l-.4-.4s-.2-.2-.3-.2l-.6-.3-.2.5h0l-.6.2h-4c-.3,0-.6,0-.9-.2-.3,0-.5,0-.7-.2h-.5l-.4-.2c-.8-.3-1.5-.7-2.1-1.2h0s0-.2-.2-.2c-.2-.2-.5-.5-.8-.9s-.6-.8-.7-1.1h0l-.5-.3h0c0,0-.2,0-.2,0v.5l-.3-.3h0v-.5h0c0,0,0,0,0,0h0l.4.2v-.4c-.2-.2-.2-.4-.3-.6,0-.2,0-.4-.2-.5v-.4h-.2.2v-.2h0c-.2-.2-.2-.3-.2-.3v-.2l.2-.4h-.2v-2.4c0-.6,0-1.2.2-1.8,0-.6.3-1.2.5-1.8s.6-1.3,1-2.2h0c0-.2.2-.3.2-.3h0c0,0,0-.2,0-.2v-.2h0c.2,0,.4-.3.7-.6.2-.2.4-.4.6-.5,0,0,.2,0,.2,0,0,0,.2,0,.2,0h0q0,0,0,0s.2,0,.2-.2h.3v-.2c.2,0,.3,0,.4-.2h.4c0,0,0,0,0,0l.4-.2h0l1.7-.2h2c.4,0,.8,0,1.2,0,0,0,.2,0,.5,0,.2,0,.4,0,.7.2.2,0,.4,0,.6.2h1.4l-.5-.3h0c0-.2,0-.4-.4-.4h-.2v-.3h-.2v-.6h0c0,0,.4-.5.4-.5h-.7c0,0-.2-.2-.2-.2-.4,0-.7,0-1.1-.2-.4,0-.8,0-1.2,0h-1.4c0,0,.6.4.6.4h-.2v.5h0c0-.2-.2-.4-.5-.5h-1.3v.5h0c0,0,0,0,0,0h-.4.2c0,0,.2-.3.2-.5v-.3h-1.2v.5h-.2v-.3h-.2c0,0-.3,0-.5.3v.2c0,0,0,0,0,0h0v-.3h-.4c-.2,0-.3,0-.4.2,0,0-.2,0-.3,0,0,0-.2,0-.3.2h-.2c0,0-.2,0-.2.2h-.2c0,0-.3.3-.3.3h0l-.2.2h-.2c-.2.3-.5.6-.8.9-.3.3-.6.6-.9.8h0v.2s0,0-.2.2c0,0-.2.2-.2.3h0c0,0,0,.2,0,.2-.7,1-1.2,2-1.5,3.2s-.4,2.4-.5,3.6v1.6h.5l.6.3-.3.5v.4q0,.1,0,.2h0v.5h0l-.2.2.2.2v.3c0,0,0,.5,0,.5,0,0,.3.3.3.3h0c0,.3.2.5.2.7s.2.3.2.5h0c0,0,0,.2,0,.3h0v.4h.2v.3h0c.3.4.7.8,1.1,1.3s.8.8,1.2,1l.4.2h.2v.2h0c.2,0,.4.2.7.3l.7.3c.3.2.7.3,1.1.4.4,0,.8.2,1.2.2s.8,0,1.2,0h3.1c.2,0,.4,0,.5,0h.5c.2,0,.4,0,.5-.2h.8l.3.3.4-.5h.7v-.7s.2.2.3.2h0c.3-.2.7-.4,1.1-.6.4-.2.7-.4,1.1-.7h0v-6h0v.4ZM100,46.8h0ZM106.8,32.7h.6v.3h-.4v.2l-.2-.3v-.2h0ZM106.8,32.7h0ZM113.3,53.9h0Z"/>
        <path class="cls-2" d="M115.2,33.8h0v.7h0v.2h0s.2.2.3.3c0,0,.2.2.3.2,0,0,0,.2.2.2,0,0,0,0,.2,0h0c.3,0,.4,0,.4,0,.3,0,.6,0,.8-.4.2-.2.3-.4.4-.6v-.2h0c-.7-.8-1.5-1.4-2.4-1.9l-.4-.2v.8h0v.2s0,0,0,.2h0l.2.3Z"/>
        <polygon class="cls-2" points="101.6 42.6 101.6 43.6 102.3 43.6 102.8 43.6 102.8 42.6 102.1 42.5 101.6 42.6"/>
        <path class="cls-2" d="M119.3,43.4v-.7h-1.1l-1.7-.8,1,1.5h0v.3q0,0,.2.2v.5l.3.4.2.2h1.1v-1.6Z"/>
        <path class="cls-2" d="M140.3,51.1v-1.6l.5-.3h-.6v-.7h0c0,0,.2-.4.2-.4h-.3c0,0,0-.2-.1-.2l.2-.2v-.2c.1-.2.2-.3.2-.5h0l-.4-1.4h.1v-.3l.2-.3h-.2s-.1-.2-.2-.2l-.2-.5h-.2v-.3l-.8-.4v3.7l.3.3v.2h0v.9s0,.2.2.4h-.6c0,0,.3.5.3.5v.4l-.3.3v.6h-.4l-.6-.5v.5c.1,0-.2,0-.2,0h.4c0,0,.2.7.2.7h-.7v-.3c0-.4-.2-.6-.5-.6h0v-1l-.7.5-.2-.9v-.5h0v-.5c.3,0,.4-.2.4-.4v-.2h-.1c0-.2,0-.3-.2-.5h-.1l-.3-.4c-.1-.2-.3-.4-.4-.6-.1-.2-.3-.4-.4-.6,0,0-.1-.2-.2-.2l-.3-.4c-.2-.2-.3-.4-.5-.6-.1-.3-.3-.6-.5-.8,0,0,0-.2-.1-.2-.2-.3-.5-.6-.7-1-.2-.3-.5-.7-.6-1h0v-.2c-.1,0-.2-.3-.4-.4l-.2-.2h0c0,0-.2-.3-.2-.3-.3-.3-.5-.7-.8-1-.2-.3-.4-.6-.7-.9,0,0,0-.2-.2-.3h0c0-.2-.1-.2-.2-.3,0,0,0-.2-.1-.3v-.2h-.2l-.2-.2-.2-.4v-.2c-.2-.2-.4-.4-.5-.6-.1-.2-.3-.4-.4-.5,0,0-.1-.2-.2-.4l-.2-.2c0,0-.1-.2-.2-.4,0,0-.2-.2-.2-.3v-.2c-.4-.3-.6-.6-.8-.9-.2-.4-.5-.7-.7-1v-.2h-.6l-2-2.5,1.1,2.4h-.3v6.8h0c0,.2,0,.3-.1.4h-2.3l2.3.6v1h0v6.5c0,0-.1.2-.1.4v6.4c0,.4.3.5.5.5h.9c.1,0,.4,0,.5-.5v-11.2c.1,0-.5-.5-.5-.5h0v-.2h.4c0-.2.1-.3.1-.5v-.8h0v-.2h0v-.6h0v-1h0v-1.4h0v-.3h.2v-1,.2h.2v.2l.4.4c.2.2.3.4.4.5l.2.3s.1.2.2.3c0,0,.2.2.2.3,0,0,0,0,.1.2h0v.2h0v.4h.1c0,.2.2.3.4.4,0,0,.1.2.2.3v.2h.2l.3.4c0,.2.2.3.4.5,0,0,.1.2.2.3l.6.8c0,0,.1.2.2.3,0,0,.1.2.2.2v.2h.2v.3h.2c0,.2.2.3.4.5,0,0,.1.2.2.2v.2c.1,0,.1.2.1.2h.1l.2.3s.1.2.2.3c0,0,.1.2.2.3,0,0,0,0,.1.2h0v.3h.2v.3h.1c0,0,.2.3.3.4.1.2.2.3.2.4v.2h.1v.2c.1,0,.3.3.3.3v.2h.1c0,.2.2.3.3.4h.1v.5h.2c.1.2.2.3.4.5.1.2.2.3.3.5h0c0,0,.1,0,.1,0v.3h.1l1,1v.2c0,.3.2.5.5.5v.3h0l1.2,1.5.5-1.1v.6c.1.2.2.3.3.4v.5c-.1,0-.1.2,0,.3h0v.4c-.1,0,0,.2,0,.2,0,0,.1,0,.2.2h.1v.3h1.4v-3.2h2.1l-2-.6h0l.4-.2ZM124.3,39h0v-.2h.2l-.2.2h0ZM136.3,50.6h0v-.3c.1,0,.3,0,.3.3h-.3ZM136.7,51.5h-.2.2Z"/>
        <path class="cls-2" d="M140,44.4l.3-.4c0,0,.1-.3.1-.5h0v-8.9h0v-1.8c0-.2,0-.3-.2-.5l-.3-.3v.2h-.4c-.1,0-.2,0-.3,0h-.1v4h0v.6h0v.3h-.2v2.6h.1v2.8h.2v.7h.2v.2l.6.8h0Z"/>
        <g>
          <path class="cls-2" d="M26,60.9l-1.1-1.1-.2.2,1.1,1.1.2-.2Z"/>
          <path class="cls-2" d="M27,59.9l-1.2-1.2h0l1.2,1.2.6-.6-3-3-.2.2q-.2.2-.7.2l1.2,1.2-1.2-1.2h0l-.2-.2-.2-.2h0l.2.3c1,1,2.1,2.1,3.1,3.1h.2l.2.2Z"/>
          <path class="cls-2" d="M22.9,58.5l.2-.2.8.8.2-.2s-.3-.3-.5-.8v-.6h0l-1.8-1.8c.2-.2.2-.3,0-.5l-.2-.2-.2-.2q-.2-.2,0-.4l1.9,1.2.6-.6-.6-.6-.2-.2-.2-.2-.6-.6-.7.7-.4-.4v-.3l.7-.7.5-.5h0l.2.7.7-.7.7-.7c.3-.3.5-.7.6-1.1l.2-.2.2-.2h.4l2.1-2.1.8-.8-.7-.7-6.5,6.5s-.2.2-.4,0v-.4h0c1.4-1.4,2.8-2.8,4.2-4.2l2.2-2.2-1.2-1.2-.3.3-3.9,3.9-.2-.2-2.2,2.2-.9.9-.8.8-.5.5,8.3,8.3.4-.4-2.8-2.8v.2h0ZM23.8,51v.5l-.8.2.8-.8h0ZM22.7,48.6h0l.5-.5.2.2h0v.3q-.2.2-.4,0h-.3ZM19.7,53.4l-.2-.2v-.5l-.2-.2h.5l-.2-.3s-.2-.2,0-.2,0,0,.2.2l.2.2.2.2-.7.7h.2ZM19.4,54.7l-.2-.2.2-.2h0q.2.2,0,.4h0ZM20.5,54.1l.4.4-.4-.4ZM20.5,54.1h0l.2-.2.2.7-.5-.5h0Z"/>
          <polygon class="cls-2" points="26.7 60.3 24.3 58.1 24.6 58.4 24 58.9 24.9 59.9 25.5 59.3 26.6 60.3 26.7 60.3"/>
          <polygon class="cls-2" points="20.5 53.8 20.6 53.7 20.4 53.7 20.5 53.8"/>
        </g>
        <g>
          <path class="cls-1" d="M15.9,4.1c0,.2-.1.4-.2.6,0,.2,0,.3-.1.5-.2.1-.4.2-.5.3-.2,0-.3.2-.5.3,0-.1,0-.2-.1-.3,0,0-.1.1-.1.2v.2c0,0,0,.1,0,.2-.1,0-.3.2-.5.3-.2.2-.4.4-.6.6-.2.2-.4.4-.6.6-.2.2-.3.3-.3.4l-.4.2s0,0,0,.2h0c-.4.5-.7,1.1-.9,1.8-.2.7-.4,1.4-.5,2.2-.1.8-.2,1.6-.2,2.3v2h-.2c0,0,0-.2,0-.2h-.2c0,0-.2-.2-.2-.2h-.3c0-.2,0-.4,0-.6,0-.2,0-.4,0-.6,0-1.2.1-2.4.4-3.6.3-1.2.8-2.3,1.4-3.3h0c0,0,0,0,0-.1,0,0,0,0,0,0h0c0-.1.1-.2.2-.3,0-.1.2-.2.2-.2h0c.3-.3.6-.6.9-.9.3-.3.6-.6.9-.9h0c0,0,0,0,.1,0l.2-.2h0l.2-.2h.2c0,0,0-.2,0-.2h.2c0,0,0-.1.2-.2s.2,0,.2,0c.1,0,.2-.1.3-.2.1,0,.2-.1.4-.2,0,0,.1-.1.2-.1s0,0,.1,0c0,0,0,0,.1,0ZM10.2,17.4v-.2c.1,0,.2,0,.2,0,0,.2,0,.4,0,.6,0,.2,0,.4.1.6h-.2c-.1.2-.2.3-.2.3v.2c.2,0,.3,0,.3,0s.1,0,.2,0c0,.1,0,.3.2.5.1.2.2.3.2.5-.1.1-.2.2-.2.4s0,.2,0,.2c0,0,0,.2,0,.2h.1c0,.1.1.1.1.1l.3.3v.2s0,0,0,0c0,0,0,0,0,0h0c0,0,0,0,0-.1,0,0,0,0,0,0h0c.4.4.7.8,1,1.2.3.4.6.8,1.1,1.2h0c0,.1.2.2.3.3.2.1.3.2.3.2h.2c.1.1.2.2.4.3v.2h.1s0,0,0,0,0,0,0,0,.1,0,.2,0c0,0,.2,0,.2.1,0,0,0,0,0,0h0c0,0,.2,0,.2.1,0,0,.2,0,.2.1,0,0,0,0,.1,0,0,0,.2,0,.2,0,.1,0,.2.1.3.2h0c.7,0,1.3.2,2,.3.6.2,1.3.2,2.1.2s.4,0,.7,0c.4,0,.7,0,1.1-.1.4,0,.7-.1,1-.2h.4s0,0,0,0c0,0,0,.1-.1.1,0,0,0,0-.1,0,0,0,0,0-.1,0l-.3.2c0,.2.2.3.4.3-.1,0-.3.1-.5.2-.2,0-.3,0-.4,0h-.1c0,0-.2,0-.4.1-.2,0-.5,0-.7,0-.3,0-.5,0-.7,0h-.5c-.3,0-.7,0-1.1,0-.4,0-.8,0-1.3,0-.4,0-.8-.1-1.2-.2-.4,0-.7-.2-1-.3-.2,0-.4-.2-.7-.3-.3-.2-.6-.3-.8-.3v-.2c-.1,0-.3,0-.3,0h-.2c0-.1-.2-.2-.2-.2h0c-.5-.2-.9-.5-1.3-1s-.8-.9-1.1-1.3v-.2h0s0,0,0,0h0c0-.1,0-.2-.1-.2,0,0,0,0,0,0h0s-.2-.2-.2-.2v-.2s0,0,0,0v-.2c0,0-.1,0-.2-.1,0,0,0-.1,0-.2h0c0,0,0,0,0,0,0-.2-.2-.4-.2-.5,0-.2-.2-.3-.2-.5h0c0,0-.1-.3-.1-.3h0c0-.1,0-.3-.1-.6,0-.3-.1-.4-.2-.5,0,0,0-.1.1-.2,0,0,0-.1.1-.2v-.2c0,0,0-.2.1-.2,0,0,0-.2.2-.2v-.3ZM17,4.8c0,0,0,.1,0,.2,0,0,0,0,0,0s0,0,0-.2v.2c0,0-.2.2-.2.2h-.1l-.4.2h0c0,0-.2.1-.4.2h0c0,0-.1,0-.1,0h0s-.3.2-.3.2c0,0,0,0-.2.1,0,0-.2,0-.2,0h0c0,.1-.1.2-.3.2-.1,0-.2.1-.2.1h0c-.2.2-.4.4-.6.6-.2.2-.4.4-.6.5h0s0,.2,0,.2h-.2c0,0,0,.2,0,.2h-.2c0,0,0,.2,0,.2h0s0,.2,0,.2c-.4.8-.8,1.6-1,2.2-.2.6-.4,1.3-.5,1.9-.1.6-.2,1.2-.2,1.9s0,1.4,0,2.2,0,0-.1,0h0l-.2.2c0-.4-.1-.7-.2-1.1,0-.4,0-.8,0-1.1,0-.7,0-1.5.2-2.3.2-.8.4-1.6.6-2.2,0,0,0,0,0,0,0,0,0,0,0,0,.1-.3.3-.6.4-.8s.3-.5.4-.8h.3v-.3c0-.2,0-.3.2-.3.1,0,.2-.2.3-.3h.3v-.4c0,0,.1-.1.2-.2,0,0,.2-.1.2-.2l.2-.3h0c0,0,0,0,0,0h.2c0-.2,0-.2,0-.2h0c.1-.1.2-.2.3-.2h0s0,0,.2-.1c.1,0,.2-.1.3-.2.1,0,.2-.1.3-.2.1,0,.2,0,.2,0h0c0,0,.2-.1.2-.1.2,0,.4-.1.6-.2.2,0,.4-.1.5-.2ZM10.5,17c.1.1.2.2.3.2h0c0,0,0,.2,0,.3s.1.3.3.5c0,.2,0,.3,0,.3,0,0,0,.1-.1.2h-.3c0-.2-.1-.4-.2-.7,0-.2,0-.5-.1-.7ZM10.9,18.8v-.2h0c0,0,.1,0,.2,0,0,0,.1,0,.2,0,0,.2.1.4.2.6,0,.2.1.4.2.6,0,0-.1,0-.2,0s0,0-.1,0c0,0,0-.1-.1-.2,0,0,0-.2-.1-.2.1,0,.2-.2.2-.3s0-.2-.1-.2c0,0-.2,0-.3-.1ZM12.1,20.8h0c.1.4.4.8.8,1.2s.7.8,1,1h0s0,0,0,0c0,0,0,0,0,0,.7.6,1.5,1.1,2.3,1.3h0s.3.2.3.2h0c0,0,.1,0,.3.1,0,0,.1,0,.2,0h0c.2.1.5.2.8.2.3,0,.6.1,1,.2.3,0,.7,0,1,0,.3,0,.6,0,.8,0,.4,0,.7,0,1.1,0,.2,0,.5,0,.7,0h.4c0,0,.3,0,.3,0h0s.2,0,.2,0h0s.4-.1.4-.1h.2c0,.2,0,.3-.2.3s-.3,0-.3,0h0c-.5.1-1,.2-1.5.2-.5,0-1,0-1.5,0-1.1,0-2.3-.2-3.5-.5-.2,0-.4-.1-.6-.2-.2,0-.4-.2-.6-.2h0c0-.1-.2-.2-.2-.2h0c0,0-.2-.1-.2-.1h-.1c0-.1-.1-.2-.1-.2,0,0-.1,0-.2,0h0c-.2,0-.3-.2-.4-.3h0c0,0-.1,0-.1-.1h-.1c0,0-.1-.1-.2-.3-.1-.1-.3-.3-.4-.4-.2-.1-.3-.3-.4-.4l-.2-.2v-.2s-.3-.2-.3-.2v-.2c-.1,0-.2-.2-.4-.5-.2-.3-.3-.4-.3-.6h0c.1,0,.2,0,.2-.2ZM12.6,22.9h-.3v.3h.1c.1,0,.2,0,.2-.2h0ZM26.5,15.3c0,0,0,.1-.1.1,0,0-.2,0-.2,0-1.9,0-3.8,0-5.7,0-.9,0-1.9,0-2.8,0s-1.9,0-2.9,0c-.2-.2-.3-.4-.3-.6v-.2h2.2c.2,0,.4,0,.6,0,.2,0,.4,0,.6,0h0c0,0,.4,0,1,0,.6,0,1.2,0,1.9,0s1.3,0,1.9,0c.6,0,1,0,1.2,0h0c0,0,.2,0,.4,0h.7c.3,0,.5,0,.7,0,.2,0,.4,0,.5,0,.1,0,.2.1.2.3,0,.1,0,.2.2.3.1,0,.2,0,.2,0h0c-.2.1-.3,0-.5,0ZM17.9,14.7h-2.6c-.3,0-.5,0-.5,0,.5,0,1,0,1.6,0h.4c.4,0,.8,0,1.2,0ZM16.8,3.8h0c0,.2,0,.3.3.3v.2c-.1,0,0,.4,0,.4-.2,0-.4.1-.5.2-.2,0-.3.1-.5.2v-.2c0,0,0,0,0,0h.2c0-.1,0-.3,0-.3l.5-.3h-.2c0-.2.2-.3.3-.3ZM17.6,4.1h0v-.5c0,0,.2,0,.3,0h.1c0,0,.1,0,.2,0,0,0,0-.1.2-.1h0c0,.3-.2.4-.2.5,0,0-.3.1-.5.1ZM17.6,4.2l.5-.2h0c0,.1,0,.2,0,.2,0,0,0,.1,0,.2-.2,0-.3,0-.4,0v-.2c-.1,0,0,0,0,0h-.1ZM18.7,4.6v-.2h.2c0,0,0,.1,0,.2h0c0,.1,0,.2.1.2l-1.3.3v-.2s0,0,0,0h0c0,0,0,0,0,0,0,0,0-.1,0-.1h0v-.3c.1,0,.4,0,.4,0l.2.2h.2ZM19,3.3h.3s0,0,0,.2,0,.1,0,.2c0,0,0,.1,0,.2,0,0-.1,0-.2,0,0,0-.1,0-.2,0h-.2s0-.1,0-.1h0c0-.2.1-.2.2-.2,0,0,.1-.1.2-.2ZM18.7,14.8h0c0,0,.2,0,.2,0h0c0,0-.2,0-.2,0ZM20.2,4.1h0c-.2,0-.3,0-.4,0h0c-.1,0-.2,0-.3,0h-.2c-.1,0-.2,0-.3,0h0v-.3c.1,0,.2,0,.4,0h0c.1,0,.2,0,.2.1l.4-.2c.2,0,.3.1.3.3ZM23.3,14.8h-4.1s0,0,.2,0c.1,0,.2,0,.3,0,.3,0,.5,0,.8,0,.3,0,.5,0,.8,0s.7,0,1,0c.3,0,.7,0,1-.1ZM24,4.8v.3c0,0,0,0,.1,0h.2c0,0,.1,0,.2,0,0,0,0,0,0,0,0,0,0,0,0,0,.1,0,.2,0,.2.1s0,0-.1,0h0s0,0,0,0h-.2c0,0-.2,0-.3,0-.2,0-.4-.1-.6-.2s-.4-.1-.7-.2c-.2,0-.4-.1-.5-.1-.4,0-.9-.1-1.3-.1h-.3c-.5,0-1.1,0-1.6,0s0,0,0,0h0c0,0,0-.1,0-.2v-.2s-.1-.1-.1-.1c.2,0,.3,0,.5,0s.3,0,.4,0c.3,0,.6,0,.9,0s.7,0,1.1,0c.4,0,.7,0,1.1.2h0s.2,0,.2,0l.5.2s0,0,.2,0ZM19.7,3.4v-.2s0,0,0,.1h0ZM19.9,26.1h0v-.2h-.2c0,.1,0,.2.1.2ZM23.6,4.1h-.4c0,0,0-.1,0-.1h-.2c-.4,0-.7-.1-1.1-.2-.3,0-.5,0-.8,0h-.4v-.3c0,0,0-.1,0-.2.1,0,.2,0,.3,0h.3c.4,0,.8,0,1.2,0,.4,0,.8.1,1.1.2,0,.1,0,.2.2.2h.1s0,0,0,.2,0,0,0,.1h0c0,.1,0,.2-.1.2s0,0,0,0h.1c0,.1,0,.3,0,.3v.2c-.4,0-.7-.1-1-.2-.3,0-.6-.1-1-.1.1,0,.2,0,.2-.2s0,0,0-.1c.3,0,.6,0,.8,0s.5,0,.8.1ZM20.8,4.2v-.4c-.1,0,0,0,0,0,.2,0,.3,0,.5,0h.4s0,0,0,.1c0,0,0,.2,0,.3-.1,0-.3,0-.4,0h-.1c-.2,0-.3,0-.5,0ZM24,15.2h0c0-.2,0-.2-.2-.3,0,.2,0,.2.2.3ZM24.1,25v-.3c.2,0,.2,0,.3,0,0,0,.1,0,.2.1,0,0-.1,0-.2,0,0,0-.1,0-.2,0h0ZM24.9,25.8v-.2h.2c0,.1-.1.2-.1.2,0,0,0,.1,0,.1h0s0,0,0,0c0,0,0,0,0,0h-.1c-.1,0-.2,0-.4,0,0,0,0-.1,0-.2,0,0,0-.1,0-.2,0,0,0-.1,0-.2,0,0,0,0,0-.2h0c0,0,.4-.2.4-.2v.2h.2c0,0-.3.1-.3.1h-.1c0,.1.3.2.3.2,0,.1,0,.2.2.2s0,0,0,0ZM25,25.4h0c.2,0,.3,0,.4.2v.2c-.2,0-.2-.1-.3-.2,0,0-.1-.1-.1-.2ZM25.8,25.6h0c0,0,.1,0,.1,0h0c0,0-.1,0-.1,0ZM27.4,6.7v-.3c0,0-.4-.3-.4-.3h-.1s0-.2,0-.2h-.2c0-.1-.1-.2-.2-.3-.1,0-.2-.1-.2-.1h0l-.2-.2h0c0,0,0-.1,0-.2s0,0,0-.1l.4.2h.2c0,.1.5.5.5.5.1,0,.2,0,.4.2h0c-.2-.3-.4-.5-.7-.6-.2-.2-.4-.3-.7-.4,0-.1,0-.2,0-.3,0,0,0-.2,0-.3h0c.9.4,1.7,1,2.4,1.7,0,.2-.2.4-.3.6-.1.2-.3.3-.6.3s-.2,0-.4,0c0,0-.1-.1-.2-.2-.1,0-.2-.1-.2-.2h0c0,0-.1,0-.3-.2-.2-.1-.3-.2-.3-.2,0-.2,0-.3,0-.3,0,0,0,0,0,0,0,0,0,0,0,0,0,0,0,0,0,0v-.2c.3,0,.6.2.8.5h.1c0,0,.2.2.3.3.2.1.3.2.3.2ZM27.7,18.6h.3v.6c0,.3,0,.6,0,.9,0,.5,0,.9,0,1.3s0,.7,0,1c0,.3,0,.6,0,.9.1,0,.2,0,.2-.2v-.8h0c0-.2,0-.3.2-.3h0c0,0,0-.2-.1-.3,0-.1,0-.2-.1-.2,0-.1,0-.2,0-.3,0,0,0-.2,0-.3,0-.4,0-.8,0-1.1,0-.4,0-.8,0-1.1.2,0,.3,0,.4-.2.1,0,.2-.2.3-.2,0,.8,0,1.7,0,2.5,0,.8,0,1.7,0,2.5v.5c-.4.2-.7.5-1.1.7-.4.2-.7.4-1.1.6,0,0-.1,0-.2-.1,0,0,0-.1,0-.2l-.2-.3.2-.2h.1s.1-.1.1-.1h.3c0-.2,0-.2,0-.2,0,0,0,0,0,0h0c0,0,.2-.1.2-.1h0c0-.1.1-.2.1-.2,0,0,.1,0,.2-.1.1,0,.2-.1.2-.2h0c0,0-.2,0-.2,0-.1,0-.2.1-.2.2,0,0-.2.1-.3.2h0c0,0-.2.2-.2.2h0c0,.1-.3.2-.3.2h-.1c0,.1-.2.2-.3.2h0c0-.1,0-.2,0-.2,0,0,0,0,.1,0h0c0,0,0,0,0,0,.1,0,.2-.1.4-.2h0c0,0,.3-.2.3-.2,0,0,0,0,0,0,0,0,0,0,0,0h0c.1-.1.2-.2.3-.2s.2,0,.2-.1v-.7c0-.7,0-1.3,0-2,0-.3,0-.7,0-1s0-.7,0-1ZM26.7,24.6h0c0,0,.1,0,.1-.1h0c0,0-.1,0-.1.1ZM27,24.5s0,0,0,0,0,0,0,0h0c0,0-.1,0-.2,0ZM27.7,23.2h0s0,.2,0,.2h0c0,0,0,0,0-.1,0,0,0,0,0,0s0,0,0,0ZM27.7,14.7c.1,0,.2,0,.3,0s.2,0,.3,0h-.3c0,0-.1,0-.2,0s-.1,0-.2,0ZM27.7,14.7c0,0,.1,0,.2,0s0,0,0,0h.2c.1,0,.2,0,.2,0h.2v.2c0,.1,0,.2,0,.3,0,.2,0,.4,0,.6h0s-.2,0-.2,0c0,0-.1,0-.3,0h0l-.2-.2v-.2s0-.2,0-.2h0c0,0,0-.2-.2-.2,0,0,0-.1,0-.2s0-.2,0-.2ZM27.9,23.6h.2c0,0,0-.3,0-.3h0c0,0,0,0,0,.1,0,0,0,0,0,.1h0ZM28.2,20h.2c0,0,0,0,0,0,0,0,0-.1-.1-.1,0,0,0,0,0,0Z"/>
          <path class="cls-1" d="M42.8,3.4v.7c0,0,0,.1,0,.2,0,.2,0,.4,0,.6-.4,0-.8,0-1.2-.1-.4,0-.8,0-1.2,0h-.3s0,0,0,0c-.1,0-.2,0-.2,0s0-.1,0-.2h0c0,0,0,0-.1,0h0s0,0,0,.1,0,.2,0,.2h0c-.6,0-1.1,0-1.5,0s-.9,0-1.3,0c-.4,0-.9,0-1.3,0-.2,0-.5,0-.7,0s-.5,0-.8,0h0c-.2,0-.4.1-.6.1s0,0-.1,0h-.8v-1.5c.5,0,1,0,1.4,0s.7,0,1.1,0c.3,0,.7,0,1.1,0,.4,0,.8,0,1.4,0h2.7c.9,0,1.8,0,2.6.2ZM34,4.6v-.4s-.4.4-.4.4h.4ZM47.2,10.4c0,0,0,.1,0,.3,0,.1,0,.3,0,.4,0,.2,0,.3,0,.4,0,.1,0,.2,0,.3h0s0,.3,0,.3c0,0,0,0,0,0h0c0,.2-.2.3-.2.4s-.2.2-.2.3c-.1,0-.2.1-.2.2,0,0-.1.2-.2.2h-.2c0,0-.2.3-.2.3h0c0,0,0,0,0,0v.2c-.1,0-.2.1-.3.2-.1,0-.2.1-.2.2h-.2s0,.2,0,.2h-.1c0,.1-.2.2-.3.2-.1,0-.2,0-.4.1h-.2c0,0-.2.2-.2.2-.2.1-.4.2-.6.2-.2,0-.4.1-.6.2h0s-.3,0-.3,0h0c-.2,0-.3.1-.4.1s-.3,0-.4,0c0,0,0,0,0,0s0,0,0,0c0,0,0,.1.1.2h0c0,.1.2.3.2.3h0c0,.1.2.3.2.3h0c0,.1.5.7.5.7h0c.2.3.4.5.6.8.2.3.3.5.6.7,0,0-.2-.1-.3-.3-.2-.2-.4-.4-.6-.7-.2-.3-.4-.5-.6-.8-.2-.3-.4-.4-.5-.5h0c0-.1-.3-.5-.3-.5h0c0-.1,0-.2,0-.2v-.2c-.1,0-.1.2-.1.2h-.2c.1.2.3.4.4.6.2.2.3.3.4.5,0,0,.1,0,.1.1h0s.2.2.2.2h0c.3.3.4.5.5.7h.2c0,0,0,.2,0,.2.2.2.4.4.6.6.2.2.4.4.6.6v.3c0,0,0,0,0,.1,0,0,0,0,0,0s0,0,0,0l.3.4v.3c0,.1,0,.2,0,.3s0,0,0,0c0,0-.1,0-.2-.2,0-.1-.1-.2-.2-.2-.3-.3-.5-.6-.8-.9-.3-.3-.5-.6-.8-.9h0c-.1-.2-.3-.4-.5-.6-.2-.3-.4-.5-.7-.8-.2-.3-.4-.5-.6-.8-.2-.2-.3-.4-.4-.5,0,0,0,0-.2-.1-.2,0-.3,0-.5,0-.2,0-.4,0-.6,0h-.4c-.4,0-.7,0-1,0-.3,0-.7,0-1,0,0,.4-.1.9-.1,1.4s0,.5,0,.7c0,.4,0,.8,0,1.2s0,.6,0,.9c0,.2,0,.2-.1.2,0,0,0,.3,0,.6v1.3c0,.5,0,.9,0,1.3,0,.4,0,.7,0,.8s0,.5,0,.8v.2c0,.2,0,.4,0,.6,0,0,0-.2,0-.3,0-.2,0-.3,0-.5,0-.2,0-.4,0-.6,0-.2,0-.3,0-.4,0-1,0-2,0-3,0-1,0-2,0-3s0-.7,0-1.1v-.2c0-.3,0-.6-.1-.8,0,.2-.1.5-.1.7s0,0,0,.1v.8c0,.1,0,.2-.2.3.1,0,.2.1.2.3v.5c0,.2,0,.3-.1.4.1.4.2.9.2,1.5s0,1.2,0,1.8c0,.6,0,1.2,0,1.8v.5c0,.4,0,.8,0,1.2,0,0-.1,0-.2,0s-.2,0-.2,0h-.4c0-.3,0-.7,0-1s0-.7,0-1c0-.6,0-1.3,0-1.9v-.3c.1,0,.2.2.2.4v2.1c0,.6,0,1.1,0,1.6h.2c0,.1.1,0,.1,0,0-.6,0-1.1,0-1.7v-.4c0-.7,0-1.4,0-2.1v-1c0-.3,0-.6,0-1,0,0,.1-.2.2-.3h0c0,0-.1-.4-.1-.4,0-.1,0-.2,0-.3,0-.1,0-.3,0-.4s0-.4,0-.7c0-.3,0-.7,0-1s0-.6,0-.9c0-.3,0-.5,0-.6v.2c-.1,1-.2,1.9-.2,2.9v3.2c0,0,0,.1-.1.2,0-.1,0-.3,0-.7,0-.4,0-.8,0-1.3v-2.2h0c0-.2,0-.4,0-.6v-2h1s0,.2,0,.2c0,0,.1,0,.2,0s.1,0,.2.1h0c0,0,.1,0,.1.2h0c0,.1.2-.1.2-.1l.2-.2h.2c.3,0,.6,0,.9-.1.3,0,.6,0,.9,0,.7,0,1.4,0,2.1,0,.7,0,1.4-.2,2.1-.4.1,0,.4-.2.7-.3.4-.2.6-.3.7-.4,0,0,.1,0,.2-.2,0,0,.2-.1.2-.1,0,0,.1-.2.3-.3h0c0-.1,0-.2,0-.2h.1c.1,0,.2-.2.2-.3.2-.2.3-.4.5-.7.1-.3.2-.6.3-.8h.3s0,0,0,0c0,0,.2,0,.3-.1ZM35.4,17.1h0c0,0,0-.1-.1-.1s0,0,0,0c0,0,0,0,.2,0h0ZM36.1,15.3v-.2c0,0,0,.5,0,.5v-.3ZM36.5,15.5v-.4c0,.1-.2.2-.2.2,0,0-.1,0-.1.2h0s.4,0,.4,0ZM41.5,4.4h0c0-.1-.1-.1-.1-.1,0,0,0,.1.1.1ZM43.1,4.9c.5.1,1,.3,1.6.6.6.3,1,.6,1.3,1.1,0,0,0,.1.1.2,0,0,0,.1.1.2v.2c.1,0,.2.2.2.3s0,.2.2.3h0c0-.2,0-.3,0-.3,0,0,0-.1-.1-.2.1,0,.2-.1.2-.2,0-.1,0-.2,0-.3s0-.1,0-.2c0-.1,0-.3,0-.5s0-.3-.2-.5h.2s-.2-.2-.2-.2h-.2c0,0-.1,0-.2,0h-.1c-.1,0-.2,0-.2-.1v-.2s-.3-.2-.3-.2v-.3c-.6-.4-1.4-.7-2.3-.8,0,.3,0,.5,0,.7s0,.5,0,.7ZM43.6,14.2c0,.2,0,.3.2.5,0,0,0-.2,0-.2,0,0,0-.2-.1-.2ZM43.8,19.4h0c0,0,0,.1.2.1h0c0,0,0-.1-.1-.1ZM44.1,18.6l.2.2h0s0,0,0,0h0ZM45.3,21.5c0,0,0,0,0-.1s0,0,0,0c0,0,0-.1,0-.2h0s-.2,0-.2,0l.2-.3c-.1,0-.2,0-.3,0,0,0-.2,0-.3,0h0c0,0,0,0,0,.2l.3.2v.2c.1.1.2.2.3.3,0,0,.2.2.2.3h.3c0-.3,0-.4,0-.5,0,0,0,0-.1,0,0,0-.1,0-.1,0s0,0,0,0c0,0,0,0,0,0s0,0,0,0ZM44.9,13.3c0,.2.1.3.3.5,0-.1,0-.2,0-.3,0,0,0-.1-.2-.2ZM45.6,6h0c0,0,0,.1,0,.1,0,0,0,0,0,0s0,0,0,0ZM46.4,22.2h-.2s-.2,0-.2,0c0-.1,0-.2-.2-.2h-.2c0,.2.2.3.3.5.2.2.3.3.5.4,0,0,0,0,0,0,0,0,0,0,0,0,0,0,0-.1,0-.2,0,0,0-.1,0-.2s0-.1,0-.2c0,0,0-.1,0-.2ZM46.1,5.4h0c0,0,0,0,0,0,0,0,0,0,0,.1h0ZM46.6,13.1v-.5c0,0-.3.3-.3.3.1,0,.2,0,.2.1,0,0,0,.1.1.1ZM46.7,8.3h0c0,.1,0,.2,0,.2v-.2ZM46.7,8.8v.8h.3s0-.2,0-.2v-.2h0c0-.3,0-.3-.1-.3ZM48,23.5l.2.2c-.1,0-.2-.1-.3-.3,0-.1-.2-.2-.3-.2,0,0,0,.1,0,.2,0,.1,0,.2,0,.3s0,.1,0,.3c0,.1.1.2.2.3l.3.2v.2c.1,0,.2.1.3.3,0,0,.1.1.2.2,0,0,.1.1.2.2.2,0,.3-.1.5-.1,0,0,.1.2.1.2h0s.2.2.2.2v-.2s.2,0,.2,0h0c0-.2,0-.3-.3-.3,0-.1-.1-.2-.2-.3,0,0-.1-.2-.2-.3l-.2-.2h0c-.1-.2-.2-.3-.3-.4s-.2-.3-.3-.4h-.1ZM47.9,7.3v-.3c0,.2,0,.5,0,.8s0,.6,0,.8v.3c0,0,0,0,0,0s0,0,0,0v.2s0,.2,0,.2h0c0,.1,0,.2,0,.3s0,.2,0,.2c0,0,0,.2,0,.2s0,.1,0,.2c.1-.2.2-.4.2-.6v-.7c0-.2,0-.4,0-.7,0-.2,0-.4,0-.6h0s0-.5,0-.5h0ZM48.4,24.6h0c0,0,0-.1.1-.1h0c0,0-.1.1-.2.1Z"/>
          <path class="cls-1" d="M55.2,19.6l.2.3v.2h0v.2c0,0,0,.1,0,.2v.2s0,0,0,0v.2c0,0-.3,0-.3,0h0c0,.1,0,.1,0,.1s0,0,0,0h.2v.3c-.1,0-.2,0-.2,0v.2c0,0,0,.1-.1.2,0,0,0,.1-.1.2,0,.2,0,.4-.1.6,0,.2-.2.3-.4.5v.3c0,.1,0,.2-.1.4,0,.1,0,.2-.1.4h0s0,.3,0,.3h0c0,0-.2.5-.2.5h0c0,0,0,0,0,0v.2s-.2.2-.2.2h0s-.2.5-.2.5c-.1,0-.2.2-.2.3h-1.6c0-.1,0-.3.1-.4,0-.1.1-.3.1-.4h0s.2-.5.2-.5c0,0,0,0,0-.1l.2-.4h0s.2-.5.2-.5c0,0,0,0,0,0l.2-.5s0,0,0,0,0,0,0,0v-.3c0,0,.1,0,.1,0v-.2s0,0,0,0v-.3c.2,0,.2-.2.4-.5.1-.3.2-.5.2-.6h0c0-.1,0-.2.1-.3,0-.2.2-.3.2-.3,0,0,0,0,0-.2s0-.1,0-.2v-.3c.1,0,.3-.4.3-.4h0c0,.1.2.1.2.1h.1v-.2c0-.2,0-.3.3-.3h0l-2.4,5.8.2-.3v-.2h.1v-.2s.1-.2.1-.2h0c0-.1,0-.2.1-.3,0,0,0-.2,0-.2h0c.1-.2.2-.4.3-.8,0,0,.1-.2.2-.5.1-.3.3-.7.5-1.2.2-.4.3-.9.5-1.2.2-.4.3-.6.3-.7h0c0,0,.1,0,.2,0,0,0,.1,0,.2,0v.3ZM54.7,20.4c0,0,0,.2,0,.2,0,0,0,.2,0,.3l-.2.2h0c0,.2,0,.3-.1.4,0,0,0,.2,0,.2h0s0,.3,0,.3h0c-.1.5-.3,1-.5,1.3-.2.4-.4.8-.5,1.2h0c0,.2,0,.4-.2.5,0,.2-.2.3-.2.4h.2c0,0,.6-1.6.6-1.6h0s.2-.6.2-.6h0c0-.1,0-.2.1-.3,0,0,0-.2,0-.3h0c0-.3.1-.5.2-.7.1-.2.2-.4.3-.6h0c0,0,0-.2,0-.2h.1c0-.1,0-.1,0-.1,0,0,0-.1.1-.3,0-.1,0-.2,0-.3h0ZM53.6,21.3h0s0,0-.1,0c0,0,0,0,0,0h0s0,0,.1,0c0,0,0,0,0,0ZM54.7,19.1h0c0,0-.1,0-.2,0s-.1,0-.2,0c0-.1,0-.2.1-.3,0-.1.1-.2.2-.3.1,0,.2.2.2.3s0,.2,0,.2ZM56,16.4h.2c0,0,0,.1,0,.2h0v-.2ZM57.3,14h.1c0,.2-.1.3-.2.3,0,0-.2.1-.2.2-.1-.1-.3-.2-.4-.2h-.3s0-.1,0-.1h0c0,0,.1-.3.2-.5,0-.3.2-.4.2-.5v-.2s.3-.3.3-.3h.3c0-.1,0,0,0,0h0c0,.2,0,.3-.1.3,0,0,0,.1,0,.2s0,.1,0,.2c0,.1,0,.2,0,.3,0,0,0,.2,0,.2h.2v.2ZM56.9,16.6h-.2c0,0,0,.1,0,.1-.1,0-.2,0-.3-.2h.2c0,0,.1,0,.2,0h.2ZM57,12.5h.2c0,.2,0,.3-.3.3h0c0,0,0-.1,0-.2,0,0,0,0,0-.1ZM57.6,12.4c0,0-.1.1-.2.1s-.1,0-.2,0c0,0-.1,0-.2,0,0-.1.1-.2.1-.4,0,0,.2.2.4.4ZM57.8,14h.2s-.1.3-.1.3h0c-.1.2-.2.3-.2.5h-.2c0,0,0,.2,0,.2,0,.3,0,.5-.2.7h-.2c0-.1,0-.3,0-.3,0,0,0-.1,0-.3s0-.2.2-.2h0,0c.1-.3.2-.5.2-.6,0,0,.1,0,.1-.1h0s.2,0,.2,0h0ZM57.2,15.8h0c0,.1,0,.1,0,.1h0c0-.1,0-.1,0-.1ZM70.4,25l.2.5h0c0,0-.1,0-.1.2,0,0-.1,0-.2,0s-.1,0-.2,0c0,0,0-.1-.1-.2,0,0,0-.1-.1-.2v-.2s-.1,0-.1,0v-.2c-.2,0-.2-.1-.2-.3,0-.1,0-.2-.2-.3v-.3c-.1,0-.2,0-.2,0-.1-.2-.3-.5-.4-.7-.1-.2-.2-.5-.3-.7,0,0,0-.1-.1-.2,0-.1,0-.2,0-.2h0s0-.3,0-.3h0s-.1-.3-.1-.3h0c0,0-.1-.4-.1-.4,0,0,0,0-.1-.2,0,0,0-.2,0-.2s0,0,.2,0,0,0,0-.2,0-.2-.2-.3c0,0-.1,0-.2,0,0,0-.1,0-.2,0-.1-.5-.3-1-.6-1.5v-.2c-.1,0-.1,0-.1,0l-.2-.3c0,0,0-.1,0-.2,0,0,0-.2,0-.2h.2s-.3-.6-.3-.6h0c0,0,0-.1,0-.3-.1-.1-.2-.2-.2-.3h0c0,0,0,0,0,0h0c0,0,0,0,0,0h0c0,0,0,0,0,0v-.4c-.2,0-.2-.1-.3-.3,0-.2-.1-.3-.2-.4h0v-.2h0v-.3c0,0-.1,0-.1,0l-.2-.4h0c0-.1,0-.1,0-.2h0c-.2-.5-.4-1-.7-1.5s-.4-1-.6-1.5h0s-.2-.4-.2-.4h0c0,0,0-.1,0-.2,0,0,0,0,0,0h0s0-.3,0-.3h0s-.2-.3-.2-.3h0c0-.1,0-.1,0-.2h0c0,0,0-.2,0-.3,0-.1,0-.2-.1-.2,0,0,0-.2,0-.2,0,0,0-.2,0-.2h0s-.1-.4-.1-.4h0c0,0,0,0,0,0s0,0,0,0h0s-.5-1.2-.5-1.2h0s-.1-.2-.1-.2h0c0-.1-.2-.5-.2-.5,0,0-.1-.1-.2-.3,0,0,0,.1,0,.2,0,0,0,.2,0,.2h0s0,.2,0,.2h0v.2h-.1v.2h0c0,.2,0,.3-.1.5,0,.1-.1.3-.1.4h0v.2h-.1v.2h0c0,.1-.3.8-.3.8h0v.2s-.1.1-.1.1h0c0,.1-.1.2-.1.2,0,.1,0,.3-.2.5,0,.2-.1.4-.2.4h0c0,0,0,.2,0,.2,0,0,0,.1-.1.3,0,.2-.1.3-.2.3h0c-.1.3-.2.5-.3.7,0,.2-.2.4-.3.6-.1-.3-.2-.6-.2-.9,0-.3-.2-.6-.4-.8v-.4l.4-.9h0c0,0,.2-.7.2-.7h0c0-.1,0-.2.1-.3,0,0,0-.2.1-.2h0c0-.1,0-.2,0-.4,0-.1.1-.3.2-.4,0-.2.1-.3.2-.5,0-.2.1-.3.2-.3h0c0,0,0-.2,0-.2,0,0,0-.1,0-.2,0-.1,0-.2.1-.3h0v-.2s.1,0,.1,0v-.2c0,0,.1-.1.2-.3,0-.2,0-.3.1-.3,0,0,0,0,0,.2h0c0,.2,0,.3,0,.3,0,.3,0,.6,0,.9,0,.3,0,.6,0,.9h0c0,0,.1,0,.1-.1h0s0,.2,0,.2c.1,0,.2-.1.2-.2-.1-.4-.2-.9-.2-1.4v-.3c0,0,0,0,0,0v-.5c.1,0,.1-.4.1-.4h0c0-.2,0-.3,0-.5s0-.2,0-.3c0,0,0-.2,0-.2,0,0,0,0,0,0,0,0,0,0,.2-.1,0,0,0-.2,0-.2,0,0,0-.2,0-.3,0,0,.1,0,.1-.1,0,0,0,0,0,0s0,0,0,0l.3-.9h0c0,.1,0,.2,0,.4,0,.2.1.3.2.5,0,.2.2.3.2.5,0,.2.1.3.2.3,0,0,0,0,0,0h0c0,0,0,0,0,0v.2s0,0,0,0c0,0,0,0,0,0h0c0,.2.1.4.2.5h0c0,0,0,.1.1.2h0c.1.1.2.2.2.2s0,0,0,0v.2c0,0,0,0,0,0,.2.4.3.7.4,1.1.1.4.3.7.4,1.1,0,.1,0,.2.1.2v.2c0,0,0,.1,0,.2h0s0,.2,0,.2h0c.1.3.2.5.2.6,0,.2.1.4.2.6h0s0,.3,0,.3h0s0,.2,0,.2c0,0,0,.1,0,.2h0c.1.3.2.6.3.9,0,.3.2.5.3.8h0s0,.3,0,.3h0v.2s0,.1.2.4c0,.3.1.4.2.5h0c.3.6.5,1.2.7,1.8.2.6.4,1.1.6,1.7,0,0,0,0,0,.1l.4.8h-.2c0,.2.1.5.2.8.1.3.3.6.4,1,.1.3.3.6.4.9.1.3.2.4.2.5h0c0,0,.1.3.1.3h0s.3.8.3.8c0,0,0,0,0,0h0c0,.2.1.3.2.5,0,.2.2.4.3.5h-.2s0,.3,0,.3h0c0,0,.1,0,.1-.1h0s0,.2,0,.2v-.2c-.1-.3-.3-.6-.5-1-.2-.4-.3-.7-.3-1.1h0c0,0,0-.4,0-.4h0c0,0,0-.2-.2-.4s-.2-.4-.2-.7c0-.2-.2-.4-.2-.6,0-.2,0-.3,0-.3v.3c.1,0,.2,0,.2,0v.2c.1,0,.2,0,.2,0v.3c0,0,.1,0,.1,0l.3.8h0s0,.2,0,.2h0s0,.2,0,.2h0c0,0,.1.3.1.3h0s0,0,0,0c0,0,0,0,0,0v.3c0,0,.1,0,.1,0,.1.3.2.6.4.8.1.3.2.5.2.8h0c0,0,0,0,0,0,0,0,0,0,0,0v.4c0,0,.1,0,.1,0,0,.2,0,.4.2.7.1.3.2.5.3.7h0c0,0,0,0,0,0h0ZM61.6,5.2h.3v-.3c0,0-.2,0-.2,0h0c0,0,0-.1,0-.2,0,0,0,0-.1,0h0c-.1.1-.2.3-.2.6l.3.6c0-.1,0-.2,0-.2,0,0,0-.1.1-.2ZM63.1,9.2h.2c0,0-.2,0-.2,0h0ZM63.4,8.9c-.1,0-.2,0-.2.2h0c0,.1.1.1.1.1,0,0,0,0,.1,0,0,0,0,0,0,0,0-.1,0-.2-.2-.2ZM63.6,9.8h0s-.3,0-.3,0v.2c.2,0,.3,0,.3,0ZM63.7,10.9h.3v-.2h-.1c-.1,0-.2,0-.2.2h0ZM64.7,12.5h0c0,0,0,0,0,0h0ZM66.8,18.5h.3c-.1-.1-.2-.2-.3-.2h0s0,.2,0,.2ZM69.6,23.4h0s0-.1,0-.1c0,0,0,0,0,0h0Z"/>
          <path class="cls-1" d="M73,5.3v-1.4c0,0,0-.2,0-.2,0,0,0-.2,0-.2l2.5.2h.2v.2c0,.1,0,.2,0,.3,0,0,0,0,0,.1,0,0,0,.1,0,.2l-.2.3h.2c0,.1,0,0,0,0v.3c0,0,.2,0,.3,0,.1,0,.2,0,.2.1h.2c0,0,0,.2,0,.2-.7-.1-1.3-.2-1.7-.2s-1.1,0-1.8.2ZM75.2,27.7c0-.6,0-1.1,0-1.7s0-1.2,0-1.7c0-.5,0-1,0-1.3s0-.5,0-.6h.2v.2s0,0,0,0,0,0,0,0c0,.6,0,1.3,0,1.9,0,1.1,0,2.2,0,3.2M78.5,16c0,0,0,.1,0,.2,0,0,0,.1,0,.2h0s-2,0-2,0v.4s0-.2,0-.2l-.2-.2h.1c.2,0,.4,0,.5-.2,0,0,0,0-.1,0h0c0,0-.1,0-.2,0h0v-.5h0c0,0,0,0,0,0h0c0,.1-.1.3-.1.3-.1,0-.3,0-.4,0-.1,0-.2.1-.2.3,0-.2,0-.3,0-.5v-.6c0,.1,0,.3,0,.4s0,.1,0,.2h0c0,.3,0,.4,0,.6,0,0-.1,0-.2,0s-.1,0-.2,0c0-.1,0-.3,0-.4v-.2c0-.2,0-.4,0-.6h.6s0,0,0,0h.2s0,0,0,0h.2c0,.1,0,0,0,0h.6c.2,0,.4,0,.6,0h.2c.2,0,.3,0,.5,0,0,0,0,0,.1.1,0,0,.1,0,.2.1l-.6.5c0,0-.2,0-.3,0-.1,0-.2,0-.2.2s0,0,0,0c0,0,0,0,0,0h.2c0,0,.1-.3.1-.3.2,0,.3-.1.5-.2.1,0,.3-.1.5-.2h0c0,.2,0,.3-.2.4ZM75.2,16.7l.2-.2h0c0,.1,0,.3,0,.3v.2c.1,0,.1.7.1.7,0,0,0,0,0,0,0,0,0,0,0,0s0,0,0,.1c0,0-.1,0-.1-.2v-1ZM75.4,21.6h.1v.2c0,.3-.1.5-.3.5v-.5s0,0,0,0v-1h.2c0,0,0,.2,0,.2h-.2c0,0,.2.1.2.1,0,0,0,.1,0,.2h0c0,.2,0,.2-.1.3ZM75.6,28.4c0-.9,0-1.7,0-2.6v-1.9c0-.1,0-.2,0-.3,0-.5,0-1.1.1-1.6l.3-.2.2.2h.3v1c0,.9,0,1.7,0,2.6v1.3M75.6,21.5h0c0-.1,0-.1,0-.1,0,0,.2,0,.3,0,0,0,0,.1,0,.2,0,0,0,.1,0,.2s0,0,0,.1c0,0,0,0,0,0h-.3c0-.2,0-.4,0-.5ZM76.1,15.6v.3c0,0,0-.1.1-.2h0c0,0,0-.1,0-.1h0ZM76.4,16.8h0c0,0,0,0,0,0,0,0,0,0,0,0ZM84.9,13.6v.2c0,0,.3,0,.3,0,0,0,0,0,0-.2s0-.1,0-.2h0s0,0,0,0c0-.2.2-.4.4-.5.2-.1.3-.3.4-.5,0,0,0,0,0,0h0c.1-.2.2-.3.4-.6.1-.2.2-.3.2-.4v-.3c0,0,.1,0,.1,0v-.2s0,0,0,0c0-.1,0-.2,0-.3s0-.2,0-.3h0c0-.2,0-.4,0-.6v-.6c0-.7-.2-1.4-.5-1.9-.3-.5-.7-1.1-1.2-1.6h-.2s0-.2,0-.2h-.1c0,0,0-.1-.1-.1,0,0-.1,0-.1,0h0c-.2-.2-.3-.2-.5-.2h0c0-.1-.2-.1-.2-.1h0c0,0-.2,0-.2,0h0c-.2,0-.3-.1-.4-.1h0c-.8-.3-1.5-.4-2.4-.4h-.2c-.9,0-1.7,0-2.5,0s-.2,0-.3,0v-.2c0-.1,0-.2,0-.3,0,0,0-.2,0-.3s0-.1,0-.2c.2,0,.4,0,.6,0s.4,0,.6,0c.4,0,.8,0,1.2,0h.2c.2-.1.4-.1.6-.1s.4,0,.5,0c.3,0,.6,0,1,.1.4,0,.8,0,1.2.2.4,0,.8.2,1.1.3s.6.3.8.6h.2c.2.3.4.5.7.7s.5.4.7.7c0,.1,0,.2.2.3h0c0,.1,0,.2,0,.2v.2c.2,0,.2,0,.2.1s0,0,0,0c0,.1.1.3.2.4,0,.1,0,.3.1.4h0c0,.3.1.6.2.9,0,.3,0,.6,0,.9,0,.5,0,.9-.2,1.3-.1.4-.2.8-.3,1.2h-.1c0,0,0,.3,0,.3,0,0-.1.2-.1.3-.1.1-.2.2-.2.3-.1.2-.3.4-.4.5-.1.1-.3.3-.4.5h-.2s-.3.4-.3.4h-.1s-.1.2-.1.2h-.1s-.2.2-.2.2h0l-.3.2h-.1s-.1.1-.1.1h-.1s-.1.2-.1.2c-.1,0-.2,0-.3.1-.1,0-.2,0-.3.1,0,0-.2.1-.5.2l-.5.2h0c0,0-.2,0-.3,0-.2,0-.3.1-.3.2h-.2c0-.1,0,0,0,0-.2,0-.4,0-.5,0s-.4,0-.5,0c-.1,0-.2-.1-.3-.3h-.3s-.2-.2-.2-.2h-.2c0,0-.1,0-.2,0h0c-.1,0-.2-.2-.2-.3,0-.1,0-.3,0-.4.1,0,.2,0,.3,0,.1,0,.2,0,.3,0,.2,0,.3,0,.4,0,0,0,.1,0,.3,0,.2,0,.4-.1.6-.2.2,0,.5-.1.7-.2.2,0,.3,0,.4,0h0s.3-.1.3-.1h0s.3-.1.3-.1h0c0-.1.2-.2.3-.2,0,0,.1,0,.2,0s0,0,.1,0l.2-.2c.2-.1.4-.3.6-.5ZM78.3,15.3s0,0,0,0c0,0,0,0,0,0,0,0,.2,0,.2,0,0,0,0,0,0,0s0,0,.1,0c0,0,0,.1-.2.1-.2,0-.3,0-.4-.1ZM82.8,14.9c-.3,0-.4,0-.5,0-.1.1-.2.2-.2.3,0,.2,0,.3,0,.3h0c.2.1.2.2.3.2.1,0,.2,0,.3-.1,0,0,.1-.1.2-.2h0c.1,0,.2,0,.2-.3h0c0-.1-.1-.1-.2-.1,0,0-.1,0-.2,0ZM83.9,15h-.5s0,.1,0,.1c0,.1.2.2.3.2h.2v-.3ZM83.8,14.6h0v-.2s0,0,0,0c0,0,0,0,0,0h0c0,.2,0,.2.1.2ZM85.1,5.6h.2c0,0,0-.3,0-.3h-.2c0,0,0,0,0,0,0,0,0,.2,0,.2ZM87,10.6v.2h0s0,0,0-.1h0s-.1,0-.1,0Z"/>
          <path class="cls-1" d="M93.8,13.7v-.2c0-.2,0-.4-.1-.8,0-.4,0-.7,0-1.2,0-.4,0-.8,0-1.2V3.6h1.5c0,1.2,0,2.4,0,3.5v3.5c0,1.2,0,2.3,0,3.5h1.3v.3c-.1,0-.1,0-.2,0-.2,0-.3,0-.3,0,0,0,0,0-.1,0,0,0-.2,0-.3.1-.3-.3-.4-.4-.5-.5-.1,0-.3,0-.7,0s-.2,0-.3-.3ZM93.6,16.8h.4s0,1.8,0,1.8c0,.4,0,.7,0,1.1,0,0,0-.1-.1-.1s-.1,0-.2.1h0c0-.2,0-.2.2-.2h0c0-.1,0-.2-.2-.2v-1.7c0-.3,0-.6,0-.8ZM93.6,19.9l.3.3c0,.9,0,1.7,0,2.5v2.6c0,0,0,.2,0,.3h0c0,.2,0,.2-.2.3,0,0,0-.3,0-.7,0-.4,0-.9,0-1.3,0-.5,0-1,0-1.4v-2.5ZM93.7,18.7v.2h.2v-.2h-.2ZM93.8,9.4s0,0,0,0c0,0,0,0,0,0,0,0,.1,0,.1-.1h0s0,0,0,0c-.1,0-.2,0-.2.1ZM95.2,14.6h.1c0,.2,0,.2,0,.3h.1c0,0,.1,0,.1,0,0,.1,0,.2,0,.3v.2c0,0-.1,0-.3,0s-.2,0-.3,0c0,.1,0,.3,0,.4s0,.1,0,.2v2.7s0,.6,0,.6c0,.3,0,.5,0,.5v.2s0,0,0,0c0,.2,0,.3,0,.5s0,0,0,.1c0,.3,0,.5,0,.7-.1,0-.2,0-.2,0s0,0,.2,0v.6c0,.1,0,.3,0,.7,0,.4,0,.7,0,1.1,0,.4,0,.8,0,1.1,0,.3,0,.5,0,.5v.2s0,.1,0,.1h-.1c0,0,0,0,0-.1,0-1.1,0-2.1-.1-3.1,0-1,0-2,0-3.1,0,.6-.1,1.2-.1,1.8s0,.5,0,.7c0,.9,0,1.7,0,2.5,0,0,0,0,0,0s0,0,0,0v.6c0,0,0,.2,0,.3h0c0,.1,0,.2,0,.2h-.3c-.1-.2-.2-.3-.2-.5s0,0,0,0v-5.1c0,0,0,0,0-.1h0c0,0,0,0,0-.1v-1c0,0,0-.1,0-.2,0-.3,0-.6.1-.8,0,0,0-.1,0-.3s0-.2,0-.3v-.3c0-.1,0-.2,0-.3.2-.1.3-.2.4-.3h.1c0-.2.1-.3.2-.4v-.3c0,0,.1,0,.2-.1,0,0,0-.1.2-.2v-.2c0,0,0,0,0-.1s0,0,0-.1c0,0,0-.2,0-.2,0,0,0-.2,0-.2ZM94.2,24.5h.1c0,.1,0,0,0,0,0,0,0-.1,0-.1h0ZM109.5,14.5h0c0,0,0,0,0,0h0s-.1,0-.1,0c0,0,0,0,.2,0,0-.1,0-.4,0-.9,0-.5,0-1,0-1.5v-1.4c0-.4,0-.6,0-.7h0v-1.5c0,.2,0,.4,0,.6s0,.4,0,.6h-.1c0,.2,0,.2,0,.3v.3c0,.6,0,1.3,0,1.9,0,.6,0,1.2,0,1.9h0s0,.3,0,.3c0-.2-.1-.4-.1-.6v-4.2s0,0,0,0c0-.2,0-.5,0-1,0-.5,0-1.1,0-1.7s0-1.2.1-1.7c0-.5,0-.8.1-.9h.3v.3c0,.1,0,.2,0,.3,0,0,0,.2,0,.3v.4c0,.1,0,.2,0,.2h0s0,.6,0,.6h0v.4c0,1.4,0,2.8,0,4.2,0,1.4,0,2.8,0,4.2v1.3l-.2-.2c0-.1,0-.3,0-.4,0-.1,0-.3,0-.4v-.2s0,0,0,0v-.4c0-.1,0-.3,0-.4v.2c-.1,0-.1,6.4-.1,6.4,0,.1-.1.2-.2.2,0,0-.1.1-.2.2v-1.7c0-.1,0-.2.2-.2,0,0,0-.1,0-.2,0,0,0-.1-.1-.2,0,0,0-.1,0-.3,0-.1,0-.3,0-.4s0-.3,0-.4c0-.1,0-.2,0-.2,0-.2-.1-.3-.1-.6,0,0,0-.2,0-.2,0-.2,0-.3,0-.5,0-.2,0-.4,0-.6h0c0-.2,0-.4-.1-.5h-.2c-.1,0-.2,0-.2,0s0,0,0,0v3.3l-.2-.2c0-.2,0-.4,0-.6v-.3c0-.3,0-.6,0-.8s0-.5,0-.8v-.7c-.5-.1-1.1-.2-1.7-.2h-2c-.7,0-1.3,0-2,0s-1.2,0-1.8,0-1.3,0-2,0c-.7,0-1.3,0-2,0s-.2,0-.3,0c-.2,0-.3,0-.5,0s-.3,0-.4,0c0,0,0,0,0,0s0,0,0,0v-.2c0,0,0,0,0-.1,0,0,0,0,0-.1h-.1c0,0,0-.2,0-.2h-.1c0,0,0-.1,0-.1.8,0,1.6,0,2.4,0s1.6,0,2.4,0c1.6,0,3.2,0,4.8,0h1.9c.4,0,.7,0,1.1,0,.3,0,.5,0,.6,0,0,0-.2-.1-.4-.1h-.5c-2,0-4,0-5.9,0-2,0-4,0-6,0h-.2s0,0,0,0c0,0,0,0,0-.2,0-.2,0-.3.2-.3h1.4c.7,0,1.5,0,2.5,0,.9,0,2,0,3,0s2,0,2.9,0c.9,0,1.6,0,2.2,0,.6,0,.9,0,.9,0ZM98.9,15.1h.3c0,0,0,0,0,0h0c-.2,0-.3,0-.4,0ZM102.3,15.3c0,0,0-.1,0-.2h0s0,0,0,0c0,0,0,0,0,.1s0,0,0,0ZM109.7,15h-.3v.2h-.2c0-.1,0,.3,0,.3,0,0,0,.1,0,.1h0s0-.4,0-.4l.3.3v-.5ZM109.2,19.6h.1v3.6h0c0-.5,0-1.2,0-1.8v-.5c0-.5,0-.9,0-1.4ZM109.4,25.8v-.5s0,0,0,0v.5ZM109.7,24.1v-1.3h0c0,.2,0,.4,0,.6,0,.2,0,.3,0,.5l-.2.2ZM110,23.7h0v.5c0,.2,0,.3,0,.5s0,.3,0,.4c0,0-.2.2-.3.3,0,0,0-.2,0-.2s0-.2,0-.2v-.5h.2v-.3c0,0,0-.2,0-.2,0-.1,0-.2,0-.3ZM110.1,25.4v.4h-.4v-.3c.2,0,.3,0,.4,0ZM110,25.2s0,0,0,.1h0c0,0,0,0,0,0h0c0-.1,0-.2,0-.2ZM110.3,16.4h0c0,.3,0,.4,0,.5v2.5c0-.1,0-.3-.1-.6,0-.3,0-.6,0-.9v-1.6ZM110.3,19.6h.1c0,0,0,.2,0,.2v.3s0,0,0,.1c0,0,0,.1,0,.2v.4c0-.2-.1-.4-.1-.6s0-.4,0-.6ZM110.4,25.6h0s0,0,0,0v.2h0s0,0,0,0c0,0,0,0,0,0s0,0,0,0Z"/>
          <path class="cls-1" d="M116.3,5.2l.3.2c0,.2-.1.3-.1.5l-.2.2c0,0,0-.2,0-.2,0,0,0-.2,0-.2s0-.1,0-.2c0,0,0-.1,0-.2ZM116.3,3.5h1.5v.2c0,.9.1,1.8.1,2.7s0,2,0,3c-.2,1.9-.2,3.9-.2,5.8s0,.6,0,.9c0,.2,0,.3,0,.4s0,.3,0,.5c-.1-.6-.2-1.3-.2-2s0-.2,0-.2v-2.7h0c0-.1.1-.2.1-.3h0c0-.1-.1-.3-.2-.7,0-.4,0-.9,0-1.4,0-.5,0-1,0-1.5,0-.5,0-.8,0-1,0-.3,0-.4.2-.5,0,0,0,0,0-.1s0,0,0-.1c0-.3,0-.5,0-.8,0,0,0-.2,0-.3,0-.2,0-.4,0-.5,0,0,0-.2,0-.4s0-.4-.2-.4c0,0,0,0-.1,0-.1,0-.2,0-.2.2h-.2l-.3.3v-1ZM116.4,27.6c0-5.1-.1-10.3-.1-15.5v-.7s0,0,0-.1c0-.2,0-.3,0-.5v-.2c0,0,0-.2,0-.2v-.2c0-.3,0-.5,0-.6,0,0,0-.2,0-.2,0,0,0,0,0,0,0,0,0,0,0-.2s0,0,0-.1c0,0,0-.1,0-.2h-.2c0-.3,0-.5,0-.7,0-.2,0-.4,0-.6,0-.3,0-.5,0-.6,0,0,.1,0,.2,0s0,0,.1,0c0,0,.2,0,.2.3v.2s.2.2.2.2h.2v6.9c0,.2,0,.4-.2.4,0,.2,0,.5,0,.6s0,.3.2.4M117.3,27.6v-1.3c0-.8,0-1.6,0-2.4s0-1.3,0-1.9l.2-4.3h0c0,1.1,0,2.3,0,3.5v5.1M116.9,5.4l.2-.2c0,.1,0,.2,0,.3,0,0,0,.2,0,.3l-.2-.5Z"/>
          <path class="cls-1" d="M122.9,14.4h0v.5h0c0,.1.1.2.1.3h0c0,.2,0,.3,0,.3,0,0,.1.1.1.2h0c0,0-.2.3-.2.3h.2s.1.6.1.6l-.2.2h0c0,.2.1.2.1.3h0s.1,0,.1,0c0,.4.1.7.2,1,.1.3.2.7.3,1h0s.2.5.2.5h0s.2.5.2.5l.2.4h0c.2.6.5,1.2,1.1,1.7.6.5,1,.9,1.4,1.4h0s0,0,0,0,0,0,0,0h0c0,0,.3.2.5.3.3.1.4.2.5.3h.2c0,0,.2.2.4.2.2,0,.4.2.4.2h0s0,0,0,0c.2,0,.3.1.5.2.2,0,.3,0,.5.1,0,0-.1.1-.1.2s0,0,0,0h.3s.3,0,.3,0c0,.2.1.3.2.3.1,0,.3,0,.4,0v-.2c.2,0,.4,0,.6,0h.2c-.2-.1-.5-.2-.7-.2,0-.1.1-.2.3-.2.3,0,.7,0,1,0,.3,0,.7,0,1,0,0,0,0,0,0,.1s0,0,0,.1c0,0,0,.1,0,.2h0c0,.1,0,.2,0,.2,0,0,0,.1,0,.2h0c-.2,0-.3,0-.4-.1-.1,0-.3-.1-.4-.2l-.2-.2h-.2c0,0,0,0,0,0,0,0,0,.1.2.2.1,0,.2,0,.2,0l.5.3c-.2,0-.3,0-.4,0-.3,0-.6,0-.8,0-.3,0-.6,0-.8,0v-.3c0,0-.1.3-.1.3-.3,0-.5,0-.8-.1-.3,0-.5-.1-.8-.1l-.3-.2h0c0-.1.3-.3.3-.3h0c0,0,.1-.3.1-.3h-.3c-.2,0-.2-.1-.3-.1-.1,0-.2,0-.2,0l-.2.2v.3s-.2,0-.4-.1c-.2,0-.4-.2-.4-.2h-.2c0-.1,0-.1,0-.1,0,0,0,0-.1,0,0,0-.1,0-.2-.1h-.2c0,0,0-.1-.1-.1l-.6-.4h0c0,0-.1-.1-.2-.2,0,0,0,0-.1,0h0v-.2c-.2,0-.4-.1-.6-.3s-.4-.4-.6-.6c-.2-.2-.4-.5-.6-.7-.2-.2-.3-.4-.4-.5h0c0-.1-.1-.2-.3-.4-.1-.1-.2-.2-.2-.3h0s-.1-.2-.1-.2c0,0,0,0,0,0h0s0-.2,0-.2h0s0-.2,0-.2c0,0,0,0-.1-.2,0-.1,0-.2,0-.2h0c0,0,0-.1,0-.2,0,0-.1-.1-.1-.2v-.3c-.1,0-.2,0-.2,0v-.4h-.2c0,0-.1-.5-.1-.5h0c-.1-.8-.2-1.4-.3-2.1s-.2-1.3-.2-2.1,0-1.6.2-2.5c.1-.9.3-1.7.6-2.4h0c0,0,0-.2,0-.2v-.2c.1,0,.2,0,.2-.1s0,0,0,0l.3-.5h0c0-.1,0-.2,0-.2v-.3c0,0,.2,0,.2,0,0-.2.1-.4.3-.6h0c0-.1.1-.2.1-.2v-.2s.1,0,.1,0v-.2s.2,0,.2,0h0c.1-.2.2-.4.4-.5.1-.2.3-.3.4-.3,0,.3-.1.5-.2.7s-.1.5-.2.7c0,0-.2-.1-.4-.1s-.2,0-.3.1c0,0-.1.2-.1.3,0,0,0,.1,0,.2s0,.1,0,.2l.4.2c0,.1-.2.3-.3.6-.1.3-.2.4-.3.5v.3c0,0-.1,0-.1,0-.2.8-.4,1.6-.6,2.3-.2.7-.3,1.5-.3,2.3h0c-.2.1-.2.2-.2.3h0s0,0,0,0c0,0,0,0,0,0h0c0-.1,0-.1,0-.1ZM122.5,14.4v.2c0,0,.1-.1.1-.2h0s-.1,0-.1,0ZM123.2,14h-.2c0-.1,0-.3,0-.4,0-.1,0-.3,0-.4,0,0,0,.1,0,.2s0,.1,0,.2c0,0,0,.2,0,.2v.2ZM123.2,14.5h0c0,0,0,0,0,0h0ZM123.4,13h-.2v-.2c0-.3,0-.7.2-1.1h0c0-.2,0-.5.1-.8,0-.4.2-.6.3-.7h0c0-.1,0-.2,0-.3s0-.2.1-.3h0s.4-.8.4-.8c0,.1,0,.2,0,.2v.2c0,0,0,.1,0,.2,0,.1,0,.2,0,.2l-.2.5h0v.4c0,0-.2.4-.2.4,0,.3-.1.5-.2.8,0,.3,0,.5,0,.8v.2c-.1,0-.2,0-.2,0v.3ZM130.7,24.5h0c0,.1-.2.2-.2.2h0v.2h0s-.2,0-.4,0c-.2,0-.4-.1-.4-.2h-.3c0,0,0-.2,0-.2h-.3c0,0,0-.1,0-.1,0,0-.2,0-.4-.2-.2,0-.3-.2-.5-.3-.2-.1-.4-.2-.5-.3-.2-.1-.3-.2-.3-.3,0,0,0,0-.2,0,0,0-.2-.1-.3-.2-.1,0-.2-.2-.3-.3-.1,0-.2-.2-.2-.2h0c-.1-.1-.2-.2-.3-.3,0-.1-.2-.2-.3-.3h0c-.1-.2-.2-.4-.4-.5-.1-.2-.2-.3-.4-.5v-.2c0,0-.2,0-.2,0h0c0-.2-.1-.3-.2-.5,0-.2-.1-.3-.2-.4v-.2s-.1,0-.1,0h0c0-.1,0-.2,0-.2-.1-.4-.3-.9-.4-1.3-.1-.3-.2-.7-.2-1v-.3l-.2-.2v-.3s.3,0,.3,0c0,.2.1.4.1.6,0,.2,0,.4,0,.6h0v.2h0c0,.3.1.5.2.7,0,.2.1.5.2.7h0s.1.3.1.3v.2h0c0,.1,0,.2.2.4v.3c.1,0,.3.3.3.3,0,0,.1.2.2.2,0,0,0,0,0,.1,0,0,0,0,.1,0h0c0,.2.1.3.3.5.1.2.2.3.3.4,0,.1.1.2.2.2,0,0,.2.1.2.2.1,0,.2.1.3.2,0,.1.2.2.3.2h0c.7.5,1.3.8,1.8,1.1.5.3,1.2.5,2,.7ZM125.6,7.2c0-.2,0-.3.2-.5.2-.2.3-.3.6-.5.2-.2.4-.3.6-.5.2-.1.3-.3.4-.4h.2s.3-.3.3-.3h.1c0,0,.1,0,.2-.1,0,0,.1,0,.2-.1,0,0,.1,0,.2,0s.2,0,.2-.1c.3,0,.6-.2,1.1-.3.4-.2.7-.2.9-.2h.1c-.5.1-.9.2-1.4.4-.4.2-.8.4-1.2.6-.4.2-.7.4-1,.6-.3.2-.5.3-.6.3v.3c-.1,0-.3,0-.3,0-.1.2-.3.3-.4.5-.1.2-.3.3-.4.4ZM139.4,6.2v-.2s-.2,0-.2,0l-.2-.2h-.2c0-.1,0-.1,0-.1,0,0-.1,0-.3-.2-.2-.1-.3-.2-.3-.3,0,0,.1,0,.2.1,0,0,.1,0,.2.1h.1c-.1,0-.2-.1-.3-.2-.1,0-.2-.1-.3-.2h-.2c0-.1,0-.2,0-.2h-.2s-.1-.1-.1-.1h-.2c0,0-.1-.2-.1-.2-.1,0-.3,0-.4-.1-.1,0-.3-.1-.4-.2h0c0,0-.5-.2-.5-.2h0s-.3,0-.3,0h0s-.2,0-.2,0h0s-.2,0-.2,0c-.4,0-.7,0-1.1-.1-.5-.1-.9-.2-1.3-.2s-1.2,0-1.9.1c-.7,0-1.3.2-1.8.5,0,0,0,0,0,0,0,0,0,0,0,0h-.3c0,.1,0,.2,0,.2-.5.2-.8.4-1.1.6s-.6.4-1,.6h-.1c0,0,0,.2,0,.2-.1,0-.2.1-.3.2,0,.1-.2.2-.3.3,0,0,0,.1-.1.1s0,0,0,0c0-.1,0-.2,0-.3h0c0-.2,0-.2,0-.3v-.2c0,0,.1,0,.1,0h0c0-.1,0-.3,0-.3h0c0-.1.2-.3.2-.3l.3-.2s0,0,0,0h0s0,0,0,0c.1-.1.3-.3.5-.4.3-.1.4-.2.5-.3h.2c0,0,.1,0,.1,0h0c.3-.1.6-.2.9-.4.3-.1.7-.3.9-.4h0s0,0,0,0c0,0,0,0,0,0,.5-.1.9-.2,1.4-.2.5,0,.9,0,1.4,0s1.2,0,1.8,0c.6,0,1.2.2,1.8.3.2.1.4.2.6.2h0s.5.2.5.2v.2s.2-.2.2-.2c.1.1.2.2.4.2h0c0,0,.3.2.3.2l.2.2h.1s.1.2.1.2h.1s0,.2,0,.2h.2c0,.1.1.2.3.2,0,0,0,.1.1.2h.2c.3.4.6.8,1.1,1.2,0,0,0,0,0,.1,0,0,0,0,0,.1,0,0-.2,0-.2,0s-.2,0-.2,0l-.3-.2h0c-.1,0-.2,0-.3-.1,0,0-.2-.1-.3-.2ZM131.2,3.3h0s0,0,0,0c0,0,.1,0,.1,0h0c0,0,0,0,0,0s0,0,0,.1ZM131.6,26h0v-.2c-.1,0-.1,0-.1,0,0,0,0,.1,0,.1ZM133.5,25v.2c0,0-.3,0-.3,0-.6,0-1.1,0-1.6-.1v-.2s0-.1,0-.1h.2s1.1,0,1.1,0c0,0,.2,0,.3,0,.2,0,.4,0,.6,0,0,0-.1.2-.2.2h-.2ZM131.6,3.5v.2h0c0,0,.1,0,.1-.1h-.2ZM136,4.4h-.1c0,0-.2-.1-.5-.2-.3,0-.4,0-.5,0h0c0,0-.2,0-.2,0h-.1s0,0,0,0c-.1,0-.2,0-.2,0-.2,0-.4,0-.6,0-.2,0-.4,0-.6-.1.5,0,1,.1,1.5.1h0c.2,0,.4,0,.7.1.2,0,.5,0,.7.2h.1ZM134.2,24.8h-.1c0,0,0-.1.2-.1h.2c0,0,0,.1-.2.1ZM135.1,25.8h.3c.3,0,.5-.2.7-.2.1,0,.2-.3.2-.5v-.2c0,0,.1,0,.2,0,0,0,.1,0,.2,0s0,0,0,0h-.2c0,.1,0,.3,0,.3,0,.1.2.2.3.2.2,0,.3,0,.3-.3h.3c.2,0,.3-.2.3-.4v-.4s.4-.2.4-.2c0,0,0,0,.1,0,0,0,.1,0,.1,0h.1s0-.1,0-.1c.1,0,.2-.1.3-.2,0,0,.2-.2.3-.2h.3l.2-.2v-.2h.1s0-.2,0-.2h-.2c0,.1-.3,0-.3,0-.1,0-.2.1-.2.2v.3c0,.1-.2.2-.3.2h0s0,0,0,0h-.1c0,.1-.2.2-.2.2-.2-.1-.4-.2-.6-.2.1,0,.3-.2.4-.2.1,0,.3-.2.4-.2h0c.2-.2.4-.3.5-.5.2-.1.4-.2.6-.3h.3c0,.1.2.2.2.2,0,0,.1.2.2.2,0,0,.1.2.2.3h0c0,.1,0,.2,0,.2-.3.2-.5.4-.7.6-.2.3-.5.4-.8.6h0c0,0-.2.1-.2.1h0c0,.1-.2.2-.2.2h0c0,0-.1.1-.1.1l-.2.2h0c0,0-.1,0-.2,0h-.3c0,0,0,.2,0,.2h-.4c0,.1-.2-.1-.2-.1h0c0,.1,0,.2,0,.3-.4.1-.8.2-1.1.4-.4.1-.8.2-1.2.2,0-.2,0-.3.3-.3ZM136.7,24.6c0,0-.2,0-.2,0,0,0-.2,0-.3,0,0-.1,0-.2,0-.3v-.2h.3s.2-.2.2-.2h.4c0-.2.1-.2.2-.2.1,0,.2,0,.3,0l.4.2h0c-.1.2-.2.2-.3.3,0,0-.2,0-.3.1,0,0-.1,0-.2-.1-.1,0-.2,0-.3-.1-.2,0-.2.2-.3.2,0,0,0,.2,0,.4ZM137.5,5c0,0-.2,0-.3-.1h0s-.4-.2-.4-.2h0c0,0-.1,0-.2,0,0,0-.1,0-.1-.2.1,0,.3,0,.4.1.1,0,.3,0,.4.1l.3.2.2.2c0,0-.1,0-.2,0ZM138.5,24.1c0,0,0,0,.1,0s0,0,0,0l.3-.3h0l.3-.3h0l.2-.2c-.2,0-.4.2-.6.3-.2.2-.4.3-.6.4Z"/>
        </g>
      </g>
    </g>
  </g>
</svg>