<svg width="195" height="106" viewBox="0 0 195 106" fill="none" xmlns="http://www.w3.org/2000/svg">
<path d="M135.538 100L55.3934 100L-7.62939e-06 6.10352e-05L195 7.16231e-05L135.538 100Z" fill="url(#paint0_linear_666_450)" fill-opacity="0.31"/>
<path d="M135.538 100L55.3934 100L-7.62939e-06 29L195 29L135.538 100Z" fill="url(#paint1_linear_666_450)" fill-opacity="0.31"/>
<line x1="142" y1="89.5" x2="50" y2="89.5" stroke="black"/>
<line x1="141" y1="91.5" x2="51" y2="91.5" stroke="black"/>
<line x1="140" y1="93.5001" x2="52" y2="93.5001" stroke="black"/>
<line x1="139" y1="95.5001" x2="53" y2="95.5001" stroke="black"/>
<line x1="138" y1="97.5001" x2="54" y2="97.5001" stroke="black"/>
<line x1="137" y1="99.5001" x2="55" y2="99.5001" stroke="black"/>
<line x1="64.5" y1="100" x2="64.5" y2="106" stroke="black"/>
<line x1="126.5" y1="100" x2="126.5" y2="106" stroke="black"/>
<defs>
<linearGradient id="paint0_linear_666_450" x1="102.238" y1="4.28843e-05" x2="102.238" y2="100" gradientUnits="userSpaceOnUse">
<stop stop-color="white" stop-opacity="0"/>
<stop offset="0.682292" stop-color="white"/>
<stop offset="1" stop-color="white"/>
</linearGradient>
<linearGradient id="paint1_linear_666_450" x1="102.238" y1="4.84165e-05" x2="102.238" y2="100" gradientUnits="userSpaceOnUse">
<stop stop-color="white" stop-opacity="0"/>
<stop offset="0.348958" stop-color="white" stop-opacity="0"/>
<stop offset="0.677083" stop-color="white"/>
<stop offset="1" stop-color="white"/>
</linearGradient>
</defs>
</svg>
