<?xml version="1.0" encoding="UTF-8"?>
<svg id="Layer_1" data-name="Layer 1" xmlns="http://www.w3.org/2000/svg" viewBox="0 0 5.82 12.65">
  <defs>
    <style>
      .cls-1 {
        stroke-width: 0px;
      }
    </style>
  </defs>
  <polygon class="cls-1" points="3.2 0 3.2 0 3.19 0 3.2 0"/>
  <g>
    <path class="cls-1" d="m5.8,10.07s-.02.21,0,.24c0,.02,0,.16.03.21,0,.01-.11.03-.16.03-.02-.02-.04-.03-.09-.04l-.02.03c-.25,0-.5,0-.75,0,0-.01,0-.03-.02-.04l.57-.02v-.09l-.11-.04-.57.02h-.4l.06.02.11.11h-.51c-.15.01-.32.02-.51.02-.26,0-.49-.02-.68-.07h-.17s-.08,0-.11.02c0,.02-.08.04-.23.04-.57-.01-1.11-.02-1.64-.02-.21,0-.4,0-.59,0v-.18h5.23c.08,0,.11-.02.11-.06l-.17-.04v.02c-1.13.01-2.26.02-3.39.02-.59,0-1.18,0-1.78,0v-.42c.09,0,.17,0,.25-.01h3.17l.06-.02h1.7c.21,0,.42,0,.62,0,0,.04,0,.07,0,.11,0,.03-.01.14,0,.16Z"/>
    <path class="cls-1" d="m.02,8.08s.02.21,0,.24c0,.02,0,.16-.03.21,0,.01.11.03.16.03.02-.02.04-.03.09-.04l.02.03c.25,0,.5,0,.75,0,0-.01,0-.03.02-.04l-.57-.02v-.09l.11-.04.57.02h.4l-.06.02-.11.11h.51c.15.01.32.02.51.02.26,0,.49-.02.68-.07h.17s.08,0,.11.02c0,.02.08.04.23.04.57-.01,1.11-.02,1.64-.02.21,0,.4,0,.59,0v-.18H.59c-.08,0-.11-.02-.11-.06l.17-.04v.02c1.13.01,2.26.02,3.39.02.59,0,1.18,0,1.78,0v-.42c-.09,0-.17,0-.25-.01h-3.17l-.06-.02H.65c-.21,0-.42,0-.62,0,0,.04,0,.07,0,.11,0,.03.01.14,0,.16Z"/>
    <path class="cls-1" d="m.02,12.16s.02.21,0,.24C.03,12.42.03,12.56,0,12.61c0,.01.11.03.16.03.02-.02.04-.03.09-.04l.02.03c.25,0,.5,0,.75,0,0-.01,0-.03.02-.04l-.57-.02v-.09l.11-.04.57.02h.4l-.06.02-.11.11h.51c.15.01.32.02.51.02.26,0,.49-.02.68-.07h.17s.08,0,.11.02c0,.02.08.04.23.04.57-.01,1.11-.02,1.64-.02.21,0,.4,0,.59,0v-.18H.59c-.08,0-.11-.02-.11-.06l.17-.04v.02c1.13.01,2.26.02,3.39.02.59,0,1.18,0,1.78,0v-.42c-.09,0-.17,0-.25-.01h-3.17l-.06-.02H.65c-.21,0-.42,0-.62,0,0,.04,0,.07,0,.11,0,.03.01.14,0,.16Z"/>
  </g>
</svg>