<?xml version="1.0" encoding="UTF-8"?>
<svg id="Layer_2" data-name="Layer 2" xmlns="http://www.w3.org/2000/svg" viewBox="0 0 62.62 57.02">
  <defs>
    <style>
      .cls-1 {
        stroke-width: 0px;
      }
    </style>
  </defs>
  <g id="Layer_1-2" data-name="Layer 1">
    <g>
      <path class="cls-1" d="m8.47,56.44h-1.07v.16h1.07v-.16Z"/>
      <path class="cls-1" d="m8.47,55.45h-1.23,1.23v-.58h-2.96v.25c0,.16,0,.25-.25.41h1.23-1.56,3.37v-.08h.16Z"/>
      <path class="cls-1" d="m5.75,56.77v-.25h.74v-.16s-.33,0-.66-.16l-.25-.33h-1.73c0-.16-.08-.25-.25-.25h-.49c-.16,0-.25,0-.25-.16l1.56-.33v-.58h-1.64v.66h-.41l-.16-.16v-1.15h0l.41.25v-1.32c0-.33-.08-.58-.25-.82v-.41c.08,0,.16-.08.16-.25v-2.79h-.66v6.41s0,.16-.25.16l-.16-.25h0v-6.41H.33v4.19h-.16v4.36h8.22v-.41h-2.71l.08.16Zm-3.29-4.11l.25.25-.25.49v-.74Zm-1.73-.66h0v-.49h.16s0,.08.16.16c0,.16,0,.25-.16.25l-.16.08Zm.9,3.86h-.16l-.25-.25h-.16l.25-.25s-.08,0-.25-.08c-.08,0-.16,0-.16-.08s.08,0,.25,0h.41v.66h.08Zm.49.74h-.25v-.16h0c.16,0,.25,0,.25.16h0Zm.25-.82h.41-.41Zm0,0h0v-.25l.41.25h-.49.08Z"/>
      <polygon class="cls-1" points="8.47 55.78 6.25 55.86 6.49 55.86 6.49 56.44 7.4 56.44 7.4 55.86 8.47 55.86 8.47 55.78"/>
      <polygon class="cls-1" points="2.22 55.62 2.22 55.54 2.14 55.62 2.22 55.62"/>
    </g>
    <g>
      <path class="cls-1" d="m62.04,48.63v1.07h.16v-1.07h-.16Z"/>
      <path class="cls-1" d="m61.06,48.63v1.23h0v-1.23h-.58v2.96h.25c.16,0,.25,0,.41.25v-1.23,1.23h0v.33-3.37h-.08v-.16Z"/>
      <path class="cls-1" d="m62.37,51.34h-.25v-.74h-.16s0,.33-.16.66l-.33.25h0v1.73c-.16,0-.25.08-.25.25v.49c0,.16,0,.25-.16.25l-.33-1.56h-.58v1.64h.66v.41l-.16.16h-1.15l.25-.41h-1.32c-.33,0-.58.08-.82.25h-.41c0-.08-.08-.16-.25-.16h-2.79v.66h6.41s.16,0,.16.25l-.25.16h-6.41v1.15h4.19v.16h4.36v-8.22h-.41v2.71l.16-.08Zm-4.11,3.29l.25-.25.49.25h-.74Zm-.66,1.73h-.49v-.16h0s.08,0,.16-.16c.16,0,.25,0,.25.16l.08.16Zm3.86-.9v.16l-.25.25v.16l-.25-.25s0,.08-.08.25c0,.08,0,.16-.08.16s0-.08,0-.25v-.41h.66v-.08Zm.74-.49v.25h-.16c0-.16,0-.25.16-.25h0Zm-.82-.25v-.41.41Zm0,0h-.25l.25-.41v.49-.08Z"/>
      <polygon class="cls-1" points="61.39 48.63 61.47 50.85 61.47 50.6 62.04 50.6 62.04 49.7 61.47 49.7 61.47 48.63 61.39 48.63"/>
      <polygon class="cls-1" points="61.22 54.88 61.14 54.88 61.22 54.96 61.22 54.88"/>
    </g>
    <g>
      <path class="cls-1" d="m.58,8.32v-1.07h-.16v1.07h.16Z"/>
      <path class="cls-1" d="m1.56,8.32v-1.23h0v1.23h.58v-2.96h-.25c-.16,0-.25,0-.41-.25v1.23-1.23h0v-.33,3.37h.08v.16Z"/>
      <path class="cls-1" d="m.25,5.6h.25v.74h.16s0-.33.16-.66l.33-.25h0v-1.73c.16,0,.25-.08.25-.25v-.49c0-.16,0-.25.16-.25l.33,1.56h.58v-1.64h-.66v-.41l.16-.16h1.15l-.25.41h1.32c.33,0,.58-.08.82-.25h.41c0,.08.08.16.25.16h2.79v-.66H2.05s-.16,0-.16-.25l.25-.16h6.41V.18h-4.19V.01H0v8.22h.41v-2.71l-.16.08Zm4.11-3.29l-.25.25-.49-.25h.74Zm.66-1.73h.49v.16h0s-.08,0-.16.16c-.16,0-.25,0-.25-.16l-.08-.16Zm-3.86.9v-.16l.25-.25v-.16l.25.25s0-.08.08-.25c0-.08,0-.16.08-.16s0,.08,0,.25v.41h-.66v.08Zm-.74.49v-.25h.16c0,.16,0,.25-.16.25H.41Zm.82.25v.41-.41Zm0,0h.25l-.25.41v-.49.08Z"/>
      <polygon class="cls-1" points="1.23 8.32 1.15 6.1 1.15 6.34 .58 6.34 .58 7.25 1.15 7.25 1.15 8.32 1.23 8.32"/>
      <polygon class="cls-1" points="1.4 2.07 1.48 2.07 1.4 1.99 1.4 2.07"/>
    </g>
    <g>
      <path class="cls-1" d="m54.32.58h1.07v-.16h-1.07v.16Z"/>
      <path class="cls-1" d="m54.32,1.56h1.23-1.23v.58h2.96v-.25c0-.16,0-.25.25-.41h-1.23,1.56-3.37v.08h-.16Z"/>
      <path class="cls-1" d="m57.03.25v.25h-.74v.16s.33,0,.66.16l.25.33h1.73c0,.16.08.25.25.25h.49c.16,0,.25,0,.25.16l-1.56.33v.58h1.64v-.66h.41l.16.16v1.15h0l-.41-.25v1.32c0,.33.08.58.25.82v.41c-.08,0-.16.08-.16.25v2.79h.66V2.05s0-.16.25-.16l.16.25h0v6.41h1.15v-4.19h.16V0h-8.22v.41h2.71l-.08-.16Zm3.29,4.11l-.25-.25.25-.49v.74Zm1.73.66h0v.49h-.16s0-.08-.16-.16c0-.16,0-.25.16-.25l.16-.08Zm-.9-3.86h.16l.25.25h.16l-.25.25s.08,0,.25.08c.08,0,.16,0,.16.08s-.08,0-.25,0h-.41v-.66h-.08Zm-.49-.74h.25v.16h0c-.16,0-.25,0-.25-.16h0Zm-.25.82h-.41.41Zm0,0h0v.25l-.41-.25h.49-.08Z"/>
      <polygon class="cls-1" points="54.32 1.23 56.54 1.15 56.29 1.15 56.29 .58 55.39 .58 55.39 1.15 54.32 1.15 54.32 1.23"/>
      <polygon class="cls-1" points="60.57 1.4 60.57 1.48 60.65 1.4 60.57 1.4"/>
    </g>
    <g id="Cz0Eda.tif">
      <g>
        <path class="cls-1" d="m22.91,10.02c.3.15.4.4.4.73,0,.49,0,.97,0,1.46,0,.2.04.29.26.32.41.06.81.16,1.26.26.25-.53.5-1.07.76-1.61.07-.15.13-.31.22-.45.17-.28.44-.36.7-.24.25.12.37.4.25.69-.25.58-.52,1.14-.78,1.71-.04.09-.08.17-.13.29.25.13.5.25.75.39,2.12,1.18,3.81,2.83,5.27,4.75.19.25.22.5.03.75-1.68,2.19-3.62,4.08-6.18,5.21-2.36,1.04-4.68.9-6.95-.26-2.26-1.16-4.03-2.89-5.57-4.88-.21-.27-.23-.53-.02-.81,1.54-2.02,3.34-3.75,5.62-4.93.26-.14.53-.25.83-.39-.24-.51-.46-1-.69-1.49-.05-.11-.1-.21-.14-.32-.11-.3-.03-.54.25-.7.26-.14.56-.04.72.26.21.41.4.83.59,1.25.31.66.31.66,1.01.53.28-.05.56-.07.88-.1,0-.58,0-1.13,0-1.69,0-.32.1-.58.4-.73h.28Zm-8.7,8.7c1.35,1.66,2.83,3.11,4.68,4.16,2.1,1.19,4.27,1.4,6.5.37,2.21-1.02,3.89-2.67,5.42-4.53-1.01-1.25-2.1-2.38-3.43-3.36,1.14,3.85-1.93,6.67-4.61,6.74-1.36.03-2.58-.34-3.6-1.25-1.65-1.48-2.09-3.32-1.52-5.51-1.35,1-2.44,2.12-3.45,3.38Zm7.92-5.21c-.38.08-1.12.23-1.85.42-.4.1-.76.29-1.01.66-.96,1.42-1.1,2.9-.26,4.39.86,1.51,2.22,2.21,3.96,2.02,1.6-.18,2.72-1.06,3.3-2.56.57-1.48.29-2.86-.73-4.08-.07-.09-.17-.16-.28-.21-.88-.39-1.79-.6-3.13-.63Z"/>
        <path class="cls-1" d="m39.63,10.02c.8.14,1.62.22,2.4.42,1.71.44,3.18,1.34,4.42,2.58.65.65.66,1.64.04,2.31-.59.64-1.6.73-2.28.13-.85-.75-1.75-1.42-2.85-1.75-2.46-.73-4.68-.28-6.64,1.38-.4.34-.77.71-1.33.76-.73.06-1.37-.31-1.68-.96-.29-.62-.17-1.37.33-1.87.75-.75,1.6-1.38,2.54-1.86,1.26-.64,2.59-1.02,4.01-1.09.08,0,.16-.03.24-.05.26,0,.52,0,.78,0Zm6.25,4.09c-.06-.09-.14-.28-.28-.42-3.06-2.98-7.83-3.43-11.38-1.06-.49.33-.93.73-1.37,1.12-.26.23-.27.59-.06.83.21.24.52.27.8.07.13-.09.24-.2.35-.3,3.1-2.76,7.63-2.74,10.7.06.12.11.25.23.39.3.38.19.83-.09.84-.61Z"/>
        <path class="cls-1" d="m45.69,24.29c.51,0,1,0,1.5,0,.14,0,.28,0,.43.02.29.04.45.23.46.5,0,.28-.14.49-.43.52-.39.04-.78.03-1.17.03-.27,0-.54,0-.82,0-.11.47-.22.92-.3,1.37-.01.07.11.21.21.26.56.28,1.13.54,1.7.8.24.11.42.27.41.56-.02.4-.4.61-.81.43-.56-.25-1.12-.52-1.68-.78-.07-.03-.15-.07-.26-.11-.12.24-.24.48-.37.72-1.18,2.13-2.84,3.84-4.77,5.3-.26.2-.52.21-.78,0-2.2-1.69-4.09-3.64-5.21-6.23-1.02-2.35-.85-4.67.31-6.92,1.15-2.24,2.87-3.99,4.84-5.51.28-.22.54-.26.84-.03,2.02,1.54,3.75,3.34,4.93,5.62.13.26.25.53.39.82.48-.22.94-.43,1.4-.65.11-.05.21-.1.32-.15.36-.15.65-.07.79.22.14.29.02.57-.33.75-.51.25-1.02.49-1.55.72-.24.1-.31.23-.25.48.09.4.14.81.21,1.25Zm-2.99,5.16c-3.62,1.12-6.6-1.74-6.69-4.62-.05-1.47.41-2.76,1.45-3.81,1.46-1.47,3.24-1.86,5.31-1.3-1-1.36-2.13-2.46-3.38-3.45-1.65,1.35-3.09,2.82-4.14,4.65-1.21,2.13-1.43,4.31-.38,6.57,1.02,2.19,2.66,3.87,4.49,5.37.9-.58,2.79-2.51,3.34-3.4Zm-1.1-.86c.49,0,1.35-.32,2.1-.95.13-.11.24-.26.31-.42.74-1.74.77-3.49.03-5.24-.09-.21-.23-.42-.41-.56-1.36-1.11-3.33-1.19-4.77-.21-1.48,1.01-2.13,2.85-1.61,4.53.54,1.71,2.08,2.85,4.35,2.84Z"/>
        <path class="cls-1" d="m39.43,36.71c.99-.8,2.09-1.31,3.33-1.45,2.05-.24,3.84.35,5.33,1.78.13.12.21.35.21.53.04,3.53-2.36,6.97-5.68,8.19-3.68,1.36-7.52.37-10.04-2.61-1.35-1.59-2.02-3.46-2.05-5.55,0-.21.13-.49.29-.64,2.33-2.18,5.8-2.36,8.34-.44.07.06.15.11.25.18Zm7.68,2.06c-5.11,3.56-10.22,3.58-15.34.1.35,2.85,3.13,6.39,7.61,6.42,4.37.03,7.34-3.37,7.73-6.52Zm-.23-1.34s0-.03,0-.03c-1.85-1.63-5.3-1.44-6.98.38-.27.3-.63.31-.9.03-1.84-1.9-5.06-2.05-7.09-.35,4.01,3.84,10.91,3.88,14.97-.03Z"/>
        <path class="cls-1" d="m26.81,34.83c0,2.7,0,5.41,0,8.11,0,.81-.19,1.57-.71,2.22-.68.86-1.57,1.28-2.65,1.29-1.62.02-3.25.02-4.87,0-2.41-.04-4.13-2.22-3.67-4.59,1.29-6.73,4.98-11.83,10.6-15.61.16-.11.32-.2.49-.29.39-.19.76.01.81.44.01.12,0,.24,0,.36,0,2.69,0,5.38,0,8.08Zm-1.07-7.43c-.13.08-.21.12-.27.17-1.03.85-2.12,1.65-3.08,2.58-3.35,3.26-5.54,7.17-6.41,11.79-.36,1.93.85,3.44,2.8,3.45,1.53,0,3.06.02,4.59,0,.37,0,.77-.08,1.1-.24.91-.43,1.27-1.22,1.27-2.2,0-5.06,0-10.12,0-15.19,0-.09,0-.19,0-.35Z"/>
        <path class="cls-1" d="m30.59,32.88c-1.38,0-2.4-1.35-1.88-2.62.37-.91.94-1.74,1.46-2.59.19-.3.59-.33.8-.06.69.9,1.37,1.83,1.61,2.97.25,1.21-.74,2.31-1.98,2.31Zm0-4.02c-.31.59-.6,1.08-.83,1.59-.22.47-.1.89.27,1.17.34.25.82.25,1.15-.01.37-.29.47-.7.25-1.17-.24-.5-.52-.98-.84-1.58Z"/>
        <path class="cls-1" d="m20.06,16.8c0-1.35,1.1-2.47,2.45-2.48,1.34,0,2.47,1.12,2.46,2.47,0,1.35-1.13,2.47-2.47,2.46-1.34-.02-2.44-1.11-2.44-2.45Zm2.46,1.37c.76,0,1.38-.62,1.39-1.38,0-.76-.61-1.38-1.37-1.39-.77,0-1.41.62-1.4,1.4,0,.76.63,1.37,1.39,1.37Z"/>
        <path class="cls-1" d="m43.78,24.57c0,1.35-1.11,2.46-2.46,2.46-1.34,0-2.44-1.1-2.46-2.44-.02-1.33,1.11-2.47,2.45-2.48,1.35,0,2.46,1.1,2.47,2.46Zm-1.07,0c0-.76-.62-1.38-1.38-1.38-.75,0-1.39.62-1.4,1.38-.01.76.64,1.41,1.41,1.4.76,0,1.37-.63,1.37-1.39Z"/>
        <path class="cls-1" d="m25.06,31.05c-.14.19-.22.38-.36.48-2.49,1.75-3.96,4.25-5.13,6.97-.04.1-.08.2-.12.29-.15.3-.43.42-.7.3-.27-.12-.4-.4-.28-.71.23-.57.46-1.14.74-1.69.9-1.81,1.98-3.51,3.48-4.9.44-.41.92-.78,1.42-1.12.14-.1.41-.11.59-.06.14.05.23.26.37.44Z"/>
        <path class="cls-1" d="m23.78,43.29c-.07.08-.17.31-.32.36-.16.06-.5,0-.56-.11-.29-.5-.79-.52-1.24-.55-.55-.04-1.11,0-1.66.06-.31.03-.6.13-.8.45-.08.13-.4.19-.59.15-.25-.05-.36-.29-.32-.56.06-.39.3-.63.64-.8.96-.48,1.99-.49,3.02-.35.42.06.85.22,1.24.39.34.15.57.42.59.95Z"/>
      </g>
    </g>
  </g>
</svg>