<?xml version="1.0" encoding="UTF-8"?>
<svg id="Layer_2" data-name="Layer 2" xmlns="http://www.w3.org/2000/svg" viewBox="0 0 18.78 18.86">
  <defs>
    <style>
      .cls-1 {
        stroke-width: 0px;
      }
    </style>
  </defs>
  <g id="Layer_1-2" data-name="Layer 1">
    <g id="HEePNE.tif">
      <path class="cls-1" d="m14.06,18.86c-.26-.04-.53-.08-.79-.13-1.03-.19-1.98-.58-2.92-1.03-1.53-.75-2.95-1.67-4.22-2.79C3.58,12.64,1.57,10.01.43,6.76.15,5.95-.02,5.13,0,4.27c.02-.82.29-1.55.87-2.14.52-.52,1.02-1.07,1.57-1.55.9-.78,1.82-.77,2.68.04.87.82,1.71,1.68,2.52,2.55.67.72.67,1.69.01,2.41-.46.51-.96.98-1.45,1.47-.1.1-.11.16-.05.28.49,1.02,1.19,1.88,1.96,2.7.78.83,1.63,1.58,2.59,2.19.25.16.53.29.78.44.1.06.17.05.25-.04.41-.42.82-.83,1.23-1.24.32-.32.68-.58,1.15-.66.62-.1,1.15.1,1.59.53.8.79,1.59,1.58,2.38,2.38.85.86.92,1.83.13,2.73-.55.63-1.15,1.21-1.75,1.78-.43.41-.97.6-1.56.68-.04,0-.08.02-.12.03h-.74Zm.36-.95c.57.01,1.09-.13,1.5-.53.55-.53,1.09-1.08,1.61-1.65.4-.43.39-.89-.02-1.31-.82-.84-1.66-1.67-2.5-2.5-.34-.33-.77-.33-1.15-.04-.09.07-.17.15-.24.22-.46.45-.91.91-1.37,1.36-.3.29-.62.35-.99.16-.27-.14-.54-.27-.79-.43-1.21-.73-2.27-1.65-3.22-2.69-.8-.88-1.53-1.82-2.02-2.92-.22-.49-.17-.76.22-1.14.45-.43.9-.87,1.34-1.32.52-.53.52-.96,0-1.5,0,0,0,0-.01-.01-.76-.76-1.52-1.52-2.28-2.27-.12-.12-.26-.23-.41-.3-.43-.19-.77,0-1.08.29-.46.45-.93.91-1.37,1.38-.21.23-.39.49-.51.77-.26.61-.19,1.25-.06,1.88.25,1.22.73,2.36,1.34,3.45,1.07,1.92,2.43,3.61,4.05,5.08,1.63,1.47,3.45,2.64,5.5,3.45.8.32,1.62.52,2.48.55Z"/>
    </g>
  </g>
</svg>