<?xml version="1.0" encoding="UTF-8"?>
<svg id="Layer_2" data-name="Layer 2" xmlns="http://www.w3.org/2000/svg" viewBox="0 0 22.5 15.01">
  <defs>
    <style>
      .cls-1 {
        stroke-width: 0px;
      }
    </style>
  </defs>
  <g id="Layer_1-2" data-name="Layer 1">
    <g id="_2vH2Hw.tif" data-name="2vH2Hw.tif">
      <path class="cls-1" d="m22.5.97v13.08c-.19.62-.59.96-1.25.96-6.67,0-13.34,0-20.01,0-.76,0-1.24-.49-1.24-1.25,0-1.42,0-2.84,0-4.26,0-2.76,0-5.51,0-8.27C0,.61.34.19.94.04.96.03.99.01,1.01,0c6.83,0,13.65,0,20.48,0,.52.13.87.44,1.01.97Zm-.88.47c-.1.07-.16.12-.23.16-2.95,2.21-5.9,4.43-8.86,6.64-.81.61-1.77.61-2.58,0C7,6.02,4.05,3.8,1.09,1.59c-.06-.05-.12-.09-.2-.14v12.04c.09-.1.15-.17.21-.24,1.33-1.64,2.66-3.29,3.99-4.93.22-.27.43-.54.65-.8.16-.18.42-.19.59-.04.17.14.2.38.08.57-.03.04-.06.08-.09.12-1.55,1.92-3.11,3.83-4.66,5.75-.05.06-.1.13-.16.21h19.51c-.05-.07-.09-.13-.13-.18-1.27-1.56-2.53-3.13-3.8-4.69-.31-.39-.63-.77-.94-1.16-.17-.22-.15-.47.04-.63.19-.16.45-.13.64.09.02.03.05.06.07.09,1.53,1.88,3.05,3.76,4.58,5.65.05.06.1.11.17.2V1.44ZM1.61.88c.07.06.1.09.14.11,2.93,2.19,5.85,4.39,8.78,6.58.45.34,1,.33,1.47-.02,2.91-2.18,5.82-4.36,8.73-6.54.05-.03.09-.08.16-.14H1.61Z"/>
    </g>
  </g>
</svg>