<?xml version="1.0" encoding="UTF-8"?>
<svg id="Layer_2" data-name="Layer 2" xmlns="http://www.w3.org/2000/svg" viewBox="0 0 62.62 57.02">
  <defs>
    <style>
      .cls-1 {
        stroke-width: 0px;
      }
    </style>
  </defs>
  <g id="Layer_1-2" data-name="Layer 1">
    <g>
      <g id="_9KQtNE.tif" data-name="9KQtNE.tif">
        <g>
          <path class="cls-1" d="m33.43,39.11c0,1.04,0,2.08,0,3.11,0,1-.53,1.54-1.53,1.54-4.33,0-8.67,0-13,0-.98,0-1.52-.53-1.53-1.51,0-1.14,0-2.28,0-3.46h12.33c-.4-.19-.77-.46-1.12-.75-.04-.03-.06-.06-.08-.1h-11.11v-21.1h16.02v2.24c.07,0,.13,0,.2,0,.05-.03.1-.06.15-.09.16-.09.33-.16.5-.22v-4.27c-.14-.41-.24-.85-.45-1.22-.31-.54-.86-.77-1.44-.92h-13.95c-.7.17-1.3.5-1.6,1.19-.15.35-.25.76-.25,1.15-.01,9.17-.01,18.35,0,27.52,0,1.47.9,2.35,2.38,2.35,4.29,0,8.58,0,12.88,0,1.38,0,2.16-.66,2.38-2.02,0-.04.03-.08.04-.12v-3.89c-.27.13-.55.23-.84.31,0,.09.01.17.01.25ZM17.42,14.26c.06-.61.6-1.04,1.21-1.08.11,0,.23,0,.35,0,4.28,0,8.56.02,12.84-.01,1.02,0,1.66.62,1.61,1.63-.02.39,0,.79,0,1.21h-16.02c0-.59-.05-1.17.01-1.74Z"/>
          <path class="cls-1" d="m23.75,41.34c0-.91.75-1.66,1.65-1.66.91,0,1.65.75,1.64,1.67,0,.9-.74,1.64-1.64,1.64-.91,0-1.65-.74-1.65-1.65Zm1.64-.85c-.47,0-.85.4-.84.87.01.46.39.83.85.83.46,0,.84-.37.84-.83,0-.47-.38-.87-.85-.86Z"/>
        </g>
      </g>
      <g id="a6u7IT.tif">
        <g>
          <path class="cls-1" d="m52.51,22.11c.03.19.1.39.08.57-.1,1.3-.25,2.59-.56,3.86-.29,1.2-.96,2.01-2.23,2.28.07.3.14.6.2.89.27,1.36.35,2.71-.07,4.05-.29.94-.82,1.71-1.63,2.28-.9.62-1.98.62-2.88,0-.14-.1-.27-.2-.44-.32-.07.1-.13.18-.2.27-1.29,1.8-2.67,3.53-4.14,5.18-.88.98-1.79,1.95-2.87,2.72-.26.19-.54.36-.84.47-.72.27-1.29-.16-1.26-.93.03-.69.31-1.31.58-1.92.85-1.89,1.97-3.63,3.12-5.35.44-.66.91-1.3,1.36-1.95.03-.04.05-.09.1-.16-.81,0-1.55.18-2.24.52-1.01.48-1.78,1.23-2.36,2.18-1.1,1.78-2.69,2.73-4.8,2.65-1.86-.07-3.31-.96-4.3-2.5-2.53-3.93-2.73-8.02-.67-12.22.04-.09.1-.17.15-.26.17-.31.47-.42.75-.28.27.14.37.46.21.76-.47.87-.85,1.76-1.08,2.72-.73,3.17-.23,6.13,1.64,8.81,1.31,1.89,3.72,2.43,5.61,1.35.69-.4,1.18-.99,1.6-1.64,1.42-2.22,3.44-3.29,6.09-3.16.11,0,.26-.07.33-.15,1.01-1.18,1.98-2.4,3.02-3.56.6-.67,1.28-1.26,1.93-1.87.13-.12.15-.2.1-.36-.21-.58-.2-1.16-.01-1.75.03-.1.04-.24,0-.32-1.55-2.64-3.71-4.56-6.7-5.37-3.55-.96-6.8-.25-9.71,1.99-.06.04-.11.09-.17.13-.27.2-.57.17-.77-.07-.19-.23-.16-.57.1-.76.44-.34.88-.69,1.36-.97,3.85-2.25,7.79-2.44,11.79-.44,2,1,3.53,2.55,4.73,4.42.04.06.08.12.12.18,0,.01.02.03.06.06.09-.06.18-.12.27-.19,1.25-.85,2.63-1.43,4.03-1.99.11-.04.24-.03.37-.04.09.06.17.13.26.19Zm-7.14,11.13l-1.59-1.17c-.1.12-.21.23-.3.36-1.09,1.48-2.21,2.95-3.26,4.46-1.09,1.57-2.1,3.2-2.91,4.94-.2.43-.35.89-.53,1.33.03.02.05.03.08.05.11-.07.23-.13.32-.21.67-.61,1.38-1.18,2-1.84,1.88-1.99,3.57-4.14,5.15-6.37.36-.51.7-1.04,1.05-1.56Zm6.09-9.95c-1.13.51-2.24.97-3.19,1.7-.2.15-.35.41-.44.65-.31.84.15,1.76.99,2.05.85.29,1.75-.14,2.03-1.01.35-1.08.47-2.21.6-3.39Zm-2.65,6.14c-.91,1.9-2.04,3.66-3.2,5.41.19.14.35.28.53.38.48.29.97.31,1.45,0,.43-.27.77-.63,1-1.07.8-1.54.61-3.13.22-4.72Zm-2.85,2.89c.77-1.27,1.5-2.49,2.03-3.82l-.24-.18-.24-.18c-1.11.92-2.07,1.98-3.03,3.08l1.49,1.09Z"/>
          <path class="cls-1" d="m40.01,23.37c.71-.96,2.07-1.15,3.02-.44.95.71,1.15,2.07.43,3.03-.7.94-2.06,1.14-3.01.44-.96-.71-1.16-2.07-.45-3.02Zm2.38.42c-.48-.35-1.16-.25-1.51.22-.35.48-.25,1.16.22,1.51.48.35,1.16.25,1.51-.22.35-.48.25-1.16-.22-1.51Z"/>
          <path class="cls-1" d="m33.63,22.03c.71-.96,2.07-1.15,3.02-.44.95.71,1.15,2.07.43,3.03-.7.94-2.06,1.14-3.01.44-.96-.71-1.16-2.07-.45-3.02Zm2.38.43c-.47-.36-1.15-.26-1.51.21-.36.47-.26,1.16.21,1.51.47.36,1.16.26,1.51-.21.36-.47.26-1.15-.21-1.51Z"/>
          <path class="cls-1" d="m31.96,28.86c-.71.96-2.07,1.16-3.02.45-.95-.71-1.15-2.07-.44-3.03.7-.94,2.05-1.14,3.01-.44.96.71,1.16,2.06.45,3.02Zm-1.1-2.16c-.48-.35-1.16-.24-1.51.25-.35.48-.24,1.16.25,1.51.48.35,1.16.24,1.51-.25.35-.48.24-1.16-.25-1.51Z"/>
          <path class="cls-1" d="m33.31,35.23c-.71.95-2.07,1.15-3.03.43-.95-.71-1.14-2.07-.42-3.03.71-.94,2.06-1.13,3.01-.43.96.71,1.15,2.07.44,3.02Zm-.86-.65c.35-.48.25-1.16-.22-1.51-.48-.35-1.16-.25-1.51.22-.35.48-.25,1.16.22,1.51.48.35,1.16.25,1.51-.22Z"/>
          <path class="cls-1" d="m28.78,23.16c-.17.24-.52.3-.76.12-.23-.17-.29-.5-.12-.74.17-.24.52-.3.76-.12.23.17.29.51.12.74Z"/>
        </g>
      </g>
    </g>
    <g>
      <path class="cls-1" d="m8.47,56.44h-1.07v.16h1.07v-.16Z"/>
      <path class="cls-1" d="m8.47,55.45h-1.23,1.23v-.58h-2.96v.25c0,.16,0,.25-.25.41h1.23-1.56,3.37v-.08h.16Z"/>
      <path class="cls-1" d="m5.75,56.77v-.25h.74v-.16s-.33,0-.66-.16l-.25-.33h-1.73c0-.16-.08-.25-.25-.25h-.49c-.16,0-.25,0-.25-.16l1.56-.33v-.58h-1.64v.66h-.41l-.16-.16v-1.15h0l.41.25v-1.32c0-.33-.08-.58-.25-.82v-.41c.08,0,.16-.08.16-.25v-2.79h-.66v6.41s0,.16-.25.16l-.16-.25h0v-6.41H.33v4.19h-.16v4.36h8.22v-.41h-2.71l.08.16Zm-3.29-4.11l.25.25-.25.49v-.74Zm-1.73-.66h0v-.49h.16s0,.08.16.16c0,.16,0,.25-.16.25l-.16.08Zm.9,3.86h-.16l-.25-.25h-.16l.25-.25s-.08,0-.25-.08c-.08,0-.16,0-.16-.08s.08,0,.25,0h.41v.66h.08Zm.49.74h-.25v-.16h0c.16,0,.25,0,.25.16,0,0,0,0,0,0Zm.25-.82h.41-.41Zm0,0h0v-.25l.41.25h-.49.08Z"/>
      <polygon class="cls-1" points="8.47 55.78 6.25 55.86 6.49 55.86 6.49 56.44 7.4 56.44 7.4 55.86 8.47 55.86 8.47 55.78"/>
      <polygon class="cls-1" points="2.22 55.62 2.22 55.54 2.14 55.62 2.22 55.62"/>
    </g>
    <g>
      <path class="cls-1" d="m62.04,48.63v1.07h.16v-1.07h-.16Z"/>
      <path class="cls-1" d="m61.06,48.63v1.23h0v-1.23h-.58v2.96h.25c.16,0,.25,0,.41.25v-1.23,1.23h0v.33-3.37h-.08v-.16Z"/>
      <path class="cls-1" d="m62.37,51.34h-.25v-.74h-.16s0,.33-.16.66l-.33.25h0v1.73c-.16,0-.25.08-.25.25v.49c0,.16,0,.25-.16.25l-.33-1.56h-.58v1.64h.66v.41l-.16.16h-1.15l.25-.41h-1.32c-.33,0-.58.08-.82.25h-.41c0-.08-.08-.16-.25-.16h-2.79v.66h6.41s.16,0,.16.25l-.25.16h-6.41v1.15h4.19v.16h4.36v-8.22h-.41v2.71l.16-.08Zm-4.11,3.29l.25-.25.49.25h-.74Zm-.66,1.73h-.49v-.16h0s.08,0,.16-.16c.16,0,.25,0,.25.16l.08.16Zm3.86-.9v.16l-.25.25v.16l-.25-.25s0,.08-.08.25c0,.08,0,.16-.08.16s0-.08,0-.25v-.41h.66v-.08Zm.74-.49v.25h-.16c0-.16,0-.25.16-.25,0,0,0,0,0,0Zm-.82-.25v-.41.41Zm0,0h-.25l.25-.41v.49-.08Z"/>
      <polygon class="cls-1" points="61.39 48.63 61.47 50.85 61.47 50.6 62.04 50.6 62.04 49.7 61.47 49.7 61.47 48.63 61.39 48.63"/>
      <polygon class="cls-1" points="61.22 54.88 61.14 54.88 61.22 54.96 61.22 54.88"/>
    </g>
    <g>
      <path class="cls-1" d="m.58,8.32v-1.07h-.16v1.07h.16Z"/>
      <path class="cls-1" d="m1.56,8.32v-1.23h0v1.23h.58v-2.96h-.25c-.16,0-.25,0-.41-.25v1.23-1.23h0v-.33,3.37h.08v.16Z"/>
      <path class="cls-1" d="m.25,5.6h.25v.74h.16s0-.33.16-.66l.33-.25h0v-1.73c.16,0,.25-.08.25-.25v-.49c0-.16,0-.25.16-.25l.33,1.56h.58v-1.64h-.66v-.41l.16-.16h1.15l-.25.41h1.32c.33,0,.58-.08.82-.25h.41c0,.08.08.16.25.16h2.79v-.66H2.05s-.16,0-.16-.25l.25-.16h6.41V.18h-4.19V.01H0v8.22h.41v-2.71l-.16.08Zm4.11-3.29l-.25.25-.49-.25h.74Zm.66-1.73h.49v.16h0s-.08,0-.16.16c-.16,0-.25,0-.25-.16l-.08-.16Zm-3.86.9v-.16l.25-.25v-.16l.25.25s0-.08.08-.25c0-.08,0-.16.08-.16s0,.08,0,.25v.41h-.66v.08Zm-.74.49v-.25h.16c0,.16,0,.25-.16.25,0,0,0,0,0,0Zm.82.25v.41-.41Zm0,0h.25l-.25.41v-.49.08Z"/>
      <polygon class="cls-1" points="1.23 8.32 1.15 6.1 1.15 6.34 .58 6.34 .58 7.25 1.15 7.25 1.15 8.32 1.23 8.32"/>
      <polygon class="cls-1" points="1.4 2.07 1.48 2.07 1.4 1.99 1.4 2.07"/>
    </g>
    <g>
      <path class="cls-1" d="m54.32.58h1.07v-.16h-1.07v.16Z"/>
      <path class="cls-1" d="m54.32,1.56h1.23-1.23v.58h2.96v-.25c0-.16,0-.25.25-.41h-1.23,1.56-3.37v.08h-.16Z"/>
      <path class="cls-1" d="m57.03.25v.25h-.74v.16s.33,0,.66.16l.25.33h1.73c0,.16.08.25.25.25h.49c.16,0,.25,0,.25.16l-1.56.33v.58h1.64v-.66h.41l.16.16v1.15h0l-.41-.25v1.32c0,.33.08.58.25.82v.41c-.08,0-.16.08-.16.25v2.79h.66V2.05s0-.16.25-.16l.16.25h0v6.41h1.15v-4.19h.16V0h-8.22v.41h2.71l-.08-.16Zm3.29,4.11l-.25-.25.25-.49v.74Zm1.73.66h0v.49h-.16s0-.08-.16-.16c0-.16,0-.25.16-.25l.16-.08Zm-.9-3.86h.16l.25.25h.16l-.25.25s.08,0,.25.08c.08,0,.16,0,.16.08s-.08,0-.25,0h-.41v-.66h-.08Zm-.49-.74h.25v.16h0c-.16,0-.25,0-.25-.16,0,0,0,0,0,0Zm-.25.82h-.41.41Zm0,0h0v.25l-.41-.25h.49-.08Z"/>
      <polygon class="cls-1" points="54.32 1.23 56.54 1.15 56.29 1.15 56.29 .58 55.39 .58 55.39 1.15 54.32 1.15 54.32 1.23"/>
      <polygon class="cls-1" points="60.57 1.4 60.57 1.48 60.65 1.4 60.57 1.4"/>
    </g>
  </g>
</svg>