<?xml version="1.0" encoding="UTF-8"?>
<svg id="Layer_2" data-name="Layer 2" xmlns="http://www.w3.org/2000/svg" viewBox="0 0 62.53 57.8">
  <defs>
    <style>
      .cls-1 {
        stroke-width: 0px;
      }
    </style>
  </defs>
  <g id="Layer_1-2" data-name="Layer 1">
    <g>
      <path class="cls-1" d="m49.07,1.18h1.71v-.26h-1.71v.26Z"/>
      <path class="cls-1" d="m49.07,2.76h1.97-1.97v.92h4.72v-.39c0-.26,0-.39.39-.66h-1.97,2.49-5.38v.13h-.26Z"/>
      <path class="cls-1" d="m53.4.66v.39h-1.18v.26s.52,0,1.05.26l.39.52h2.76c0,.26.13.39.39.39h.79c.26,0,.39,0,.39.26l-2.49.52v.92h2.62v-1.05h.66l.26.26v1.84h0l-.66-.39v2.1c0,.52.13.92.39,1.31v.66c-.13,0-.26.13-.26.39v4.46h1.05V3.54s0-.26.39-.26l.26.39h0v10.24h1.84v-6.69h.26V.26h-13.12v.66h4.33l-.13-.26Zm5.25,6.56l-.39-.39.39-.79v1.18Zm2.76,1.05h0v.79h-.26s0-.13-.26-.26c0-.26,0-.39.26-.39l.26-.13Zm-1.44-6.17h.26l.39.39h.26l-.39.39s.13,0,.39.13c.13,0,.26,0,.26.13s-.13,0-.39,0h-.66v-1.05h-.13Zm-.79-1.18h.39v.26h0c-.26,0-.39,0-.39-.26h0Zm-.39,1.31h-.66.66Zm0,0h0v.39l-.66-.39h.79-.13Z"/>
      <polygon class="cls-1" points="49.07 2.23 52.61 2.1 52.22 2.1 52.22 1.18 50.77 1.18 50.77 2.1 49.07 2.1 49.07 2.23"/>
      <polygon class="cls-1" points="59.04 2.49 59.04 2.62 59.17 2.49 59.04 2.49"/>
    </g>
    <g>
      <path class="cls-1" d="m61.61,44.55v1.71h.26v-1.71h-.26Z"/>
      <path class="cls-1" d="m60.04,44.55v1.97h0v-1.97h-.92v4.72h.39c.26,0,.39,0,.66.39v-1.97,1.97h0v.52-5.38h-.13v-.26Z"/>
      <path class="cls-1" d="m62.14,48.88h-.39v-1.18h-.26s0,.52-.26,1.05l-.52.39h0v2.76c-.26,0-.39.13-.39.39v.79c0,.26,0,.39-.26.39l-.52-2.49h-.92v2.62h1.05v.66l-.26.26h-1.84l.39-.66h-2.1c-.52,0-.92.13-1.31.39h-.66c0-.13-.13-.26-.39-.26h-4.46v1.05h10.24s.26,0,.26.39l-.39.26h-10.24v1.84h6.69v.26h6.95v-13.12h-.66v4.33l.26-.13Zm-6.56,5.25l.39-.39.79.39h-1.18Zm-1.05,2.76h-.79v-.26h0s.13,0,.26-.26c.26,0,.39,0,.39.26l.13.26Zm6.17-1.44v.26l-.39.39v.26l-.39-.39s0,.13-.13.39c0,.13,0,.26-.13.26s0-.13,0-.39v-.66h1.05v-.13Zm1.18-.79v.39h-.26c0-.26,0-.39.26-.39h0Zm-1.31-.39v-.66.66Zm0,0h-.39l.39-.66v.79-.13Z"/>
      <polygon class="cls-1" points="60.56 44.55 60.7 48.09 60.7 47.7 61.61 47.7 61.61 46.25 60.7 46.25 60.7 44.55 60.56 44.55"/>
      <polygon class="cls-1" points="60.3 54.52 60.17 54.52 60.3 54.65 60.3 54.52"/>
    </g>
    <g>
      <path class="cls-1" d="m13.25,56.49h-1.71v.26h1.71v-.26Z"/>
      <path class="cls-1" d="m13.25,54.91h-1.97,1.97v-.92h-4.72v.39c0,.26,0,.39-.39.66h1.97-2.49,5.38v-.13h.26Z"/>
      <path class="cls-1" d="m8.92,57.01v-.39h1.18v-.26s-.52,0-1.05-.26l-.39-.52h-2.76c0-.26-.13-.39-.39-.39h-.79c-.26,0-.39,0-.39-.26l2.49-.52v-.92h-2.62v1.05h-.66l-.26-.26v-1.84h0l.66.39v-2.1c0-.52-.13-.92-.39-1.31v-.66c.13,0,.26-.13.26-.39v-4.46h-1.05v10.24s0,.26-.39.26l-.26-.39h0v-10.24H.26v6.69h-.26v6.95h13.12v-.66h-4.33l.13.26Zm-5.25-6.56l.39.39-.39.79v-1.18Zm-2.76-1.05h0v-.79h.26s0,.13.26.26c0,.26,0,.39-.26.39l-.26.13Zm1.44,6.17h-.26l-.39-.39h-.26l.39-.39s-.13,0-.39-.13c-.13,0-.26,0-.26-.13s.13,0,.39,0h.66v1.05h.13Zm.79,1.18h-.39v-.26h0c.26,0,.39,0,.39.26h0Zm.39-1.31h.66-.66Zm0,0h0v-.39l.66.39h-.79.13Z"/>
      <polygon class="cls-1" points="13.25 55.44 9.71 55.57 10.1 55.57 10.1 56.49 11.55 56.49 11.55 55.57 13.25 55.57 13.25 55.44"/>
      <polygon class="cls-1" points="3.28 55.17 3.28 55.04 3.15 55.17 3.28 55.17"/>
    </g>
    <path class="cls-1" d="m19.37,47.73c-.35,0-.7-.09-1.01-.28-.61-.36-.99-1.02-.99-1.72V12.24c.01-.72.4-1.39,1.03-1.74.63-.35,1.4-.35,2.01.03l28.94,17.4c.61.37.98,1.03.97,1.75-.01.71-.4,1.37-1.03,1.71l-28.95,16.09c-.3.17-.64.25-.97.25Zm2.01-31.95v26.55s22.95-12.76,22.95-12.76l-22.95-13.79Z"/>
    <g>
      <path class="cls-1" d="m.99,13.25v-1.71h-.26v1.71h.26Z"/>
      <path class="cls-1" d="m2.57,13.25v-1.97h0v1.97h.92v-4.72h-.39c-.26,0-.39,0-.66-.39v1.97-1.97h0v-.52,5.38h.13v.26Z"/>
      <path class="cls-1" d="m.47,8.92h.39v1.18h.26s0-.52.26-1.05l.52-.39h0v-2.76c.26,0,.39-.13.39-.39v-.79c0-.26,0-.39.26-.39l.52,2.49h.92v-2.62h-1.05v-.66l.26-.26h1.84l-.39.66h2.1c.52,0,.92-.13,1.31-.39h.66c0,.13.13.26.39.26h4.46v-1.05H3.35s-.26,0-.26-.39l.39-.26h10.24V.26h-6.69v-.26H.07v13.12h.66v-4.33l-.26.13ZM7.03,3.67l-.39.39-.79-.39h1.18Zm1.05-2.76h.79v.26h0s-.13,0-.26.26c-.26,0-.39,0-.39-.26l-.13-.26ZM1.91,2.36v-.26l.39-.39v-.26l.39.39s0-.13.13-.39c0-.13,0-.26.13-.26s0,.13,0,.39v.66h-1.05v.13Zm-1.18.79v-.39h.26c0,.26,0,.39-.26.39h0Zm1.31.39v.66-.66Zm0,0h.39l-.39.66v-.79.13Z"/>
      <polygon class="cls-1" points="2.04 13.25 1.91 9.71 1.91 10.1 .99 10.1 .99 11.55 1.91 11.55 1.91 13.25 2.04 13.25"/>
      <polygon class="cls-1" points="2.3 3.28 2.43 3.28 2.3 3.15 2.3 3.28"/>
    </g>
  </g>
</svg>