<?xml version="1.0" encoding="UTF-8"?>
<svg id="Layer_2" data-name="Layer 2" xmlns="http://www.w3.org/2000/svg" viewBox="0 0 62.62 57.02">
  <defs>
    <style>
      .cls-1 {
        stroke-width: 0px;
      }
    </style>
  </defs>
  <g id="Layer_1-2" data-name="Layer 1">
    <g>
      <path class="cls-1" d="m8.47,56.44h-1.07v.16h1.07v-.16Z"/>
      <path class="cls-1" d="m8.47,55.45h-1.23,1.23v-.58h-2.96v.25c0,.16,0,.25-.25.41h1.23-1.56,3.37v-.08h.16Z"/>
      <path class="cls-1" d="m5.75,56.77v-.25h.74v-.16s-.33,0-.66-.16l-.25-.33h-1.73c0-.16-.08-.25-.25-.25h-.49c-.16,0-.25,0-.25-.16l1.56-.33v-.58h-1.64v.66h-.41l-.16-.16v-1.15h0l.41.25v-1.32c0-.33-.08-.58-.25-.82v-.41c.08,0,.16-.08.16-.25v-2.79h-.66v6.41s0,.16-.25.16l-.16-.25h0v-6.41H.33v4.19h-.16v4.36h8.22v-.41h-2.71l.08.16Zm-3.29-4.11l.25.25-.25.49v-.74Zm-1.73-.66h0v-.49h.16s0,.08.16.16c0,.16,0,.25-.16.25l-.16.08Zm.9,3.86h-.16l-.25-.25h-.16l.25-.25s-.08,0-.25-.08c-.08,0-.16,0-.16-.08s.08,0,.25,0h.41v.66h.08Zm.49.74h-.25v-.16h0c.16,0,.25,0,.25.16,0,0,0,0,0,0Zm.25-.82h.41-.41Zm0,0h0v-.25l.41.25h-.49.08Z"/>
      <polygon class="cls-1" points="8.47 55.78 6.25 55.86 6.49 55.86 6.49 56.44 7.4 56.44 7.4 55.86 8.47 55.86 8.47 55.78"/>
      <polygon class="cls-1" points="2.22 55.62 2.22 55.54 2.14 55.62 2.22 55.62"/>
    </g>
    <g>
      <path class="cls-1" d="m62.04,48.63v1.07h.16v-1.07h-.16Z"/>
      <path class="cls-1" d="m61.06,48.63v1.23h0v-1.23h-.58v2.96h.25c.16,0,.25,0,.41.25v-1.23,1.23h0v.33-3.37h-.08v-.16Z"/>
      <path class="cls-1" d="m62.37,51.34h-.25v-.74h-.16s0,.33-.16.66l-.33.25h0v1.73c-.16,0-.25.08-.25.25v.49c0,.16,0,.25-.16.25l-.33-1.56h-.58v1.64h.66v.41l-.16.16h-1.15l.25-.41h-1.32c-.33,0-.58.08-.82.25h-.41c0-.08-.08-.16-.25-.16h-2.79v.66h6.41s.16,0,.16.25l-.25.16h-6.41v1.15h4.19v.16h4.36v-8.22h-.41v2.71l.16-.08Zm-4.11,3.29l.25-.25.49.25h-.74Zm-.66,1.73h-.49v-.16h0s.08,0,.16-.16c.16,0,.25,0,.25.16l.08.16Zm3.86-.9v.16l-.25.25v.16l-.25-.25s0,.08-.08.25c0,.08,0,.16-.08.16s0-.08,0-.25v-.41h.66v-.08Zm.74-.49v.25h-.16c0-.16,0-.25.16-.25,0,0,0,0,0,0Zm-.82-.25v-.41.41Zm0,0h-.25l.25-.41v.49-.08Z"/>
      <polygon class="cls-1" points="61.39 48.63 61.47 50.85 61.47 50.6 62.04 50.6 62.04 49.7 61.47 49.7 61.47 48.63 61.39 48.63"/>
      <polygon class="cls-1" points="61.22 54.88 61.14 54.88 61.22 54.96 61.22 54.88"/>
    </g>
    <g>
      <path class="cls-1" d="m.58,8.32v-1.07h-.16v1.07h.16Z"/>
      <path class="cls-1" d="m1.56,8.32v-1.23h0v1.23h.58v-2.96h-.25c-.16,0-.25,0-.41-.25v1.23-1.23h0v-.33,3.37h.08v.16Z"/>
      <path class="cls-1" d="m.25,5.6h.25v.74h.16s0-.33.16-.66l.33-.25h0v-1.73c.16,0,.25-.08.25-.25v-.49c0-.16,0-.25.16-.25l.33,1.56h.58v-1.64h-.66v-.41l.16-.16h1.15l-.25.41h1.32c.33,0,.58-.08.82-.25h.41c0,.08.08.16.25.16h2.79v-.66H2.05s-.16,0-.16-.25l.25-.16h6.41V.18h-4.19V.01H0v8.22h.41v-2.71l-.16.08Zm4.11-3.29l-.25.25-.49-.25h.74Zm.66-1.73h.49v.16h0s-.08,0-.16.16c-.16,0-.25,0-.25-.16l-.08-.16Zm-3.86.9v-.16l.25-.25v-.16l.25.25s0-.08.08-.25c0-.08,0-.16.08-.16s0,.08,0,.25v.41h-.66v.08Zm-.74.49v-.25h.16c0,.16,0,.25-.16.25,0,0,0,0,0,0Zm.82.25v.41-.41Zm0,0h.25l-.25.41v-.49.08Z"/>
      <polygon class="cls-1" points="1.23 8.32 1.15 6.1 1.15 6.34 .58 6.34 .58 7.25 1.15 7.25 1.15 8.32 1.23 8.32"/>
      <polygon class="cls-1" points="1.4 2.07 1.48 2.07 1.4 1.99 1.4 2.07"/>
    </g>
    <g>
      <path class="cls-1" d="m54.32.58h1.07v-.16h-1.07v.16Z"/>
      <path class="cls-1" d="m54.32,1.56h1.23-1.23v.58h2.96v-.25c0-.16,0-.25.25-.41h-1.23,1.56-3.37v.08h-.16Z"/>
      <path class="cls-1" d="m57.03.25v.25h-.74v.16s.33,0,.66.16l.25.33h1.73c0,.16.08.25.25.25h.49c.16,0,.25,0,.25.16l-1.56.33v.58h1.64v-.66h.41l.16.16v1.15h0l-.41-.25v1.32c0,.33.08.58.25.82v.41c-.08,0-.16.08-.16.25v2.79h.66V2.05s0-.16.25-.16l.16.25h0v6.41h1.15v-4.19h.16V0h-8.22v.41h2.71l-.08-.16Zm3.29,4.11l-.25-.25.25-.49v.74Zm1.73.66h0v.49h-.16s0-.08-.16-.16c0-.16,0-.25.16-.25l.16-.08Zm-.9-3.86h.16l.25.25h.16l-.25.25s.08,0,.25.08c.08,0,.16,0,.16.08s-.08,0-.25,0h-.41v-.66h-.08Zm-.49-.74h.25v.16h0c-.16,0-.25,0-.25-.16,0,0,0,0,0,0Zm-.25.82h-.41.41Zm0,0h0v.25l-.41-.25h.49-.08Z"/>
      <polygon class="cls-1" points="54.32 1.23 56.54 1.15 56.29 1.15 56.29 .58 55.39 .58 55.39 1.15 54.32 1.15 54.32 1.23"/>
      <polygon class="cls-1" points="60.57 1.4 60.57 1.48 60.65 1.4 60.57 1.4"/>
    </g>
    <path class="cls-1" d="m23.01,31.83c-.14-.18-.33-.48-.57-.72-2.05-2.02-4.13-4.01-6.17-6.04-.3-.3-.64-.85-.55-1.16.09-.29.7-.54,1.12-.61,2.71-.43,5.42-.84,8.14-1.19.89-.11,1.43-.42,1.83-1.28,1.16-2.51,2.41-4.99,3.68-7.45.19-.36.61-.78.97-.82.26-.03.69.46.86.81,1.3,2.56,2.59,5.13,3.82,7.72.28.59.63.86,1.27.94,2.88.39,5.76.82,8.64,1.27.38.06.94.31,1.02.59.09.3-.2.82-.47,1.1-2.04,2.03-4.09,4.05-6.18,6.03-.49.47-.67.91-.55,1.59.53,2.86,1.02,5.73,1.48,8.6.06.36,0,.95-.21,1.08-.29.17-.85.12-1.19-.05-2.65-1.35-5.27-2.77-7.93-4.11-.34-.17-.92-.17-1.26,0-2.63,1.33-5.21,2.74-7.83,4.07-.37.19-.95.27-1.28.1-.21-.11-.25-.78-.19-1.17.46-2.87.97-5.74,1.46-8.61.03-.17.04-.34.09-.68Zm.11,8.54c2.58-1.35,5.01-2.6,7.41-3.9.6-.33,1.09-.34,1.69-.01,2.2,1.2,4.42,2.34,6.64,3.5.22.11.45.19.78.33-.48-2.76-.91-5.39-1.4-8.01-.14-.77,0-1.34.6-1.89,1.06-.94,2.05-1.97,3.07-2.96.9-.89,1.8-1.78,2.81-2.79-2.74-.39-5.3-.8-7.88-1.12-.93-.12-1.5-.47-1.91-1.35-1.1-2.39-2.31-4.73-3.54-7.23-.96,1.94-2.03,3.68-2.71,5.56-.82,2.29-2.24,3.23-4.63,3.3-1.96.06-3.91.53-5.53.77,1.74,1.88,3.52,3.87,5.38,5.78.59.61.77,1.16.61,1.98-.49,2.59-.91,5.19-1.4,8.03Z"/>
  </g>
</svg>