<?xml version="1.0" encoding="UTF-8"?>
<svg id="Layer_2" data-name="Layer 2" xmlns="http://www.w3.org/2000/svg" viewBox="0 0 62.62 57.02">
  <defs>
    <style>
      .cls-1 {
        stroke-width: 0px;
      }
    </style>
  </defs>
  <g id="Layer_1-2" data-name="Layer 1">
    <g>
      <g id="nkJ88b.tif">
        <g>
          <path class="cls-1" d="m45.99,17.58c.22.17.28.39.27.66-.01.26,0,.51,0,.8.29-.04.54-.07.8-.1.37-.05.56.09.61.46.05.41.12.83.16,1.24.02.16.06.22.23.24.44.04.88.11,1.33.16.41.05.55.22.5.63-.31,2.53-.63,5.06-.91,7.6-.05.41.05.83.1,1.24.33,2.57.66,5.13.99,7.7.21,1.61.41,3.22.62,4.83.06.44-.06.6-.49.66-.92.12-1.84.24-2.76.35-.19.02-.28.07-.29.28-.02.34-.07.68-.12,1.02-.06.39-.22.52-.6.47-2.06-.25-4.12-.52-6.19-.73-.55-.06-1.13.03-1.68.1-1.93.24-3.86.5-5.79.75-.39.05-.54-.07-.6-.47-.06-.38-.11-.77-.15-1.16-.02-.17-.08-.24-.25-.26-.94-.1-1.88-.22-2.82-.33-.39-.05-.53-.23-.47-.63.02-.17.04-.35.06-.54-.35-.04-.74.09-.97-.29v-19.27c.15-.17.3-.33.56-.23.26.1.27.32.27.55,0,5.99,0,11.99,0,17.98,0,.12,0,.24,0,.38h17v-23.24h-17c0,.54,0,1.08,0,1.61,0,.31,0,.61,0,.92,0,.24-.03.46-.28.55-.26.09-.42-.06-.55-.26v-3.68h18.44Zm.24,27.36c.93-7.73,1.85-15.41,2.78-23.1-.94-.11-1.83-.22-2.76-.33v.42c0,6.64,0,13.27,0,19.91,0,.59-.11.7-.7.7-5.26,0-10.53,0-15.79,0-.12,0-.24,0-.38,0-.02.13-.03.24-.05.38,5.64.68,11.25,1.35,16.9,2.03Zm1.05-1.73c.88-.11,1.7-.22,2.54-.33-.43-3.33-.85-6.62-1.27-9.9-.02,0-.03,0-.05,0-.41,3.39-.82,6.79-1.23,10.23Zm-11.08,1.42s0-.04,0-.06c-1.11-.13-2.23-.27-3.38-.4.04.32.08.59.12.88,1.11-.14,2.18-.28,3.25-.42Zm10.06-23.97c.24.03.47.05.72.08-.04-.31-.07-.57-.11-.84,0-.03-.02-.05-.02-.07q-.61-.02-.6.56c0,.08,0,.16.01.27Z"/>
          <path class="cls-1" d="m34.7,33.88c0-.19,0-.39,0-.58,0-.24.07-.43.33-.52.2-.07.16-.51-.06-.66-.68-.46-1.15-1.07-1.41-1.84-.66-1.92.46-4,2.45-4.54,1.95-.52,4,.74,4.36,2.71.28,1.52-.25,2.75-1.51,3.65-.3.21-.27.51.02.72.11.08.21.27.21.41.03.43.02.87,0,1.31-.05.96-.65,1.62-1.61,1.7-.47.04-.95.05-1.41-.03-.81-.14-1.35-.86-1.38-1.76,0-.19,0-.39,0-.58Zm1.76-1.13v-2.72c-.28,0-.54,0-.8,0-.32,0-.5-.15-.51-.4-.01-.25.18-.43.5-.44.83,0,1.67,0,2.51,0,.32,0,.49.16.49.41,0,.27-.16.42-.5.42-.27,0-.53,0-.8,0v2.72h.46c0-.06.02-.09.02-.13-.09-.59.13-.94.65-1.28.94-.61,1.29-1.57,1.08-2.67-.22-1.15-.97-1.88-2.11-2.15-1.7-.4-3.42,1.14-3.23,2.87.11.97.57,1.69,1.42,2.16.25.14.37.32.35.6-.02.2,0,.4,0,.6h.48Zm1.8.88h-2.71c0,.34-.02.65,0,.96.04.44.32.78.74.82.41.04.83.04,1.24,0,.4-.04.69-.37.72-.77.02-.33,0-.66,0-1.01Z"/>
          <path class="cls-1" d="m34.62,25.71c-.06-.04-.21-.1-.29-.2-.17-.24-.31-.5-.45-.76-.12-.23-.05-.47.14-.58.2-.12.43-.06.57.16.16.25.31.5.44.77.14.29-.04.6-.41.61Z"/>
          <path class="cls-1" d="m37.31,24.25c0,.16,0,.31,0,.47-.02.22-.15.36-.37.38-.22.02-.4-.09-.42-.31-.03-.36-.03-.73,0-1.1.02-.21.2-.31.4-.3.21.01.37.13.38.36.01.16,0,.33,0,.5h0Z"/>
          <path class="cls-1" d="m33.45,26.86c0,.36-.31.57-.59.43-.29-.14-.57-.31-.83-.49-.19-.13-.24-.33-.11-.54.11-.19.3-.27.5-.17.3.15.6.33.88.51.09.06.13.19.16.24Z"/>
          <path class="cls-1" d="m40.78,27.43c-.16-.15-.34-.23-.38-.36-.04-.13,0-.36.11-.44.28-.21.59-.39.91-.52.11-.05.35.03.43.13.08.1.1.39.03.44-.33.27-.7.48-1.1.74Z"/>
          <path class="cls-1" d="m39.19,25.71c-.34,0-.55-.29-.43-.57.14-.3.31-.58.5-.86.12-.18.31-.23.51-.12.21.11.28.31.19.52-.15.31-.32.6-.51.88-.06.09-.2.12-.25.15Z"/>
          <path class="cls-1" d="m31.98,29.56c-.17,0-.33.01-.5,0-.23-.03-.34-.19-.34-.4,0-.2.11-.37.32-.39.36-.02.72-.03,1.07,0,.22.02.33.2.31.42-.01.21-.13.35-.34.37-.17.02-.35,0-.52,0Z"/>
          <path class="cls-1" d="m41.8,29.57c-.16,0-.32.01-.47,0-.23-.02-.35-.16-.36-.38,0-.22.1-.4.33-.41.35-.02.7-.02,1.05,0,.23.02.33.19.32.41-.01.22-.14.36-.37.38-.17.01-.33,0-.5,0Z"/>
          <path class="cls-1" d="m41.95,31.78c0,.36-.31.56-.6.42-.28-.14-.55-.3-.82-.47-.2-.13-.24-.33-.12-.54.11-.2.31-.27.5-.18.31.15.6.33.89.52.09.06.12.19.15.25Z"/>
          <path class="cls-1" d="m33.45,31.47c-.05.06-.11.2-.22.28-.23.16-.49.3-.74.43-.23.12-.47.06-.58-.14-.12-.2-.06-.42.17-.57.24-.15.49-.3.75-.43.3-.15.62.04.63.43Z"/>
          <path class="cls-1" d="m52.56,33.22c0-2.76,0-5.53,0-8.29,0-.2.04-.41.11-.59.38-1.05.78-2.1,1.17-3.15.02-.05.04-.1.06-.16.07-.19.2-.32.41-.32.21,0,.34.13.41.32.3.79.56,1.59.9,2.36.35.82.46,1.65.46,2.54-.02,5.17-.01,10.34-.01,15.5,0,1.03-.51,1.54-1.54,1.54-.19,0-.39,0-.58,0-.85-.01-1.39-.55-1.39-1.4,0-2.78,0-5.57,0-8.35Zm2.66,6.67v-14.76h-1.8v14.76h1.8Zm-1.82.86c0,.32-.01.62,0,.91.01.27.18.45.46.46.3.02.59.02.89,0,.26-.01.45-.16.47-.43.02-.31,0-.62,0-.95h-1.83Zm.19-16.5h1.45c-.24-.64-.47-1.26-.72-1.94-.25.67-.48,1.29-.73,1.94Z"/>
        </g>
      </g>
      <g id="H0Dge5.tif">
        <g>
          <path class="cls-1" d="m28.16,29.71c0-.31,0-.61,0-.92H7.6v-14.22h25.81v3.14c.3,0,.61-.03.91-.05,0-1.64,0-3.27,0-4.91,0-1.15-.62-1.77-1.77-1.77-7.98,0-15.97,0-23.95,0-1.12,0-1.5.25-1.91,1.28v19.71c.19.67.61,1.09,1.28,1.28h20.14c.01-.29.02-.58.03-.87,0,0,0-.01,0-.02-6.55,0-13.1,0-19.65,0-.7,0-.91-.21-.91-.91,0-.57,0-1.15,0-1.75h20.57ZM7.6,12.5c.02-.33.28-.58.62-.61.09,0,.19,0,.28,0,8.01,0,16.02,0,24.03,0,.7,0,.91.21.91.91,0,.28,0,.55,0,.85H7.59c0-.39-.01-.77,0-1.15Z"/>
          <path class="cls-1" d="m20.53,27.03c-2.73,0-4.92-2.19-4.92-4.91,0-2.69,2.21-4.88,4.93-4.88,2.67,0,4.87,2.21,4.88,4.87,0,2.71-2.19,4.92-4.88,4.92Zm3.99-4.89c0-2.21-1.8-4.01-3.99-4.01-2.24,0-4.03,1.79-4.03,4.03,0,2.19,1.81,3.98,4.02,3.99,2.2,0,4.01-1.81,4-4Z"/>
          <path class="cls-1" d="m28.16,30.59h-15.2c-.06-.25-.19-.44-.47-.44-.28,0-.4.19-.47.44-.56,0-1.1,0-1.65,0-.35,0-.55.17-.55.44,0,.28.2.44.55.45.55,0,1.09,0,1.65,0,.06.25.19.44.47.44.28,0,.4-.19.47-.44h.34c4.95,0,9.9,0,14.86,0,0-.3,0-.59,0-.89Z"/>
          <path class="cls-1" d="m8.71,13.22c-.46,0-.67-.14-.67-.44,0-.3.21-.45.66-.45.46,0,.67.14.67.44,0,.3-.21.45-.66.45Z"/>
          <path class="cls-1" d="m10.47,13.22c-.08,0-.17.01-.25,0-.24-.04-.38-.18-.4-.43-.01-.23.16-.43.4-.45.15-.01.3,0,.45,0,.29,0,.48.18.48.43,0,.26-.19.44-.49.46-.06,0-.13,0-.19,0h0Z"/>
          <path class="cls-1" d="m12.27,12.33c.46,0,.67.14.67.44,0,.3-.21.45-.66.45-.46,0-.67-.14-.67-.44,0-.3.21-.45.66-.45Z"/>
          <path class="cls-1" d="m19.18,22.11c0-.56-.02-1.11.01-1.67,0-.16.11-.35.23-.46.16-.15.36-.06.54.05.83.56,1.67,1.11,2.5,1.67.39.26.4.6.01.86-.84.56-1.68,1.13-2.53,1.67-.13.08-.38.12-.5.05-.13-.07-.23-.29-.24-.45-.03-.57-.01-1.15-.01-1.72Zm2.32.02c-.48-.32-.93-.62-1.41-.94v1.88c.47-.32.92-.61,1.41-.94Z"/>
        </g>
      </g>
    </g>
    <g>
      <path class="cls-1" d="m8.47,56.44h-1.07v.16h1.07v-.16Z"/>
      <path class="cls-1" d="m8.47,55.45h-1.23,1.23v-.58h-2.96v.25c0,.16,0,.25-.25.41h1.23-1.56,3.37v-.08h.16Z"/>
      <path class="cls-1" d="m5.75,56.77v-.25h.74v-.16s-.33,0-.66-.16l-.25-.33h-1.73c0-.16-.08-.25-.25-.25h-.49c-.16,0-.25,0-.25-.16l1.56-.33v-.58h-1.64v.66h-.41l-.16-.16v-1.15h0l.41.25v-1.32c0-.33-.08-.58-.25-.82v-.41c.08,0,.16-.08.16-.25v-2.79h-.66v6.41s0,.16-.25.16l-.16-.25h0v-6.41H.33v4.19h-.16v4.36h8.22v-.41h-2.71l.08.16Zm-3.29-4.11l.25.25-.25.49v-.74Zm-1.73-.66h0v-.49h.16s0,.08.16.16c0,.16,0,.25-.16.25l-.16.08Zm.9,3.86h-.16l-.25-.25h-.16l.25-.25s-.08,0-.25-.08c-.08,0-.16,0-.16-.08s.08,0,.25,0h.41v.66h.08Zm.49.74h-.25v-.16h0c.16,0,.25,0,.25.16,0,0,0,0,0,0Zm.25-.82h.41-.41Zm0,0h0v-.25l.41.25h-.49.08Z"/>
      <polygon class="cls-1" points="8.47 55.78 6.25 55.86 6.49 55.86 6.49 56.44 7.4 56.44 7.4 55.86 8.47 55.86 8.47 55.78"/>
      <polygon class="cls-1" points="2.22 55.62 2.22 55.54 2.14 55.62 2.22 55.62"/>
    </g>
    <g>
      <path class="cls-1" d="m62.04,48.63v1.07h.16v-1.07h-.16Z"/>
      <path class="cls-1" d="m61.06,48.63v1.23h0v-1.23h-.58v2.96h.25c.16,0,.25,0,.41.25v-1.23,1.23h0v.33-3.37h-.08v-.16Z"/>
      <path class="cls-1" d="m62.37,51.34h-.25v-.74h-.16s0,.33-.16.66l-.33.25h0v1.73c-.16,0-.25.08-.25.25v.49c0,.16,0,.25-.16.25l-.33-1.56h-.58v1.64h.66v.41l-.16.16h-1.15l.25-.41h-1.32c-.33,0-.58.08-.82.25h-.41c0-.08-.08-.16-.25-.16h-2.79v.66h6.41s.16,0,.16.25l-.25.16h-6.41v1.15h4.19v.16h4.36v-8.22h-.41v2.71l.16-.08Zm-4.11,3.29l.25-.25.49.25h-.74Zm-.66,1.73h-.49v-.16h0s.08,0,.16-.16c.16,0,.25,0,.25.16l.08.16Zm3.86-.9v.16l-.25.25v.16l-.25-.25s0,.08-.08.25c0,.08,0,.16-.08.16s0-.08,0-.25v-.41h.66v-.08Zm.74-.49v.25h-.16c0-.16,0-.25.16-.25,0,0,0,0,0,0Zm-.82-.25v-.41.41Zm0,0h-.25l.25-.41v.49-.08Z"/>
      <polygon class="cls-1" points="61.39 48.63 61.47 50.85 61.47 50.6 62.04 50.6 62.04 49.7 61.47 49.7 61.47 48.63 61.39 48.63"/>
      <polygon class="cls-1" points="61.22 54.88 61.14 54.88 61.22 54.96 61.22 54.88"/>
    </g>
    <g>
      <path class="cls-1" d="m.58,8.32v-1.07h-.16v1.07h.16Z"/>
      <path class="cls-1" d="m1.56,8.32v-1.23h0v1.23h.58v-2.96h-.25c-.16,0-.25,0-.41-.25v1.23-1.23h0v-.33,3.37h.08v.16Z"/>
      <path class="cls-1" d="m.25,5.6h.25v.74h.16s0-.33.16-.66l.33-.25h0v-1.73c.16,0,.25-.08.25-.25v-.49c0-.16,0-.25.16-.25l.33,1.56h.58v-1.64h-.66v-.41l.16-.16h1.15l-.25.41h1.32c.33,0,.58-.08.82-.25h.41c0,.08.08.16.25.16h2.79v-.66H2.05s-.16,0-.16-.25l.25-.16h6.41V.18h-4.19V.01H0v8.22h.41v-2.71l-.16.08Zm4.11-3.29l-.25.25-.49-.25h.74Zm.66-1.73h.49v.16h0s-.08,0-.16.16c-.16,0-.25,0-.25-.16l-.08-.16Zm-3.86.9v-.16l.25-.25v-.16l.25.25s0-.08.08-.25c0-.08,0-.16.08-.16s0,.08,0,.25v.41h-.66v.08Zm-.74.49v-.25h.16c0,.16,0,.25-.16.25,0,0,0,0,0,0Zm.82.25v.41-.41Zm0,0h.25l-.25.41v-.49.08Z"/>
      <polygon class="cls-1" points="1.23 8.32 1.15 6.1 1.15 6.34 .58 6.34 .58 7.25 1.15 7.25 1.15 8.32 1.23 8.32"/>
      <polygon class="cls-1" points="1.4 2.07 1.48 2.07 1.4 1.99 1.4 2.07"/>
    </g>
    <g>
      <path class="cls-1" d="m54.32.58h1.07v-.16h-1.07v.16Z"/>
      <path class="cls-1" d="m54.32,1.56h1.23-1.23v.58h2.96v-.25c0-.16,0-.25.25-.41h-1.23,1.56-3.37v.08h-.16Z"/>
      <path class="cls-1" d="m57.03.25v.25h-.74v.16s.33,0,.66.16l.25.33h1.73c0,.16.08.25.25.25h.49c.16,0,.25,0,.25.16l-1.56.33v.58h1.64v-.66h.41l.16.16v1.15h0l-.41-.25v1.32c0,.33.08.58.25.82v.41c-.08,0-.16.08-.16.25v2.79h.66V2.05s0-.16.25-.16l.16.25h0v6.41h1.15v-4.19h.16V0h-8.22v.41h2.71l-.08-.16Zm3.29,4.11l-.25-.25.25-.49v.74Zm1.73.66h0v.49h-.16s0-.08-.16-.16c0-.16,0-.25.16-.25l.16-.08Zm-.9-3.86h.16l.25.25h.16l-.25.25s.08,0,.25.08c.08,0,.16,0,.16.08s-.08,0-.25,0h-.41v-.66h-.08Zm-.49-.74h.25v.16h0c-.16,0-.25,0-.25-.16,0,0,0,0,0,0Zm-.25.82h-.41.41Zm0,0h0v.25l-.41-.25h.49-.08Z"/>
      <polygon class="cls-1" points="54.32 1.23 56.54 1.15 56.29 1.15 56.29 .58 55.39 .58 55.39 1.15 54.32 1.15 54.32 1.23"/>
      <polygon class="cls-1" points="60.57 1.4 60.57 1.48 60.65 1.4 60.57 1.4"/>
    </g>
  </g>
</svg>