<?xml version="1.0" encoding="UTF-8"?>
<svg xmlns="http://www.w3.org/2000/svg" version="1.1" viewBox="0 0 188.4 67.5">
  <defs>
    <style>
      .cls-1 {
        stroke: #000;
        stroke-miterlimit: 10;
        stroke-width: .8px;
      }
    </style>
  </defs>
  <!-- Generator: Adobe Illustrator 28.7.1, SVG Export Plug-In . SVG Version: 1.2.0 Build 142)  -->
  <g>
    <g id="Layer_2">
      <g>
        <path d="M179.9,50.6l1.1,1.1.2-.2-1.1-1.1-.2.2Z"/>
        <path d="M178.9,51.6l1.2,1.2h0l-1.2-1.2-.6.6,3,3,.2-.2c.2-.2.2-.2.7-.2l-1.2-1.2,1.2,1.2h0l.2.2.2.2h0c0,0-.2-.3-.2-.3l-3.1-3.1h0c0,0-.2,0-.2,0h0Z"/>
        <path d="M183,53l-.2.2-.8-.8-.2.2s.3.3.5.8v.6h0l1.8,1.8c-.2.2-.2.3,0,.5l.2.2.2.2c.2.2.2.2,0,.4l-1.9-1.2-.6.6.6.6.2.2.2.2.6.6.7-.7.4.4v.3l-.7.7-.5.5h0l-.2-.7-.7.7-.7.7c-.3.3-.5.7-.6,1.1l-.2.2-.2.2c0,0-.2,0-.4,0l-2.1,2.1-.8.8.7.7,6.5-6.5s.2-.2.4,0v.4h0l-4.2,4.2-2.2,2.2,1.2,1.2.3-.3,3.9-3.9.2.2,2.2-2.2.9-.9.8-.8.5-.5-8.3-8.3-.4.4,2.8,2.8v-.2ZM182.2,60.5v-.5l.8-.2-.8.8ZM183.3,62.9h0l-.5.5-.2-.2h0s0,0,0-.3c.2-.2.2-.2.4,0h.2ZM186.3,58.1l.2.2v.5l.2.2h-.5s0,0,.2.3c0,0,.2.2,0,.2s0,0-.2-.2l-.2-.2-.2-.2.7-.7h0c0,0,0,0,0,0ZM186.5,56.8l.2.2-.2.2h0c-.2-.2-.2-.2,0-.4h0ZM185.4,57.4l-.4-.4.4.4ZM185.4,57.4h0l-.2.2-.2-.7.5.5h0Z"/>
        <polygon points="179.3 51.2 181.6 53.4 181.4 53.1 181.9 52.6 181 51.6 180.4 52.2 179.4 51.1 179.3 51.2"/>
        <polygon points="185.4 57.7 185.4 57.8 185.5 57.8 185.4 57.7"/>
      </g>
      <g>
        <path class="cls-1" d="M4.1,51.6h0s0-10.9,0-10.9h0v-3.5h0v-1.2c0-.4,0-.8,0-1.2h.1s.2,0,.2,0c.3,0,.6,0,.9,0h.5c.2,0,.5,0,.7,0s.5,0,.7,0c.2,0,.4,0,.6,0h.6c1.2,0,2.4,0,3.6,0,1.2,0,2.3,0,3.6,0h1c.4,0,.7,0,1,.1-.2,0-.5.1-.9.1h-.9c.3,0,.6,0,.9,0,.3,0,.6,0,.9.1v.3c0,0-.3,0-.5,0-.3,0-.6,0-.9,0-.3,0-.6,0-.9,0-.3,0-.5,0-.6,0h0s-1,0-1,0c.7,0,1.3,0,2,0h2c0,.1,0,.2-.2.2h-.3c-1.7,0-3.3,0-4.9,0-1.6,0-3.2,0-4.9,0h0c0-.2,0-.2-.1-.3,0,0-.1,0-.2,0,0,0-.1,0-.2,0,.1,0,.3,0,.5,0s.2,0,.2,0h.7c.7,0,1.5,0,2.2,0,.7,0,1.5,0,2.2-.1-1.1,0-2.1,0-3.1,0-1,0-2.1,0-3.1,0,0,0,0,0-.1,0s0,0-.1,0c0,0-.1,0-.2,0s0,0-.1,0l.9.2v.3c-.1,0-.2,0-.3,0s0,0-.1,0h-.2c-.1,0-.2,0-.3,0v-.3h-.3s0,.5,0,.5v.3h0c0,0,.2-.2.2-.2v.3c0,.1,0,.2,0,.3,0,.2,0,.4-.2.5h0c0,.1,0,.2,0,.2,0,0,0,0,0,.2,0,.4,0,.7,0,1.1s0,.4,0,.5v1.7h0s0,0,0,0c0,.7,0,1.3,0,1.9v1.9c0,0,.2.1.3.1h5c1.5,0,3.1,0,4.7.2,0,0,0,.2,0,.2s0,0,0,.1v.7s0,0,0,.1c0,0,0,.2,0,.2-1.1,0-2.3.1-3.4.1h-4.1c-.3,0-.7,0-1,0-.4,0-.7,0-1,0-.3,0-.4,0-.5,0v.4c0,.3,0,.6,0,.8,0,.3,0,.6,0,.8v1.7c0,0,0,0,0,0,0,0,0,0,0,0v1.6c0,.2,0,.4,0,.6,0,.4,0,.7,0,1.1,0,.1,0,.2,0,.2,0,0,0,0,0,0h0c.1.2.2.4.2.6s0,.2,0,.3v.3h-.2c0,0,0-.1,0-.1v.6s0,0,0,0h.2v-.4c.1,0,.2,0,.3,0s.1,0,.2,0h.1c.1,0,.2,0,.3,0v.3s-.8.2-.8.2c0,0,0,0,.2,0s0,0,.2,0c0,0,0,0,.1,0s0,0,.1.1h6.3c-.9-.1-1.8-.1-2.7-.2-.9,0-1.8,0-2.7,0s-.1,0-.2,0c0,0,0,0-.1,0s0,0-.1,0c.1,0,.2,0,.3,0h0c0,0,.1-.2.1-.2s0,0,0-.1c1.7,0,3.3,0,4.9,0,1.6,0,3.2,0,4.9,0h.3c.2,0,.2,0,.2,0h0c-.7,0-1.3,0-2,0-.7,0-1.3,0-2,0h1s0,0,0,0h.3c.1,0,.3,0,.5,0,.3,0,.5,0,.8,0,.3,0,.6,0,.8,0,.3,0,.4,0,.5,0v.3c-.3,0-.6,0-.9,0-.3,0-.6,0-.9,0,.2,0,.5,0,.9,0h.1c.4,0,.6,0,.8.2-.4.1-.8.2-1.3.2s-.4,0-.5,0c-.7,0-1.3,0-1.9,0-.9,0-1.8,0-2.6,0s-1.8,0-2.6,0c-.1,0-.3,0-.4,0h-.2c-.2,0-.4,0-.6,0-.3,0-.6,0-.9,0s-.3,0-.5,0h-.3c-.4,0-.7,0-1.1,0h-.2c0,0-.1,0-.1,0,0-.4,0-.8,0-1.2v-1.1h0v-2.2c0-.1,0-.3,0-.4v-.2c0-.2,0-.5,0-.7h0ZM4.1,41.8h0c0,.1,0,0,0,0h0ZM4.1,50.5h0s0,0,0,0h0ZM4.4,46.5h0s0,0,0,0v-.3c0,0,0-.2,0-.3h0s0,0,0,0c0-.1,0-.2-.1-.2h-.1v.9h0c0,.1,0,.1,0,.1,0,0,.1,0,.1-.2ZM4.4,37.9h0c0-.1,0-.2,0-.2h0v.3h0s0,0,0,0h0c0,0,0,0,0,0ZM4.4,54.3h0v.3h0c0,0,0,0,0-.2,0,0,0,0,0,0s0,0,0,0ZM4.8,35.9v-.3h0s-.1,0-.1,0h0v.2c0,0,0,0,0,0,0,0,0,0,0,0,0,0,0,0,.2,0h.2ZM4.5,44.4h0s0,0,0,0h0ZM4.5,47.9h0,0s0,0,0,0ZM4.7,56.5h-.1c0,.1,0,.1,0,.1v.2c.1,0,.2,0,.2,0v-.3c0,0,0,0-.1,0,0,0,0,0,0,0-.1,0-.2,0-.2,0s0,0,0,0c0,0,0,0,.1,0ZM5,35.9h0c0,0,0,0,0,0v9.2h0c0,0,0-.4.1-.8,0-.5,0-1,0-1.6,0-.6,0-1.3,0-1.9v-2c0-.6,0-1.2,0-1.7,0-.5,0-.9,0-1.1s0,0-.2,0ZM5.1,56.4v-7.3c0-.3,0-.7,0-1h0c0-.4,0-.7-.2-1h0v4.7c0,.8,0,1.5,0,2.3s0,1.5,0,2.3h0,0c.1.1.2,0,.2,0ZM4.9,35.3h0c0,0,.1,0,.1,0h0s-.1,0-.1,0h0ZM4.9,45.3v.4h0c0,0,.1-.1.1-.1v-.2h-.2ZM4.9,46.6v.4h.2v-.5c-.1,0-.2,0-.2,0ZM5,57h0s0,.1,0,.1h.1c0,0,0-.1-.1-.1ZM5.1,35.8h0c0,0,0,0,0,0,0,0,0,0,0,0ZM5.1,56.5h0s0,0,0,0h0ZM5.5,35.7h-.3s0,.2,0,.2l.2-.2ZM5.2,56.6h0s.3,0,.3,0l-.2-.2h0ZM5.2,35.6s0,0,0,0,0,0,0,0h-.1ZM5.2,56.7h.2s-.1,0-.2,0ZM5.4,37.2v-.3c-.1,0-.1.4-.1.4v-.2ZM5.3,54.9v.4-.3c.1,0,0-.2,0-.2ZM5.5,45.3h-.2v.4s.2,0,.2,0v-.5ZM5.3,46.7v.4s.1,0,.1,0v-.5h-.1ZM6.8,35.9h.7s-.7,0-.7,0h0ZM6.8,56.4h0s.7,0,.7,0h0s-.6,0-.6,0ZM7,56.7h0c0,0,.1.3.1.3.2,0,.3,0,.4,0v-.3h-.3s-.2,0-.2,0ZM7.5,57.5v-.4h-.5v.4c0,0,.5,0,.5,0ZM7.9,35.3h-.5c0,0,.5,0,.5,0h0ZM7.9,57h-.5c0,0,.5,0,.5,0h0ZM7.9,56.4h0s5.4,0,5.4,0c-.7,0-1.4,0-2.2,0h-.5c-.9,0-1.8,0-2.7,0ZM17.2,57v-.3h-1.8c0-.1-3.1,0-3.1,0h.4c.1,0,.2,0,.3,0h-5.1v.3h1c0,0,.2,0,.5,0s.1,0,.2,0h7.6ZM8,57.5v-.3c.2,0,.2.1.2.3,1.1,0,2.1,0,3.1,0,1,0,2,0,3.1,0h.2s.8,0,.8,0c-1.1,0-2.1,0-3.1,0-1,0-2.1,0-3.1,0h-.2s-1,0-1,0c0,0,0,.2,0,.2s0,.1,0,.2h0ZM9,35.3h.2c0-.1-.2-.1-.2-.1h0ZM9.1,57h-.2c0,0,.2.1.2.1h0Z"/>
        <path class="cls-1" d="M22.7,56.2h-.4v.2c0,0,.3.1.3.1v-.3c.2,0,.3,0,.5,0s.1,0,.2,0h.1c.2,0,.3,0,.5,0,.2,0,.6,0,1.2,0s1.4,0,2.1,0,1.5,0,2.2,0c.7,0,1.2,0,1.5,0s.1,0,.1,0c.1,0,.2,0,.3,0,.1,0,.2,0,.3,0s.1,0,.1,0v.2l.2.2v-.4s0,0,.1,0h0c0,0,0,0,.1,0h.2c0-.1.6-.3.6-.3h0s.6-.3.6-.3h0s.2,0,.2,0h0s.1,0,.1,0l.2-.2h.1s0,0,0,0h0s.2,0,.2,0v-.2c.1,0,.3,0,.3,0,.3-.4.6-.7,1-.9.4-.2.8-.6,1-1l.4-.6v-.2s.2,0,.2,0v-.2s.2-.1.2-.1v-.2c.2-.1.4-.4.5-.9.2-.5.3-1,.5-1.7.1-.6.2-1.2.3-1.7,0-.4,0-.8,0-1v-.2c0,.2.1.4.1.6v-.6s0,0,0,0h0c-.1-.9-.3-1.6-.4-2.4s-.4-1.5-.7-2.2h0c0,0,0-.2,0-.2h0c0,0,0-.1,0-.2,0,0,0,0,0-.1l-.3-.6v-.2c-.1,0-.2-.2-.2-.2,0,0-.1-.1-.2-.2,0-.1-.1-.2-.2-.2v-.2s-.1,0-.1,0v-.2c-.1,0-.3-.1-.3-.1h0c0-.1-.2-.2-.3-.4-.2-.2-.3-.3-.5-.5-.2-.2-.3-.3-.4-.4-.1,0-.2-.1-.2-.1h0v-.2c-.1,0-.3,0-.3,0,0,0,0,0,0,0,0,0,0,0,0,0h0s-.1,0-.1,0c-.1,0-.2,0-.2-.1,0,0-.1,0-.2-.1h0c0,0,0,0-.1,0,0,0,0,0,0,0h-.3c0-.1-.2-.2-.2-.2h0c0,0-.3-.1-.3-.1h0c-.8-.3-1.5-.5-2.1-.5-.7,0-1.4,0-2.2,0h-.2c0-.1,0-.2,0-.3v-.2c0-.2,0-.3,0-.4v-.2c0,0,0-.3,0-.3h.4c.8,0,1.5,0,2.2,0,.7,0,1.4.2,2.2.5h0s1.1.5,1.1.5c0,0,.1,0,.2,0h0c0,0,.2.2.2.2h0c0,0,0,0,0,0,0,0,0,0,0,0h0c0,0,.1.1.3.2.1,0,.2.1.2.1h0v.2c.1,0,.1,0,.2,0h.2s0,.2,0,.2h.2s0,.1,0,.1c.4.3.7.6.9.9.3.3.6.6.9,1h0c0,0,0,.1,0,.1,0,0,0,0,0,0h0c0,.1.1.2.1.2l.2.4h0v.2c.1,0,.2,0,.2,0,0,0,0,0,0,0h0c0,.1.1.2.2.4,0,.1.1.3.1.4h.1v.2h0c0,0,0,.3,0,.3h0c0,.2.1.3.2.4,0,.1,0,.3,0,.4h0c0,.2,0,.3.1.6,0,.2,0,.3.1.4v.2h0c0,.2,0,.2,0,.3s0,.2,0,.2h0c0,0,0,0,0,0,0,.7.1,1.3.1,1.9v.3c0-.1,0-.2,0-.3,0-.1,0-.2,0-.3,0,.1,0,.2,0,.3v.4h.2c0,.3,0,.5,0,.7s0,.5,0,.7,0,.2,0,.5h0c0,.1,0,.2,0,.4v.2c0,.2,0,.4,0,.5h0v.2c0,0-.1-.1-.2-.1s-.1,0-.2,0c0,0-.1,0-.2,0,0,.2,0,.3,0,.3v.2c.1,0,.3,0,.3,0,0,.3,0,.5-.2.7h0c0,.3-.1.6-.3.9-.2.3-.3.7-.6,1s-.4.7-.6,1-.4.6-.6.7c-.1.1-.3.3-.4.4-.1.1-.3.3-.4.4h-.2c-.1.2-.3.3-.5.4-.2.1-.3.2-.5.4h-.2s0,.2,0,.2h-.2c0,0,0,.2,0,.2h-.2s0,.1,0,.1c-.3.1-.5.2-.7.4-.2.1-.5.2-.8.2,0-.2-.1-.3-.2-.5,0-.2-.2-.3-.4-.3h-.2c-.1.2-.2.3-.2.5h0c0,.2,0,.4,0,.6-.9.2-1.8.3-2.5.3s0,0,0,0,0,0,0,0c0,0,0,0,0-.1h0v-.2h-.1c0,0-.2,0-.2,0,0,0-.1.1-.1.2s0,0,0,.1,0,0,0,0c0,0,0,0,0,0-.1,0-.2,0-.3,0h-.1s0,0,0,0c-.1,0-.3,0-.4,0-.2,0-.3,0-.4,0h-6.8v-3.9s0,0,0,0h0c0,0,0,0,0,0s0,0,0,0c0,0,0,0,0,0,0,0,0,0,0-.1,0,0-.1,0-.2,0,0-.1,0-.2,0-.3,0-.1,0-.2,0-.3s0-.3.1-.4c0-.2-.1-.3-.1-.6v-.2c0-.3,0-.5,0-.7v-3.3c0,0,0-.1,0-.1h0c0,0,0,.1.1.1s.1,0,.2,0c0,0,0,0,.1-.1v-.3c-.1,0-.2,0-.2,0s0,0,0,0c0,0-.1,0-.2,0s0,0,0,0c0-.2,0-.3.2-.3h.3c0,0,0,.2.1.2,0,0,.1.1.2.1l.3-.3c0,0,0-.1,0-.2,0,0-.1,0-.2-.1h-.2c0,0-.1,0-.2,0,0,0-.1,0-.2,0s-.1,0-.2,0c0,0-.1,0-.2,0h0v-.8c0,0,0,0,.1,0s0,.1,0,.1h.2c0,0,0,0,0,0h0s0,0,0,0h0s.2,0,.2,0l.2-.3c0-.1,0-.2-.1-.3,0,0-.2-.2-.2-.2h-.3s-.2-.2-.2-.2h-.2c0-.5,0-.8,0-1.2s0-.7,0-1.1c0-.7,0-1.4,0-2.1v-3c0-.6,0-1.1,0-1.6s0-.9,0-1.1h3.5c.7,0,1.4,0,2,0,.6,0,1,0,1,0v.3c0,0,0,.3,0,.3v.2c0,0,0,0,0,0v.2c.1,0,0,0,0,0v.2c0,0-.3,0-.6,0-.3,0-.6,0-1,0s-.6,0-.9,0c-.3,0-.5,0-.6,0,0,0-.1.1-.2.1h-1.9c0-.3,0-.5,0-.5-.2.1-.4.3-.5.5h0c.1,0,.2,0,.2.3h.3v6.9h-.1c0,0-.1,0-.2,0,0,0-.2,0-.3,0s-.2,0-.3.2c0,0,0,.1,0,.2s0,0,0,0v.2h0s0,.2,0,.2c0,0,.1,0,.2,0s0,0,0,0h.2c0,0,.1-.1.2-.2,0,0,.1,0,.2,0v2.4h-.2c0,0-.2.3-.2.3h-.3c0,0,.3,0,.3,0,.1,0,.2,0,.3,0v1.9h0c0,.1-.2.1-.2.1h0c0-.1,0-.1,0-.1h0s-.3-.3-.3-.3h-.2c-.2,0-.3,0-.4.2,0,.1-.1.3-.1.4s0,.1,0,.2c0,0,0,.1,0,.2l.3.2c.1.1.2.2.2.2h0v.2s0-.2,0-.2h.2c0,0,0,0,.1-.1,0,0,0,0,0,0,0,0,.1,0,.2,0,0-.1,0-.2.1-.3,0-.1,0-.2.2-.3,0,.3,0,.6,0,1v.3c0,.5,0,.9,0,1.3v.2c0,.2,0,.3,0,.3,0,.8,0,1.6,0,2.3,0,.8,0,1.6,0,2.3ZM21.9,44.5v.3c-.1,0-.1.2-.1.2.1-.1.2-.2.2-.4h0ZM23.3,35.4h0c0,.1,0,.2,0,.2h0c.1,0,.2,0,.2-.2s0-.2-.2-.2-.2,0-.2.2ZM29.1,35.5l.2-.2s0,0,0,0c-.1,0-.2,0-.2.1s0,0,0,0ZM39.3,47.9c0-.2,0-.3-.2-.4h0c0,.2,0,.3.2.4Z"/>
        <path class="cls-1" d="M57,56.6h0c0,.1,0,.2-.1.4,0,.2-.2.3-.2.3-.4.2-.7.3-1,.4h-.4c-.2.1-.4.2-.6.3-.2,0-.4.1-.6.1h-.2c-.2,0-.4,0-.6,0-.2,0-.4,0-.6,0-.3,0-.6,0-.9,0-.3,0-.6,0-1-.2h0s0,0,0,0,0,0,0,0v-.2c0,0,0,0,0,0,0,0-.2,0-.2,0v.2c-.4,0-.6-.1-.8-.2-.2,0-.4-.2-.7-.3,0,0,.1,0,.2,0,0,0,.1-.1.1-.2,0-.2,0-.3-.3-.3l-.2.2v.3h-.2c0-.1,0-.1-.1-.2s0,0-.1,0c0,0,0,0,0,0h0c0-.2-.3-.3-.5-.4,0,0,.1,0,.2,0,.1,0,.2,0,.2-.2h0c0,0,0,0,0,0,0,0,0,0,0,0,0,0-.1,0-.2,0,0,0-.1,0-.2,0-.1,0-.2,0-.3-.1,0,0-.1-.2-.2-.2h0c0-.1,0-.2,0-.2,0,0,0-.1.1-.2v-.3c-.2,0-.2-.1-.3-.2s-.1-.1-.1-.2h-.2c0-.1-.2-.2-.3-.2s-.2,0-.3.2c-.2-.2-.4-.5-.6-1-.2-.4-.4-.8-.5-1.1h0s-.3-.9-.3-.9h0c0-.5-.2-.8-.2-1.2,0-.4-.1-.8-.1-1.2,0-1.2,0-2.4,0-3.6,0-1.2,0-2.4,0-3.6s0-2.3.1-3.4c0-.6,0-1.2,0-1.9s0-1,0-1.5h1c0,.2,0,.6,0,1.2,0,.6,0,1.2,0,1.9s0,1.3,0,1.8c0,.5,0,.9,0,.9.1.5.2,1.1.2,1.7v.6c0,.4,0,.8,0,1.3,0,.6,0,1.3,0,1.9,0,.6,0,1.2,0,1.8,0,1.4.2,2.7.6,3.8.4,1.1,1.1,2.1,2.1,3.1h0l.2.2h0c0,0,.1,0,.2.1,0,0,0,.1.1.1h0c.8.5,1.7.9,2.6,1h0c.2,0,.4,0,.6.1.2,0,.4,0,.6,0h-.2s.4,0,.4,0h0c0,0,0,0,.2-.1.1,0,.3,0,.4,0,.2,0,.3,0,.5,0,.2,0,.3,0,.3,0h0c0,0,.6-.2.6-.2h0s.2-.1.2-.1h.1c0,0,.3-.2.3-.2,0,0,.2-.1.4-.2.2-.1.4-.2.4-.3h.2s.2-.2.2-.2c0,0,.2,0,.2,0,0,0,.2-.1.2-.2v.5c-.1,0-.2.1-.3.2,0,0,0,0,0,0h0c0,0,0,.1,0,.1,0,0,0,0-.1,0,0,0-.1,0-.2,0h-.1c0,.1-.1.1-.1.1-.5.3-1,.5-1.6.6,0,0,.2,0,.4,0s.4-.1.6-.2.4-.1.5-.2c.2,0,.3-.1.3-.2h.2c0,0,.1-.2.1-.2h0s0,0,0,0c0,0,0,0,0,0h0s.2-.1.2-.1h0c0,.2,0,.2,0,.3s-.1.1-.3.3c-.2.1-.3.2-.4.2h-.1c-.2.1-.4.2-.6.3-.2.1-.3.2-.6.2h.3l.3-.2h0c0,0,.2,0,.2,0,.1,0,.2,0,.2-.1,0-.1.2-.2.3-.2.1,0,.2,0,.3-.2ZM44.7,41.7h-.2c0,.1,0,.2.1.2s.1,0,.1,0h0ZM44.5,49.7s0,0,0,0c0,0,.1,0,.1-.1h0c-.1,0-.2,0-.2,0ZM45.2,41.1l-.2-.2h0s0,0,0,0,0,0-.1,0c0,0-.1,0-.2,0v.2c0,.2.1.3.3.4,0,0,.1-.1.2-.2,0,0,0-.1,0-.2ZM46.8,54.9h0s.2-.2.2-.2h0c0,0-.1-.1-.1-.2,0,0,0,0,0,0h0s0,0,0,0c0,0,0,0,0,.1h0c0,.2,0,.2,0,.3ZM47.7,55.4l-.5-.5c.2.2.3.3.5.5ZM50.8,57.1h0c0,.1,0,.2,0,.2s0,0,0,0,0,0,0,0ZM53.9,57.2h.1s-.2,0-.2,0h0s.1,0,.1,0ZM54.4,57.1h-.3c0,.1,0,.1,0,.1,0,0,0,0,0,0,0,0,.2,0,.2-.1h0ZM57.8,56.2h0s0,.3,0,.3h-.1c-.1.2-.2.3-.4.4-.2.1-.3.2-.5.2,0-.1.1-.2.2-.2h0c0-.2,0-.2,0-.3,0,0,0-.1,0-.2.1,0,.2,0,.3-.1.1,0,.2,0,.3-.2ZM59.6,45.9h.2c0,0,0,0,0,0v.3h.1v.2s0,0,0,0h0s0,0,0,0c0,.2,0,.5,0,.7s0,.5-.2.8h.1c0,.1,0,.3,0,.3v.3s0,0,0,0l.2.2c0,0,0,.2,0,.4,0,1.2-.2,2.4-.6,3.6l-.3-.3c0,0,.1-.2.2-.4,0-.2.1-.3.2-.4,0,0,0-.1,0-.2,0-.3,0-.6.1-.8,0-.3.1-.6.1-.8,0-.7,0-1.3,0-2,0-.6,0-1.3,0-2ZM60.1,51.8v-.2s.2,0,.2,0c-.1.2-.2.5-.2.7h0c0,0-.2.5-.2.5v.2h-.2c-.2,0-.2,0-.3,0,0-.2.1-.4.2-.6,0-.2.1-.4.2-.7,0,0,.1.1.2.1h0ZM59.8,36.5v-.5s0,0,0,0v1.3c0-.2,0-.3,0-.4,0,0,0,0,0,0,0,0,0-.2,0-.3,0,0,0,0,0,0s0,0,0,0ZM59.8,37.5v.3s0,.4,0,.4v-.3c0-.1,0-.2,0-.3ZM59.9,35.6h1c0,2.1,0,4.1,0,6.2,0,2.1,0,4.1.1,6.2h-.1c0,0,0,0-.1-.2,0,0,0-.1-.2-.2,0,0,0-.2,0-.2v-.2c0-.1,0-.2,0-.3,0-1.8,0-3.6,0-5.4,0-1.8,0-3.5,0-5.3s0-.2,0-.4h0c0-.2,0-.3-.2-.3h0s0,0,0,0c0,0,0,0,0,.1v.8c0,.3,0,.4,0,.6,0,0,0,.2,0,.4,0,.2,0,.4,0,.6v1.1c0-.2-.1-.4-.2-.6,0-.3-.1-.4-.2-.5,0-.1,0-.2,0-.3v-.2c0-.2,0-.3,0-.5v-.3c0-.1,0-.2.1-.2h0c-.1,0-.2-.2-.2-.3h0c0-.2,0-.3,0-.4s0-.2,0-.2h0c0-.1-.3-.1-.3-.1h0ZM60.1,49.2c.1.1.2.2.3.3,0,.1,0,.2,0,.4s0,.2,0,.3c0,.1,0,.3,0,.4,0,.2,0,.3,0,.4,0,.1,0,.2,0,.3h-.4c0-.3.1-.6.2-1s0-.8,0-1.1ZM60.9,51.2c0,.3,0,.5-.2.8,0,.3-.2.5-.3.8,0,0-.1,0-.3,0l.3-1.4c0,0,.1,0,.2-.1,0,0,0,0,.1,0h.1ZM60.4,40.6h.1c0,.2,0,.2,0,.3s0,.1,0,.2v.4c0,0,0,.2,0,.4,0,.1,0,.2,0,.3h0c0,.3,0,.4-.1.5v-.3s0-.1,0-.2h0c0,0,0-.1,0-.2,0,0-.1-.1-.1-.2s0,0,0-.1c0-.1,0-.2,0-.3h-.2c0-.1,0-.3,0-.4s0-.3,0-.4ZM60.4,39.4h.1c0,.1,0,.2,0,.3s0,0,0,.1v.3s0,.1,0,.3c0-.1-.1-.2-.1-.4s0-.2,0-.3c0-.1,0-.2,0-.3ZM61,50.8h-.3c0,0,.2.1.2.1,0,0,0,.1-.2.1s-.1,0-.2.1v-.4c0-.1,0-.3,0-.5,0-.2,0-.3,0-.5,0,0,.1.1.2.2,0,0,0,.1.1.2v.2h0s0,.4,0,.4Z"/>
        <path class="cls-1" d="M66.7,45.9h0v.5h0c0,.1.1.2.1.3h0c0,.2,0,.3,0,.3,0,0,.1.1.1.2h0c0,0-.2.3-.2.3h.2s.1.6.1.6l-.2.2h0c0,.2.1.2.1.3h0s.1,0,.1,0c0,.4.1.7.2,1,.1.3.2.7.3,1h0s.2.5.2.5h0s.2.5.2.5l.2.4h0c.2.6.5,1.2,1.1,1.7.6.5,1,.9,1.4,1.4h0s0,0,0,0c0,0,0,0,0,0h0c0,0,.3.2.5.3.3.1.4.2.5.3h.2c0,0,.2.2.4.2.2,0,.4.2.4.2h0s0,0,0,0c.2,0,.3.1.5.2s.3,0,.5.1c0,0-.1.1-.1.2s0,0,0,0h.3s.3,0,.3,0c0,.2.1.3.2.3.1,0,.3,0,.4,0v-.2c.2,0,.4,0,.6,0h.2c-.2-.1-.5-.2-.7-.2,0-.1.1-.2.3-.2.3,0,.7,0,1,0,.3,0,.7,0,1,0,0,0,0,0,0,.1s0,0,0,.1,0,.1,0,.2h0c0,.1,0,.2,0,.2,0,0,0,.1,0,.2h0c-.2,0-.3,0-.4-.1-.1,0-.3-.1-.4-.2l-.2-.2h-.2c0,0,0,0,0,0,0,0,0,.1.2.2.1,0,.2,0,.2,0l.5.3c-.2,0-.3,0-.4,0-.3,0-.6,0-.8,0s-.6,0-.8,0v-.3c0,0-.1.3-.1.3-.3,0-.5,0-.8-.1-.3,0-.5-.1-.8-.1l-.3-.2h0c0-.1.3-.3.3-.3h0c0,0,.1-.3.1-.3h-.3c-.2,0-.2-.1-.3-.1-.1,0-.2,0-.2,0l-.2.2v.3s-.2,0-.4-.1c-.2,0-.4-.2-.4-.2h-.2c0-.1,0-.1,0-.1,0,0,0,0-.1,0,0,0-.1,0-.2-.1h-.2c0,0,0-.1-.1-.1l-.6-.4h0c0,0-.1-.1-.2-.2,0,0,0,0-.1,0h0v-.2c-.2,0-.4-.1-.6-.3-.2-.2-.4-.4-.6-.6-.2-.2-.4-.5-.6-.7-.2-.2-.3-.4-.4-.5h0c0-.1-.1-.2-.3-.4-.1-.1-.2-.2-.2-.3h0s-.1-.2-.1-.2c0,0,0,0,0,0h0s0-.2,0-.2h0s0-.2,0-.2c0,0,0,0-.1-.2s0-.2,0-.2h0c0,0,0-.1,0-.2,0,0-.1-.1-.1-.2v-.3c-.1,0-.2,0-.2,0v-.4h-.2c0,0-.1-.5-.1-.5h0c-.1-.8-.2-1.4-.3-2.1-.1-.6-.2-1.3-.2-2.1s0-1.6.2-2.5c.1-.9.3-1.7.6-2.4h0c0,0,0-.2,0-.2v-.2c.1,0,.2,0,.2-.1s0,0,0,0l.3-.5h0c0-.1,0-.2,0-.2v-.3c0,0,.2,0,.2,0,0-.2.1-.4.3-.6h0c0-.1.1-.2.1-.2v-.2s.1,0,.1,0v-.2s.2,0,.2,0h0c.1-.2.2-.4.4-.5.1-.2.3-.3.4-.3,0,.3-.1.5-.2.7,0,.2-.1.5-.2.7,0,0-.2-.1-.4-.1s-.2,0-.3.1c0,0-.1.2-.1.3,0,0,0,.1,0,.2s0,.1,0,.2l.4.2c0,.1-.2.3-.3.6-.1.3-.2.4-.3.5v.3c0,0-.1,0-.1,0-.2.8-.4,1.6-.6,2.3-.2.7-.3,1.5-.3,2.3h0c-.2.1-.2.2-.2.3h0s0,0,0,0c0,0,0,0,0,0h0c0-.1,0-.1,0-.1ZM66.3,46v.2c0,0,.1-.1.1-.2h0s-.1,0-.1,0ZM67.1,45.6h-.2c0-.1,0-.3,0-.4,0-.1,0-.3,0-.4,0,0,0,.1,0,.2s0,.1,0,.2c0,0,0,.2,0,.2v.2ZM67,46h0c0,0,0,0,0,0h0ZM67.2,44.6h-.2v-.2c0-.3,0-.7.2-1.1h0c0-.2,0-.5.1-.8,0-.4.2-.6.3-.7h0c0-.1,0-.2,0-.3,0,0,0-.2.1-.3h0s.4-.8.4-.8c0,.1,0,.2,0,.2v.2c0,0,0,.1,0,.2,0,.1,0,.2,0,.2l-.2.5h0v.4c0,0-.2.4-.2.4,0,.3-.1.5-.2.8,0,.3,0,.5,0,.8v.2c-.1,0-.2,0-.2,0v.3ZM74.5,56.1h0c0,.1-.2.2-.2.2h0v.2h0s-.2,0-.4,0c-.2,0-.4-.1-.4-.2h-.3c0,0,0-.2,0-.2h-.3c0,0,0-.1,0-.1,0,0-.2,0-.4-.2-.2,0-.3-.2-.5-.3-.2-.1-.4-.2-.5-.3-.2-.1-.3-.2-.3-.3,0,0,0,0-.2,0,0,0-.2-.1-.3-.2-.1,0-.2-.2-.3-.3-.1,0-.2-.2-.2-.2h0c-.1-.1-.2-.2-.3-.3,0-.1-.2-.2-.3-.3h0c-.1-.2-.2-.4-.4-.5-.1-.2-.2-.3-.4-.5v-.2c0,0-.2,0-.2,0h0c0-.2-.1-.3-.2-.5,0-.2-.1-.3-.2-.4v-.2s-.1,0-.1,0h0c0-.1,0-.2,0-.2-.1-.4-.3-.9-.4-1.3-.1-.3-.2-.7-.2-1v-.3l-.2-.2v-.3s.3,0,.3,0c0,.2.1.4.1.6,0,.2,0,.4,0,.6h0v.2h0c0,.3.1.5.2.7,0,.2.1.5.2.7h0s.1.3.1.3v.2h0c0,.1,0,.2.2.4v.3c.1,0,.3.3.3.3,0,0,.1.2.2.2,0,0,0,0,0,.1,0,0,0,0,.1,0h0c0,.2.1.3.3.5.1.2.2.3.3.4,0,.1.1.2.2.2,0,0,.2.1.2.2.1,0,.2.1.3.2,0,.1.2.2.3.2h0c.7.5,1.3.8,1.8,1.1.5.3,1.2.5,2,.7ZM69.4,38.7c0-.2,0-.3.2-.5s.3-.3.6-.5c.2-.2.4-.3.6-.5.2-.1.3-.3.4-.4h.2s.3-.3.3-.3h.1c0,0,.1,0,.2-.1,0,0,.1,0,.2-.1,0,0,.1,0,.2,0,.1,0,.2,0,.2-.1.3,0,.6-.2,1.1-.3.4-.2.7-.2,1-.2h.1c-.5.1-.9.2-1.4.4-.4.2-.8.4-1.2.6s-.7.4-.9.6-.5.3-.6.3v.3c-.1,0-.3,0-.3,0-.1.2-.3.3-.4.5-.1.2-.3.3-.4.4ZM83.2,37.7v-.2s-.2,0-.2,0l-.2-.2h-.2c0-.1,0-.1,0-.1,0,0-.1,0-.3-.2-.2-.1-.3-.2-.3-.3,0,0,.1,0,.2.1,0,0,.1,0,.2.1h.1c-.1,0-.2-.1-.3-.2-.1,0-.2-.1-.3-.2h-.2c0-.1,0-.2,0-.2h-.2s-.1-.1-.1-.1h-.2c0,0-.1-.2-.1-.2-.1,0-.3,0-.4-.1-.1,0-.3-.1-.4-.2h0c0,0-.5-.2-.5-.2h0s-.3,0-.3,0h0s-.2,0-.2,0h0s-.2,0-.2,0c-.4,0-.7,0-1.1-.1-.5-.1-.9-.2-1.3-.2s-1.2,0-1.9.1c-.7,0-1.3.2-1.8.5,0,0,0,0,0,0s0,0,0,0h-.3c0,.1,0,.2,0,.2-.5.2-.8.4-1.1.6-.3.2-.6.4-1,.6h-.1c0,0,0,.2,0,.2-.1,0-.2.1-.3.2,0,.1-.2.2-.3.3,0,0,0,.1-.1.1s0,0,0,0c0-.1,0-.2,0-.3h0c0-.2,0-.2,0-.3v-.2c0,0,.1,0,.1,0h0c0-.1,0-.3,0-.3h0c0-.1.2-.3.2-.3l.3-.2s0,0,0,0h0s0,0,0,0c.1-.1.3-.3.5-.4.3-.1.4-.2.5-.3h.2c0,0,.1,0,.1,0h0c.3-.1.6-.2.9-.4.3-.1.7-.3.9-.4h0s0,0,0,0c0,0,0,0,0,0,.5-.1.9-.2,1.4-.2.5,0,.9,0,1.4,0s1.2,0,1.8,0c.6,0,1.2.2,1.8.3.2.1.4.2.6.2h0s.5.2.5.2v.2s.2-.2.2-.2c.1.1.2.2.4.2h0c0,0,.3.2.3.2l.2.2h.1s.1.2.1.2h.1s0,.2,0,.2h.2c0,.1.1.2.3.2,0,0,0,.1.1.2h.2c.3.4.6.8,1.1,1.2,0,0,0,0,0,.1,0,0,0,0,0,.1,0,0-.2,0-.2,0,0,0-.2,0-.2,0l-.3-.2h0c-.1,0-.2,0-.3-.1,0,0-.2-.1-.3-.2ZM75,34.8h0s0,0,0,0c0,0,.1,0,.1,0h0c0,0,0,0,0,0s0,0,0,.1ZM75.4,57.6h0v-.2c-.1,0-.1,0-.1,0,0,0,0,.1,0,.1ZM77.3,56.5v.2c0,0-.3,0-.3,0-.6,0-1.1,0-1.6-.1v-.2s0-.1,0-.1h.2s1.1,0,1.1,0c0,0,.2,0,.3,0,.2,0,.4,0,.6,0,0,0-.1.2-.2.2h-.2ZM75.4,35v.2h0c0,0,.1,0,.1-.1h-.2ZM79.8,36h-.1c0,0-.2-.1-.5-.2-.3,0-.4,0-.5,0h0c0,0-.2,0-.2,0h-.1s0,0,0,0c-.1,0-.2,0-.2,0-.2,0-.4,0-.6,0-.2,0-.4,0-.6-.1.5,0,1,.1,1.5.1h0c.2,0,.4,0,.7.1.2,0,.5,0,.7.2h.1ZM78,56.4h-.1c0,0,0-.1.2-.1h.2c0,0,0,.1-.2.1ZM78.9,57.3h.3c.3,0,.5-.2.7-.2.1,0,.2-.3.2-.5v-.2c0,0,.1,0,.2,0,0,0,.1,0,.2,0s0,0,0,0h-.2c0,.1,0,.3,0,.3,0,.1.2.2.3.2.2,0,.3,0,.3-.3h.3c.2,0,.3-.2.3-.4v-.4s.4-.2.4-.2c0,0,0,0,.1,0,0,0,.1,0,.1,0h.1s0-.1,0-.1c.1,0,.2-.1.3-.2.1,0,.2-.2.3-.2h.3l.2-.2v-.2h.1s0-.2,0-.2h-.2c0,.1-.3,0-.3,0-.1,0-.2.1-.2.2v.3c0,.1-.2.2-.3.2h0s0,0,0,0h-.1c0,.1-.2.2-.2.2-.2-.1-.4-.2-.6-.2.1,0,.3-.2.4-.2.1,0,.3-.2.4-.2h0c.2-.2.4-.3.5-.5.2-.1.4-.2.6-.3h.3c0,.1.2.2.2.2,0,0,.1.2.2.2,0,0,.1.2.2.3h0c0,.1,0,.2,0,.2-.3.2-.5.4-.7.6-.2.3-.5.4-.8.6h0c0,0-.2.1-.2.1h0c0,.1-.2.2-.2.2h0c0,0-.1.1-.1.1l-.2.2h0c0,0-.1,0-.2,0h-.3c0,0,0,.2,0,.2h-.4c0,.1-.2-.1-.2-.1h0c0,.1,0,.2,0,.3-.4.1-.8.2-1.1.4-.4.1-.8.2-1.2.2,0-.2,0-.3.3-.3ZM80.5,56.2c0,0-.2,0-.2,0,0,0-.2,0-.3,0,0-.1,0-.2,0-.3v-.2h.3s.2-.2.2-.2h.4c0-.2.1-.2.2-.2.1,0,.2,0,.3,0l.4.2h0c-.1.2-.2.2-.3.3,0,0-.2,0-.3.1,0,0-.1,0-.2-.1-.1,0-.2,0-.3-.1-.2,0-.2.2-.3.2,0,0,0,.2,0,.4ZM81.3,36.6c0,0-.2,0-.3-.1h0s-.4-.2-.4-.2h0c0,0-.1,0-.2,0s-.1,0-.1-.2c.1,0,.3,0,.4.1.1,0,.3,0,.4.1l.3.2.2.2c0,0-.1,0-.2,0ZM82.3,55.7c0,0,0,0,.1,0s0,0,0,0l.3-.3h0l.3-.3h0l.2-.2c-.2,0-.4.2-.6.3-.2.2-.4.3-.6.4Z"/>
        <path class="cls-1" d="M90.8,51.2l.2.3v.2h0v.2c0,0,0,.1,0,.2v.2s0,0,0,0v.2c0,0-.3,0-.3,0h0c0,.1,0,.1,0,.1s0,0,0,0h.2v.3c-.1,0-.2,0-.2,0v.2c0,0,0,.1-.1.2,0,0,0,.1-.1.2,0,.2,0,.4-.1.6,0,.2-.2.3-.4.5v.3c0,.1,0,.2-.1.4,0,.1,0,.2-.1.4h0s0,.3,0,.3h0c0,0-.2.5-.2.5h0c0,0,0,0,0,0v.2s-.2.2-.2.2h0s-.2.5-.2.5c-.1,0-.2.2-.2.3h-1.6c0-.1,0-.3.1-.4s.1-.3.1-.4h0s.2-.5.2-.5c0,0,0,0,0-.1l.2-.4h0s.2-.5.2-.5c0,0,0,0,0,0l.2-.5s0,0,0,0,0,0,0,0v-.3c0,0,.1,0,.1,0v-.2s0,0,0,0v-.3c.2,0,.2-.2.4-.5.1-.3.2-.5.2-.6h0c0-.1,0-.2.1-.3,0-.2.2-.3.2-.3,0,0,0,0,0-.2s0-.1,0-.2v-.3c.1,0,.3-.4.3-.4h0c0,.1.2.1.2.1h.1v-.2c0-.2,0-.3.3-.3h0l-2.4,5.8.2-.3v-.2h.1v-.2s.1-.2.1-.2h0c0-.1,0-.2.1-.3,0,0,0-.2,0-.2h0c.1-.2.2-.4.3-.8,0,0,.1-.2.2-.5.1-.3.3-.7.5-1.2.2-.4.3-.9.5-1.2.2-.4.3-.6.3-.7h0c0,0,.1,0,.2,0,0,0,.1,0,.2,0v.3ZM90.3,51.9c0,0,0,.2,0,.2s0,.2,0,.3l-.2.2h0c0,.2,0,.3-.1.4,0,0,0,.2,0,.2h0s0,.3,0,.3h0c-.1.5-.3,1-.5,1.3-.2.4-.4.8-.5,1.2h0c0,.2,0,.4-.2.5,0,.2-.2.3-.2.4h.2c0,0,.6-1.6.6-1.6h0s.2-.6.2-.6h0c0-.1,0-.2.1-.3,0,0,0-.2,0-.3h0c0-.3.1-.5.2-.7.1-.2.2-.4.3-.6h0c0,0,0-.2,0-.2h.1c0-.1,0-.1,0-.1,0,0,0-.1.1-.3,0-.1,0-.2,0-.3h0ZM89.2,52.8h0s0,0-.1,0,0,0,0,0h0s0,0,.1,0c0,0,0,0,0,0ZM90.2,50.6h0c0,0-.1,0-.2,0,0,0-.1,0-.2,0,0-.1,0-.2.1-.3,0-.1.1-.2.2-.3.1,0,.2.2.2.3s0,.2,0,.2ZM91.6,48h.2c0,0,0,.1,0,.2h0v-.2ZM92.9,45.6h.1c0,.2-.1.3-.2.3,0,0-.2.1-.2.2-.1-.1-.3-.2-.4-.2h-.3s0-.1,0-.1h0c0,0,.1-.3.2-.5,0-.3.2-.4.2-.5v-.2s.3-.3.3-.3h.3c0-.1,0,0,0,0h0c0,.2,0,.3-.1.3,0,0,0,.1,0,.2s0,.1,0,.2c0,.1,0,.2,0,.3,0,0,0,.2,0,.2h.2v.2ZM92.4,48.1h-.2c0,0,0,.1,0,.1-.1,0-.2,0-.3-.2h.2c0,0,.1,0,.2,0h.2ZM92.6,44h.2c0,.2,0,.3-.3.3h0c0,0,0-.1,0-.2,0,0,0,0,0-.1ZM93.2,44c0,0-.1.1-.2.1s-.1,0-.2,0c0,0-.1,0-.2,0,0-.1.1-.2.1-.4,0,0,.2.2.4.4ZM93.3,45.6h.2s-.1.3-.1.3h0c-.1.2-.2.3-.2.5h-.2c0,0,0,.2,0,.2,0,.3,0,.5-.2.7h-.2c0-.1,0-.3,0-.3,0,0,0-.1,0-.3s0-.2.2-.2h0,0c.1-.3.2-.5.2-.6,0,0,.1,0,.1-.1h0s.2,0,.2,0h0ZM92.7,47.4h0c0,.1,0,.1,0,.1h0c0-.1,0-.1,0-.1ZM106,56.6l.2.5h0c0,0-.1,0-.1.2,0,0-.1,0-.2,0s-.1,0-.2,0c0,0,0-.1-.1-.2,0,0,0-.1-.1-.2v-.2s-.1,0-.1,0v-.2c-.2,0-.2-.1-.2-.3,0-.1,0-.2-.2-.3v-.3c-.1,0-.2,0-.2,0-.1-.2-.3-.5-.4-.7-.1-.2-.2-.5-.3-.7,0,0,0-.1-.1-.2,0-.1,0-.2,0-.2h0s0-.3,0-.3h0s-.1-.3-.1-.3h0c0,0-.1-.4-.1-.4,0,0,0,0-.1-.2,0,0,0-.2,0-.2s0,0,.2,0,0,0,0-.2,0-.2-.2-.3c0,0-.1,0-.2,0,0,0-.1,0-.2,0-.1-.5-.3-1-.6-1.5v-.2c-.1,0-.1,0-.1,0l-.2-.3c0,0,0-.1,0-.2,0,0,0-.2,0-.2h.2s-.3-.6-.3-.6h0c0,0,0-.1,0-.3-.1-.1-.2-.2-.2-.3h0c0,0,0,0,0,0h0c0,0,0,0,0,0h0c0,0,0,0,0,0v-.4c-.2,0-.2-.1-.3-.3,0-.2-.1-.3-.2-.4h0v-.2h0v-.3c0,0-.1,0-.1,0l-.2-.4h0c0-.1,0-.1,0-.2h0c-.2-.5-.4-1-.7-1.5s-.4-1-.6-1.5h0s-.2-.4-.2-.4h0c0,0,0-.1,0-.2,0,0,0,0,0,0h0s0-.3,0-.3h0s-.2-.3-.2-.3h0c0-.1,0-.1,0-.2h0c0,0,0-.2,0-.3,0-.1,0-.2-.1-.2,0,0,0-.2,0-.2,0,0,0-.2,0-.2h0s-.1-.4-.1-.4h0c0,0,0,0,0,0s0,0,0,0h0s-.5-1.2-.5-1.2h0s-.1-.2-.1-.2h0c0-.1-.2-.5-.2-.5,0,0-.1-.1-.2-.3,0,0,0,.1,0,.2,0,0,0,.2,0,.2h0s0,.2,0,.2h0v.2h-.1v.2h0c0,.2,0,.3-.1.5,0,.1-.1.3-.1.4h0v.2h-.1v.2h0c0,.1-.3.8-.3.8h0v.2s-.1.1-.1.1h0c0,.1-.1.2-.1.2,0,.1,0,.3-.2.5,0,.2-.1.4-.2.4h0c0,0,0,.2,0,.2,0,0,0,.1-.1.3,0,.2-.1.3-.2.3h0c-.1.3-.2.5-.3.7,0,.2-.2.4-.3.6-.1-.3-.2-.6-.2-.9,0-.3-.2-.6-.4-.8v-.4l.4-1h0c0,0,.2-.7.2-.7h0c0-.1,0-.2.1-.3,0,0,0-.2.1-.2h0c0-.1,0-.2,0-.4,0-.1.1-.3.2-.4,0-.2.1-.3.2-.5,0-.2.1-.3.2-.3h0c0,0,0-.2,0-.2,0,0,0-.1,0-.2,0-.1,0-.2.1-.3h0v-.2s.1,0,.1,0v-.2c0,0,.1-.1.2-.3s0-.3.1-.3c0,0,0,0,0,.2h0c0,.2,0,.3,0,.3,0,.3,0,.6,0,.9,0,.3,0,.6,0,.9h0c0,0,.1,0,.1-.1h0s0,.2,0,.2c.1,0,.2-.1.2-.2-.1-.4-.2-.9-.2-1.4v-.3c0,0,0,0,0,0v-.5c.1,0,.1-.4.1-.4h0c0-.2,0-.3,0-.5s0-.2,0-.3c0,0,0-.2,0-.2,0,0,0,0,0,0,0,0,0,0,.2-.1,0,0,0-.2,0-.2,0,0,0-.2,0-.3,0,0,.1,0,.1-.1,0,0,0,0,0,0s0,0,0,0l.3-.9h0c0,.1,0,.2,0,.4,0,.2.1.3.2.5,0,.2.2.3.2.5,0,.2.1.3.2.3,0,0,0,0,0,0h0c0,0,0,0,0,0v.2s0,0,0,0c0,0,0,0,0,0h0c0,.2.1.4.2.5h0c0,0,0,.1.1.2h0c.1.1.2.2.2.2s0,0,0,0v.2c0,0,0,0,0,0,.2.4.3.7.4,1.1.1.4.3.7.4,1.1,0,.1,0,.2.1.2v.2c0,0,0,.1,0,.2h0s0,.2,0,.2h0c.1.3.2.5.2.6,0,.2.1.4.2.6h0s0,.3,0,.3h0s0,.2,0,.2c0,0,0,.1,0,.2h0c.1.3.2.6.3.9,0,.3.2.5.3.8h0s0,.3,0,.3h0v.2s0,.1.2.4c0,.3.1.4.2.5h0c.3.6.5,1.2.7,1.8s.4,1.1.6,1.7c0,0,0,0,0,.1l.4.8h-.2c0,.2.1.5.2.8.1.3.3.6.4,1,.1.3.3.6.4.9.1.3.2.4.2.5h0c0,0,.1.3.1.3h0s.3.8.3.8c0,0,0,0,0,0h0c0,.2.1.3.2.5,0,.2.2.4.3.5h-.2s0,.3,0,.3h0c0,0,.1,0,.1-.1h0s0,.2,0,.2v-.2c-.1-.3-.3-.6-.5-1-.2-.4-.3-.7-.3-1.1h0c0,0,0-.4,0-.4h0c0,0,0-.2-.2-.4,0-.2-.2-.4-.2-.7,0-.2-.2-.4-.2-.6,0-.2,0-.3,0-.3v.3c.1,0,.2,0,.2,0v.2c.1,0,.2,0,.2,0v.3c0,0,.1,0,.1,0l.3.8h0s0,.2,0,.2h0s0,.2,0,.2h0c0,0,.1.3.1.3h0s0,0,0,0c0,0,0,0,0,0v.3c0,0,.1,0,.1,0,.1.3.2.6.4.8.1.3.2.5.2.8h0c0,0,0,0,0,0,0,0,0,0,0,0v.4c0,0,.1,0,.1,0,0,.2,0,.4.2.7.1.3.2.5.3.7h0c0,0,0,0,0,0h0ZM97.2,36.8h.3v-.3c0,0-.2,0-.2,0h0s0-.1,0-.2c0,0,0,0-.1,0h0c-.1.1-.2.3-.2.6l.3.6c0-.1,0-.2,0-.2,0,0,0-.1.1-.2ZM98.6,40.8h.2c0,0-.2,0-.2,0h0ZM99,40.4c-.1,0-.2,0-.2.2h0c0,.1.1.1.1.1,0,0,0,0,.1,0,0,0,0,0,0,0,0-.1,0-.2-.2-.2ZM99.2,41.3h0s-.3,0-.3,0v.2c.2,0,.3,0,.3,0ZM99.3,42.5h.3v-.2h-.1c-.1,0-.2,0-.2.2h0ZM100.3,44.1h0c0,0,0,0,0,0h0ZM102.4,50.1h.3c-.1-.1-.2-.2-.3-.2h0s0,.2,0,.2ZM105.1,54.9h0s0-.1,0-.1c0,0,0,0,0,0h0Z"/>
        <path class="cls-1" d="M112.6,36.5h-.1c0,0,0-.1,0-.2h0s.2.1.2.1v-.5h0c0,0,0,0-.1,0v.2l-.3-.2h0v.4h.3c0,.5,0,1.2,0,2.2,0,1,0,2.1,0,3.4s0,2.8,0,4.4c0,1.6,0,3.2,0,4.8v4.7c0,1.5,0-1.1,0,0,0,1.2,0,.2,0,1,0,.8,0,1.2-.1,1.4,0,0,0-.4-.1-.9,0-.5,0,.8,0,0v-2.2c0-.9,0-.6,0-1.3,0-.7,0-1.1,0-1.4,0-2.1,0-4.1,0-6.1,0-2,0-4,0-6.1s0-1.3,0-1.9c0-.4,0-.7,0-1.1v-.7c-.3-.1-.5-.2-.8-.2h-.1c-.4,0-.7,0-.9,0-1,0-1.9,0-2.9,0-1,0-1.9,0-2.9,0v-.5s0,0,0,0c0-.1,0-.3,0-.4,1.6.2,3.2.2,4.9.2s1.3,0,1.9,0c1.4,0,2.7,0,4.1,0s1.8,0,2.7,0h0c-.7,0-1.5,0-2.2,0-.7,0-1.5,0-2.2,0h-.6c-.2,0-.4,0-.5,0,0,0,0,0,.2.1.1,0,.2,0,.4,0h6.3c-.2-.1-.3-.2-.5-.2s-.2,0-.3,0c.2,0,.3,0,.5,0h2.2c0,0,0,0,0,.1,0,0,0,0,0,.1h0s0-.2,0-.2h-.3.2s0,.2,0,.2v.2s0,0,0,0c0,0-.2,0-.4.1s-.5,0-.7,0-.5,0-.8,0-.4,0-.5,0c-.9,0-1.8,0-2.6,0-.6,0-1.2,0-1.7,0h-.9c0,.2,0,.3,0,.5s0,.1,0,.2v9.9c0,2.7,0,5.4,0,8.1,0,2.6,0-.7,0,2.1s0,.4,0,.6h0c0,.3,0,.5,0,.6,0-.2-.1-.4-.1-.5s0,0,0-.1v-.6c0-5.8,0-5.6-.2-11.5,0,.5-.1.9-.1,1.4v.4c0,.7,0,1.3,0,1.9v8.3s0,.7,0,.7h-.1c0,0-.1,0-.2,0,0,0-.1,0-.1-.1v-4.7c0-3.5,0-7.1,0-10.7v-3.3c0-.7,0-1.3,0-1.9,0-.6,0-1,0-1.1ZM113.5,36.1l-.4.4h.5v-.4Z"/>
        <path class="cls-1" d="M124.6,36.8l.3.2c0,.2-.1.3-.1.5l-.2.2c0,0,0-.2,0-.2,0,0,0-.2,0-.2s0-.1,0-.2c0,0,0-.1,0-.2ZM124.5,35.1h1.5v.2c0,.9.1,1.8.1,2.7s0,2,0,3c-.2,1.9-.2,3.9-.2,5.8s0,.6,0,.9c0,.2,0,.3,0,.4s0,.3,0,.5c-.1-.6-.2-1.3-.2-2s0-.2,0-.2v-2.7h0c0-.1.1-.2.1-.3h0c0-.1-.1-.3-.2-.7s0-.9,0-1.4,0-1,0-1.5c0-.5,0-.8,0-1,0-.3,0-.4.2-.5,0,0,0,0,0-.1,0,0,0,0,0-.1,0-.3,0-.5,0-.8,0,0,0-.2,0-.3,0-.2,0-.4,0-.5,0,0,0-.2,0-.4,0-.2,0-.4-.2-.4,0,0,0,0-.1,0-.1,0-.2,0-.2.2h-.2l-.3.3v-1ZM125.3,38.6h.2v4.4c0,.2,0,.2-.2.2,0,.2,0,.3,0,.4s0,.2.2.3v14.2c.1-1,.2,0,.2-1v-1.3c0-.8,0,.4,0-.4s0-1.3,0-1.9l.2-4.3h0c0,1.1,0,2.3,0,3.5v4.1c0,.8,0-1.4,0-.5,0,.8,0-.4,0,.4,0,.7-.1,1.2-.2,1.4v.2c0,.2,0,.2-.1.2h-.3c0-.5-.1-1-.2-1.5,0-.5-.1,1-.1.5,0-3.3,0-2.6-.1-5.9,0-3.3-.1-6.6-.1-10v-.5s0,0,0,0c0-.1,0-.2,0-.3h0c0-.1-.1-.2-.1-.2v-.2c0-.2,0-.3,0-.4,0,0,0-.1,0-.1,0,0,0,0,0,0,0,0,0,0,0-.1s0,0,0,0c0,0,0,0,0-.1h-.2c0-.2,0-.3,0-.5,0-.1,0-.3,0-.4,0-.2,0-.3,0-.4,0,0,.1,0,.2,0,0,0,0,0,.1,0,0,0,.2,0,.2.2v.2s.2.2.2.2ZM125.2,36.9l.2-.2c0,.1,0,.2,0,.3,0,0,0,.2,0,.3l-.2-.5Z"/>
        <path class="cls-1" d="M130.6,44.7v.2c0,.1,0,.2,0,.2s0,.1-.1.2h.2c0,.1.1.3.1.3,0,0-.1.2-.2.3,0,.1-.2.2-.3.2l-.3-.3c0-.2,0-.3,0-.5v-.2c0,0,0-.1,0-.2,0-.2,0-.3,0-.5l.3-.2h0s.2-.1.2-.1h0s-.1.2-.1.2v.2ZM130.9,48.2h-.2c0,0-.1.1-.2.2,0,0,0,.1-.2.1h-.2v-.2c-.1,0-.1,0-.1,0,0,0,0,0,.1,0h.2-.3c0-.2,0-.2.2-.2h.2l.3-.3v-.3c0,0-.1,0-.2-.1,0,0,0,0,0,0s0,0,0,0h-.2v-.6l.2-.2h0c0-.4.2-.6.4-.7h0c0-.1.3-.1.3-.1h0c0,.2,0,.4-.3.4,0,.1-.1.3-.1.4h-.2v.2c0,.3.1.4.4.4v.2h.1c.1,0,.2,0,.2,0h0c0,.4,0,.7.1,1.1,0,.3.1.6.2,1,0,0,0,0,0,0,0,0,0,0,0,.1,0,0,0,.1,0,.2s0,.2,0,.2h0c0,0,0,.1,0,.2s0,.2,0,.2c0,0,0,0,0,0h0c0,0-.1-.1-.2-.1,0,0-.1,0-.2.2,0,0,0,.1.1.3,0,0,.1,0,.2,0h0c0,0,0,0,0,0h0c.2.3.4.6.6,1,.2.4.3.7.5,1.1.2.4.4.7.7,1,.3.3.6.6.9.8h.1c0,.1.1.2.1.2,0,0,0,.1.1.1h.1c0,.1.2.2.2.2h.2c0,.1,0,.2,0,.2h.2c0,0,0,.1,0,.1,0,0,.1,0,.2,0h.2c0,0,0,.1.2.2.1,0,.2,0,.2,0h0s.3.1.3.1h0c.1.1.2.2.3.2s.2,0,.3,0c0,0,0,0,.2,0,.1,0,.2,0,.3,0s.2,0,.3,0c.1,0,.2,0,.2,0h0c.3,0,.7.1,1,.2s.6,0,1,0,.7,0,1.1,0,.7,0,1.1-.2h0s.1,0,.1,0c.1,0,.2,0,.4,0,.2,0,.4-.1.6-.2.2,0,.4-.2.7-.3.2-.1.4-.2.6-.2h0c.2-.1.4-.2.6-.4.2-.2.4-.3.5-.5h.1l.2-.2c.1-.1.3-.3.4-.5.2-.2.3-.3.4-.5.1-.1.2-.2.2-.2h0c.1-.1.2-.2.2-.3s.1-.2.2-.2v-.2s0,0,0,0h0c0-.1.1-.2.1-.2,0-.1.1-.2.2-.4,0-.2.1-.3.1-.3h0s.2-.3.2-.3h0c0-.1.2-.5.2-.5h0c.1-.5.3-1,.5-1.6.2-.5.2-.9.2-1.3v-.2h0c0-.3,0-.5,0-.6,0-.2,0-.4,0-.6s0-.1,0-.2v.4s0-.3,0-.3c0,0,0-.2,0-.3h-.2c-.1-.7-.2-1.3-.4-2-.1-.6-.3-1.3-.5-1.9-.1-.3-.2-.6-.4-.8-.1-.3-.2-.6-.3-.8,0,0,0,0-.1-.2,0-.1,0-.2,0-.2-.1-.1-.2-.2-.2-.3h-.1s0-.2,0-.2c0,0,0,0,0,0h0c0,0-.2-.2-.4-.5-.2-.3-.5-.6-.7-.9-.3-.3-.5-.6-.8-.8-.2-.2-.4-.3-.5-.3h0c-.1-.1-.2-.2-.3-.2h0c-.1-.2-.3-.2-.4-.3h0c0,0-.1,0-.1,0h0c0,0-.2-.1-.2-.1h0c0,0-.1,0-.1,0h0c-.2-.1-.4-.2-.6-.2-.2,0-.4-.1-.6-.2h0c-.4,0-.7-.1-1-.2-.3,0-.7,0-1-.1,0-.1,0-.2,0-.2h0c0-.1,0-.2-.1-.4,0,0,0-.2,0-.3h0c0-.2,0-.4,0-.5l1.6.2h.1c0,0,0,.2,0,.2,0,0,.1,0,.2,0s0,0,.1,0c.3,0,.6,0,.8.2h0c0,0,0,0,.1,0,0,0,0,0,.1,0,0,0,.1,0,.2,0h0s.5.2.5.2h0s.3.2.3.2h0c.3.2.6.3,1,.6.4.2.8.5,1.1.8.4.3.7.6,1,.9.3.3.5.6.7.9h0c.1.1.2.2.2.3,0,.1.1.2.2.4h0s.1.2.1.2c0,.2.2.5.3.7.1.3.3.5.4.7h0c0,0,0,0,0,0,0,.2.1.4.2.6,0,.3.2.6.2.9,0,.3.1.6.2.9,0,.3,0,.5,0,.6h0v.4c0,.2,0,.4,0,.6,0,.2,0,.3,0,.5s0,.4,0,.5v-.4s-.1.5-.1.5h.2c0,.3,0,.5.1.7,0,.2,0,.5,0,.7,0,.8,0,1.5-.2,2.2h0s0,.3,0,.3h0c0,.1,0,.3-.2.6,0,.3-.2.5-.3.8,0,.3-.2.5-.3.7-.1.2-.2.4-.2.4v.2c0,0-.2,0-.2,0v.2c-.2,0-.3.1-.3.3,0,.1-.1.2-.2.3,0,0,0,0,0,0,0,0,0,0,0,0-.2.3-.5.6-.7.9-.3.3-.5.5-.8.8h0c0,.1-.1.1-.1.1l-.4.3-.4.3h-.2c0,.1-.2.2-.4.3-.2.1-.4.2-.4.2,0,0-.1-.1-.2-.2,0,0-.1-.1-.2-.1-.2,0-.3,0-.3.2,0,.1,0,.3,0,.4-.3.1-.6.3-1.1.4s-.9.2-1.1.2-.1,0-.1,0,0,0,0-.1l-.2-.2-.2.2v.2h-.4c0,0,0,0-.1,0-.1,0-.2,0-.3,0-.1,0-.2,0-.3,0,0,0-.2,0-.3,0-.2,0-.5,0-.7,0-.3,0-.5,0-.7,0h0c-.7,0-1.5-.2-2.2-.5h0c0,0-.2-.1-.2-.1h0c0,0-.2,0-.2,0,0,0-.2-.1-.4-.2-.2-.1-.4-.2-.5-.2s-.1,0-.2,0,0,0-.1,0h0c-.6-.4-1-.7-1.4-1.1s-.7-.7-1-1.1c-.3-.4-.5-.8-.8-1.2-.3-.4-.5-.9-.8-1.5h0c0,0,0,0,0-.1h0s0,0,0,0l-.2-.3h0c0,0,0,0,0,0,0-.2,0-.3-.1-.4,0-.1,0-.3-.1-.4,0,0,0,0,.1,0s0,0,.1,0c0,0,.1,0,.2,0h0c0,0-.1-.1-.2-.1h-.2c0,0-.1,0-.2,0,0-.1,0-.2-.1-.4,0-.1,0-.2,0-.4h0s.2-.2.2-.2v-.2s0-.2,0-.2c0,0,.1,0,.2-.2.1-.1.2-.2.3-.2ZM130.4,43.9h0c0,0,0,.1,0,.2s0,0,0,0c0,0-.1,0-.2.1,0,0-.1,0-.2,0v-.2c0,0,0-.1,0-.2h0s0-.2,0-.2h0c0-.2,0-.3,0-.4,0,0,0-.2,0-.3.1.1.2.3.3.4,0,.2.2.3.3.4,0,0,0,.1-.2.1s0,0,0,0c-.1,0-.2,0-.3,0ZM130.5,47.3h0c0,0,0,.1,0,.1h0c0,0,0,0,0,0h0s0,0,0,0ZM130.6,48.7v.2c0,0,0,0,0,0h0c0-.1,0-.2,0-.2ZM130.7,49.7h-.2s0,0,.1,0h0s0,0,0,0h0ZM130.7,47.3h0c.1,0,.2,0,.2,0h-.2c0,0-.1,0-.1,0ZM131.7,43.6l-.4-.8-.2-.2c0-.2,0-.3-.2-.4h-.1c0,0,0-.3,0-.3l-.2-.4h0c0-.1,0-.2,0-.3,0-.1,0-.2.2-.4s.1-.3.2-.4c0-.1,0-.2.1-.3l.2.2v-.2c.1,0,.1,0,.1,0,0,0,0,0,0-.1,0,0-.1,0-.2,0,0-.1.1-.3.3-.6.1-.3.3-.4.4-.5h0c.5-.9,1.1-1.5,1.7-2.1h0c.1-.1.3-.3.5-.4.2-.1.4-.3.5-.4h0c0,0,.2-.1.4-.3.2-.1.3-.2.4-.2s0,0,.1,0c0,0,0,0,.1,0l.2-.2v-.2c1.3-.6,2.7-.9,4.1-.9v.3c.1.1.2.2.2.4h0c0,.1,0,.2,0,.2,0,.2,0,.3,0,.4l-2.5.4h0c0,0-.2,0-.4,0h0s0,0,0,0l-.3.2h0c0,0-.1,0-.2.1,0,0-.1,0-.2,0h0c0,.1-.2.2-.2.2h0c0,0-.2.1-.2.1,0,0-.1.1-.2.1s-.1,0-.3.2c-.2.1-.2.2-.2.2h-.1c0,.1,0,.2-.1.2h-.1c0,.1,0,.1,0,.1l-.2.2h0c-.8.8-1.5,1.7-2,2.5-.5.9-.8,1.9-1.1,3.1ZM131,49.1h-.2s.1.2.1.2c0,0,.1,0,.1-.2h0ZM131.2,50.4h0v-.2s-.3,0-.3,0c0,.2.1.2.3.2ZM131.3,48v-.2h0c-.1,0-.2,0-.2.1s0,.1.1.1,0,0,0,0c0,0,0,0,0,0ZM131.2,51.9h0s.3,0,.3,0h0c0-.1,0-.2-.2-.3,0,.2,0,.2,0,.3ZM131.7,50.1s0,0,0,0c0,0,0,0,0,0h0v-.2h0c0,0-.1,0-.1.1ZM131.8,40s0,0,.1,0c0,0,.1,0,.1,0h0s0,0,0,0c-.1,0-.2,0-.2,0ZM133,54h0c0,.1.1.1.2.2h.2v-.3c0,0,0,0-.2,0-.2,0-.2,0-.2.2ZM133.7,53.6v.2c-.1,0,0,.2,0,.2l.2-.2-.2-.2ZM134.8,36.6h0s.4,0,.4,0h0c0-.2,0-.3-.2-.3-.1,0-.2.1-.2.3ZM136.3,56.4h0c0,.1,0,.2,0,.2h.1c0-.1,0-.2,0-.2h0ZM141.6,35.7h0s0-.1,0-.1c0,0,0-.1,0-.1h0c0,.2,0,.2,0,.2ZM144.4,56.7s0,0,0-.2c0-.2,0-.2-.2-.2h0v.2c0,.2,0,.2.2.3ZM144.7,56.4h0c0-.1,0-.2,0-.2,0,0,0,0,0,0h0s0,0,0,.2,0,.2.2.2Z"/>
        <path class="cls-1" d="M155.9,34.8c0,.2-.1.6-.1,1.1,0,.5,0,1.1,0,1.7s0,1.2,0,1.7c0,.6,0,1,0,1.3v.5c0,.2,0,.3-.1.5,0,0,0,.2.1.5v.2c0,.2,0,.2-.2.2h.2v.5c-.2.1-.3.2-.4.2v-.9h0c0,0,0,0,0-.1,0,0,0-.1,0-.2,0-.1,0-.2,0-.3,0-.2,0-.3,0-.5,0-.2,0-.3,0-.5,0-1,0-1.9,0-2.9v-.6c0-.8,0-1.6,0-2.3h.3c0,0,.1,0,.1,0s0-.1,0-.2l.2.2h.5c.3.3.5.7.7,1,.2.4.5.7.8,1,0,0,0,0,0,.1h0c0,0,.2.2.3.4.1.2.2.3.2.3h0c0,0,.2.2.3.3.1.2.2.3.2.3h0c.2.2.3.3.5.6.2.2.3.4.4.6v.2s.1,0,.1,0l.3.5h.2c0,.1,0,.3,0,.3h.1s0,.2,0,.2h0s0,0,0,0h0c0,.1.2.2.3.4v.2c.1,0,.2,0,.2,0s0,0,0,0c.3.4.5.7.8,1.1.3.4.5.7.8,1.1,0,0,0,0,0,0h0c0,0,0,0,0,.1,0,0,.2.2.3.3.1.2.2.3.2.3h0s.1.2.1.2h0c0,0,0,0,0,0,.2.3.4.7.7,1,.3.4.5.7.8,1,0,0,0,0,0,.1h0c.2.2.4.5.6.8.2.3.3.6.6.8h0c0,.1,0,.2,0,.2v.2c0,0,.1.1.3.3.1.2.3.4.4.6.2.2.3.4.4.6.1.2.2.3.3.4,0,0,0,.1.2.2,0,0,0,.1,0,.2h0s.1.2.1.2c0,0,0,0,0,0s0,0-.1,0c0,0-.1-.2-.2-.3,0-.1-.1-.2-.2-.2h0c0-.1-.2-.2-.2-.2h0c0-.1-.1-.2-.3-.4-.2-.2-.2-.3-.2-.4h-.1c0,0,0-.1,0-.1,0,0,0,0,0,0,0,0,0,0,0,0h0c-.2-.2-.4-.5-.5-.7-.1-.2-.3-.5-.5-.7,0,0,0,0-.2-.2,0,0-.1-.1-.1-.2h0s-.2-.2-.2-.2h0c0-.1,0-.2-.2-.2,0,0-.1-.1-.1-.2h0c0,0-.2-.2-.3-.5-.2-.2-.3-.4-.3-.4h-.1v-.2h0c0-.2-.1-.2-.2-.3s-.1-.2-.2-.2c0,0,0-.1,0-.2h-.2v-.2c0,0-.1-.1-.2-.2,0,0-.1-.2-.2-.3-.1-.1-.2-.3-.2-.4-.1-.1-.3-.3-.4-.5-.2-.2-.3-.3-.3-.5h0c0,0-.1-.2-.1-.2v-.2c-.1,0-.2,0-.2,0s0,0,0,0h-.1v-.2c-.1-.2-.3-.3-.4-.5-.1-.2-.3-.3-.4-.4h0c-.1-.3-.2-.4-.3-.5-.2-.2-.3-.3-.3-.3-.1-.1-.3-.3-.4-.5-.1-.2-.3-.3-.4-.5h0c0,0-.1-.2-.1-.2h0c-.1-.2-.3-.4-.4-.6s-.3-.4-.4-.5h0c0-.1-.2-.3-.2-.3h0c-.1-.3-.2-.4-.3-.5-.2-.2-.3-.3-.3-.3h-.1v-.2c-.1,0-.2-.2-.3-.4-.1-.2-.2-.3-.3-.4h0c-.2-.2-.3-.4-.4-.6-.1-.2-.2-.4-.4-.5h0c0,0,0,0,0-.1,0,0,0,0,0,0h0c0,0-.2-.2-.3-.4-.1-.2-.2-.2-.2-.2h0ZM155.4,43.4h.4c0,1.2,0,2.2,0,3.3,0,1.1,0,2.1,0,3.2h0c0,0-.1,0-.2-.2,0-.1,0-.3,0-.5,0,0,0-.2,0-.2s0-.2,0-.3v-.3c0-.8,0-1.6,0-2.5v-2.5ZM155.5,50.3h0c0,0,0,0,.1.2,0,.1,0,.2,0,.4v3.6c0,.6,0,1.2,0,1.7,0,.5,0,.8,0,1h0c0,0,0,0,0-.2v-3.5s0-.6,0-.6c0-.3,0-.4.2-.5-.1-.1-.2-.3-.2-.5,0-.2,0-.3,0-.5v-.6c0-.1,0-.2,0-.4,0-.1,0-.2,0-.2ZM167.8,51.1v.2c0,0,0,.3,0,.3-.1.1-.2.3-.2.5,0,0,0,0,0,0s0,0,0,0v.3c0,0,0-.1,0-.1h-.1c0-.1,0-.2,0-.2s0,0-.2,0v-.2s-.1,0-.1,0c-.1-.2-.2-.4-.4-.6-.2-.2-.3-.4-.4-.6h0s0-.2,0-.2h-.1c0,0,0-.2-.2-.2s-.2-.2-.2-.3c0,0-.1-.1-.2-.2s-.1-.2-.2-.2v-.2c0,0-.2,0-.2,0v-.2s-.2,0-.2,0c0-.1-.1-.3-.3-.5-.1-.2-.2-.3-.3-.5h0s0-.2,0-.2h-.2c0,0,0-.2,0-.2h0c0,0,0-.2-.2-.3,0-.1-.2-.2-.2-.3,0-.1-.2-.2-.2-.3h-.1c0-.1,0-.2,0-.2h-.2c0,0,0-.2,0-.2h0c0-.2-.2-.3-.3-.5-.2-.1-.3-.3-.3-.4,0,0,0,0,0-.1s0,0,0,0h0c0-.1-.1-.2-.1-.2v-.2c0,0-.2,0-.2-.2s-.2-.2-.2-.3-.2-.2-.2-.3v-.2c-.1,0-.2-.1-.2-.1h0c0-.2-.1-.4-.3-.5-.1-.1-.2-.3-.3-.4,0,0,0,0,0,0h0c0,0,0,0,0,0h0c0-.1-.1-.2-.1-.2h0c0-.1-.1-.2-.1-.2,0-.2-.1-.3-.3-.5-.1-.1-.2-.3-.3-.4,0-.1,0-.2,0-.2h0c0-.1-.2-.2-.2-.2h0c0-.1,0-.2,0-.2,0,0,0-.1-.2-.2s-.2-.2-.2-.3c0-.1-.2-.2-.2-.3h-.1c0-.1,0-.2,0-.2h0c0-.2-.2-.3-.4-.6-.2-.3-.3-.4-.4-.5v-.2s-.2,0-.2,0h0c0-.1,0-.2,0-.2,0,0-.1-.2-.3-.4-.2-.2-.3-.4-.3-.4v.2c0,.3,0,.6,0,.8,0,.3,0,.5,0,.8h-.2c0,0-.1.3-.1.3,0,.1.1.2.2.4h0v1.3l-.3-.2h0c0,0,0,0,0,0h0c0,0-.1,0-.2,0s-.1,0-.2,0c0,0-.1-.1-.2-.1v-4.6c0-.1,0-.2-.1-.3h0c0,0,0-.1,0-.1h0s0,0,0,0,0,0,0-.1v-.4c0,0,0-.1,0-.2s0-.1,0-.2h.2c0,0,.2.2.3.3s.2.3.2.4h.2c0,0,0,.2.2.5.2.2.3.5.5.7.2.3.4.5.6.7.2.2.3.4.3.5l.3.4v.2s.2,0,.2,0c0,0,0,0,0,.2s0,.1.1.1h0c0,.1.2.2.2.2h0c0,.1,0,.2,0,.2.2.3.4.7.6,1,.3.3.5.6.7.9h0c0,0,0,.2,0,.2h.1c0,.1,0,.2,0,.2,0,0,0,.1.1.1v.2s.2,0,.2,0v.2c0,0,.2,0,.2,0,.2.3.4.7.6,1,.3.3.5.6.7.9h0s0,.2,0,.2h.2c0,.1,0,.2,0,.2,0,0,0,.1.1.1h0c0,.1.1.2.1.2h0c0,.1.1.2.1.2,0,0,0,.1.2.3,0,.1.1.2.2.2,0,.2.2.4.4.7s.4.5.5.7h.1s0,.2,0,.2h.1v.2l.2.2v.2s.2,0,.2,0v.2s.1,0,.1,0c0,0,0,.1.2.3,0,.1.2.2.2.2,0,.2.2.5.4.7.2.3.4.5.5.7h0s0,.2,0,.2c0,0,0,0,0,0h0c0,0,.2.3.2.3h0c0,.1.1.2.1.2v.2c0,0,.2,0,.2,0ZM155.9,43v-.9l.3.3h.1c0,0,.5-.1.5-.1v.6c0,0-.1,0-.2,0,0,0-.1,0-.2,0,0,0-.1.1-.2.2,0,0-.1,0-.2,0h-.1ZM156.6,43.1h0c0,.2,0,.2,0,.3s.1.1.1.2v.7c0,0,0,.1,0,.1s0,0-.1,0c-.1,0-.2,0-.3.2-.1,0-.2.2-.2.3s0,.2,0,.2c0,0,0,.2,0,.2l.5.4c0,0,0,.1,0,.2s0,0,0,0c0,0,0,0,0,0h0c0,.2,0,.3,0,.4v4.5c0,.8,0,1.5,0,2.3,0,.8,0,1.5,0,2.3v.9c0,.2,0,.4,0,.5,0,.2,0,.2-.1.2,0-.2,0-.4-.1-.7,0-.3,0-.6,0-.9v-1.6c0-.2,0-.3,0-.6,0-.2,0-.5,0-.8,0-.3,0-.5,0-.7s0-.4,0-.5c0-.4-.1-.7-.1-1.1v-3.8c-.1.6-.2,1.3-.2,2.1,0,.4,0,.9,0,1.3s0,.9,0,1.3c0,.9,0,1.8,0,2.6,0,.8,0,1.6,0,2.2s0,.3,0,.5v.2c0,.1,0,.3,0,.4,0,.1,0,.2,0,.2h-.2c0,0-.1,0-.1-.3v-6.6c0-.1,0-.2,0-.2h0s0,0,0,0,0,0,0,0v-.2c0,0,0-.1,0-.1h0c0,0,0,0-.1,0v-.5c0-.3,0-.4.1-.5,0-.2-.1-.3-.1-.5v-4.3c0,0,0-.1,0-.1h0c0,0,.1.1.2.1.2,0,.3,0,.3-.3l-.2-.3h-.3v-.2h.1c0-.1.5-.1.5-.1ZM156.2,36.5v.5c.1.1.2.2.3.3,0,.1.1.2.3.3v-1l-.3-.5h-.1c0,.1,0,.2,0,.3ZM156.7,40.9l-.2.2v.2c0,0,0-.1,0-.2,0-.1,0-.2,0-.2ZM158.1,39.4c0,0,0-.1,0-.2h0s-.2,0-.2,0h0c0,.2,0,.2,0,.2ZM158.4,38.9v.2h0c0,0,.1,0,.1-.2,0,0,0,0,0,0s0,0,0,0h0ZM167.5,51.2h0s0,0,0,0h0c0-.1,0-.2,0-.2,0,0,0,0,0,.1ZM167.6,51.4c0,0,0-.1-.1-.1,0,0,0,.1.1.1ZM168.6,53.7h.1c0,0,0,.1,0,.1,0,0-.1,0-.1-.1ZM169.2,54.5l-.2-.2s0,0,0,0c0,0,.1,0,.1.2h0ZM169.8,55.3l-.2-.2h.3s0,.2,0,.2ZM171.3,56h-.2c0,0,0,0,0,0,0-.1,0-.2-.1-.3s-.1-.1-.2-.3c0,0,.1,0,.2.1,0,0,0,0,0,0s0,0,0,0l.2.2v-.4c0,0,0-.1,0-.2,0,0,0-.1-.1-.2h0c0-.1,0-.1,0-.2,0,0,0-.1,0-.1v-.3c0,.1.1.2.2.3s.1.2.2.4v-.3c0,0,0,.5,0,.5.1.2.2.3.3.3v-1.4c0,0,.2,0,.2,0h.3l-.5-.2c0-.1,0-.2,0-.3s0-.2,0-.2c0-.2,0-.3,0-.5v-.2c.2-.2.3-.4.6-.5h-.3s0,.2,0,.2l-.3.2h0c0-.1,0-.2,0-.3h0c0,0,0-.1,0-.2,0,0,.2,0,.2-.1,0,0,.1-.1.1-.2,0-.2,0-.2,0-.3v-.2c-.1,0,0,0,0,0,0,0,0,0,0,0,0,0-.1,0-.1,0v-.6l.2-.2v-.2c0-.1,0-.2,0-.3h0c0-.2.2-.3.3-.3v-.2s.1.2.1.2c0,.1,0,.2,0,.3,0,0,0,.2,0,.3l-.2.2h0c0,.2,0,.3.1.4,0,0,.2.1.3.2,0,0,0,.1,0,.2s0,.2,0,.2,0,.1,0,.2c0,.1,0,.2-.1.3,0,.2.1.4.1.6s0,.5,0,.8v.8h-.2.1v.2h.1v3h-.2c-.1,0-.2,0-.3,0s-.2,0-.3,0h0c0,0-.2,0-.2,0,0,0-.1-.2-.2-.2,0,0-.1-.2-.2-.2,0,0,0-.1,0-.2s0-.1,0-.2c0-.1-.1-.2-.1-.3v-.2h.3c0,0,0-.2,0-.2ZM171.3,47.2h0v.7c0,.3,0,.5,0,.7,0-.2,0-.4,0-.6s0-.1,0-.2v-.7ZM171.3,50.1v-1.3h0v1.3h0ZM171.3,53.5h0s0,.3,0,.3c0,0,0,0,0-.2v-.2ZM171.4,55.6v.3c0,0,0,.1.1.2,0,0,0,.1.1.2v-.4c0,0-.1-.1-.3-.3ZM171.4,56.6v.4s.2-.2.2-.2l-.2-.3ZM171.4,42.3v-1.9h0v1.9h0ZM171.6,35.2h0s-.1,0-.1,0c0,.2,0,.4,0,.6v.6c0-.2,0-.3,0-.5h0c0-.3,0-.5,0-.7h0c0,0,.1,0,.2,0,0,0,0,0,0,0s0,0,0,0v-.2c.2,0,.2.1.2.2v.2c0,.3,0,.6,0,.9s0,.6,0,.9,0,.2,0,.2h0s0,0,0,0c0,0,0,.1.2.1v.7c0,.6,0,1.2,0,1.8s0,1.4,0,2c0,1.2.1,2.5.1,3.8s0,.2,0,.3h0c0,.1,0,.2,0,.3l-.2-.3v-.2c0,0,0-.1,0-.1,0,0,0,0,0-.1s0,0-.1,0v-.2s-.2-.1-.2-.1v-.2s-.2,0-.2,0c0,0,0-.5,0-1.1v-2.2c0-.8,0-1.6,0-2.3,0-.7,0-1.2,0-1.3,0,.1-.1.2-.1.3s0,0,0,.1v.2c0,.1,0,.2,0,.3,0-.1,0-.3,0-.4v-.4c0-.5,0-1,0-1.6,0-.5,0-1.1,0-1.6,0,0,0,0,.1,0ZM171.4,39.3h0s0,0,0,0h0c0,0,0,0,0,0,0,0,0,0,0,0h0ZM171.6,47.6h0c0,0,.1,0,.1,0l.3.5c.1,0,.2,0,.2.1h0c0,0,0,0,0,0s0,0,0,0-.1,0-.2,0-.1,0-.2,0c0,0,0-.1,0-.2s0-.1,0-.2c0,0,0-.2,0-.3ZM171.6,48.4v-.2h.2c0,.1-.2.2-.2.2ZM171.8,48.9v.3c0,.1,0,.3-.1.4h.2c0,.1.1.3.1.3,0,.2-.1.3-.3.4v-1.6h.3s0,0,0,.1,0,.1,0,.2ZM171.8,51.7h0c-.1,0-.2,0-.2,0h0s0,0,0,0c0,0,.1,0,.1.1ZM171.9,52.9h0c0,.2,0,.2.1.2h0c0,0,0-.1,0-.2ZM171.8,57.5h0s.1,0,.2-.1h-.1c0,0-.1,0-.1.1ZM171.9,51.5h0c.1,0,.2,0,.2-.1h-.2c0,0-.1,0-.1.1ZM172.1,44.8h0s0,0,0,0c.1,0,.2,0,.2-.1h-.2s0,0,0,0ZM172.2,53.6c0,0,0-.1,0-.2h0s-.2-.1-.2-.1h0c0,.2,0,.3.1.3ZM172.2,57.3h0c0,0,.1,0,.1,0,0,0-.1,0-.2,0Z"/>
      </g>
      <g>
        <path class="cls-1" d="M9.8,23.1l.2.3v.2h0v.2c0,0,0,.1,0,.2v.2s0,0,0,0v.2c0,0-.3,0-.3,0h0c0,.1,0,.1,0,.1s0,0,0,0h.2v.3c-.1,0-.2,0-.2,0v.2c0,0,0,.1-.1.2,0,0,0,.1-.1.2,0,.2,0,.4-.1.6,0,.2-.2.3-.4.5v.3c0,.1,0,.2-.1.4,0,.1,0,.2-.1.4h0s0,.3,0,.3h0c0,0-.2.5-.2.5h0c0,0,0,0,0,0v.2s-.2.2-.2.2h0s-.2.5-.2.5c-.1,0-.2.2-.2.3h-1.6c0-.1,0-.3.1-.4,0-.1.1-.3.1-.4h0s.2-.5.2-.5c0,0,0,0,0-.1l.2-.4h0s.2-.5.2-.5c0,0,0,0,0,0l.2-.5s0,0,0,0,0,0,0,0v-.3c0,0,.1,0,.1,0v-.2s0,0,0,0v-.3c.2,0,.2-.2.4-.5.1-.3.2-.5.2-.6h0c0-.1,0-.2.1-.3,0-.2.2-.3.2-.3,0,0,0,0,0-.2s0-.1,0-.2v-.3c.1,0,.3-.4.3-.4h0c0,.1.2.1.2.1h.1v-.2c0-.2,0-.3.3-.3h0l-2.4,5.8.2-.3v-.2h.1v-.2s.1-.2.1-.2h0c0-.1,0-.2.1-.3,0,0,0-.2,0-.2h0c.1-.2.2-.4.3-.8,0,0,.1-.2.2-.5.1-.3.3-.7.5-1.2.2-.4.3-.9.5-1.2.2-.4.3-.6.3-.7h0c0,0,.1,0,.2,0,0,0,.1,0,.2,0v.3ZM9.4,23.8c0,0,0,.2,0,.2,0,0,0,.2,0,.3l-.2.2h0c0,.2,0,.3-.1.4,0,0,0,.2,0,.2h0s0,.3,0,.3h0c-.1.5-.3,1-.5,1.3-.2.4-.4.8-.5,1.2h0c0,.2,0,.4-.2.5,0,.2-.2.3-.2.4h.2c0,0,.6-1.6.6-1.6h0s.2-.6.2-.6h0c0-.1,0-.2.1-.3,0,0,0-.2,0-.3h0c0-.3.1-.5.2-.7.1-.2.2-.4.3-.6h0c0,0,0-.2,0-.2h.1c0-.1,0-.1,0-.1,0,0,0-.1.1-.3,0-.1,0-.2,0-.3h0ZM8.3,24.7h0s0,0-.1,0c0,0,0,0,0,0h0s0,0,.1,0c0,0,0,0,0,0ZM9.3,22.5h0c0,0-.1,0-.2,0s-.1,0-.2,0c0-.1,0-.2.1-.3,0-.1.1-.2.2-.3.1,0,.2.2.2.3s0,.2,0,.2ZM10.6,19.8h.2c0,0,0,.1,0,.2h0v-.2ZM11.9,17.5h.1c0,.2-.1.3-.2.3,0,0-.2.1-.2.2-.1-.1-.3-.2-.4-.2h-.3s0-.1,0-.1h0c0,0,.1-.3.2-.5,0-.3.2-.4.2-.5v-.2s.3-.3.3-.3h.3c0-.1,0,0,0,0h0c0,.2,0,.3-.1.3,0,0,0,.1,0,.2s0,.1,0,.2c0,.1,0,.2,0,.3,0,0,0,.2,0,.2h.2v.2ZM11.5,20h-.2c0,0,0,.1,0,.1-.1,0-.2,0-.3-.2h.2c0,0,.1,0,.2,0h.2ZM11.6,15.9h.2c0,.2,0,.3-.3.3h0c0,0,0-.1,0-.2,0,0,0,0,0-.1ZM12.2,15.8c0,0-.1.1-.2.1s-.1,0-.2,0c0,0-.1,0-.2,0,0-.1.1-.2.1-.4,0,0,.2.2.4.4ZM12.4,17.5h.2s-.1.3-.1.3h0c-.1.2-.2.3-.2.5h-.2c0,0,0,.2,0,.2,0,.3,0,.5-.2.7h-.2c0-.1,0-.3,0-.3,0,0,0-.1,0-.3s0-.2.2-.2h0,0c.1-.3.2-.5.2-.6,0,0,.1,0,.1-.1h0s.2,0,.2,0h0ZM11.8,19.3h0c0,.1,0,.1,0,.1h0c0-.1,0-.1,0-.1ZM25,28.5l.2.5h0c0,0-.1,0-.1.2,0,0-.1,0-.2,0s-.1,0-.2,0c0,0,0-.1-.1-.2,0,0,0-.1-.1-.2v-.2s-.1,0-.1,0v-.2c-.2,0-.2-.1-.2-.3,0-.1,0-.2-.2-.3v-.3c-.1,0-.2,0-.2,0-.1-.2-.3-.5-.4-.7-.1-.2-.2-.5-.3-.7,0,0,0-.1-.1-.2,0-.1,0-.2,0-.2h0s0-.3,0-.3h0s-.1-.3-.1-.3h0c0,0-.1-.4-.1-.4,0,0,0,0-.1-.2,0,0,0-.2,0-.2s0,0,.2,0,0,0,0-.2,0-.2-.2-.3c0,0-.1,0-.2,0,0,0-.1,0-.2,0-.1-.5-.3-1-.6-1.5v-.2c-.1,0-.1,0-.1,0l-.2-.3c0,0,0-.1,0-.2,0,0,0-.2,0-.2h.2s-.3-.6-.3-.6h0c0,0,0-.1,0-.3-.1-.1-.2-.2-.2-.3h0c0,0,0,0,0,0h0c0,0,0,0,0,0h0c0,0,0,0,0,0v-.4c-.2,0-.2-.1-.3-.3,0-.2-.1-.3-.2-.4h0v-.2h0v-.3c0,0-.1,0-.1,0l-.2-.4h0c0-.1,0-.1,0-.2h0c-.2-.5-.4-1-.7-1.5s-.4-1-.6-1.5h0s-.2-.4-.2-.4h0c0,0,0-.1,0-.2,0,0,0,0,0,0h0s0-.3,0-.3h0s-.2-.3-.2-.3h0c0-.1,0-.1,0-.2h0c0,0,0-.2,0-.3,0-.1,0-.2-.1-.2,0,0,0-.2,0-.2,0,0,0-.2,0-.2h0s-.1-.4-.1-.4h0c0,0,0,0,0,0s0,0,0,0h0s-.5-1.2-.5-1.2h0s-.1-.2-.1-.2h0c0-.1-.2-.5-.2-.5,0,0-.1-.1-.2-.3,0,0,0,.1,0,.2,0,0,0,.2,0,.2h0s0,.2,0,.2h0v.2h-.1v.2h0c0,.2,0,.3-.1.5,0,.1-.1.3-.1.4h0v.2h-.1v.2h0c0,.1-.3.8-.3.8h0v.2s-.1.1-.1.1h0c0,.1-.1.2-.1.2,0,.1,0,.3-.2.5,0,.2-.1.4-.2.4h0c0,0,0,.2,0,.2,0,0,0,.1-.1.3,0,.2-.1.3-.2.3h0c-.1.3-.2.5-.3.7,0,.2-.2.4-.3.6-.1-.3-.2-.6-.2-.9,0-.3-.2-.6-.4-.8v-.4l.4-.9h0c0,0,.2-.7.2-.7h0c0-.1,0-.2.1-.3,0,0,0-.2.1-.2h0c0-.1,0-.2,0-.4,0-.1.1-.3.2-.4,0-.2.1-.3.2-.5,0-.2.1-.3.2-.3h0c0,0,0-.2,0-.2,0,0,0-.1,0-.2,0-.1,0-.2.1-.3h0v-.2s.1,0,.1,0v-.2c0,0,.1-.1.2-.3,0-.2,0-.3.1-.3,0,0,0,0,0,.2h0c0,.2,0,.3,0,.3,0,.3,0,.6,0,.9,0,.3,0,.6,0,.9h0c0,0,.1,0,.1-.1h0s0,.2,0,.2c.1,0,.2-.1.2-.2-.1-.4-.2-.9-.2-1.4v-.3c0,0,0,0,0,0v-.5c.1,0,.1-.4.1-.4h0c0-.2,0-.3,0-.5s0-.2,0-.3c0,0,0-.2,0-.2,0,0,0,0,0,0,0,0,0,0,.2-.1,0,0,0-.2,0-.2,0,0,0-.2,0-.3,0,0,.1,0,.1-.1,0,0,0,0,0,0s0,0,0,0l.3-.9h0c0,.1,0,.2,0,.4,0,.2.1.3.2.5,0,.2.2.3.2.5,0,.2.1.3.2.3,0,0,0,0,0,0h0c0,0,0,0,0,0v.2s0,0,0,0c0,0,0,0,0,0h0c0,.2.1.4.2.5h0c0,0,0,.1.1.2h0c.1.1.2.2.2.2s0,0,0,0v.2c0,0,0,0,0,0,.2.4.3.7.4,1.1.1.4.3.7.4,1.1,0,.1,0,.2.1.2v.2c0,0,0,.1,0,.2h0s0,.2,0,.2h0c.1.3.2.5.2.6,0,.2.1.4.2.6h0s0,.3,0,.3h0s0,.2,0,.2c0,0,0,.1,0,.2h0c.1.3.2.6.3.9,0,.3.2.5.3.8h0s0,.3,0,.3h0v.2s0,.1.2.4c0,.3.1.4.2.5h0c.3.6.5,1.2.7,1.8.2.6.4,1.1.6,1.7,0,0,0,0,0,.1l.4.8h-.2c0,.2.1.5.2.8.1.3.3.6.4,1,.1.3.3.6.4.9.1.3.2.4.2.5h0c0,0,.1.3.1.3h0s.3.8.3.8c0,0,0,0,0,0h0c0,.2.1.3.2.5,0,.2.2.4.3.5h-.2s0,.3,0,.3h0c0,0,.1,0,.1-.1h0s0,.2,0,.2v-.2c-.1-.3-.3-.6-.5-1-.2-.4-.3-.7-.3-1.1h0c0,0,0-.4,0-.4h0c0,0,0-.2-.2-.4s-.2-.4-.2-.7c0-.2-.2-.4-.2-.6,0-.2,0-.3,0-.3v.3c.1,0,.2,0,.2,0v.2c.1,0,.2,0,.2,0v.3c0,0,.1,0,.1,0l.3.8h0s0,.2,0,.2h0s0,.2,0,.2h0c0,0,.1.3.1.3h0s0,0,0,0c0,0,0,0,0,0v.3c0,0,.1,0,.1,0,.1.3.2.6.4.8.1.3.2.5.2.8h0c0,0,0,0,0,0,0,0,0,0,0,0v.4c0,0,.1,0,.1,0,0,.2,0,.4.2.7.1.3.2.5.3.7h0c0,0,0,0,0,0h0ZM16.3,8.7h.3v-.3c0,0-.2,0-.2,0h0c0,0,0-.1,0-.2,0,0,0,0-.1,0h0c-.1.1-.2.3-.2.6l.3.6c0-.1,0-.2,0-.2,0,0,0-.1.1-.2ZM17.7,12.7h.2c0,0-.2,0-.2,0h0ZM18.1,12.3c-.1,0-.2,0-.2.2h0c0,.1.1.1.1.1,0,0,0,0,.1,0,0,0,0,0,0,0,0-.1,0-.2-.2-.2ZM18.2,13.2h0s-.3,0-.3,0v.2c.2,0,.3,0,.3,0ZM18.4,14.4h.3v-.2h-.1c-.1,0-.2,0-.2.2h0ZM19.3,16h0c0,0,0,0,0,0h0ZM21.4,22h.3c-.1-.1-.2-.2-.3-.2h0s0,.2,0,.2ZM24.2,26.8h0s0-.1,0-.1c0,0,0,0,0,0h0Z"/>
        <path class="cls-1" d="M37.8,6.8v.7c0,0,0,.1,0,.2,0,.2,0,.4,0,.6-.4,0-.8,0-1.2-.1-.4,0-.8,0-1.2,0h-.3s0,0,0,0c-.1,0-.2,0-.2,0s0-.1,0-.2h0c0,0,0,0-.1,0h0s0,0,0,.1,0,.2,0,.2h0c-.6,0-1.1,0-1.5,0s-.9,0-1.3,0c-.4,0-.9,0-1.3,0-.2,0-.5,0-.7,0s-.5,0-.8,0h0c-.2,0-.4.1-.6.1s0,0-.1,0h-.8v-1.5c.5,0,1,0,1.4,0s.7,0,1.1,0c.3,0,.7,0,1.1,0,.4,0,.8,0,1.4,0h2.7c.9,0,1.8,0,2.6.2ZM29,8.1v-.4s-.4.4-.4.4h.4ZM42.2,13.8c0,0,0,.1,0,.3,0,.1,0,.3,0,.4,0,.2,0,.3,0,.4,0,.1,0,.2,0,.3h0s0,.3,0,.3c0,0,0,0,0,0h0c0,.2-.2.3-.2.4,0,0-.2.2-.2.3-.1,0-.2.1-.2.2,0,0-.1.2-.2.2h-.2c0,0-.2.3-.2.3h0c0,0,0,0,0,0v.2c-.1,0-.2.1-.3.2-.1,0-.2.1-.2.2h-.2s0,.2,0,.2h-.1c0,.1-.2.2-.3.2-.1,0-.2,0-.4.1h-.2c0,0-.2.2-.2.2-.2.1-.4.2-.6.2-.2,0-.4.1-.6.2h0s-.3,0-.3,0h0c-.2,0-.3.1-.4.1s-.3,0-.4,0c0,0,0,0,0,0s0,0,0,0c0,0,0,.1.1.2h0c0,.1.2.3.2.3h0c0,.1.2.3.2.3h0c0,.1.5.7.5.7h0c.2.3.4.5.6.8.2.3.3.5.6.7,0,0-.2-.1-.3-.3-.2-.2-.4-.4-.6-.7-.2-.3-.4-.5-.6-.8-.2-.3-.4-.4-.5-.5h0c0-.1-.3-.5-.3-.5h0c0-.1,0-.2,0-.2v-.2c-.1,0-.1.2-.1.2h-.2c.1.2.3.4.4.6.2.2.3.3.4.5,0,0,.1,0,.1.1h0s.2.2.2.2h0c.3.3.4.5.5.7h.2c0,0,0,.2,0,.2.2.2.4.4.6.6.2.2.4.4.6.6v.3c0,0,0,0,0,.1,0,0,0,0,0,0s0,0,0,0l.3.4v.3c0,.1,0,.2,0,.3s0,0,0,0c0,0-.1,0-.2-.2,0-.1-.1-.2-.2-.2-.3-.3-.5-.6-.8-.9-.3-.3-.5-.6-.8-.9h0c-.1-.2-.3-.4-.5-.6-.2-.3-.4-.5-.7-.8-.2-.3-.4-.5-.6-.8-.2-.2-.3-.4-.4-.5,0,0,0,0-.2-.1-.2,0-.3,0-.5,0-.2,0-.4,0-.6,0h-.4c-.4,0-.7,0-1,0-.3,0-.7,0-1,0,0,.4-.1.9-.1,1.4s0,.5,0,.7c0,.4,0,.8,0,1.2s0,.6,0,.9c0,.2,0,.2-.1.2,0,0,0,.3,0,.6v1.3c0,.5,0,.9,0,1.3,0,.4,0,.7,0,.8s0,.5,0,.8v.2c0,.2,0,.4,0,.6,0,0,0-.2,0-.3,0-.2,0-.3,0-.5,0-.2,0-.4,0-.6,0-.2,0-.3,0-.4,0-1,0-2,0-3,0-1,0-2,0-3s0-.7,0-1.1v-.2c0-.3,0-.6-.1-.8,0,.2-.1.5-.1.7s0,0,0,.1v.8c0,.1,0,.2-.2.3.1,0,.2.1.2.3v.5c0,.2,0,.3-.1.4.1.4.2.9.2,1.5s0,1.2,0,1.8c0,.6,0,1.2,0,1.8v.5c0,.4,0,.8,0,1.2,0,0-.1,0-.2,0,0,0-.2,0-.2,0h-.4c0-.3,0-.7,0-1s0-.7,0-1c0-.6,0-1.3,0-1.9v-.3c.1,0,.2.2.2.4v2.1c0,.6,0,1.1,0,1.6h.2c0,.1.1,0,.1,0,0-.6,0-1.1,0-1.7v-.4c0-.7,0-1.4,0-2.1v-1c0-.3,0-.6,0-1,0,0,.1-.2.2-.3h0c0,0-.1-.4-.1-.4,0-.1,0-.2,0-.3,0-.1,0-.3,0-.4s0-.4,0-.7c0-.3,0-.7,0-1s0-.6,0-.9c0-.3,0-.5,0-.6v.2c-.1,1-.2,1.9-.2,2.9v3.2c0,0,0,.1-.1.2,0-.1,0-.3,0-.7,0-.4,0-.8,0-1.3v-2.2h0c0-.2,0-.4,0-.6v-2h1s0,.2,0,.2c0,0,.1,0,.2,0s.1,0,.2.1h0c0,0,.1,0,.1.2h0c0,.1.2-.1.2-.1l.2-.2h.2c.3,0,.6,0,.9-.1.3,0,.6,0,.9,0,.7,0,1.4,0,2.1,0,.7,0,1.4-.2,2.1-.4.1,0,.4-.2.7-.3.4-.2.6-.3.7-.4,0,0,.1,0,.2-.2,0,0,.2-.1.2-.1,0,0,.1-.2.3-.3h0c0-.1,0-.2,0-.2h.1c.1,0,.2-.2.2-.3.2-.2.3-.4.5-.7.1-.3.2-.6.3-.8h.3s0,0,0,0c0,0,.2,0,.3-.1ZM30.4,20.5h0c0,0,0-.1-.1-.1s0,0,0,0c0,0,0,0,.2,0h0ZM31.1,18.7v-.2c0,0,0,.5,0,.5v-.3ZM31.5,19v-.4c0,.1-.2.2-.2.2,0,0-.1,0-.1.2h0s.4,0,.4,0ZM36.5,7.8h0c0-.1-.1-.1-.1-.1,0,0,0,.1.1.1ZM38.1,8.4c.5.1,1,.3,1.6.6.6.3,1,.6,1.3,1.1,0,0,0,.1.1.2,0,0,0,.1.1.2v.2c.1,0,.2.2.2.3s0,.2.2.3h0c0-.2,0-.3,0-.3,0,0,0-.1-.1-.2.1,0,.2-.1.2-.2,0-.1,0-.2,0-.3s0-.1,0-.2c0-.1,0-.3,0-.5s0-.3-.2-.5h.2s-.2-.2-.2-.2h-.2c0,0-.1,0-.2,0h-.1c-.1,0-.2,0-.2-.1v-.2s-.3-.2-.3-.2v-.3c-.6-.4-1.4-.7-2.3-.8,0,.3,0,.5,0,.7s0,.5,0,.7ZM38.6,17.6c0,.2,0,.3.2.5,0,0,0-.2,0-.2,0,0,0-.2-.1-.2ZM38.8,22.9h0c0,0,0,.1.2.1h0c0,0,0-.1-.1-.1ZM39.1,22l.2.2h0s0,0,0,0h0ZM40.3,24.9c0,0,0,0,0-.1s0,0,0,0c0,0,0-.1,0-.2h0s-.2,0-.2,0l.2-.3c-.1,0-.2,0-.3,0,0,0-.2,0-.3,0h0c0,0,0,0,0,.2l.3.2v.2c.1.1.2.2.3.3,0,0,.2.2.2.3h.3c0-.3,0-.4,0-.5,0,0,0,0-.1,0,0,0-.1,0-.1,0s0,0,0,0c0,0,0,0,0,0s0,0,0,0ZM39.9,16.7c0,.2.1.3.3.5,0-.1,0-.2,0-.3,0,0,0-.1-.2-.2ZM40.7,9.5h0c0,0,0,.1,0,.1,0,0,0,0,0,0s0,0,0,0ZM41.4,25.6h-.2s-.2,0-.2,0c0-.1,0-.2-.2-.2h-.2c0,.2.2.3.3.5.2.2.3.3.5.4,0,0,0,0,0,0,0,0,0,0,0,0,0,0,0-.1,0-.2,0,0,0-.1,0-.2s0-.1,0-.2c0,0,0-.1,0-.2ZM41.1,8.8h0c0,0,0,0,0,0,0,0,0,0,0,.1h0ZM41.6,16.5v-.5c0,0-.3.3-.3.3.1,0,.2,0,.2.1,0,0,0,.1.1.1ZM41.7,11.7h0c0,.1,0,.2,0,.2v-.2ZM41.7,12.2v.8h.3s0-.2,0-.2v-.2h0c0-.3,0-.3-.1-.3ZM43,27l.2.2c-.1,0-.2-.1-.3-.3,0-.1-.2-.2-.3-.2,0,0,0,.1,0,.2,0,.1,0,.2,0,.3s0,.1,0,.3c0,.1.1.2.2.3l.3.2v.2c.1,0,.2.1.3.3,0,0,.1.1.2.2,0,0,.1.1.2.2.2,0,.3-.1.5-.1,0,0,.1.2.1.2h0s.2.2.2.2v-.2s.2,0,.2,0h0c0-.2,0-.3-.3-.3,0-.1-.1-.2-.2-.3,0,0-.1-.2-.2-.3l-.2-.2h0c-.1-.2-.2-.3-.3-.4,0-.1-.2-.3-.3-.4h-.1ZM42.9,10.8v-.3c0,.2,0,.5,0,.8s0,.6,0,.8v.3c0,0,0,0,0,0s0,0,0,0v.2s0,.2,0,.2h0c0,.1,0,.2,0,.3s0,.2,0,.2,0,.2,0,.2,0,.1,0,.2c.1-.2.2-.4.2-.6v-.7c0-.2,0-.4,0-.7,0-.2,0-.4,0-.6h0s0-.5,0-.5h0ZM43.4,28h0c0,0,0-.1.1-.1h0c0,0-.1.1-.2.1Z"/>
        <path class="cls-1" d="M54.3,25.4c0-3.5,0-7.1,0-10.7v-3.3c0-.7,0-1.3,0-1.9,0-.6,0-1,0-1.1h-.1c0,0,0-.1,0-.2h0s.2.1.2.1v-.5h0c0,0,0,0-.1,0v.2l-.3-.2h0v.4h.3c0,.5,0,1.2,0,2.2,0,1,0,2.1,0,3.4s0,2.8,0,4.4c0,1.6,0,3.2,0,4.8v4.7c0,1.5,0,1.7,0,2.9M54.8,17.5c0,.5-.1.9-.1,1.4v.4c0,.7,0,1.3,0,1.9v9.7M53.9,30.6v-2.5c0-.9,0-1.6,0-2.3,0-.7,0-1.1,0-1.4,0-2.1,0-4.1,0-6.1,0-2,0-4,0-6.1s0-1.3,0-1.9c0-.4,0-.7,0-1.1v-.7c-.3-.1-.5-.2-.8-.2h-.1c-.4,0-.7,0-.9,0-1,0-1.9,0-2.9,0-1,0-1.9,0-2.9,0v-.5s0,0,0,0c0-.1,0-.3,0-.4,1.6.2,3.2.2,4.9.2s1.3,0,1.9,0c1.4,0,2.7,0,4.1,0s1.8,0,2.7,0h0c-.7,0-1.5,0-2.2,0-.7,0-1.5,0-2.2,0h-.6c-.2,0-.4,0-.5,0,0,0,0,0,.2.1.1,0,.2,0,.4,0h6.3c-.2-.1-.3-.2-.5-.2s-.2,0-.3,0c.2,0,.3,0,.5,0h2.2c0,0,0,0,0,.1,0,0,0,0,0,.1h0s0-.2,0-.2h-.3.2s0,.2,0,.2v.2s0,0,0,0c0,0-.2,0-.4.1s-.5,0-.7,0-.5,0-.8,0c-.2,0-.4,0-.5,0-.9,0-1.8,0-2.6,0-.6,0-1.2,0-1.7,0h-.9c0,.2,0,.3,0,.5s0,.1,0,.2v9.9c0,2.7,0,5.4,0,8.1M55.1,7.9l-.4.4h.5v-.4Z"/>
      </g>
    </g>
  </g>
</svg>